<svg xmlns="http://www.w3.org/2000/svg" xmlns:xlink="http://www.w3.org/1999/xlink" width="500" zoomAndPan="magnify" viewBox="0 0 375 374.999991" height="500" preserveAspectRatio="xMidYMid meet" version="1.0"><defs><g/><clipPath id="a349253f5e"><path d="M 125.710938 123.191406 L 248.710938 123.191406 L 248.710938 246.191406 L 125.710938 246.191406 Z M 125.710938 123.191406 " clip-rule="nonzero"/></clipPath><clipPath id="5c82a59b25"><path d="M 159.835938 143 L 214.585938 143 L 214.585938 227.578125 L 159.835938 227.578125 Z M 159.835938 143 " clip-rule="nonzero"/></clipPath><clipPath id="5a63fd8b8e"><path d="M 97.410156 178.066406 L 117.660156 178.066406 L 117.660156 198.316406 L 97.410156 198.316406 Z M 97.410156 178.066406 " clip-rule="nonzero"/></clipPath><clipPath id="d88444374e"><path d="M 125.875 189.972656 L 146.125 189.972656 L 146.125 210.222656 L 125.875 210.222656 Z M 125.875 189.972656 " clip-rule="nonzero"/></clipPath><clipPath id="9d8569d698"><path d="M 253.519531 176.578125 L 273.769531 176.578125 L 273.769531 196.828125 L 253.519531 196.828125 Z M 253.519531 176.578125 " clip-rule="nonzero"/></clipPath></defs><g clip-path="url(#a349253f5e)"><path fill="#ffffff" d="M 248.710938 184.691406 C 248.710938 186.703125 248.613281 188.714844 248.417969 190.71875 C 248.21875 192.722656 247.921875 194.710938 247.53125 196.6875 C 247.136719 198.664062 246.648438 200.613281 246.0625 202.542969 C 245.480469 204.46875 244.800781 206.363281 244.03125 208.226562 C 243.261719 210.085938 242.398438 211.902344 241.449219 213.679688 C 240.5 215.457031 239.46875 217.183594 238.347656 218.855469 C 237.230469 220.53125 236.03125 222.148438 234.753906 223.703125 C 233.476562 225.261719 232.125 226.753906 230.699219 228.175781 C 229.273438 229.601562 227.785156 230.953125 226.226562 232.230469 C 224.671875 233.507812 223.054688 234.707031 221.378906 235.824219 C 219.707031 236.945312 217.980469 237.976562 216.203125 238.929688 C 214.425781 239.878906 212.609375 240.738281 210.746094 241.507812 C 208.886719 242.277344 206.992188 242.957031 205.066406 243.542969 C 203.136719 244.125 201.1875 244.613281 199.210938 245.007812 C 197.234375 245.402344 195.246094 245.695312 193.242188 245.894531 C 191.234375 246.089844 189.226562 246.191406 187.210938 246.191406 C 185.199219 246.191406 183.1875 246.089844 181.183594 245.894531 C 179.179688 245.695312 177.191406 245.402344 175.214844 245.007812 C 173.238281 244.613281 171.289062 244.125 169.359375 243.542969 C 167.433594 242.957031 165.539062 242.277344 163.675781 241.507812 C 161.816406 240.738281 159.996094 239.878906 158.222656 238.929688 C 156.445312 237.976562 154.71875 236.945312 153.046875 235.824219 C 151.371094 234.707031 149.753906 233.507812 148.199219 232.230469 C 146.640625 230.953125 145.148438 229.601562 143.726562 228.175781 C 142.300781 226.753906 140.949219 225.261719 139.671875 223.703125 C 138.394531 222.148438 137.195312 220.53125 136.078125 218.855469 C 134.957031 217.183594 133.925781 215.457031 132.972656 213.679688 C 132.023438 211.902344 131.164062 210.085938 130.394531 208.226562 C 129.625 206.363281 128.945312 204.46875 128.359375 202.542969 C 127.777344 200.613281 127.289062 198.664062 126.894531 196.6875 C 126.5 194.710938 126.207031 192.722656 126.007812 190.71875 C 125.8125 188.714844 125.710938 186.703125 125.710938 184.691406 C 125.710938 182.675781 125.8125 180.667969 126.007812 178.660156 C 126.207031 176.65625 126.5 174.667969 126.894531 172.691406 C 127.289062 170.714844 127.777344 168.765625 128.359375 166.835938 C 128.945312 164.910156 129.625 163.015625 130.394531 161.15625 C 131.164062 159.292969 132.023438 157.476562 132.972656 155.699219 C 133.925781 153.921875 134.957031 152.195312 136.078125 150.523438 C 137.195312 148.847656 138.394531 147.230469 139.671875 145.675781 C 140.949219 144.117188 142.300781 142.625 143.726562 141.203125 C 145.148438 139.777344 146.640625 138.425781 148.199219 137.148438 C 149.753906 135.871094 151.371094 134.671875 153.046875 133.554688 C 154.71875 132.433594 156.445312 131.402344 158.222656 130.453125 C 159.996094 129.503906 161.816406 128.640625 163.675781 127.871094 C 165.539062 127.101562 167.433594 126.421875 169.359375 125.835938 C 171.289062 125.253906 173.238281 124.765625 175.214844 124.371094 C 177.191406 123.976562 179.179688 123.683594 181.183594 123.484375 C 183.1875 123.289062 185.199219 123.191406 187.210938 123.191406 C 189.226562 123.191406 191.234375 123.289062 193.242188 123.484375 C 195.246094 123.683594 197.234375 123.976562 199.210938 124.371094 C 201.1875 124.765625 203.136719 125.253906 205.066406 125.835938 C 206.992188 126.421875 208.886719 127.101562 210.746094 127.871094 C 212.609375 128.640625 214.425781 129.503906 216.203125 130.453125 C 217.980469 131.402344 219.707031 132.433594 221.378906 133.554688 C 223.054688 134.671875 224.671875 135.871094 226.226562 137.148438 C 227.785156 138.425781 229.273438 139.777344 230.699219 141.203125 C 232.125 142.625 233.476562 144.117188 234.753906 145.675781 C 236.03125 147.230469 237.230469 148.847656 238.347656 150.523438 C 239.46875 152.195312 240.5 153.921875 241.449219 155.699219 C 242.398438 157.476562 243.261719 159.292969 244.03125 161.15625 C 244.800781 163.015625 245.480469 164.910156 246.0625 166.835938 C 246.648438 168.765625 247.136719 170.714844 247.53125 172.691406 C 247.921875 174.667969 248.21875 176.65625 248.417969 178.660156 C 248.613281 180.667969 248.710938 182.675781 248.710938 184.691406 Z M 248.710938 184.691406 " fill-opacity="1" fill-rule="nonzero"/></g><path fill="#ffffff" d="M 178.460938 147.773438 C 176.484375 147.773438 174.59375 148.625 173.285156 150.109375 C 170.535156 153.21875 171.398438 153.902344 174.777344 181.046875 C 189.445312 181.046875 193.351562 181.046875 199.953125 181.046875 C 204.5625 143.945312 207.828125 147.773438 178.460938 147.773438 " fill-opacity="1" fill-rule="nonzero"/><path fill="#ffffff" d="M 192.46875 194.03125 L 192.46875 185.675781 L 182.261719 185.675781 L 182.261719 194.03125 L 192.46875 194.03125 " fill-opacity="1" fill-rule="nonzero"/><path fill="#ffffff" d="M 167.652344 216.414062 L 164.488281 219.578125 L 164.488281 222.917969 L 210.238281 222.917969 L 210.238281 219.578125 L 207.074219 216.414062 L 167.652344 216.414062 " fill-opacity="1" fill-rule="nonzero"/><path fill="#ffffff" d="M 205.722656 204.941406 L 192.917969 198.65625 L 181.808594 198.65625 L 169.003906 204.941406 L 169.003906 211.789062 L 205.722656 211.789062 L 205.722656 204.941406 " fill-opacity="1" fill-rule="nonzero"/><g clip-path="url(#5c82a59b25)"><path fill="#1c2c4d" d="M 210.238281 222.917969 L 164.488281 222.917969 L 164.488281 219.578125 L 167.652344 216.414062 L 207.074219 216.414062 L 210.238281 219.578125 Z M 169.003906 204.941406 L 181.808594 198.65625 L 192.917969 198.65625 L 205.722656 204.941406 L 205.722656 211.789062 L 169.003906 211.789062 Z M 192.46875 185.675781 L 192.46875 194.03125 L 182.261719 194.03125 L 182.261719 185.675781 Z M 174.777344 181.046875 C 171.398438 153.902344 170.535156 153.21875 173.285156 150.109375 C 174.59375 148.625 176.484375 147.773438 178.460938 147.773438 C 207.828125 147.773438 204.5625 143.945312 199.953125 181.046875 C 193.351562 181.046875 189.445312 181.046875 174.777344 181.046875 Z M 214.863281 217.660156 L 210.347656 213.144531 L 210.347656 202.058594 L 197.097656 195.554688 L 197.097656 185.675781 L 204.039062 185.675781 L 207.714844 156.109375 C 208.125 152.828125 207.105469 149.527344 204.917969 147.050781 C 200.496094 142.042969 196.394531 143.148438 178.460938 143.148438 C 171.523438 143.148438 166.15625 149.230469 167.007812 156.109375 L 170.6875 185.675781 L 177.632812 185.675781 L 177.632812 195.554688 L 164.378906 202.058594 L 164.378906 213.144531 L 159.863281 217.660156 L 159.863281 227.546875 L 214.863281 227.546875 L 214.863281 217.660156 " fill-opacity="1" fill-rule="nonzero"/></g><g clip-path="url(#5a63fd8b8e)"><path fill="#f1f2f2" d="M 107.535156 178.066406 C 106.546875 186.402344 105.746094 187.203125 97.410156 188.191406 C 97.425781 188.191406 97.441406 188.195312 97.460938 188.195312 C 105.75 189.179688 106.550781 189.992188 107.535156 198.316406 C 108.519531 189.976562 109.320312 189.175781 117.660156 188.191406 C 109.320312 187.203125 108.519531 186.402344 107.535156 178.066406 Z M 107.535156 178.066406 " fill-opacity="1" fill-rule="nonzero"/></g><g fill="#ffffff" fill-opacity="1"><g transform="translate(123.757043, 148.684698)"><g><path d="M -18.28125 -15.421875 L -14.734375 -20.296875 C -13.523438 -21.960938 -12.375 -23.113281 -11.28125 -23.75 C -10.195312 -24.394531 -9.066406 -24.59375 -7.890625 -24.34375 C -6.722656 -24.101562 -5.40625 -23.445312 -3.9375 -22.375 L 3.078125 -17.296875 C 4.578125 -16.222656 5.625 -15.164062 6.21875 -14.125 C 6.820312 -13.082031 7.003906 -11.941406 6.765625 -10.703125 C 6.523438 -9.460938 5.804688 -8.015625 4.609375 -6.359375 L 1.03125 -1.4375 Z M 1.640625 -8.5 C 2.085938 -9.125 2.328125 -9.644531 2.359375 -10.0625 C 2.398438 -10.488281 2.273438 -10.867188 1.984375 -11.203125 C 1.703125 -11.535156 1.226562 -11.941406 0.5625 -12.421875 L -7.84375 -18.515625 C -8.46875 -18.972656 -8.972656 -19.273438 -9.359375 -19.421875 C -9.753906 -19.566406 -10.140625 -19.550781 -10.515625 -19.375 C -10.890625 -19.195312 -11.300781 -18.796875 -11.75 -18.171875 L -12.21875 -17.515625 L 1.15625 -7.828125 Z M 1.640625 -8.5 "/></g></g></g><g fill="#ffffff" fill-opacity="1"><g transform="translate(135.276661, 133.239609)"><g><path d="M 6.90625 -5.109375 C 4.90625 -3.492188 3.0625 -2.859375 1.375 -3.203125 C -0.300781 -3.554688 -1.953125 -4.738281 -3.578125 -6.75 L -9.140625 -13.65625 C -10.765625 -15.675781 -11.554688 -17.535156 -11.515625 -19.234375 C -11.484375 -20.941406 -10.46875 -22.601562 -8.46875 -24.21875 C -6.445312 -25.84375 -4.585938 -26.488281 -2.890625 -26.15625 C -1.203125 -25.832031 0.441406 -24.671875 2.046875 -22.671875 L 7.609375 -15.765625 C 9.234375 -13.753906 10.023438 -11.878906 9.984375 -10.140625 C 9.953125 -8.410156 8.925781 -6.734375 6.90625 -5.109375 Z M 4.5625 -8.03125 C 5.15625 -8.5 5.382812 -9 5.25 -9.53125 C 5.125 -10.070312 4.789062 -10.675781 4.25 -11.34375 L -2.953125 -20.28125 C -3.503906 -20.96875 -4.023438 -21.429688 -4.515625 -21.671875 C -5.003906 -21.910156 -5.546875 -21.796875 -6.140625 -21.328125 C -6.691406 -20.878906 -6.898438 -20.382812 -6.765625 -19.84375 C -6.640625 -19.3125 -6.304688 -18.707031 -5.765625 -18.03125 L 1.4375 -9.09375 C 1.976562 -8.425781 2.488281 -7.960938 2.96875 -7.703125 C 3.457031 -7.453125 3.988281 -7.5625 4.5625 -8.03125 Z M 4.5625 -8.03125 "/></g></g></g><g fill="#ffffff" fill-opacity="1"><g transform="translate(150.514214, 121.38088)"><g><path d="M 8 -3.140625 C 5.625 -2.085938 3.664062 -1.96875 2.125 -2.78125 C 0.582031 -3.59375 -0.707031 -5.175781 -1.75 -7.53125 L -5.21875 -15.390625 C -6.28125 -17.796875 -6.585938 -19.832031 -6.140625 -21.5 C -5.691406 -23.164062 -4.273438 -24.523438 -1.890625 -25.578125 C 0.390625 -26.578125 2.25 -26.738281 3.6875 -26.0625 C 5.125 -25.394531 6.285156 -24.054688 7.171875 -22.046875 L 8 -20.15625 L 3.28125 -18.078125 L 2.3125 -20.265625 C 1.945312 -21.109375 1.578125 -21.710938 1.203125 -22.078125 C 0.828125 -22.453125 0.296875 -22.488281 -0.390625 -22.1875 C -1.066406 -21.882812 -1.410156 -21.445312 -1.421875 -20.875 C -1.429688 -20.3125 -1.25 -19.609375 -0.875 -18.765625 L 3.640625 -8.5 C 4.023438 -7.632812 4.425781 -7.023438 4.84375 -6.671875 C 5.269531 -6.316406 5.816406 -6.285156 6.484375 -6.578125 C 7.148438 -6.867188 7.476562 -7.28125 7.46875 -7.8125 C 7.457031 -8.351562 7.257812 -9.054688 6.875 -9.921875 L 5.875 -12.203125 L 10.59375 -14.28125 L 11.421875 -12.390625 C 12.316406 -10.359375 12.539062 -8.554688 12.09375 -6.984375 C 11.644531 -5.421875 10.28125 -4.140625 8 -3.140625 Z M 8 -3.140625 "/></g></g></g><g fill="#ffffff" fill-opacity="1"><g transform="translate(168.434896, 114.285853)"><g/></g></g><g fill="#ffffff" fill-opacity="1"><g transform="translate(178.490339, 111.955014)"><g><path d="M 8.59375 0.3125 C 6 0.320312 4.15625 -0.347656 3.0625 -1.703125 C 1.96875 -3.066406 1.410156 -5.035156 1.390625 -7.609375 L 1.34375 -16.203125 C 1.332031 -18.835938 1.863281 -20.828125 2.9375 -22.171875 C 4.007812 -23.523438 5.847656 -24.207031 8.453125 -24.21875 C 10.941406 -24.226562 12.710938 -23.632812 13.765625 -22.4375 C 14.816406 -21.25 15.347656 -19.554688 15.359375 -17.359375 L 15.375 -15.296875 L 10.21875 -15.28125 L 10.203125 -17.671875 C 10.191406 -18.585938 10.085938 -19.285156 9.890625 -19.765625 C 9.703125 -20.253906 9.234375 -20.5 8.484375 -20.5 C 7.742188 -20.5 7.253906 -20.238281 7.015625 -19.71875 C 6.773438 -19.195312 6.660156 -18.472656 6.671875 -17.546875 L 6.734375 -6.328125 C 6.734375 -5.390625 6.859375 -4.671875 7.109375 -4.171875 C 7.359375 -3.679688 7.847656 -3.4375 8.578125 -3.4375 C 9.304688 -3.4375 9.769531 -3.6875 9.96875 -4.1875 C 10.164062 -4.695312 10.265625 -5.421875 10.265625 -6.359375 L 10.25 -8.859375 L 15.40625 -8.875 L 15.421875 -6.8125 C 15.429688 -4.582031 14.914062 -2.835938 13.875 -1.578125 C 12.84375 -0.328125 11.082031 0.300781 8.59375 0.3125 Z M 8.59375 0.3125 "/></g></g></g><g fill="#ffffff" fill-opacity="1"><g transform="translate(197.090414, 112.031005)"><g><path d="M 7.953125 -22.546875 L 13.046875 -21.1875 L 10.546875 -11.859375 L 14.09375 -10.921875 L 16.59375 -20.25 L 21.71875 -18.875 L 15.5625 4.15625 L 10.4375 2.78125 L 13.125 -7.28125 L 9.578125 -8.21875 L 6.890625 1.84375 L 1.796875 0.484375 Z M 7.953125 -22.546875 "/></g></g></g><g fill="#ffffff" fill-opacity="1"><g transform="translate(216.293825, 117.556699)"><g><path d="M 16.390625 -18.0625 L 21.578125 -15.046875 L 13.484375 7.8125 L 9.28125 5.375 L 11.09375 0.609375 L 8.078125 -1.140625 L 4.84375 2.8125 L 0.546875 0.3125 Z M 12.265625 -2.359375 L 15.828125 -11.03125 L 10.078125 -3.625 Z M 12.265625 -2.359375 "/></g></g></g><g fill="#ffffff" fill-opacity="1"><g transform="translate(232.264886, 127.579843)"><g><path d="M 17.328125 -16.46875 L 21.234375 -12.9375 L 5.234375 4.734375 L 1.328125 1.203125 Z M 17.328125 -16.46875 "/></g></g></g><g fill="#ffffff" fill-opacity="1"><g transform="translate(240.906318, 135.247516)"><g><path d="M 20.40625 -12.46875 L 22.5625 -9.46875 L 16.09375 1.21875 L 25.421875 -5.484375 L 27.953125 -1.953125 L 8.578125 11.953125 L 6.5 9.0625 L 13.703125 -2.109375 L 3.65625 5.09375 L 1.03125 1.4375 Z M 20.40625 -12.46875 "/></g></g></g><g fill="#ffffff" fill-opacity="1"><g transform="translate(103.313686, 222.146549)"><g><path d="M 15.921875 0.1875 C 16.566406 1.414062 16.878906 2.65625 16.859375 3.90625 C 16.835938 5.15625 16.5 6.300781 15.84375 7.34375 C 15.1875 8.394531 14.265625 9.226562 13.078125 9.84375 C 11.898438 10.46875 10.695312 10.75 9.46875 10.6875 C 8.238281 10.632812 7.097656 10.257812 6.046875 9.5625 C 5.003906 8.863281 4.15625 7.894531 3.5 6.65625 L 0.859375 1.625 L 13.25 -4.890625 Z M 5.4375 5.78125 C 5.851562 6.570312 6.410156 7.195312 7.109375 7.65625 C 7.816406 8.113281 8.597656 8.351562 9.453125 8.375 C 10.304688 8.394531 11.148438 8.1875 11.984375 7.75 C 12.796875 7.3125 13.429688 6.726562 13.890625 6 C 14.359375 5.269531 14.601562 4.476562 14.625 3.625 C 14.644531 2.769531 14.445312 1.941406 14.03125 1.140625 L 12.46875 -1.8125 L 3.828125 2.734375 Z M 5.4375 5.78125 "/></g></g></g><g fill="#ffffff" fill-opacity="1"><g transform="translate(112.457001, 238.251712)"><g><path d="M 1.09375 1.484375 L 12.34375 -6.84375 L 13.75 -4.953125 L 2.5 3.375 Z M 1.09375 1.484375 "/></g></g></g><g fill="#ffffff" fill-opacity="1"><g transform="translate(117.777026, 245.618169)"><g><path d="M 12.9375 3.1875 L 14.40625 4.640625 L 10.734375 8.34375 C 9.835938 8.21875 8.921875 7.929688 7.984375 7.484375 C 7.046875 7.035156 6.242188 6.476562 5.578125 5.8125 C 4.609375 4.851562 3.945312 3.75 3.59375 2.5 C 3.25 1.25 3.234375 0.0078125 3.546875 -1.21875 C 3.859375 -2.457031 4.488281 -3.546875 5.4375 -4.484375 C 6.363281 -5.421875 7.445312 -6.046875 8.6875 -6.359375 C 9.925781 -6.671875 11.171875 -6.644531 12.421875 -6.28125 C 13.671875 -5.914062 14.789062 -5.238281 15.78125 -4.25 C 16.476562 -3.5625 17.035156 -2.753906 17.453125 -1.828125 C 17.878906 -0.898438 18.125 0.0234375 18.1875 0.953125 L 16.015625 1.234375 C 15.992188 0.484375 15.832031 -0.238281 15.53125 -0.9375 C 15.226562 -1.632812 14.816406 -2.238281 14.296875 -2.75 C 13.640625 -3.414062 12.875 -3.863281 12 -4.09375 C 11.125 -4.332031 10.257812 -4.335938 9.40625 -4.109375 C 8.550781 -3.890625 7.796875 -3.453125 7.140625 -2.796875 C 6.484375 -2.140625 6.039062 -1.378906 5.8125 -0.515625 C 5.582031 0.347656 5.585938 1.21875 5.828125 2.09375 C 6.066406 2.96875 6.519531 3.734375 7.1875 4.390625 C 7.5625 4.765625 8.003906 5.082031 8.515625 5.34375 C 9.035156 5.613281 9.585938 5.828125 10.171875 5.984375 Z M 12.9375 3.1875 "/></g></g></g><g fill="#ffffff" fill-opacity="1"><g transform="translate(130.910056, 257.89626)"><g><path d="M 1.484375 1.09375 L 9.765625 -10.1875 L 11.671875 -8.796875 L 3.390625 2.484375 Z M 1.484375 1.09375 "/></g></g></g><g fill="#ffffff" fill-opacity="1"><g transform="translate(138.113522, 263.173867)"><g><path d="M 5.90625 -10.3125 L 6.921875 -12.171875 L 16.734375 -6.765625 L 15.71875 -4.90625 L 11.828125 -7.046875 L 6.09375 3.359375 L 4.03125 2.21875 L 9.765625 -8.1875 Z M 5.90625 -10.3125 "/></g></g></g><g fill="#ffffff" fill-opacity="1"><g transform="translate(151.183919, 270.19373)"><g><path d="M 13.984375 4.65625 L 11.59375 3.859375 L 11.3125 0.4375 L 4.625 -1.796875 L 2.359375 0.78125 L 0.015625 0 L 10.3125 -11.328125 L 12.609375 -10.5625 Z M 10.59375 -8.578125 L 6.125 -3.515625 L 11.125 -1.84375 Z M 10.59375 -8.578125 "/></g></g></g><g fill="#ffffff" fill-opacity="1"><g transform="translate(168.359436, 275.420209)"><g><path d="M 1.828125 0.265625 L 3.84375 -13.59375 L 6.171875 -13.25 L 4.46875 -1.515625 L 10.46875 -0.640625 L 10.15625 1.484375 Z M 1.828125 0.265625 "/></g></g></g><g fill="#ffffff" fill-opacity="1"><g transform="translate(181.748644, 277.037319)"><g/></g></g><g fill="#ffffff" fill-opacity="1"><g transform="translate(190.201102, 277.404592)"><g><path d="M 11.0625 -5.328125 L 9.78125 -15.375 L 12.09375 -15.671875 L 13.875 -1.78125 L 11.5625 -1.484375 L 2.890625 -10.53125 L 4.171875 -0.53125 L 1.828125 -0.234375 L 0.046875 -14.125 L 2.34375 -14.421875 Z M 11.0625 -5.328125 "/></g></g></g><g fill="#ffffff" fill-opacity="1"><g transform="translate(209.329207, 274.589836)"><g><path d="M 2.859375 -16.0625 C 4.148438 -16.519531 5.429688 -16.644531 6.703125 -16.4375 C 7.984375 -16.238281 9.113281 -15.734375 10.09375 -14.921875 C 11.082031 -14.109375 11.800781 -13.082031 12.25 -11.84375 C 12.695312 -10.582031 12.796875 -9.328125 12.546875 -8.078125 C 12.304688 -6.835938 11.757812 -5.722656 10.90625 -4.734375 C 10.050781 -3.742188 8.976562 -3.019531 7.6875 -2.5625 C 6.394531 -2.09375 5.109375 -1.96875 3.828125 -2.1875 C 2.546875 -2.414062 1.410156 -2.929688 0.421875 -3.734375 C -0.554688 -4.546875 -1.269531 -5.582031 -1.71875 -6.84375 C -2.164062 -8.082031 -2.265625 -9.328125 -2.015625 -10.578125 C -1.773438 -11.828125 -1.222656 -12.9375 -0.359375 -13.90625 C 0.492188 -14.875 1.566406 -15.59375 2.859375 -16.0625 Z M 3.609375 -14.046875 C 2.753906 -13.742188 2.03125 -13.253906 1.4375 -12.578125 C 0.851562 -11.898438 0.476562 -11.125 0.3125 -10.25 C 0.144531 -9.382812 0.21875 -8.515625 0.53125 -7.640625 C 0.832031 -6.773438 1.332031 -6.054688 2.03125 -5.484375 C 2.726562 -4.910156 3.515625 -4.539062 4.390625 -4.375 C 5.273438 -4.207031 6.144531 -4.273438 7 -4.578125 C 7.84375 -4.890625 8.546875 -5.382812 9.109375 -6.0625 C 9.679688 -6.75 10.039062 -7.53125 10.1875 -8.40625 C 10.34375 -9.28125 10.269531 -10.148438 9.96875 -11.015625 C 9.65625 -11.890625 9.160156 -12.609375 8.484375 -13.171875 C 7.804688 -13.742188 7.035156 -14.109375 6.171875 -14.265625 C 5.304688 -14.429688 4.453125 -14.359375 3.609375 -14.046875 Z M 3.609375 -14.046875 "/></g></g></g><g fill="#ffffff" fill-opacity="1"><g transform="translate(227.491218, 267.520799)"><g><path d="M -5.890625 -10.3125 L -6.96875 -12.140625 L 2.6875 -17.859375 L 3.765625 -16.03125 L -0.0625 -13.765625 L 5.984375 -3.546875 L 3.953125 -2.34375 L -2.09375 -12.5625 Z M -5.890625 -10.3125 "/></g></g></g><g fill="#ffffff" fill-opacity="1"><g transform="translate(240.181846, 259.83596)"><g><path d="M 11.109375 -9.671875 L 9.21875 -8.03125 L 6.125 -9.515625 L 0.796875 -4.875 L 1.875 -1.625 L 0.015625 -0.015625 L -4.515625 -14.640625 L -2.6875 -16.234375 Z M -2.015625 -13.484375 L 0.09375 -7.0625 L 4.078125 -10.53125 Z M -2.015625 -13.484375 "/></g></g></g><g fill="#ffffff" fill-opacity="1"><g transform="translate(253.618248, 247.666405)"><g><path d="M 8.171875 -10.625 L 6.53125 -8.5 L 1.609375 -9.046875 C 1.535156 -8.929688 1.410156 -8.753906 1.234375 -8.515625 L -0.78125 -5.890625 L 2.5625 -3.328125 L 1.125 -1.46875 L -9.984375 -10 L -6.53125 -14.484375 C -5.4375 -15.910156 -4.257812 -16.757812 -3 -17.03125 C -1.738281 -17.300781 -0.503906 -16.972656 0.703125 -16.046875 C 1.585938 -15.367188 2.179688 -14.59375 2.484375 -13.71875 C 2.796875 -12.851562 2.8125 -11.945312 2.53125 -11 Z M -2.46875 -7.1875 L -0.453125 -9.8125 C 0.210938 -10.6875 0.535156 -11.5 0.515625 -12.25 C 0.503906 -13.007812 0.128906 -13.671875 -0.609375 -14.234375 C -1.328125 -14.785156 -2.046875 -14.96875 -2.765625 -14.78125 C -3.484375 -14.59375 -4.175781 -14.0625 -4.84375 -13.1875 L -6.859375 -10.5625 Z M -2.46875 -7.1875 "/></g></g></g><g fill="#ffffff" fill-opacity="1"><g transform="translate(264.110284, 233.366643)"><g><path d="M -7.84375 -15.515625 L -6.765625 -17.671875 L -0.734375 -8.859375 L 3.421875 -6.765625 L 2.359375 -4.671875 L -1.734375 -6.734375 L -12.5 -6.328125 L -11.421875 -8.453125 L -3.53125 -8.953125 Z M -7.84375 -15.515625 "/></g></g></g><g clip-path="url(#d88444374e)"><path fill="#f1f2f2" d="M 136 189.972656 C 135.011719 198.308594 134.214844 199.109375 125.875 200.097656 C 125.890625 200.097656 125.910156 200.101562 125.925781 200.101562 C 134.214844 201.085938 135.015625 201.902344 136 210.222656 C 136.988281 201.882812 137.785156 201.082031 146.125 200.097656 C 137.785156 199.109375 136.988281 198.308594 136 189.972656 Z M 136 189.972656 " fill-opacity="1" fill-rule="nonzero"/></g><g clip-path="url(#9d8569d698)"><path fill="#f1f2f2" d="M 263.644531 176.578125 C 262.65625 184.914062 261.855469 185.714844 253.519531 186.703125 C 253.535156 186.703125 253.550781 186.707031 253.570312 186.707031 L 253.570312 186.710938 L 253.570312 186.707031 C 261.859375 187.691406 262.65625 188.507812 263.644531 196.828125 C 264.628906 188.488281 265.429688 187.691406 273.769531 186.703125 C 265.429688 185.714844 264.628906 184.914062 263.644531 176.578125 Z M 263.644531 176.578125 " fill-opacity="1" fill-rule="nonzero"/></g></svg>