<svg xmlns="http://www.w3.org/2000/svg" xmlns:xlink="http://www.w3.org/1999/xlink" width="500" zoomAndPan="magnify" viewBox="0 0 375 374.999991" height="500" preserveAspectRatio="xMidYMid meet" version="1.0"><path fill="#000000" d="M 254.695312 187.5 L 259.222656 173.519531 C 262.609375 163.054688 257.898438 151.675781 248.105469 146.671875 L 235.019531 139.988281 L 228.335938 126.902344 C 223.332031 117.109375 211.953125 112.390625 201.488281 115.785156 L 187.5 120.304688 L 173.519531 115.777344 C 163.054688 112.390625 151.675781 117.101562 146.671875 126.894531 L 139.980469 139.980469 L 126.894531 146.671875 C 117.101562 151.675781 112.390625 163.054688 115.777344 173.519531 L 120.304688 187.5 L 115.777344 201.480469 C 112.390625 211.945312 117.101562 223.324219 126.894531 228.328125 L 139.980469 235.011719 L 146.664062 248.097656 C 151.667969 257.890625 163.046875 262.609375 173.511719 259.214844 L 187.5 254.695312 L 201.480469 259.222656 C 211.945312 262.609375 223.324219 257.898438 228.328125 248.105469 L 235.011719 235.019531 L 248.097656 228.335938 C 257.890625 223.332031 262.609375 211.953125 259.214844 201.488281 Z M 180.21875 219.640625 L 153.226562 192.648438 L 163.523438 182.351562 L 180.21875 199.046875 L 218.757812 160.507812 L 229.054688 170.804688 Z M 180.21875 219.640625 " fill-opacity="1" fill-rule="nonzero"/></svg>