<svg xmlns="http://www.w3.org/2000/svg" xmlns:xlink="http://www.w3.org/1999/xlink" width="500" zoomAndPan="magnify" viewBox="0 0 375 374.999991" height="500" preserveAspectRatio="xMidYMid meet" version="1.0"><defs><clipPath id="fc6ec9413f"><path d="M 137.625 112.5 L 237 112.5 L 237 262.5 L 137.625 262.5 Z M 137.625 112.5 " clip-rule="nonzero"/></clipPath></defs><g clip-path="url(#fc6ec9413f)"><path fill="#000000" d="M 173.421875 227.042969 C 173.320312 226.839844 173.269531 226.609375 173.277344 226.367188 L 173.476562 220.914062 L 168.023438 220.738281 C 167.074219 220.710938 166.417969 219.78125 166.707031 218.878906 L 166.859375 218.40625 L 140.019531 218.40625 C 138.699219 218.40625 137.625 217.332031 137.625 216.015625 L 137.625 131.875 C 137.625 131.792969 137.628906 131.714844 137.636719 131.636719 C 137.644531 131.578125 137.652344 131.519531 137.664062 131.464844 C 137.667969 131.445312 137.667969 131.425781 137.671875 131.402344 C 137.6875 131.335938 137.703125 131.269531 137.722656 131.203125 C 137.726562 131.195312 137.726562 131.1875 137.730469 131.179688 C 137.75 131.109375 137.773438 131.046875 137.800781 130.980469 C 137.804688 130.972656 137.804688 130.964844 137.808594 130.957031 C 137.832031 130.898438 137.863281 130.839844 137.890625 130.78125 C 137.898438 130.769531 137.902344 130.757812 137.910156 130.746094 C 137.9375 130.695312 137.96875 130.644531 138 130.59375 C 138.011719 130.578125 138.019531 130.5625 138.03125 130.542969 C 138.058594 130.5 138.09375 130.457031 138.125 130.414062 C 138.140625 130.394531 138.152344 130.375 138.171875 130.355469 C 138.207031 130.3125 138.246094 130.273438 138.285156 130.230469 C 138.296875 130.214844 138.3125 130.199219 138.328125 130.183594 L 155.09375 113.453125 C 155.109375 113.4375 155.125 113.421875 155.140625 113.410156 C 155.179688 113.371094 155.222656 113.332031 155.265625 113.296875 C 155.285156 113.28125 155.304688 113.265625 155.324219 113.25 C 155.367188 113.21875 155.410156 113.183594 155.453125 113.15625 C 155.46875 113.144531 155.488281 113.136719 155.503906 113.125 C 155.554688 113.09375 155.605469 113.0625 155.65625 113.035156 C 155.667969 113.027344 155.679688 113.023438 155.691406 113.019531 C 155.75 112.988281 155.808594 112.960938 155.867188 112.933594 C 155.875 112.929688 155.882812 112.929688 155.890625 112.925781 C 155.957031 112.898438 156.019531 112.875 156.089844 112.855469 C 156.097656 112.851562 156.105469 112.851562 156.113281 112.847656 C 156.179688 112.828125 156.246094 112.8125 156.316406 112.796875 C 156.335938 112.792969 156.355469 112.792969 156.375 112.789062 C 156.433594 112.777344 156.488281 112.769531 156.546875 112.761719 C 156.625 112.757812 156.707031 112.75 156.785156 112.75 L 212.355469 112.75 C 213.679688 112.75 214.75 113.820312 214.75 115.140625 L 214.75 167.097656 L 215.253906 166.894531 C 216.136719 166.546875 217.109375 167.136719 217.203125 168.082031 L 217.746094 173.511719 L 223.175781 172.9375 C 224.117188 172.839844 224.894531 173.671875 224.730469 174.605469 L 223.789062 179.980469 L 229.167969 180.894531 C 230.105469 181.050781 230.628906 182.0625 230.21875 182.917969 L 227.863281 187.839844 L 232.796875 190.171875 C 233.652344 190.578125 233.886719 191.691406 233.261719 192.402344 L 229.664062 196.507812 L 233.785156 200.082031 C 234.5 200.703125 234.425781 201.839844 233.628906 202.359375 L 229.058594 205.339844 L 232.0625 209.894531 C 232.585938 210.6875 232.203125 211.757812 231.300781 212.042969 L 226.09375 213.679688 L 227.757812 218.878906 C 228.046875 219.78125 227.390625 220.710938 226.445312 220.738281 L 220.992188 220.914062 L 221.117188 224.40625 C 222.433594 225.195312 223.917969 226.097656 224.644531 226.5625 C 227.230469 228.226562 229.449219 229.898438 231.574219 231.882812 C 233.128906 233.328125 234.589844 234.902344 235.976562 236.648438 C 237.359375 238.386719 236.320312 240.964844 234.117188 241.257812 L 218.902344 243.273438 L 212.84375 259.550781 C 212.121094 261.5 209.621094 262.042969 208.148438 260.574219 C 208.082031 260.511719 207.925781 260.351562 207.726562 260.125 C 207.425781 259.78125 207.089844 259.359375 206.722656 258.851562 C 205.734375 257.484375 204.652344 255.683594 203.507812 253.402344 C 201.421875 249.246094 199.347656 243.960938 197.339844 237.414062 C 196.242188 241.832031 194.992188 246.160156 193.628906 250.351562 C 190.027344 261.429688 189.710938 262.277344 187.324219 262.277344 C 185.976562 262.277344 184.8125 261.335938 184.53125 260.019531 L 180.902344 243.089844 L 163.203125 248.671875 C 160.539062 249.515625 158.378906 246.421875 160.082031 244.207031 C 159.792969 244.585938 171.070312 230.613281 173.421875 227.042969 Z M 220.707031 227.488281 C 220.375 227.78125 219.902344 227.921875 219.421875 227.804688 L 214.125 226.5 L 212.84375 231.804688 C 212.621094 232.726562 211.578125 233.179688 210.753906 232.710938 L 206.003906 230.027344 L 203.339844 234.789062 C 202.878906 235.617188 201.75 235.769531 201.082031 235.097656 L 199.03125 233.035156 C 204.886719 253.667969 210.164062 258.550781 210.167969 258.554688 L 216.824219 240.667969 L 233.742188 238.425781 C 229.378906 232.941406 224.773438 229.925781 220.707031 227.488281 Z M 195.445312 233.03125 L 193.382812 235.097656 C 192.714844 235.769531 191.589844 235.617188 191.125 234.789062 L 188.464844 230.027344 L 183.714844 232.710938 C 182.886719 233.179688 181.84375 232.726562 181.621094 231.804688 L 180.34375 226.5 L 176.550781 227.433594 C 173.089844 233.097656 167.96875 238.644531 162.34375 245.949219 L 183.035156 239.417969 L 187.324219 259.421875 C 187.324219 259.421875 192.011719 248.21875 195.445312 233.03125 Z M 159.675781 119.855469 L 145.804688 133.710938 L 159.675781 133.710938 Z M 196.222656 228.199219 C 196.78125 227.640625 197.6875 227.640625 198.246094 228.199219 L 201.773438 231.742188 L 204.210938 227.378906 C 204.597656 226.6875 205.472656 226.445312 206.160156 226.835938 L 210.511719 229.292969 L 211.683594 224.433594 C 211.867188 223.664062 212.644531 223.195312 213.414062 223.382812 L 218.265625 224.578125 L 218.085938 219.582031 C 218.054688 218.792969 218.675781 218.128906 219.464844 218.105469 L 224.460938 217.945312 L 222.9375 213.183594 C 222.695312 212.429688 223.113281 211.625 223.871094 211.386719 L 228.636719 209.886719 L 225.886719 205.714844 C 225.449219 205.050781 225.636719 204.164062 226.296875 203.730469 L 230.484375 201 L 226.707031 197.722656 C 226.109375 197.203125 226.050781 196.300781 226.570312 195.703125 L 229.863281 191.945312 L 225.34375 189.808594 C 224.628906 189.46875 224.324219 188.613281 224.667969 187.902344 L 226.824219 183.390625 L 221.898438 182.554688 C 221.117188 182.421875 220.59375 181.679688 220.730469 180.902344 L 221.589844 175.976562 L 216.621094 176.5 C 215.832031 176.582031 215.128906 176.011719 215.050781 175.222656 L 214.550781 170.25 L 209.90625 172.09375 C 209.167969 172.386719 208.335938 172.023438 208.046875 171.289062 L 206.226562 166.632812 L 202.25 169.664062 C 201.621094 170.140625 200.722656 170.019531 200.246094 169.386719 L 197.234375 165.398438 L 194.222656 169.386719 C 193.746094 170.019531 192.847656 170.140625 192.21875 169.664062 L 188.242188 166.632812 L 186.417969 171.289062 C 186.128906 172.023438 185.296875 172.386719 184.5625 172.09375 L 179.917969 170.25 L 179.417969 175.222656 C 179.339844 176.011719 178.632812 176.582031 177.847656 176.5 L 172.875 175.976562 L 173.738281 180.902344 C 173.875 181.679688 173.351562 182.421875 172.570312 182.554688 L 167.640625 183.390625 L 169.800781 187.902344 C 170.140625 188.613281 169.835938 189.46875 169.121094 189.808594 L 164.601562 191.945312 L 167.898438 195.703125 C 168.417969 196.300781 168.355469 197.203125 167.757812 197.722656 L 163.984375 201 L 168.167969 203.730469 C 168.832031 204.164062 169.015625 205.050781 168.582031 205.714844 L 165.828125 209.886719 L 170.597656 211.386719 C 171.351562 211.625 171.769531 212.429688 171.527344 213.183594 L 170.003906 217.945312 L 175 218.105469 C 175.792969 218.128906 176.410156 218.792969 176.382812 219.582031 L 176.199219 224.578125 L 181.054688 223.382812 C 181.824219 223.195312 182.597656 223.664062 182.785156 224.433594 L 183.957031 229.292969 L 188.308594 226.835938 C 188.996094 226.445312 189.871094 226.6875 190.257812 227.378906 L 192.695312 231.742188 Z M 196.222656 228.199219 " fill-opacity="1" fill-rule="nonzero"/></g></svg>