<svg xmlns="http://www.w3.org/2000/svg" xmlns:xlink="http://www.w3.org/1999/xlink" width="500" zoomAndPan="magnify" viewBox="0 0 375 374.999991" height="500" preserveAspectRatio="xMidYMid meet" version="1.0"><defs><g/><clipPath id="e15e846320"><path d="M 125.710938 123.191406 L 248.710938 123.191406 L 248.710938 246.191406 L 125.710938 246.191406 Z M 125.710938 123.191406 " clip-rule="nonzero"/></clipPath><clipPath id="657ed053e4"><path d="M 159.835938 143 L 214.585938 143 L 214.585938 227.578125 L 159.835938 227.578125 Z M 159.835938 143 " clip-rule="nonzero"/></clipPath><clipPath id="166b7e67f0"><path d="M 101.875 165.972656 L 122.125 165.972656 L 122.125 186.222656 L 101.875 186.222656 Z M 101.875 165.972656 " clip-rule="nonzero"/></clipPath><clipPath id="44b89a0664"><path d="M 249.769531 194.160156 L 270.019531 194.160156 L 270.019531 214.410156 L 249.769531 214.410156 Z M 249.769531 194.160156 " clip-rule="nonzero"/></clipPath><clipPath id="8b49065ff5"><path d="M 125.875 189.972656 L 146.125 189.972656 L 146.125 210.222656 L 125.875 210.222656 Z M 125.875 189.972656 " clip-rule="nonzero"/></clipPath><clipPath id="4c39e17247"><path d="M 252.769531 164.484375 L 273.019531 164.484375 L 273.019531 184.734375 L 252.769531 184.734375 Z M 252.769531 164.484375 " clip-rule="nonzero"/></clipPath><clipPath id="946ceccb89"><path d="M 104.648438 194.160156 L 124.898438 194.160156 L 124.898438 214.410156 L 104.648438 214.410156 Z M 104.648438 194.160156 " clip-rule="nonzero"/></clipPath></defs><g clip-path="url(#e15e846320)"><path fill="#ffffff" d="M 248.710938 184.691406 C 248.710938 186.703125 248.613281 188.714844 248.417969 190.71875 C 248.21875 192.722656 247.921875 194.710938 247.53125 196.6875 C 247.136719 198.664062 246.648438 200.613281 246.0625 202.542969 C 245.480469 204.46875 244.800781 206.363281 244.03125 208.226562 C 243.261719 210.085938 242.398438 211.902344 241.449219 213.679688 C 240.5 215.457031 239.46875 217.183594 238.347656 218.855469 C 237.230469 220.53125 236.03125 222.148438 234.753906 223.703125 C 233.476562 225.261719 232.125 226.753906 230.699219 228.175781 C 229.273438 229.601562 227.785156 230.953125 226.226562 232.230469 C 224.671875 233.507812 223.054688 234.707031 221.378906 235.824219 C 219.707031 236.945312 217.980469 237.976562 216.203125 238.929688 C 214.425781 239.878906 212.609375 240.738281 210.746094 241.507812 C 208.886719 242.277344 206.992188 242.957031 205.066406 243.542969 C 203.136719 244.125 201.1875 244.613281 199.210938 245.007812 C 197.234375 245.402344 195.246094 245.695312 193.242188 245.894531 C 191.234375 246.089844 189.226562 246.191406 187.210938 246.191406 C 185.199219 246.191406 183.1875 246.089844 181.183594 245.894531 C 179.179688 245.695312 177.191406 245.402344 175.214844 245.007812 C 173.238281 244.613281 171.289062 244.125 169.359375 243.542969 C 167.433594 242.957031 165.539062 242.277344 163.675781 241.507812 C 161.816406 240.738281 159.996094 239.878906 158.222656 238.929688 C 156.445312 237.976562 154.71875 236.945312 153.046875 235.824219 C 151.371094 234.707031 149.753906 233.507812 148.199219 232.230469 C 146.640625 230.953125 145.148438 229.601562 143.726562 228.175781 C 142.300781 226.753906 140.949219 225.261719 139.671875 223.703125 C 138.394531 222.148438 137.195312 220.53125 136.078125 218.855469 C 134.957031 217.183594 133.925781 215.457031 132.972656 213.679688 C 132.023438 211.902344 131.164062 210.085938 130.394531 208.226562 C 129.625 206.363281 128.945312 204.46875 128.359375 202.542969 C 127.777344 200.613281 127.289062 198.664062 126.894531 196.6875 C 126.5 194.710938 126.207031 192.722656 126.007812 190.71875 C 125.8125 188.714844 125.710938 186.703125 125.710938 184.691406 C 125.710938 182.675781 125.8125 180.667969 126.007812 178.660156 C 126.207031 176.65625 126.5 174.667969 126.894531 172.691406 C 127.289062 170.714844 127.777344 168.765625 128.359375 166.835938 C 128.945312 164.910156 129.625 163.015625 130.394531 161.15625 C 131.164062 159.292969 132.023438 157.476562 132.972656 155.699219 C 133.925781 153.921875 134.957031 152.195312 136.078125 150.523438 C 137.195312 148.847656 138.394531 147.230469 139.671875 145.675781 C 140.949219 144.117188 142.300781 142.625 143.726562 141.203125 C 145.148438 139.777344 146.640625 138.425781 148.199219 137.148438 C 149.753906 135.871094 151.371094 134.671875 153.046875 133.554688 C 154.71875 132.433594 156.445312 131.402344 158.222656 130.453125 C 159.996094 129.503906 161.816406 128.640625 163.675781 127.871094 C 165.539062 127.101562 167.433594 126.421875 169.359375 125.835938 C 171.289062 125.253906 173.238281 124.765625 175.214844 124.371094 C 177.191406 123.976562 179.179688 123.683594 181.183594 123.484375 C 183.1875 123.289062 185.199219 123.191406 187.210938 123.191406 C 189.226562 123.191406 191.234375 123.289062 193.242188 123.484375 C 195.246094 123.683594 197.234375 123.976562 199.210938 124.371094 C 201.1875 124.765625 203.136719 125.253906 205.066406 125.835938 C 206.992188 126.421875 208.886719 127.101562 210.746094 127.871094 C 212.609375 128.640625 214.425781 129.503906 216.203125 130.453125 C 217.980469 131.402344 219.707031 132.433594 221.378906 133.554688 C 223.054688 134.671875 224.671875 135.871094 226.226562 137.148438 C 227.785156 138.425781 229.273438 139.777344 230.699219 141.203125 C 232.125 142.625 233.476562 144.117188 234.753906 145.675781 C 236.03125 147.230469 237.230469 148.847656 238.347656 150.523438 C 239.46875 152.195312 240.5 153.921875 241.449219 155.699219 C 242.398438 157.476562 243.261719 159.292969 244.03125 161.15625 C 244.800781 163.015625 245.480469 164.910156 246.0625 166.835938 C 246.648438 168.765625 247.136719 170.714844 247.53125 172.691406 C 247.921875 174.667969 248.21875 176.65625 248.417969 178.660156 C 248.613281 180.667969 248.710938 182.675781 248.710938 184.691406 Z M 248.710938 184.691406 " fill-opacity="1" fill-rule="nonzero"/></g><path fill="#ffffff" d="M 178.460938 147.773438 C 176.484375 147.773438 174.59375 148.625 173.285156 150.109375 C 170.535156 153.21875 171.398438 153.902344 174.777344 181.046875 C 189.445312 181.046875 193.351562 181.046875 199.953125 181.046875 C 204.5625 143.945312 207.828125 147.773438 178.460938 147.773438 " fill-opacity="1" fill-rule="nonzero"/><path fill="#ffffff" d="M 192.46875 194.03125 L 192.46875 185.675781 L 182.261719 185.675781 L 182.261719 194.03125 L 192.46875 194.03125 " fill-opacity="1" fill-rule="nonzero"/><path fill="#ffffff" d="M 167.652344 216.414062 L 164.488281 219.578125 L 164.488281 222.917969 L 210.238281 222.917969 L 210.238281 219.578125 L 207.074219 216.414062 L 167.652344 216.414062 " fill-opacity="1" fill-rule="nonzero"/><path fill="#ffffff" d="M 205.722656 204.941406 L 192.917969 198.65625 L 181.808594 198.65625 L 169.003906 204.941406 L 169.003906 211.789062 L 205.722656 211.789062 L 205.722656 204.941406 " fill-opacity="1" fill-rule="nonzero"/><g clip-path="url(#657ed053e4)"><path fill="#1c2c4d" d="M 210.238281 222.917969 L 164.488281 222.917969 L 164.488281 219.578125 L 167.652344 216.414062 L 207.074219 216.414062 L 210.238281 219.578125 Z M 169.003906 204.941406 L 181.808594 198.65625 L 192.917969 198.65625 L 205.722656 204.941406 L 205.722656 211.789062 L 169.003906 211.789062 Z M 192.46875 185.675781 L 192.46875 194.03125 L 182.261719 194.03125 L 182.261719 185.675781 Z M 174.777344 181.046875 C 171.398438 153.902344 170.535156 153.21875 173.285156 150.109375 C 174.59375 148.625 176.484375 147.773438 178.460938 147.773438 C 207.828125 147.773438 204.5625 143.945312 199.953125 181.046875 C 193.351562 181.046875 189.445312 181.046875 174.777344 181.046875 Z M 214.863281 217.660156 L 210.347656 213.144531 L 210.347656 202.058594 L 197.097656 195.554688 L 197.097656 185.675781 L 204.039062 185.675781 L 207.714844 156.109375 C 208.125 152.828125 207.105469 149.527344 204.917969 147.050781 C 200.496094 142.042969 196.394531 143.148438 178.460938 143.148438 C 171.523438 143.148438 166.15625 149.230469 167.007812 156.109375 L 170.6875 185.675781 L 177.632812 185.675781 L 177.632812 195.554688 L 164.378906 202.058594 L 164.378906 213.144531 L 159.863281 217.660156 L 159.863281 227.546875 L 214.863281 227.546875 L 214.863281 217.660156 " fill-opacity="1" fill-rule="nonzero"/></g><g clip-path="url(#166b7e67f0)"><path fill="#f1f2f2" d="M 112 165.972656 C 111.011719 174.308594 110.214844 175.109375 101.875 176.097656 C 101.890625 176.097656 101.910156 176.101562 101.925781 176.101562 C 110.214844 177.085938 111.015625 177.902344 112 186.222656 C 112.988281 177.882812 113.785156 177.082031 122.125 176.097656 C 113.785156 175.109375 112.988281 174.308594 112 165.972656 Z M 112 165.972656 " fill-opacity="1" fill-rule="nonzero"/></g><g fill="#ffffff" fill-opacity="1"><g transform="translate(119.429456, 160.322597)"><g><path d="M -3.875 -16.703125 L -4.984375 -14.6875 L -6.46875 -15.375 C -6.945312 -15.238281 -7.488281 -14.984375 -8.09375 -14.609375 C -8.695312 -14.234375 -9.207031 -13.660156 -9.625 -12.890625 C -9.957031 -12.296875 -10.085938 -11.734375 -10.015625 -11.203125 C -9.941406 -10.671875 -9.648438 -10.265625 -9.140625 -9.984375 C -8.816406 -9.804688 -8.476562 -9.75 -8.125 -9.8125 C -7.78125 -9.875 -7.390625 -10.039062 -6.953125 -10.3125 L -2.25 -13.546875 C -1.363281 -14.160156 -0.523438 -14.492188 0.265625 -14.546875 C 1.054688 -14.609375 1.84375 -14.429688 2.625 -14.015625 C 3.507812 -13.523438 4.132812 -12.890625 4.5 -12.109375 C 4.863281 -11.328125 4.992188 -10.4375 4.890625 -9.4375 C 4.785156 -8.445312 4.441406 -7.421875 3.859375 -6.359375 C 3.304688 -5.328125 2.691406 -4.523438 2.015625 -3.953125 C 1.347656 -3.378906 0.707031 -2.96875 0.09375 -2.71875 C -0.519531 -2.46875 -1.019531 -2.3125 -1.40625 -2.25 C -1.789062 -2.1875 -1.984375 -2.15625 -1.984375 -2.15625 L -4.1875 -3.359375 L -3.125 -5.3125 L -1.9375 -4.796875 C -1.625 -4.835938 -1.25 -4.941406 -0.8125 -5.109375 C -0.375 -5.273438 0.0703125 -5.550781 0.53125 -5.9375 C 0.988281 -6.320312 1.410156 -6.859375 1.796875 -7.546875 C 2.179688 -8.253906 2.347656 -8.890625 2.296875 -9.453125 C 2.242188 -10.015625 1.984375 -10.425781 1.515625 -10.6875 C 1.210938 -10.84375 0.894531 -10.914062 0.5625 -10.90625 C 0.226562 -10.90625 -0.171875 -10.75 -0.640625 -10.4375 L -5.203125 -7.296875 C -6.171875 -6.648438 -7.046875 -6.269531 -7.828125 -6.15625 C -8.609375 -6.039062 -9.398438 -6.207031 -10.203125 -6.65625 C -11.503906 -7.363281 -12.300781 -8.382812 -12.59375 -9.71875 C -12.882812 -11.050781 -12.617188 -12.476562 -11.796875 -14 C -11.265625 -14.957031 -10.671875 -15.703125 -10.015625 -16.234375 C -9.359375 -16.765625 -8.734375 -17.144531 -8.140625 -17.375 C -7.546875 -17.613281 -7.050781 -17.757812 -6.65625 -17.8125 C -6.257812 -17.875 -6.0625 -17.90625 -6.0625 -17.90625 Z M -3.875 -16.703125 "/></g></g></g><g fill="#ffffff" fill-opacity="1"><g transform="translate(128.346763, 144.928657)"><g><path d="M -11.640625 -11.953125 L -2.671875 -21.515625 L 0.25 -18.765625 L -1.40625 -17 L -2.484375 -17.796875 L -6.5 -13.5 L -3.375 -10.578125 L -0.0625 -14.125 L 1.90625 -12.28125 L -1.40625 -8.734375 L 1.703125 -5.8125 L 5.71875 -10.109375 L 4.890625 -11.109375 L 6.546875 -12.875 L 9.484375 -10.109375 L 0.515625 -0.546875 L -1.484375 -2.421875 L -0.6875 -3.28125 L -8.890625 -10.96875 L -9.6875 -10.109375 Z M -11.640625 -11.953125 "/></g></g></g><g fill="#ffffff" fill-opacity="1"><g transform="translate(140.798777, 132.193892)"><g><path d="M 3.15625 -5.171875 L 6.265625 -7.046875 C 6.890625 -7.429688 7.296875 -7.925781 7.484375 -8.53125 C 7.679688 -9.144531 7.585938 -9.765625 7.203125 -10.390625 C 6.816406 -11.003906 6.3125 -11.359375 5.6875 -11.453125 C 5.0625 -11.546875 4.4375 -11.398438 3.8125 -11.015625 L 0.71875 -9.109375 Z M -8.125 -14.578125 L -1.171875 -18.875 C -0.367188 -19.375 0.457031 -19.640625 1.3125 -19.671875 C 2.164062 -19.710938 2.945312 -19.554688 3.65625 -19.203125 C 4.375 -18.847656 4.953125 -18.316406 5.390625 -17.609375 C 5.773438 -16.984375 5.988281 -16.335938 6.03125 -15.671875 C 6.070312 -15.003906 5.972656 -14.363281 5.734375 -13.75 C 6.597656 -13.925781 7.453125 -13.863281 8.296875 -13.5625 C 9.140625 -13.269531 9.84375 -12.675781 10.40625 -11.78125 C 10.875 -11.007812 11.101562 -10.21875 11.09375 -9.40625 C 11.09375 -8.59375 10.867188 -7.828125 10.421875 -7.109375 C 9.972656 -6.390625 9.34375 -5.78125 8.53125 -5.28125 L 0.640625 -0.390625 L -0.796875 -2.71875 L 0.203125 -3.34375 L -5.71875 -12.90625 L -6.71875 -12.28125 Z M -0.3125 -10.78125 L 1.859375 -12.125 C 2.421875 -12.46875 2.796875 -12.953125 2.984375 -13.578125 C 3.171875 -14.203125 3.085938 -14.800781 2.734375 -15.375 C 2.410156 -15.894531 1.941406 -16.242188 1.328125 -16.421875 C 0.710938 -16.597656 0.0703125 -16.484375 -0.59375 -16.078125 L -2.765625 -14.734375 Z M -0.3125 -10.78125 "/></g></g></g><g fill="#ffffff" fill-opacity="1"><g transform="translate(157.284502, 122.347651)"><g><path d="M 3.015625 -18.0625 L 6.4375 -18.96875 L 15.671875 -7.015625 L 16.890625 -7.34375 L 17.59375 -4.703125 L 11.578125 -3.09375 L 10.875 -5.734375 L 12.15625 -6.078125 L 10.453125 -8.46875 L 4.734375 -6.9375 L 4.46875 -4.015625 L 5.765625 -4.375 L 6.46875 -1.734375 L 0.484375 -0.125 L -0.21875 -2.765625 L 0.953125 -3.078125 Z M 4.953125 -9.515625 L 8.96875 -10.578125 L 5.515625 -15.53125 Z M 4.953125 -9.515625 "/></g></g></g><g fill="#ffffff" fill-opacity="1"><g transform="translate(178.765849, 117.432369)"><g><path d="M 13.046875 -11.125 L 10.75 -11.1875 L 10.6875 -12.828125 C 10.332031 -13.191406 9.847656 -13.554688 9.234375 -13.921875 C 8.628906 -14.285156 7.890625 -14.476562 7.015625 -14.5 C 6.328125 -14.507812 5.765625 -14.359375 5.328125 -14.046875 C 4.890625 -13.734375 4.664062 -13.285156 4.65625 -12.703125 C 4.644531 -12.335938 4.75 -12.015625 4.96875 -11.734375 C 5.1875 -11.460938 5.515625 -11.191406 5.953125 -10.921875 L 11 -8.234375 C 11.945312 -7.734375 12.628906 -7.144531 13.046875 -6.46875 C 13.460938 -5.789062 13.660156 -5.007812 13.640625 -4.125 C 13.617188 -3.113281 13.34375 -2.265625 12.8125 -1.578125 C 12.289062 -0.890625 11.566406 -0.363281 10.640625 0 C 9.710938 0.363281 8.644531 0.53125 7.4375 0.5 C 6.269531 0.476562 5.273438 0.300781 4.453125 -0.03125 C 3.628906 -0.363281 2.960938 -0.742188 2.453125 -1.171875 C 1.953125 -1.597656 1.582031 -1.96875 1.34375 -2.28125 C 1.113281 -2.601562 1 -2.765625 1 -2.765625 L 1.046875 -5.265625 L 3.28125 -5.21875 L 3.375 -3.921875 C 3.550781 -3.660156 3.8125 -3.375 4.15625 -3.0625 C 4.507812 -2.757812 4.960938 -2.488281 5.515625 -2.25 C 6.066406 -2.019531 6.738281 -1.898438 7.53125 -1.890625 C 8.332031 -1.867188 8.96875 -2.007812 9.4375 -2.3125 C 9.914062 -2.613281 10.160156 -3.035156 10.171875 -3.578125 C 10.179688 -3.921875 10.101562 -4.238281 9.9375 -4.53125 C 9.78125 -4.820312 9.457031 -5.101562 8.96875 -5.375 L 4.09375 -7.984375 C 3.0625 -8.535156 2.316406 -9.132812 1.859375 -9.78125 C 1.398438 -10.425781 1.179688 -11.207031 1.203125 -12.125 C 1.234375 -13.613281 1.773438 -14.789062 2.828125 -15.65625 C 3.878906 -16.53125 5.269531 -16.953125 7 -16.921875 C 8.09375 -16.898438 9.023438 -16.71875 9.796875 -16.375 C 10.566406 -16.03125 11.195312 -15.648438 11.6875 -15.234375 C 12.175781 -14.816406 12.53125 -14.441406 12.75 -14.109375 C 12.976562 -13.785156 13.09375 -13.625 13.09375 -13.625 Z M 13.046875 -11.125 "/></g></g></g><g fill="#ffffff" fill-opacity="1"><g transform="translate(196.51692, 118.197943)"><g><path d="M 5.140625 -15.890625 L 19.09375 -11.828125 L 17.875 -7.65625 L 15.390625 -8.375 L 15.703125 -10 L 13.015625 -10.78125 L 9.875 0.015625 L 11 0.34375 L 10.234375 2.96875 L 4.625 1.34375 L 5.390625 -1.28125 L 6.53125 -0.953125 L 9.671875 -11.75 L 6.9375 -12.53125 L 6.359375 -11 L 3.921875 -11.703125 Z M 5.140625 -15.890625 "/></g></g></g><g fill="#ffffff" fill-opacity="1"><g transform="translate(214.61755, 124.319462)"><g><path d="M 8.609375 -14.3125 L 13.734375 -11.515625 L 12.4375 -9.140625 L 11.421875 -9.71875 L 6.046875 0.171875 L 7.078125 0.734375 L 5.78125 3.140625 L 0.65625 0.359375 L 1.953125 -2.046875 L 2.984375 -1.484375 L 8.359375 -11.375 L 7.328125 -11.9375 Z M 8.609375 -14.3125 "/></g></g></g><g fill="#ffffff" fill-opacity="1"><g transform="translate(224.368463, 129.341718)"><g><path d="M 16.78125 -7.328125 L 19.40625 -4.953125 L 14.421875 9.3125 L 15.359375 10.15625 L 13.53125 12.1875 L 8.90625 8.015625 L 10.734375 5.984375 L 11.71875 6.875 L 12.8125 4.15625 L 8.40625 0.1875 L 5.8125 1.5625 L 6.8125 2.453125 L 4.984375 4.484375 L 0.375 0.328125 L 2.203125 -1.703125 L 3.109375 -0.875 Z M 10.6875 -1.03125 L 13.765625 1.75 L 16.015625 -3.859375 Z M 10.6875 -1.03125 "/></g></g></g><g fill="#ffffff" fill-opacity="1"><g transform="translate(240.331402, 144.43934)"><g><path d="M 11.46875 8.40625 L 18.640625 4.21875 L 18.03125 3.171875 L 20.375 1.8125 L 23.296875 6.859375 L 20.96875 8.203125 L 20.375 7.203125 L 8.296875 14.25 L 6.9375 11.90625 L 12.21875 -0.859375 L 5.078125 3.296875 L 5.671875 4.3125 L 3.3125 5.6875 L 0.375 0.640625 L 2.734375 -0.734375 L 3.328125 0.28125 L 13.046875 -5.390625 L 12.453125 -6.40625 L 14.796875 -7.765625 L 16.75 -4.375 Z M 11.46875 8.40625 "/></g></g></g><g fill="#ffffff" fill-opacity="1"><g transform="translate(111.506365, 226.913039)"><g><path d="M 9.984375 9.671875 C 9.984375 9.671875 9.820312 9.648438 9.5 9.609375 C 9.1875 9.566406 8.753906 9.441406 8.203125 9.234375 C 7.660156 9.035156 7.066406 8.703125 6.421875 8.234375 C 5.785156 7.765625 5.144531 7.113281 4.5 6.28125 C 3.539062 5.019531 2.976562 3.796875 2.8125 2.609375 C 2.644531 1.429688 2.800781 0.335938 3.28125 -0.671875 C 3.769531 -1.679688 4.5 -2.5625 5.46875 -3.3125 C 6.425781 -4.039062 7.453125 -4.507812 8.546875 -4.71875 C 9.640625 -4.925781 10.738281 -4.796875 11.84375 -4.328125 C 12.945312 -3.867188 13.976562 -3.007812 14.9375 -1.75 C 15.550781 -0.957031 15.972656 -0.191406 16.203125 0.546875 C 16.441406 1.285156 16.5625 1.929688 16.5625 2.484375 C 16.5625 3.046875 16.519531 3.488281 16.4375 3.8125 C 16.351562 4.144531 16.3125 4.3125 16.3125 4.3125 L 14.171875 5.96875 L 12.40625 3.6875 L 13.671875 2.171875 C 13.585938 1.898438 13.472656 1.609375 13.328125 1.296875 C 13.179688 0.992188 12.988281 0.6875 12.75 0.375 C 12.28125 -0.226562 11.769531 -0.628906 11.21875 -0.828125 C 10.664062 -1.023438 10.101562 -1.054688 9.53125 -0.921875 C 8.957031 -0.785156 8.414062 -0.523438 7.90625 -0.140625 C 7.394531 0.253906 7.007812 0.722656 6.75 1.265625 C 6.5 1.804688 6.414062 2.394531 6.5 3.03125 C 6.582031 3.664062 6.875 4.3125 7.375 4.96875 C 7.726562 5.425781 8.113281 5.796875 8.53125 6.078125 C 8.957031 6.367188 9.363281 6.582031 9.75 6.71875 C 10.132812 6.863281 10.445312 6.960938 10.6875 7.015625 C 10.925781 7.066406 11.046875 7.09375 11.046875 7.09375 Z M 9.984375 9.671875 "/></g></g></g><g fill="#ffffff" fill-opacity="1"><g transform="translate(122.20127, 240.424549)"><g><path d="M 12.265625 -2.4375 C 11.691406 -2.9375 11.132812 -3.207031 10.59375 -3.25 C 10.0625 -3.300781 9.550781 -3.179688 9.0625 -2.890625 C 8.570312 -2.609375 8.113281 -2.222656 7.6875 -1.734375 C 7.269531 -1.242188 6.957031 -0.738281 6.75 -0.21875 C 6.539062 0.300781 6.492188 0.828125 6.609375 1.359375 C 6.734375 1.890625 7.082031 2.40625 7.65625 2.90625 C 8.226562 3.394531 8.785156 3.660156 9.328125 3.703125 C 9.867188 3.742188 10.382812 3.625 10.875 3.34375 C 11.363281 3.0625 11.816406 2.675781 12.234375 2.1875 C 12.660156 1.695312 12.976562 1.1875 13.1875 0.65625 C 13.394531 0.132812 13.4375 -0.382812 13.3125 -0.90625 C 13.1875 -1.4375 12.835938 -1.945312 12.265625 -2.4375 Z M 14.265625 -4.75 C 15.460938 -3.71875 16.253906 -2.640625 16.640625 -1.515625 C 17.035156 -0.398438 17.097656 0.695312 16.828125 1.78125 C 16.554688 2.863281 16.023438 3.863281 15.234375 4.78125 C 14.441406 5.695312 13.523438 6.367188 12.484375 6.796875 C 11.453125 7.234375 10.351562 7.335938 9.1875 7.109375 C 8.019531 6.890625 6.835938 6.265625 5.640625 5.234375 C 4.441406 4.191406 3.644531 3.109375 3.25 1.984375 C 2.851562 0.859375 2.789062 -0.242188 3.0625 -1.328125 C 3.332031 -2.421875 3.863281 -3.425781 4.65625 -4.34375 C 5.445312 -5.257812 6.359375 -5.929688 7.390625 -6.359375 C 8.429688 -6.785156 9.535156 -6.882812 10.703125 -6.65625 C 11.878906 -6.425781 13.066406 -5.789062 14.265625 -4.75 Z M 14.265625 -4.75 "/></g></g></g><g fill="#ffffff" fill-opacity="1"><g transform="translate(136.131093, 251.936534)"><g><path d="M 5.171875 2.953125 L 0.328125 0.1875 L 1.859375 -2.484375 L 2.625 -2.046875 L 5.859375 -7.6875 L 5.09375 -8.125 L 6.625 -10.796875 L 12.8125 -7.25 C 13.4375 -6.882812 13.929688 -6.429688 14.296875 -5.890625 C 14.660156 -5.347656 14.859375 -4.75 14.890625 -4.09375 C 14.921875 -3.445312 14.738281 -2.78125 14.34375 -2.09375 C 13.957031 -1.414062 13.472656 -0.921875 12.890625 -0.609375 C 12.316406 -0.304688 11.707031 -0.175781 11.0625 -0.21875 L 11.203125 2.875 L 12.21875 3.453125 L 10.6875 6.125 L 7.546875 4.328125 L 7.453125 -1.765625 L 7.15625 -1.9375 L 6.078125 -0.0625 L 6.703125 0.28125 Z M 8.234375 -3.8125 L 9.1875 -3.265625 C 9.457031 -3.109375 9.734375 -3.078125 10.015625 -3.171875 C 10.296875 -3.273438 10.507812 -3.453125 10.65625 -3.703125 C 10.789062 -3.941406 10.832031 -4.203125 10.78125 -4.484375 C 10.738281 -4.765625 10.566406 -4.988281 10.265625 -5.15625 L 9.3125 -5.703125 Z M 8.234375 -3.8125 "/></g></g></g><g fill="#ffffff" fill-opacity="1"><g transform="translate(149.532745, 259.347925)"><g><path d="M 5.609375 2.015625 L 0.359375 0.125 L 1.40625 -2.765625 L 2.234375 -2.46875 L 4.421875 -8.59375 L 3.59375 -8.890625 L 4.640625 -11.78125 L 12.1875 -9.0625 C 12.863281 -8.820312 13.425781 -8.441406 13.875 -7.921875 C 14.320312 -7.410156 14.601562 -6.800781 14.71875 -6.09375 C 14.832031 -5.382812 14.738281 -4.601562 14.4375 -3.75 C 14.132812 -2.90625 13.710938 -2.242188 13.171875 -1.765625 C 12.628906 -1.285156 12.019531 -0.992188 11.34375 -0.890625 C 10.675781 -0.785156 10.003906 -0.851562 9.328125 -1.09375 L 6.34375 -2.171875 L 5.96875 -1.125 L 6.65625 -0.875 Z M 7.359375 -5.03125 L 9.234375 -4.359375 C 9.535156 -4.242188 9.820312 -4.257812 10.09375 -4.40625 C 10.363281 -4.550781 10.554688 -4.78125 10.671875 -5.09375 C 10.773438 -5.382812 10.773438 -5.675781 10.671875 -5.96875 C 10.566406 -6.257812 10.351562 -6.460938 10.03125 -6.578125 L 8.15625 -7.25 Z M 7.359375 -5.03125 "/></g></g></g><g fill="#ffffff" fill-opacity="1"><g transform="translate(164.065368, 264.424495)"><g><path d="M 9.09375 -8.59375 C 8.34375 -8.707031 7.726562 -8.640625 7.25 -8.390625 C 6.769531 -8.140625 6.394531 -7.765625 6.125 -7.265625 C 5.863281 -6.765625 5.6875 -6.191406 5.59375 -5.546875 C 5.488281 -4.910156 5.488281 -4.316406 5.59375 -3.765625 C 5.695312 -3.210938 5.9375 -2.742188 6.3125 -2.359375 C 6.695312 -1.972656 7.265625 -1.722656 8.015625 -1.609375 C 8.753906 -1.492188 9.367188 -1.5625 9.859375 -1.8125 C 10.347656 -2.0625 10.722656 -2.4375 10.984375 -2.9375 C 11.242188 -3.4375 11.425781 -4.003906 11.53125 -4.640625 C 11.625 -5.285156 11.617188 -5.882812 11.515625 -6.4375 C 11.421875 -6.988281 11.175781 -7.457031 10.78125 -7.84375 C 10.394531 -8.226562 9.832031 -8.476562 9.09375 -8.59375 Z M 9.5625 -11.59375 C 11.125 -11.351562 12.367188 -10.863281 13.296875 -10.125 C 14.234375 -9.382812 14.867188 -8.484375 15.203125 -7.421875 C 15.546875 -6.359375 15.628906 -5.226562 15.453125 -4.03125 C 15.265625 -2.832031 14.847656 -1.773438 14.203125 -0.859375 C 13.554688 0.046875 12.675781 0.710938 11.5625 1.140625 C 10.445312 1.578125 9.109375 1.675781 7.546875 1.4375 C 5.972656 1.195312 4.722656 0.703125 3.796875 -0.046875 C 2.867188 -0.796875 2.226562 -1.703125 1.875 -2.765625 C 1.53125 -3.828125 1.453125 -4.957031 1.640625 -6.15625 C 1.816406 -7.351562 2.234375 -8.40625 2.890625 -9.3125 C 3.546875 -10.226562 4.425781 -10.894531 5.53125 -11.3125 C 6.644531 -11.738281 7.988281 -11.832031 9.5625 -11.59375 Z M 9.5625 -11.59375 "/></g></g></g><g fill="#ffffff" fill-opacity="1"><g transform="translate(181.981593, 266.788492)"><g><path d="M 5.953125 -0.234375 L 0.375 -0.015625 L 0.25 -3.09375 L 1.140625 -3.125 L 0.890625 -9.625 L 0 -9.59375 L -0.125 -12.65625 L 7.015625 -12.9375 C 7.734375 -12.957031 8.390625 -12.835938 8.984375 -12.578125 C 9.585938 -12.316406 10.070312 -11.914062 10.4375 -11.375 C 10.8125 -10.84375 11.015625 -10.179688 11.046875 -9.390625 C 11.078125 -8.609375 10.925781 -7.9375 10.59375 -7.375 C 10.269531 -6.8125 9.828125 -6.375 9.265625 -6.0625 L 11 -3.515625 L 12.171875 -3.5625 L 12.296875 -0.484375 L 8.703125 -0.34375 L 5.375 -5.453125 L 5.03125 -5.4375 L 5.109375 -3.28125 L 5.828125 -3.3125 Z M 4.953125 -7.609375 L 6.0625 -7.65625 C 6.375 -7.664062 6.625 -7.785156 6.8125 -8.015625 C 7 -8.242188 7.085938 -8.503906 7.078125 -8.796875 C 7.066406 -9.078125 6.960938 -9.320312 6.765625 -9.53125 C 6.578125 -9.738281 6.3125 -9.835938 5.96875 -9.828125 L 4.859375 -9.78125 Z M 4.953125 -7.609375 "/></g></g></g><g fill="#ffffff" fill-opacity="1"><g transform="translate(197.334689, 266.025991)"><g><path d="M 2.375 -13.53125 L 6.234375 -14.421875 L 12.3125 -6 L 13.234375 -6.203125 L 13.921875 -3.203125 L 7.9375 -1.828125 L 7.25 -4.828125 L 8.28125 -5.0625 L 7.6875 -6.0625 L 4.71875 -5.390625 L 4.65625 -4.234375 L 5.640625 -4.453125 L 6.328125 -1.453125 L 0.359375 -0.078125 L -0.328125 -3.078125 L 0.578125 -3.296875 Z M 4.9375 -8.203125 L 6.265625 -8.5 L 5.125 -10.46875 Z M 4.9375 -8.203125 "/></g></g></g><g fill="#ffffff" fill-opacity="1"><g transform="translate(214.153601, 261.798045)"><g><path d="M -4.765625 -11.734375 L 6.328125 -16.625 L 8.15625 -12.5 L 5.484375 -11.3125 L 4.765625 -12.5625 L 3.796875 -12.203125 L 6.453125 -6.203125 L 7.28125 -6.5625 L 8.515625 -3.75 L 3.25 -1.4375 L 2.015625 -4.25 L 2.828125 -4.609375 L 0.171875 -10.609375 L -0.734375 -10.140625 L -0.296875 -8.765625 L -2.9375 -7.609375 Z M -4.765625 -11.734375 "/></g></g></g><g fill="#ffffff" fill-opacity="1"><g transform="translate(228.038627, 255.236965)"><g><path d="M -6.359375 -10.953125 L -1.4375 -14 L 0.1875 -11.390625 L -0.625 -10.9375 L 2.828125 -5.375 L 3.609375 -5.859375 L 5.234375 -3.25 L 0.3125 -0.203125 L -1.3125 -2.8125 L -0.546875 -3.28125 L -4 -8.84375 L -4.765625 -8.375 Z M -6.359375 -10.953125 "/></g></g></g><g fill="#ffffff" fill-opacity="1"><g transform="translate(235.84272, 250.561797)"><g><path d="M -0.609375 -12.5 C -1.179688 -12 -1.53125 -11.484375 -1.65625 -10.953125 C -1.78125 -10.429688 -1.738281 -9.910156 -1.53125 -9.390625 C -1.320312 -8.867188 -1.007812 -8.363281 -0.59375 -7.875 C -0.164062 -7.382812 0.285156 -6.992188 0.765625 -6.703125 C 1.253906 -6.410156 1.769531 -6.285156 2.3125 -6.328125 C 2.863281 -6.367188 3.425781 -6.640625 4 -7.140625 C 4.570312 -7.628906 4.914062 -8.140625 5.03125 -8.671875 C 5.15625 -9.203125 5.113281 -9.726562 4.90625 -10.25 C 4.707031 -10.78125 4.394531 -11.289062 3.96875 -11.78125 C 3.550781 -12.269531 3.097656 -12.65625 2.609375 -12.9375 C 2.117188 -13.226562 1.601562 -13.347656 1.0625 -13.296875 C 0.519531 -13.253906 -0.0351562 -12.988281 -0.609375 -12.5 Z M -2.59375 -14.8125 C -1.394531 -15.84375 -0.210938 -16.46875 0.953125 -16.6875 C 2.117188 -16.914062 3.21875 -16.816406 4.25 -16.390625 C 5.28125 -15.960938 6.1875 -15.289062 6.96875 -14.375 C 7.769531 -13.445312 8.304688 -12.441406 8.578125 -11.359375 C 8.847656 -10.273438 8.785156 -9.171875 8.390625 -8.046875 C 7.992188 -6.921875 7.195312 -5.84375 6 -4.8125 C 4.789062 -3.769531 3.601562 -3.140625 2.4375 -2.921875 C 1.269531 -2.703125 0.171875 -2.804688 -0.859375 -3.234375 C -1.898438 -3.660156 -2.820312 -4.335938 -3.625 -5.265625 C -4.40625 -6.179688 -4.925781 -7.179688 -5.1875 -8.265625 C -5.457031 -9.347656 -5.394531 -10.445312 -5 -11.5625 C -4.601562 -12.6875 -3.800781 -13.769531 -2.59375 -14.8125 Z M -2.59375 -14.8125 "/></g></g></g><g fill="#ffffff" fill-opacity="1"><g transform="translate(249.377658, 238.500597)"><g><path d="M 0.609375 -11.4375 L -1.875 -13.34375 L -2.421875 -12.625 L -4.8125 -14.484375 L -1.296875 -19.046875 L 1.140625 -17.15625 L 0.546875 -16.46875 L 8.171875 -10.59375 L 6.28125 -8.15625 L -1.671875 -7.90625 L 0.765625 -6.015625 L 1.328125 -6.75 L 3.765625 -4.875 L 0.234375 -0.296875 L -2.203125 -2.171875 L -1.671875 -2.875 L -6.859375 -6.875 L -7.390625 -6.171875 L -9.78125 -8.03125 L -7.359375 -11.171875 Z M 0.609375 -11.4375 "/></g></g></g><g clip-path="url(#44b89a0664)"><path fill="#f1f2f2" d="M 259.894531 194.160156 C 258.90625 202.496094 258.105469 203.296875 249.769531 204.285156 C 249.785156 204.285156 249.800781 204.289062 249.820312 204.289062 C 258.109375 205.273438 258.90625 206.089844 259.894531 214.410156 C 260.878906 206.070312 261.679688 205.269531 270.019531 204.285156 C 261.679688 203.296875 260.878906 202.496094 259.894531 194.160156 Z M 259.894531 194.160156 " fill-opacity="1" fill-rule="nonzero"/></g><g clip-path="url(#8b49065ff5)"><path fill="#f1f2f2" d="M 136 189.972656 C 135.011719 198.308594 134.214844 199.109375 125.875 200.097656 C 125.890625 200.097656 125.910156 200.101562 125.925781 200.101562 C 134.214844 201.085938 135.015625 201.902344 136 210.222656 C 136.988281 201.882812 137.785156 201.082031 146.125 200.097656 C 137.785156 199.109375 136.988281 198.308594 136 189.972656 Z M 136 189.972656 " fill-opacity="1" fill-rule="nonzero"/></g><g clip-path="url(#4c39e17247)"><path fill="#f1f2f2" d="M 262.894531 164.484375 C 261.90625 172.824219 261.105469 173.621094 252.769531 174.609375 C 252.785156 174.613281 252.800781 174.613281 252.820312 174.617188 C 261.109375 175.601562 261.90625 176.414062 262.894531 184.734375 C 263.878906 176.398438 264.679688 175.597656 273.019531 174.609375 C 264.679688 173.621094 263.878906 172.824219 262.894531 164.484375 Z M 262.894531 164.484375 " fill-opacity="1" fill-rule="nonzero"/></g><g clip-path="url(#946ceccb89)"><path fill="#f1f2f2" d="M 114.773438 194.160156 C 113.789062 202.496094 112.988281 203.296875 104.648438 204.285156 C 104.667969 204.285156 104.683594 204.289062 104.703125 204.289062 C 112.992188 205.273438 113.789062 206.089844 114.773438 214.410156 C 115.761719 206.070312 116.5625 205.269531 124.898438 204.285156 C 116.5625 203.296875 115.761719 202.496094 114.773438 194.160156 Z M 114.773438 194.160156 " fill-opacity="1" fill-rule="nonzero"/></g></svg>