<svg xmlns="http://www.w3.org/2000/svg" xmlns:xlink="http://www.w3.org/1999/xlink" width="500" zoomAndPan="magnify" viewBox="0 0 375 374.999991" height="500" preserveAspectRatio="xMidYMid meet" version="1.0"><defs><clipPath id="bfa42165c7"><path d="M 43.382812 44.328125 L 332 44.328125 L 332 332.9375 L 43.382812 332.9375 Z M 43.382812 44.328125 " clip-rule="nonzero"/></clipPath></defs><path fill="#62bc32" d="M 308.1875 145.136719 C 332.175781 211.28125 298.074219 284.382812 232.019531 308.402344 C 165.960938 332.425781 92.964844 298.277344 68.976562 232.128906 C 44.988281 165.980469 79.089844 92.882812 145.144531 68.859375 C 211.203125 44.835938 284.195312 78.988281 308.1875 145.136719 " fill-opacity="1" fill-rule="nonzero"/><path fill="#f0e9f2" d="M 187.777344 75.769531 C 174.710938 75.769531 161.820312 78.050781 149.375 82.578125 C 135.074219 87.777344 122.222656 95.625 111.171875 105.902344 C 105.863281 110.84375 101 116.335938 96.730469 122.222656 C 92.496094 128.054688 88.804688 134.332031 85.75 140.875 C 82.699219 147.417969 80.261719 154.28125 78.511719 161.273438 C 76.742188 168.335938 75.65625 175.589844 75.277344 182.839844 C 74.5 197.921875 76.734375 212.832031 81.929688 227.148438 C 87.121094 241.46875 94.957031 254.335938 105.21875 265.402344 C 110.152344 270.722656 115.636719 275.585938 121.519531 279.867188 C 127.34375 284.105469 133.613281 287.804688 140.144531 290.859375 C 146.675781 293.917969 153.53125 296.355469 160.515625 298.109375 C 167.566406 299.882812 174.8125 300.96875 182.050781 301.34375 C 197.113281 302.128906 212 299.890625 226.296875 294.6875 C 240.597656 289.488281 253.449219 281.640625 264.5 271.363281 C 269.808594 266.421875 274.667969 260.933594 278.945312 255.042969 C 283.175781 249.207031 286.871094 242.933594 289.921875 236.390625 C 292.972656 229.847656 295.410156 222.984375 297.160156 215.992188 C 298.929688 208.929688 300.019531 201.675781 300.394531 194.425781 C 301.171875 179.34375 298.9375 164.433594 293.742188 150.117188 C 288.550781 135.800781 280.714844 122.929688 270.449219 111.863281 C 265.515625 106.542969 260.035156 101.675781 254.152344 97.398438 C 248.328125 93.160156 242.058594 89.460938 235.527344 86.40625 C 228.996094 83.351562 222.140625 80.910156 215.15625 79.15625 C 208.105469 77.382812 200.859375 76.292969 193.617188 75.917969 C 191.667969 75.816406 189.71875 75.769531 187.777344 75.769531 Z M 187.898438 303.621094 C 185.917969 303.621094 183.929688 303.570312 181.941406 303.464844 C 174.566406 303.082031 167.183594 301.976562 160 300.167969 C 152.886719 298.382812 145.902344 295.898438 139.246094 292.785156 C 132.589844 289.671875 126.207031 285.902344 120.273438 281.585938 C 114.28125 277.226562 108.695312 272.265625 103.667969 266.847656 C 93.210938 255.574219 85.226562 242.460938 79.933594 227.875 C 74.644531 213.285156 72.367188 198.097656 73.160156 182.730469 C 73.546875 175.34375 74.652344 167.949219 76.457031 160.757812 C 78.238281 153.632812 80.71875 146.640625 83.832031 139.976562 C 86.9375 133.3125 90.703125 126.917969 95.011719 120.976562 C 99.367188 114.976562 104.320312 109.378906 109.730469 104.347656 C 120.988281 93.875 134.085938 85.878906 148.652344 80.582031 C 163.214844 75.285156 178.382812 73.003906 193.730469 73.800781 C 201.105469 74.179688 208.488281 75.292969 215.671875 77.09375 C 222.785156 78.882812 229.769531 81.367188 236.425781 84.480469 C 243.082031 87.597656 249.464844 91.363281 255.398438 95.683594 C 261.390625 100.039062 266.980469 104.996094 272.003906 110.417969 C 282.460938 121.691406 290.445312 134.808594 295.738281 149.390625 C 301.027344 163.976562 303.304688 179.167969 302.511719 194.535156 C 302.125 201.921875 301.019531 209.3125 299.214844 216.507812 C 297.433594 223.632812 294.953125 230.625 291.839844 237.289062 C 288.730469 243.953125 284.96875 250.347656 280.65625 256.289062 C 276.304688 262.292969 271.355469 267.882812 265.941406 272.917969 C 254.683594 283.390625 241.585938 291.386719 227.019531 296.683594 C 214.34375 301.296875 201.207031 303.621094 187.898438 303.621094 " fill-opacity="1" fill-rule="nonzero"/><g clip-path="url(#bfa42165c7)"><path fill="#62bc32" d="M 160.148438 317.53125 C 161.753906 317.53125 163.363281 317.675781 164.972656 317.960938 C 168.757812 318.632812 172.285156 320.054688 175.460938 322.179688 C 177.824219 323.769531 179.902344 325.695312 181.664062 327.914062 C 183.617188 325.855469 185.855469 324.128906 188.351562 322.753906 C 191.699219 320.914062 195.339844 319.808594 199.175781 319.476562 C 203.007812 319.144531 206.78125 319.601562 210.398438 320.839844 C 213.09375 321.761719 215.597656 323.078125 217.871094 324.769531 C 219.226562 322.277344 220.941406 320.027344 223 318.050781 C 225.757812 315.40625 228.988281 313.398438 232.605469 312.082031 C 236.222656 310.765625 239.988281 310.230469 243.800781 310.488281 C 246.640625 310.679688 249.402344 311.304688 252.035156 312.34375 C 252.699219 309.585938 253.773438 306.96875 255.25 304.53125 C 257.230469 301.257812 259.832031 298.480469 262.984375 296.273438 C 266.140625 294.066406 269.640625 292.570312 273.386719 291.832031 C 276.179688 291.28125 279.007812 291.167969 281.820312 291.492188 C 281.75 288.65625 282.113281 285.847656 282.90625 283.109375 C 283.972656 279.433594 285.769531 276.078125 288.246094 273.128906 C 290.722656 270.179688 293.714844 267.828125 297.144531 266.140625 C 299.699219 264.882812 302.402344 264.042969 305.207031 263.628906 C 304.398438 260.90625 304.023438 258.097656 304.085938 255.246094 C 304.167969 251.421875 305.035156 247.710938 306.664062 244.222656 C 308.292969 240.734375 310.574219 237.6875 313.453125 235.171875 C 315.59375 233.292969 317.988281 231.78125 320.585938 230.652344 C 319.105469 228.234375 318.019531 225.617188 317.339844 222.847656 C 316.433594 219.132812 316.3125 215.324219 316.980469 211.53125 C 317.652344 207.734375 319.074219 204.203125 321.199219 201.027344 C 322.785156 198.660156 324.703125 196.578125 326.925781 194.8125 C 324.871094 192.863281 323.140625 190.617188 321.773438 188.117188 C 319.933594 184.765625 318.832031 181.117188 318.496094 177.277344 C 318.167969 173.441406 318.625 169.65625 319.859375 166.039062 C 320.777344 163.339844 322.09375 160.832031 323.785156 158.554688 C 321.292969 157.199219 319.042969 155.480469 317.074219 153.421875 C 314.429688 150.660156 312.425781 147.421875 311.113281 143.800781 C 309.796875 140.179688 309.261719 136.40625 309.519531 132.59375 C 309.710938 129.746094 310.335938 126.980469 311.375 124.34375 C 308.625 123.679688 306.003906 122.601562 303.570312 121.125 C 300.304688 119.140625 297.53125 116.535156 295.324219 113.378906 C 293.121094 110.21875 291.628906 106.714844 290.890625 102.964844 C 290.339844 100.164062 290.226562 97.332031 290.550781 94.515625 C 287.71875 94.589844 284.914062 94.226562 282.179688 93.429688 C 278.511719 92.359375 275.15625 90.5625 272.210938 88.082031 C 269.265625 85.601562 266.917969 82.605469 265.238281 79.171875 C 263.980469 76.613281 263.140625 73.90625 262.722656 71.101562 C 260.007812 71.90625 257.207031 72.28125 254.355469 72.222656 C 250.539062 72.140625 246.835938 71.273438 243.351562 69.640625 C 239.863281 68.011719 236.820312 65.722656 234.308594 62.839844 C 232.433594 60.691406 230.921875 58.300781 229.796875 55.695312 C 227.378906 57.175781 224.765625 58.269531 222.003906 58.945312 C 218.292969 59.859375 214.492188 59.980469 210.703125 59.308594 C 206.914062 58.632812 203.386719 57.214844 200.210938 55.082031 C 197.847656 53.496094 195.769531 51.570312 194.007812 49.351562 C 192.058594 51.40625 189.816406 53.136719 187.320312 54.511719 C 183.972656 56.351562 180.332031 57.453125 176.496094 57.785156 C 172.664062 58.121094 168.886719 57.664062 165.273438 56.425781 C 162.578125 55.503906 160.074219 54.1875 157.800781 52.496094 C 156.449219 54.992188 154.730469 57.242188 152.671875 59.214844 C 149.917969 61.859375 146.683594 63.867188 143.066406 65.183594 C 139.449219 66.5 135.683594 67.035156 131.871094 66.78125 C 129.03125 66.585938 126.269531 65.964844 123.636719 64.921875 C 122.972656 67.675781 121.898438 70.300781 120.421875 72.738281 C 118.441406 76.007812 115.839844 78.785156 112.683594 80.992188 C 109.53125 83.203125 106.03125 84.695312 102.285156 85.4375 C 99.492188 85.988281 96.664062 86.101562 93.847656 85.777344 C 93.925781 88.609375 93.558594 91.421875 92.765625 94.160156 C 91.695312 97.832031 89.902344 101.191406 87.425781 104.140625 C 84.949219 107.089844 81.957031 109.441406 78.527344 111.125 C 75.972656 112.382812 73.269531 113.222656 70.46875 113.640625 C 71.269531 116.359375 71.648438 119.167969 71.585938 122.019531 C 71.503906 125.84375 70.636719 129.550781 69.011719 133.042969 C 67.378906 136.535156 65.097656 139.578125 62.21875 142.097656 C 60.074219 143.972656 57.679688 145.488281 55.082031 146.613281 C 56.5625 149.03125 57.652344 151.648438 58.332031 154.417969 C 59.238281 158.132812 59.359375 161.9375 58.691406 165.734375 C 58.019531 169.527344 56.597656 173.0625 54.472656 176.238281 C 52.886719 178.609375 50.964844 180.6875 48.746094 182.453125 C 50.800781 184.40625 52.53125 186.648438 53.898438 189.148438 C 55.738281 192.503906 56.839844 196.148438 57.171875 199.988281 C 57.503906 203.824219 57.046875 207.605469 55.8125 211.226562 C 54.890625 213.925781 53.578125 216.433594 51.886719 218.710938 C 54.378906 220.066406 56.625 221.785156 58.597656 223.84375 C 61.242188 226.609375 63.246094 229.84375 64.558594 233.464844 C 65.871094 237.085938 66.410156 240.855469 66.152344 244.675781 C 65.957031 247.519531 65.335938 250.28125 64.292969 252.921875 C 67.046875 253.582031 69.667969 254.664062 72.101562 256.140625 C 75.367188 258.125 78.140625 260.730469 80.347656 263.886719 C 82.554688 267.046875 84.042969 270.550781 84.78125 274.304688 C 85.332031 277.101562 85.445312 279.933594 85.121094 282.75 C 87.953125 282.675781 90.761719 283.039062 93.492188 283.835938 C 97.160156 284.90625 100.515625 286.703125 103.460938 289.183594 C 106.40625 291.664062 108.753906 294.660156 110.4375 298.09375 C 111.691406 300.65625 112.53125 303.359375 112.945312 306.164062 C 115.664062 305.359375 118.46875 304.984375 121.316406 305.046875 C 125.132812 305.125 128.839844 305.996094 132.328125 307.625 C 135.8125 309.257812 138.851562 311.542969 141.363281 314.421875 C 143.238281 316.570312 144.75 318.96875 145.875 321.570312 C 148.292969 320.089844 150.902344 318.996094 153.667969 318.316406 C 155.804688 317.792969 157.972656 317.53125 160.148438 317.53125 Z M 181.523438 332.9375 C 181.496094 332.9375 181.46875 332.9375 181.441406 332.9375 C 180.824219 332.910156 180.257812 332.585938 179.917969 332.066406 C 178.167969 329.398438 175.945312 327.148438 173.316406 325.382812 C 170.59375 323.554688 167.558594 322.332031 164.300781 321.753906 C 161.042969 321.175781 157.773438 321.277344 154.585938 322.058594 C 151.507812 322.816406 148.648438 324.164062 146.089844 326.070312 C 145.59375 326.441406 144.953125 326.546875 144.363281 326.359375 C 143.773438 326.175781 143.3125 325.714844 143.117188 325.128906 C 142.117188 322.097656 140.550781 319.347656 138.464844 316.957031 C 136.308594 314.484375 133.695312 312.519531 130.695312 311.113281 C 127.695312 309.714844 124.515625 308.964844 121.234375 308.898438 C 118.0625 308.832031 114.953125 309.390625 111.988281 310.566406 C 111.414062 310.796875 110.765625 310.734375 110.246094 310.398438 C 109.726562 310.066406 109.394531 309.503906 109.363281 308.886719 C 109.179688 305.699219 108.378906 302.640625 106.980469 299.792969 C 105.535156 296.84375 103.519531 294.265625 100.984375 292.132812 C 98.453125 290 95.570312 288.457031 92.417969 287.535156 C 89.375 286.648438 86.230469 286.386719 83.0625 286.757812 C 82.445312 286.824219 81.835938 286.601562 81.417969 286.144531 C 81.003906 285.6875 80.828125 285.058594 80.957031 284.453125 C 81.601562 281.324219 81.621094 278.164062 81.007812 275.046875 C 80.375 271.824219 79.089844 268.8125 77.191406 266.097656 C 75.296875 263.378906 72.914062 261.140625 70.105469 259.4375 C 67.394531 257.789062 64.421875 256.722656 61.269531 256.253906 C 60.660156 256.164062 60.125 255.785156 59.839844 255.238281 C 59.554688 254.6875 59.554688 254.039062 59.832031 253.484375 C 61.265625 250.632812 62.101562 247.582031 62.3125 244.417969 C 62.535156 241.136719 62.074219 237.894531 60.941406 234.78125 C 59.8125 231.664062 58.089844 228.882812 55.820312 226.511719 C 53.625 224.21875 51.03125 222.414062 48.105469 221.148438 C 47.535156 220.902344 47.121094 220.398438 46.988281 219.796875 C 46.855469 219.191406 47.019531 218.558594 47.429688 218.097656 C 49.550781 215.71875 51.148438 212.988281 52.171875 209.980469 C 53.234375 206.875 53.625 203.621094 53.339844 200.320312 C 53.054688 197.019531 52.109375 193.882812 50.527344 191.003906 C 49.003906 188.222656 46.960938 185.804688 44.460938 183.824219 C 43.976562 183.441406 43.707031 182.847656 43.734375 182.230469 C 43.761719 181.613281 44.082031 181.042969 44.601562 180.703125 C 47.265625 178.953125 49.511719 176.726562 51.277344 174.09375 C 53.105469 171.363281 54.324219 168.324219 54.902344 165.0625 C 55.480469 161.800781 55.375 158.527344 54.59375 155.335938 C 53.839844 152.253906 52.492188 149.390625 50.585938 146.828125 C 50.222656 146.332031 50.113281 145.691406 50.296875 145.101562 C 50.484375 144.511719 50.941406 144.046875 51.527344 143.851562 C 54.554688 142.851562 57.300781 141.285156 59.6875 139.195312 C 62.160156 137.03125 64.125 134.414062 65.523438 131.410156 C 66.925781 128.410156 67.671875 125.222656 67.738281 121.9375 C 67.808594 118.761719 67.246094 115.648438 66.070312 112.679688 C 65.84375 112.109375 65.902344 111.457031 66.234375 110.933594 C 66.570312 110.414062 67.132812 110.085938 67.75 110.050781 C 70.933594 109.867188 73.988281 109.066406 76.832031 107.667969 C 79.777344 106.21875 82.351562 104.199219 84.480469 101.660156 C 86.609375 99.125 88.152344 96.238281 89.070312 93.082031 C 89.957031 90.035156 90.21875 86.882812 89.847656 83.710938 C 89.777344 83.097656 90.003906 82.484375 90.460938 82.066406 C 90.917969 81.648438 91.546875 81.476562 92.152344 81.605469 C 95.269531 82.25 98.429688 82.269531 101.542969 81.65625 C 104.761719 81.019531 107.769531 79.738281 110.480469 77.835938 C 113.191406 75.9375 115.429688 73.550781 117.132812 70.742188 C 118.773438 68.023438 119.84375 65.046875 120.304688 61.890625 C 120.394531 61.277344 120.773438 60.746094 121.320312 60.460938 C 121.871094 60.175781 122.523438 60.171875 123.074219 60.449219 C 125.921875 61.886719 128.96875 62.722656 132.128906 62.933594 C 135.40625 63.15625 138.640625 62.695312 141.753906 61.5625 C 144.863281 60.429688 147.644531 58.703125 150.011719 56.433594 C 152.300781 54.238281 154.101562 51.636719 155.363281 48.707031 C 155.609375 48.136719 156.113281 47.722656 156.71875 47.589844 C 157.320312 47.457031 157.949219 47.621094 158.410156 48.03125 C 160.792969 50.15625 163.519531 51.753906 166.515625 52.78125 C 169.621094 53.84375 172.867188 54.234375 176.164062 53.949219 C 179.460938 53.660156 182.59375 52.714844 185.46875 51.132812 C 188.246094 49.605469 190.660156 47.558594 192.636719 45.058594 C 193.023438 44.574219 193.613281 44.300781 194.230469 44.328125 C 194.851562 44.355469 195.414062 44.679688 195.753906 45.195312 C 197.503906 47.867188 199.722656 50.113281 202.355469 51.882812 C 205.082031 53.714844 208.117188 54.9375 211.371094 55.515625 C 214.632812 56.089844 217.898438 55.988281 221.085938 55.203125 C 224.164062 54.449219 227.023438 53.097656 229.578125 51.195312 C 230.078125 50.824219 230.71875 50.71875 231.308594 50.902344 C 231.898438 51.089844 232.359375 51.546875 232.554688 52.136719 C 233.554688 55.167969 235.121094 57.914062 237.207031 60.304688 C 239.363281 62.78125 241.980469 64.746094 244.976562 66.148438 C 247.976562 67.550781 251.160156 68.300781 254.4375 68.371094 C 257.609375 68.4375 260.71875 67.875 263.679688 66.699219 C 264.253906 66.46875 264.902344 66.53125 265.421875 66.863281 C 265.945312 67.195312 266.273438 67.757812 266.308594 68.378906 C 266.492188 71.5625 267.292969 74.625 268.691406 77.472656 C 270.136719 80.421875 272.15625 83 274.6875 85.132812 C 277.21875 87.265625 280.101562 88.8125 283.253906 89.730469 C 286.296875 90.617188 289.445312 90.878906 292.609375 90.511719 C 293.226562 90.4375 293.835938 90.667969 294.253906 91.125 C 294.671875 91.578125 294.84375 92.210938 294.71875 92.816406 C 294.070312 95.941406 294.050781 99.105469 294.664062 102.21875 C 295.296875 105.441406 296.582031 108.453125 298.476562 111.167969 C 300.375 113.886719 302.757812 116.125 305.5625 117.832031 C 308.277344 119.476562 311.25 120.546875 314.402344 121.011719 C 315.011719 121.097656 315.546875 121.480469 315.832031 122.027344 C 316.117188 122.574219 316.121094 123.230469 315.839844 123.78125 C 314.40625 126.632812 313.570312 129.683594 313.359375 132.851562 C 313.136719 136.128906 313.597656 139.371094 314.726562 142.488281 C 315.859375 145.601562 317.582031 148.382812 319.851562 150.753906 C 322.042969 153.046875 324.640625 154.851562 327.566406 156.113281 C 328.136719 156.359375 328.546875 156.863281 328.683594 157.46875 C 328.816406 158.070312 328.652344 158.703125 328.242188 159.164062 C 326.117188 161.550781 324.523438 164.28125 323.5 167.285156 C 322.4375 170.394531 322.046875 173.644531 322.332031 176.945312 C 322.621094 180.246094 323.566406 183.382812 325.144531 186.261719 C 326.667969 189.046875 328.710938 191.460938 331.207031 193.441406 C 331.695312 193.824219 331.964844 194.417969 331.941406 195.035156 C 331.914062 195.65625 331.589844 196.21875 331.074219 196.558594 C 328.40625 198.3125 326.160156 200.539062 324.394531 203.171875 C 322.566406 205.902344 321.347656 208.9375 320.769531 212.203125 C 320.195312 215.46875 320.296875 218.738281 321.078125 221.929688 C 321.835938 225.011719 323.179688 227.875 325.082031 230.433594 C 325.449219 230.929688 325.558594 231.578125 325.371094 232.167969 C 325.183594 232.757812 324.726562 233.21875 324.140625 233.414062 C 321.113281 234.417969 318.371094 235.984375 315.984375 238.070312 C 313.511719 240.234375 311.546875 242.851562 310.148438 245.855469 C 308.746094 248.855469 308 252.042969 307.933594 255.328125 C 307.863281 258.5 308.425781 261.617188 309.601562 264.582031 C 309.828125 265.160156 309.765625 265.808594 309.433594 266.332031 C 309.101562 266.851562 308.539062 267.183594 307.921875 267.21875 C 304.738281 267.402344 301.683594 268.203125 298.839844 269.597656 C 295.890625 271.050781 293.320312 273.066406 291.191406 275.605469 C 289.0625 278.144531 287.519531 281.03125 286.601562 284.183594 C 285.714844 287.230469 285.453125 290.386719 285.824219 293.554688 C 285.894531 294.167969 285.667969 294.78125 285.210938 295.199219 C 284.757812 295.617188 284.128906 295.789062 283.519531 295.664062 C 280.398438 295.015625 277.238281 295 274.132812 295.609375 C 270.910156 296.246094 267.90625 297.53125 265.191406 299.429688 C 262.476562 301.328125 260.242188 303.714844 258.539062 306.527344 C 256.898438 309.238281 255.832031 312.214844 255.363281 315.375 C 255.277344 315.984375 254.898438 316.519531 254.347656 316.804688 C 253.800781 317.089844 253.152344 317.09375 252.597656 316.8125 C 249.75 315.378906 246.703125 314.542969 243.539062 314.332031 C 240.265625 314.109375 237.03125 314.570312 233.917969 315.703125 C 230.808594 316.835938 228.03125 318.558594 225.660156 320.835938 C 223.371094 323.03125 221.570312 325.628906 220.304688 328.558594 C 220.0625 329.128906 219.558594 329.542969 218.953125 329.675781 C 218.351562 329.8125 217.71875 329.644531 217.261719 329.234375 C 214.878906 327.105469 212.152344 325.511719 209.152344 324.484375 C 206.046875 323.421875 202.804688 323.03125 199.507812 323.316406 C 196.210938 323.601562 193.082031 324.550781 190.203125 326.132812 C 187.425781 327.660156 185.011719 329.703125 183.035156 332.207031 C 182.667969 332.671875 182.113281 332.9375 181.523438 332.9375 " fill-opacity="1" fill-rule="nonzero"/></g><path fill="#3b8033" d="M 258.292969 163.011719 C 272.425781 201.976562 252.335938 245.035156 213.421875 259.1875 C 174.511719 273.339844 131.511719 253.222656 117.378906 214.257812 C 103.246094 175.289062 123.335938 132.226562 162.25 118.078125 C 201.160156 103.925781 244.160156 124.042969 258.292969 163.011719 " fill-opacity="1" fill-rule="nonzero"/><path fill="#f0e9f2" d="M 187.800781 119.65625 C 179.816406 119.65625 171.9375 121.050781 164.332031 123.816406 C 155.59375 126.996094 147.738281 131.792969 140.984375 138.074219 C 134.460938 144.140625 129.234375 151.332031 125.449219 159.445312 C 121.660156 167.5625 119.507812 176.191406 119.046875 185.089844 C 118.570312 194.3125 119.9375 203.421875 123.109375 212.171875 C 126.28125 220.921875 131.074219 228.789062 137.347656 235.550781 C 143.40625 242.082031 150.585938 247.316406 158.6875 251.109375 C 166.792969 254.898438 175.410156 257.054688 184.300781 257.515625 C 193.503906 257.996094 202.601562 256.625 211.34375 253.445312 C 220.082031 250.269531 227.933594 245.476562 234.6875 239.191406 C 241.210938 233.125 246.4375 225.933594 250.226562 217.816406 C 254.011719 209.707031 256.164062 201.078125 256.625 192.171875 C 257.101562 182.957031 255.734375 173.84375 252.5625 165.09375 C 249.386719 156.34375 244.597656 148.480469 238.324219 141.714844 C 232.265625 135.183594 225.085938 129.949219 216.984375 126.15625 C 208.878906 122.367188 200.261719 120.207031 191.371094 119.746094 C 190.179688 119.6875 188.988281 119.65625 187.800781 119.65625 Z M 187.871094 259.734375 C 186.648438 259.734375 185.421875 259.703125 184.191406 259.636719 C 175.027344 259.160156 166.144531 256.9375 157.792969 253.03125 C 149.441406 249.125 142.039062 243.730469 135.792969 236.996094 C 129.328125 230.023438 124.386719 221.914062 121.117188 212.894531 C 117.847656 203.878906 116.4375 194.488281 116.929688 184.984375 C 117.40625 175.804688 119.625 166.910156 123.527344 158.546875 C 127.429688 150.183594 132.816406 142.773438 139.542969 136.515625 C 146.503906 130.039062 154.601562 125.097656 163.605469 121.820312 C 172.613281 118.546875 181.992188 117.136719 191.480469 117.628906 C 200.644531 118.101562 209.527344 120.324219 217.878906 124.234375 C 226.230469 128.140625 233.632812 133.539062 239.878906 140.273438 C 246.34375 147.242188 251.285156 155.351562 254.550781 164.371094 C 257.824219 173.386719 259.234375 182.78125 258.742188 192.28125 C 258.265625 201.460938 256.046875 210.355469 252.144531 218.71875 C 248.246094 227.082031 242.855469 234.492188 236.128906 240.75 C 229.167969 247.222656 221.070312 252.167969 212.066406 255.445312 C 204.226562 258.292969 196.101562 259.734375 187.871094 259.734375 " fill-opacity="1" fill-rule="nonzero"/><path fill="#62bc32" d="M 340.394531 169.914062 L 60.816406 271.585938 C 56.28125 273.238281 51.265625 270.894531 49.617188 266.347656 L 31.535156 216.492188 C 29.886719 211.949219 32.230469 206.925781 36.765625 205.277344 L 316.34375 103.601562 C 320.882812 101.953125 325.898438 104.296875 327.546875 108.84375 L 345.625 158.695312 C 347.277344 163.242188 344.933594 168.261719 340.394531 169.914062 " fill-opacity="1" fill-rule="nonzero"/><path fill="#f0e9f2" d="M 319.324219 104.019531 C 318.441406 104.019531 317.542969 104.171875 316.667969 104.488281 L 37.089844 206.164062 C 33.046875 207.632812 30.953125 212.125 32.421875 216.171875 L 50.5 266.027344 C 51.96875 270.074219 56.453125 272.171875 60.496094 270.703125 L 340.074219 169.027344 L 340.394531 169.914062 L 340.074219 169.027344 C 344.117188 167.554688 346.207031 163.066406 344.742188 159.019531 L 326.660156 109.164062 C 325.511719 105.992188 322.511719 104.019531 319.324219 104.019531 Z M 57.84375 273.058594 C 53.882812 273.058594 50.15625 270.609375 48.730469 266.671875 L 30.648438 216.8125 C 28.828125 211.789062 31.425781 206.214844 36.445312 204.390625 L 316.023438 102.714844 C 321.042969 100.890625 326.609375 103.496094 328.433594 108.519531 L 346.511719 158.375 C 348.335938 163.402344 345.734375 168.976562 340.71875 170.800781 L 61.140625 272.476562 C 60.050781 272.871094 58.9375 273.058594 57.84375 273.058594 " fill-opacity="1" fill-rule="nonzero"/><path fill="#f0e9f2" d="M 171.914062 134.585938 C 172.351562 135.039062 172.996094 135.226562 173.605469 135.074219 L 179 133.730469 C 179.0625 133.714844 179.125 133.734375 179.164062 133.789062 C 179.203125 133.835938 179.210938 133.90625 179.179688 133.960938 L 176.5625 138.878906 C 176.269531 139.433594 176.292969 140.105469 176.625 140.636719 L 179.574219 145.367188 C 179.609375 145.425781 179.609375 145.488281 179.570312 145.542969 C 179.535156 145.597656 179.472656 145.625 179.410156 145.613281 L 173.9375 144.632812 C 173.320312 144.523438 172.6875 144.753906 172.285156 145.238281 L 168.710938 149.503906 C 168.671875 149.550781 168.605469 149.574219 168.542969 149.550781 C 168.484375 149.535156 168.441406 149.484375 168.429688 149.421875 L 167.664062 143.898438 C 167.574219 143.273438 167.160156 142.746094 166.578125 142.511719 L 161.421875 140.417969 C 161.363281 140.394531 161.328125 140.339844 161.324219 140.273438 C 161.320312 140.210938 161.355469 140.15625 161.414062 140.125 L 166.410156 137.691406 C 166.976562 137.417969 167.351562 136.859375 167.398438 136.230469 L 167.78125 130.671875 C 167.785156 130.605469 167.824219 130.554688 167.886719 130.53125 C 167.945312 130.507812 168.011719 130.523438 168.054688 130.570312 L 171.914062 134.585938 " fill-opacity="1" fill-rule="evenodd"/><path fill="#f0e9f2" d="M 195.746094 130.726562 C 196.074219 131.070312 196.5625 131.210938 197.023438 131.09375 L 201.101562 130.082031 C 201.148438 130.066406 201.195312 130.082031 201.226562 130.121094 C 201.253906 130.160156 201.261719 130.210938 201.238281 130.253906 L 199.261719 133.972656 C 199.039062 134.390625 199.054688 134.898438 199.304688 135.300781 L 201.539062 138.878906 C 201.5625 138.917969 201.5625 138.96875 201.535156 139.007812 C 201.507812 139.046875 201.460938 139.070312 201.414062 139.0625 L 197.277344 138.320312 C 196.808594 138.238281 196.332031 138.410156 196.023438 138.777344 L 193.328125 142.003906 C 193.292969 142.039062 193.246094 142.050781 193.199219 142.039062 C 193.152344 142.023438 193.121094 141.988281 193.113281 141.941406 L 192.53125 137.765625 C 192.46875 137.296875 192.15625 136.894531 191.714844 136.71875 L 187.820312 135.136719 C 187.769531 135.113281 187.742188 135.074219 187.742188 135.027344 C 187.738281 134.980469 187.765625 134.933594 187.808594 134.914062 L 191.589844 133.074219 C 192.015625 132.867188 192.300781 132.445312 192.332031 131.96875 L 192.625 127.765625 C 192.625 127.714844 192.65625 127.675781 192.703125 127.660156 C 192.746094 127.644531 192.796875 127.65625 192.828125 127.691406 L 195.746094 130.726562 " fill-opacity="1" fill-rule="evenodd"/><path fill="#f0e9f2" d="M 148.710938 147.832031 C 149.042969 148.175781 149.53125 148.316406 149.992188 148.199219 L 154.066406 147.183594 C 154.113281 147.171875 154.160156 147.1875 154.191406 147.230469 C 154.222656 147.265625 154.226562 147.316406 154.203125 147.359375 L 152.226562 151.078125 C 152.003906 151.496094 152.023438 152.003906 152.273438 152.40625 L 154.503906 155.980469 C 154.527344 156.023438 154.527344 156.074219 154.5 156.113281 C 154.472656 156.15625 154.425781 156.175781 154.378906 156.164062 L 150.242188 155.425781 C 149.773438 155.34375 149.296875 155.515625 148.988281 155.882812 L 146.292969 159.105469 C 146.261719 159.144531 146.214844 159.160156 146.167969 159.144531 C 146.121094 159.132812 146.085938 159.09375 146.078125 159.042969 L 145.496094 154.871094 C 145.433594 154.398438 145.121094 154 144.679688 153.820312 L 140.78125 152.238281 C 140.738281 152.222656 140.710938 152.179688 140.707031 152.132812 C 140.707031 152.082031 140.734375 152.039062 140.773438 152.019531 L 144.554688 150.175781 C 144.980469 149.972656 145.265625 149.550781 145.296875 149.074219 L 145.589844 144.871094 C 145.59375 144.824219 145.621094 144.78125 145.667969 144.765625 C 145.714844 144.75 145.761719 144.761719 145.796875 144.796875 L 148.710938 147.832031 " fill-opacity="1" fill-rule="evenodd"/><path fill="#f0e9f2" d="M 210.226562 240.234375 C 210.273438 239.605469 210.648438 239.050781 211.214844 238.773438 L 216.210938 236.339844 C 216.269531 236.3125 216.304688 236.257812 216.300781 236.191406 C 216.300781 236.128906 216.261719 236.074219 216.203125 236.046875 L 211.046875 233.953125 C 210.464844 233.71875 210.050781 233.191406 209.964844 232.566406 L 209.195312 227.042969 C 209.183594 226.980469 209.140625 226.929688 209.078125 226.914062 C 209.015625 226.894531 208.957031 226.914062 208.914062 226.964844 L 205.339844 231.230469 C 204.9375 231.710938 204.304688 231.941406 203.6875 231.832031 L 198.214844 230.855469 C 198.152344 230.84375 198.089844 230.871094 198.054688 230.925781 C 198.019531 230.976562 198.019531 231.039062 198.050781 231.097656 L 201 235.828125 C 201.335938 236.359375 201.355469 237.03125 201.0625 237.585938 L 198.445312 242.503906 C 198.417969 242.5625 198.421875 242.628906 198.460938 242.679688 C 198.5 242.730469 198.5625 242.753906 198.628906 242.734375 L 204.019531 241.390625 C 204.628906 241.238281 205.273438 241.425781 205.710938 241.878906 L 209.570312 245.898438 C 209.613281 245.941406 209.679688 245.957031 209.738281 245.9375 C 209.800781 245.914062 209.839844 245.859375 209.84375 245.796875 L 210.226562 240.234375 " fill-opacity="1" fill-rule="evenodd"/><path fill="#f0e9f2" d="M 230.980469 227.878906 C 231.011719 227.40625 231.296875 226.984375 231.726562 226.777344 L 235.503906 224.9375 C 235.546875 224.917969 235.574219 224.875 235.570312 224.824219 C 235.566406 224.773438 235.539062 224.734375 235.496094 224.714844 L 231.597656 223.136719 C 231.15625 222.957031 230.84375 222.554688 230.78125 222.085938 L 230.199219 217.910156 C 230.195312 217.863281 230.160156 217.824219 230.113281 217.8125 C 230.066406 217.796875 230.019531 217.8125 229.988281 217.851562 L 227.289062 221.074219 C 226.980469 221.441406 226.503906 221.613281 226.035156 221.527344 L 221.898438 220.792969 C 221.851562 220.78125 221.804688 220.800781 221.777344 220.839844 C 221.75 220.882812 221.75 220.929688 221.773438 220.972656 L 224.003906 224.550781 C 224.257812 224.953125 224.273438 225.460938 224.050781 225.878906 L 222.074219 229.597656 C 222.050781 229.640625 222.058594 229.6875 222.085938 229.726562 C 222.117188 229.769531 222.164062 229.78125 222.210938 229.769531 L 226.289062 228.757812 C 226.75 228.640625 227.234375 228.78125 227.566406 229.125 L 230.484375 232.160156 C 230.515625 232.195312 230.566406 232.207031 230.609375 232.191406 C 230.65625 232.175781 230.6875 232.132812 230.6875 232.085938 L 230.980469 227.878906 " fill-opacity="1" fill-rule="evenodd"/><path fill="#f0e9f2" d="M 183.945312 244.988281 C 183.980469 244.511719 184.265625 244.089844 184.691406 243.882812 L 188.46875 242.042969 C 188.515625 242.019531 188.539062 241.976562 188.535156 241.929688 C 188.535156 241.882812 188.507812 241.839844 188.460938 241.820312 L 184.5625 240.238281 C 184.125 240.0625 183.8125 239.660156 183.746094 239.191406 L 183.164062 235.015625 C 183.15625 234.964844 183.125 234.929688 183.078125 234.917969 C 183.03125 234.902344 182.984375 234.917969 182.953125 234.953125 L 180.253906 238.179688 C 179.945312 238.546875 179.472656 238.714844 179 238.636719 L 174.863281 237.894531 C 174.816406 237.886719 174.769531 237.90625 174.742188 237.949219 C 174.714844 237.988281 174.714844 238.039062 174.742188 238.078125 L 176.96875 241.65625 C 177.222656 242.058594 177.238281 242.566406 177.015625 242.984375 L 175.039062 246.703125 C 175.019531 246.746094 175.019531 246.792969 175.050781 246.835938 C 175.082031 246.871094 175.128906 246.890625 175.175781 246.875 L 179.253906 245.859375 C 179.714844 245.746094 180.203125 245.882812 180.53125 246.230469 L 183.449219 249.265625 C 183.480469 249.300781 183.53125 249.3125 183.574219 249.296875 C 183.621094 249.277344 183.652344 249.238281 183.65625 249.191406 L 183.945312 244.988281 " fill-opacity="1" fill-rule="evenodd"/><path fill="#f0e9f2" d="M 44.5625 213.722656 L 55.265625 209.828125 L 79.5 240.304688 L 78.488281 201.382812 L 89.191406 197.492188 L 88.851562 249.492188 L 78.148438 253.386719 L 44.5625 213.722656 " fill-opacity="1" fill-rule="nonzero"/><path fill="#f0e9f2" d="M 110.65625 241.5625 L 94.035156 195.730469 L 120.082031 186.257812 L 123.433594 195.492188 L 106.941406 201.488281 L 110.167969 210.386719 L 125.316406 204.875 L 128.664062 214.109375 L 113.519531 219.617188 L 116.867188 228.851562 L 133.355469 222.855469 L 136.707031 232.089844 L 110.65625 241.5625 " fill-opacity="1" fill-rule="nonzero"/><path fill="#f0e9f2" d="M 148.070312 186.53125 L 141.808594 188.808594 L 145.546875 199.121094 L 151.808594 196.84375 C 154.835938 195.746094 156.464844 193.089844 155.265625 189.789062 C 154.046875 186.417969 151.097656 185.429688 148.070312 186.53125 Z M 128.902344 183.050781 L 144.71875 177.300781 C 153.671875 174.042969 161.625 176.644531 164.703125 185.136719 C 167.074219 191.675781 164.671875 196.820312 160.628906 199.738281 C 167.425781 200.625 173.792969 207.464844 178.4375 216.914062 L 168.542969 220.511719 C 163.3125 211.125 156.839844 205.46875 151.253906 207.5 L 148.894531 208.355469 L 155.082031 225.40625 L 145.523438 228.886719 L 128.902344 183.050781 " fill-opacity="1" fill-rule="nonzero"/><path fill="#f0e9f2" d="M 168.8125 168.535156 L 178.371094 165.058594 L 194.992188 210.894531 L 185.4375 214.367188 L 168.8125 168.535156 " fill-opacity="1" fill-rule="nonzero"/><path fill="#f0e9f2" d="M 208.65625 187.230469 L 214.648438 203.746094 L 205.089844 207.222656 L 188.46875 161.386719 L 214.515625 151.914062 L 217.863281 161.148438 L 201.375 167.144531 L 205.308594 178 L 220.453125 172.488281 L 223.804688 181.722656 L 208.65625 187.230469 " fill-opacity="1" fill-rule="nonzero"/><path fill="#f0e9f2" d="M 222.390625 149.050781 L 231.949219 145.574219 L 248.570312 191.410156 L 239.011719 194.882812 L 222.390625 149.050781 " fill-opacity="1" fill-rule="nonzero"/><path fill="#f0e9f2" d="M 258.667969 187.738281 L 242.042969 141.902344 L 268.09375 132.429688 L 271.441406 141.664062 L 254.953125 147.660156 L 258.179688 156.558594 L 273.320312 151.050781 L 276.671875 160.285156 L 261.527344 165.792969 L 264.875 175.027344 L 281.367188 169.03125 L 284.714844 178.261719 L 258.667969 187.738281 " fill-opacity="1" fill-rule="nonzero"/><path fill="#f0e9f2" d="M 289.816406 134.980469 L 299.742188 162.347656 L 307.078125 159.679688 C 315.359375 156.667969 317.738281 149.164062 314.902344 141.34375 C 312.09375 133.59375 305.433594 129.304688 297.152344 132.316406 Z M 276.910156 129.222656 L 293.871094 123.054688 C 307.804688 117.988281 319.933594 124.332031 324.800781 137.746094 C 329.664062 151.164062 324.425781 163.820312 310.492188 168.886719 L 293.53125 175.058594 L 276.910156 129.222656 " fill-opacity="1" fill-rule="nonzero"/><path fill="#f0e9f2" d="M 154.382812 289.066406 L 147.722656 286.914062 C 147.578125 286.867188 147.480469 286.769531 147.5 286.613281 L 147.574219 264.582031 C 147.582031 264.355469 147.730469 264.308594 147.90625 264.363281 L 153.421875 266.152344 C 153.570312 266.199219 153.660156 266.324219 153.640625 266.476562 L 153.0625 282.859375 L 162.050781 269.199219 C 162.125 269.0625 162.269531 269.011719 162.417969 269.058594 L 167.238281 270.621094 C 167.410156 270.675781 167.5 270.800781 167.375 270.988281 L 154.742188 288.957031 C 154.664062 289.09375 154.527344 289.113281 154.382812 289.066406 " fill-opacity="1" fill-rule="nonzero"/><path fill="#f0e9f2" d="M 183.398438 289.683594 L 183.082031 293.265625 C 183.066406 293.417969 182.933594 293.53125 182.78125 293.515625 L 167.375 292.152344 C 167.222656 292.140625 167.113281 292.007812 167.125 291.855469 L 168.183594 281.613281 L 168.964844 270.976562 C 168.980469 270.824219 169.109375 270.710938 169.265625 270.726562 L 184.425781 272.066406 C 184.578125 272.082031 184.691406 272.210938 184.679688 272.367188 L 184.367188 275.917969 C 184.351562 276.070312 184.21875 276.183594 184.066406 276.167969 L 174.375 275.3125 L 173.960938 279.316406 L 182.761719 280.09375 C 182.917969 280.109375 183.027344 280.242188 183.015625 280.394531 L 182.703125 283.945312 C 182.6875 284.101562 182.554688 284.210938 182.402344 284.195312 L 173.597656 283.417969 L 173.210938 288.503906 L 183.148438 289.382812 C 183.300781 289.398438 183.414062 289.53125 183.398438 289.683594 " fill-opacity="1" fill-rule="nonzero"/><path fill="#f0e9f2" d="M 193.324219 275.386719 L 194.042969 281.214844 L 198.179688 280.65625 C 199.699219 280.453125 201.148438 279.480469 200.882812 277.472656 C 200.597656 275.371094 199.316406 274.582031 197.246094 274.859375 Z M 208.773438 290.613281 C 208.917969 290.777344 208.847656 290.941406 208.632812 290.972656 L 202.675781 291.773438 C 202.519531 291.792969 202.390625 291.75 202.3125 291.636719 L 198.546875 286.871094 L 196.800781 284.9375 L 194.582031 285.234375 L 195.640625 292.4375 C 195.660156 292.59375 195.554688 292.730469 195.40625 292.75 L 190.203125 293.449219 C 190.050781 293.46875 189.914062 293.363281 189.890625 293.210938 L 188.613281 282.964844 L 187.109375 272.441406 C 187.085938 272.285156 187.195312 272.148438 187.34375 272.128906 L 196.5625 270.890625 C 202.21875 270.132812 205.722656 272.015625 206.339844 276.613281 C 206.742188 279.628906 205.425781 282.042969 202.613281 283.472656 L 208.773438 290.613281 " fill-opacity="1" fill-rule="nonzero"/><path fill="#f0e9f2" d="M 219.90625 287.050781 C 219.953125 287.199219 219.871094 287.355469 219.726562 287.398438 L 214.78125 288.964844 C 214.636719 289.011719 214.480469 288.929688 214.4375 288.785156 L 211.425781 278.84375 L 208.125 268.800781 C 208.078125 268.65625 208.160156 268.5 208.304688 268.453125 L 213.25 266.890625 C 213.394531 266.84375 213.550781 266.921875 213.597656 267.066406 L 216.664062 277.183594 L 219.90625 287.050781 " fill-opacity="1" fill-rule="nonzero"/><path fill="#f0e9f2" d="M 231.25 282.355469 C 231.316406 282.492188 231.261719 282.65625 231.125 282.726562 L 226.429688 285.066406 C 226.289062 285.136719 226.125 285.078125 226.058594 284.941406 L 221.515625 275.464844 L 216.730469 266.179688 C 216.664062 266.042969 216.71875 265.878906 216.855469 265.808594 L 230.042969 259.238281 C 230.179688 259.167969 230.34375 259.222656 230.414062 259.363281 L 232 262.550781 C 232.070312 262.691406 232.015625 262.855469 231.875 262.921875 L 223.632812 267.03125 L 225.765625 271.53125 L 233.734375 267.558594 C 233.871094 267.488281 234.035156 267.542969 234.105469 267.683594 L 235.691406 270.875 C 235.757812 271.011719 235.703125 271.175781 235.566406 271.246094 L 227.597656 275.214844 L 231.25 282.355469 " fill-opacity="1" fill-rule="nonzero"/><path fill="#f0e9f2" d="M 249.339844 271.394531 C 249.429688 271.519531 249.398438 271.6875 249.273438 271.777344 L 245.042969 274.785156 C 244.917969 274.875 244.746094 274.84375 244.65625 274.71875 L 238.753906 266.175781 L 232.550781 257.625 C 232.460938 257.5 232.488281 257.328125 232.613281 257.238281 L 236.84375 254.234375 C 236.96875 254.144531 237.140625 254.171875 237.230469 254.300781 L 243.234375 262.992188 L 249.339844 271.394531 " fill-opacity="1" fill-rule="nonzero"/><path fill="#f0e9f2" d="M 263.542969 253.710938 L 266.050781 256.285156 C 266.160156 256.394531 266.160156 256.566406 266.046875 256.671875 L 254.984375 267.5 C 254.878906 267.605469 254.703125 267.605469 254.59375 267.496094 L 247.519531 260.027344 L 239.96875 252.507812 C 239.859375 252.398438 239.863281 252.222656 239.972656 252.113281 L 250.859375 241.460938 C 250.96875 241.355469 251.140625 241.355469 251.25 241.46875 L 253.738281 244.015625 C 253.84375 244.125 253.839844 244.300781 253.734375 244.40625 L 246.777344 251.21875 L 249.542969 254.140625 L 255.863281 247.953125 C 255.972656 247.84375 256.144531 247.847656 256.25 247.957031 L 258.742188 250.503906 C 258.847656 250.617188 258.84375 250.789062 258.734375 250.898438 L 252.414062 257.082031 L 256.019531 260.6875 L 263.152344 253.707031 C 263.261719 253.601562 263.4375 253.601562 263.542969 253.710938 " fill-opacity="1" fill-rule="nonzero"/><path fill="#f0e9f2" d="M 264.820312 240.605469 L 270.410156 244.0625 L 271.878906 241.753906 C 273.660156 238.957031 273.351562 236.066406 269.46875 233.585938 C 265.457031 231.027344 262.4375 231.941406 260.65625 234.742188 L 259.257812 236.945312 Z M 270.9375 250.957031 C 270.851562 251.085938 270.683594 251.121094 270.550781 251.042969 L 261.921875 245.386719 L 252.902344 239.777344 C 252.773438 239.695312 252.738281 239.523438 252.820312 239.394531 L 257.089844 232.683594 C 260.453125 227.398438 266.027344 224.359375 272.679688 228.601562 C 279.226562 232.78125 278.605469 238.90625 275.238281 244.191406 L 270.9375 250.957031 " fill-opacity="1" fill-rule="nonzero"/><path fill="#f0e9f2" d="M 117.835938 145.09375 L 113.992188 150.90625 C 113.90625 151.035156 113.789062 151.105469 113.644531 151.046875 L 92.570312 145.070312 C 92.359375 145.003906 92.351562 144.851562 92.453125 144.699219 L 95.640625 139.878906 C 95.722656 139.75 95.867188 139.699219 96.011719 139.757812 L 111.539062 144.695312 L 100.867188 132.410156 C 100.757812 132.300781 100.75 132.152344 100.835938 132.023438 L 103.617188 127.816406 C 103.71875 127.660156 103.859375 127.609375 104.003906 127.777344 L 117.824219 144.722656 C 117.9375 144.832031 117.917969 144.964844 117.835938 145.09375 " fill-opacity="1" fill-rule="nonzero"/><path fill="#f0e9f2" d="M 131.980469 124.078125 L 134.464844 126.652344 C 134.570312 126.761719 134.566406 126.933594 134.457031 127.042969 L 123.386719 137.753906 C 123.277344 137.859375 123.105469 137.859375 123 137.746094 L 115.996094 130.269531 L 108.523438 122.746094 C 108.417969 122.636719 108.421875 122.464844 108.53125 122.355469 L 119.425781 111.8125 C 119.535156 111.707031 119.707031 111.710938 119.8125 111.820312 L 122.277344 114.371094 C 122.382812 114.480469 122.378906 114.65625 122.269531 114.761719 L 115.304688 121.5 L 118.042969 124.421875 L 124.367188 118.300781 C 124.476562 118.195312 124.652344 118.199219 124.757812 118.308594 L 127.21875 120.859375 C 127.324219 120.96875 127.324219 121.144531 127.210938 121.25 L 120.886719 127.371094 L 124.453125 130.980469 L 131.59375 124.074219 C 131.703125 123.964844 131.875 123.96875 131.980469 124.078125 " fill-opacity="1" fill-rule="nonzero"/><path fill="#f0e9f2" d="M 132.53125 107.222656 L 135.546875 112.21875 L 139.082031 110.03125 C 140.378906 109.222656 141.300781 107.753906 140.238281 106.035156 C 139.128906 104.242188 137.644531 104.046875 135.878906 105.144531 Z M 152.746094 114.753906 C 152.949219 114.847656 152.949219 115.023438 152.765625 115.140625 L 147.679688 118.292969 C 147.546875 118.375 147.414062 118.386719 147.296875 118.316406 L 141.9375 115.523438 L 139.566406 114.476562 L 137.671875 115.652344 L 141.5625 121.765625 C 141.640625 121.898438 141.601562 122.0625 141.472656 122.144531 L 137.03125 124.898438 C 136.902344 124.980469 136.734375 124.941406 136.65625 124.8125 L 131.328125 116.027344 L 125.683594 107.078125 C 125.605469 106.945312 125.644531 106.777344 125.773438 106.699219 L 133.640625 101.816406 C 138.472656 98.820312 142.417969 99.105469 144.847656 103.035156 C 146.441406 105.609375 146.222656 108.332031 144.25 110.777344 L 152.746094 114.753906 " fill-opacity="1" fill-rule="nonzero"/><path fill="#f0e9f2" d="M 160.859375 111.890625 C 160.917969 112.035156 160.851562 112.191406 160.707031 112.25 L 155.925781 114.199219 C 155.785156 114.257812 155.628906 114.1875 155.570312 114.046875 L 151.792969 104.425781 L 147.71875 94.726562 C 147.65625 94.585938 147.722656 94.425781 147.867188 94.367188 L 152.648438 92.421875 C 152.789062 92.359375 152.949219 92.429688 153.003906 92.570312 L 156.855469 102.359375 L 160.859375 111.890625 " fill-opacity="1" fill-rule="nonzero"/><path fill="#f0e9f2" d="M 169.898438 109.078125 C 169.9375 109.226562 169.84375 109.375 169.695312 109.410156 L 164.617188 110.636719 C 164.46875 110.671875 164.324219 110.582031 164.285156 110.433594 L 161.988281 100.226562 L 159.40625 90.152344 C 159.367188 90.003906 159.460938 89.859375 159.609375 89.820312 L 173.859375 86.382812 C 174.007812 86.34375 174.152344 86.4375 174.191406 86.585938 L 175.019531 90.03125 C 175.058594 90.179688 174.964844 90.328125 174.820312 90.363281 L 165.910156 92.515625 L 166.980469 97.355469 L 175.59375 95.273438 C 175.742188 95.242188 175.886719 95.328125 175.925781 95.480469 L 176.753906 98.925781 C 176.792969 99.078125 176.699219 99.222656 176.550781 99.257812 L 167.941406 101.339844 L 169.898438 109.078125 " fill-opacity="1" fill-rule="nonzero"/><path fill="#f0e9f2" d="M 187.972656 106.214844 C 187.988281 106.371094 187.878906 106.5 187.722656 106.515625 L 182.582031 106.96875 C 182.429688 106.980469 182.296875 106.871094 182.285156 106.714844 L 181.503906 96.40625 L 180.460938 85.9375 C 180.449219 85.785156 180.5625 85.652344 180.710938 85.636719 L 185.855469 85.1875 C 186.007812 85.171875 186.140625 85.285156 186.152344 85.4375 L 186.953125 95.925781 L 187.972656 106.214844 " fill-opacity="1" fill-rule="nonzero"/><path fill="#f0e9f2" d="M 207.804688 103.265625 L 207.574219 106.839844 C 207.5625 106.992188 207.433594 107.105469 207.28125 107.097656 L 191.921875 106.09375 C 191.765625 106.085938 191.652344 105.953125 191.664062 105.800781 L 192.480469 95.585938 L 193.015625 84.984375 C 193.027344 84.832031 193.15625 84.71875 193.308594 84.726562 L 208.425781 85.714844 C 208.578125 85.722656 208.691406 85.851562 208.683594 86.007812 L 208.453125 89.546875 C 208.441406 89.699219 208.3125 89.8125 208.160156 89.804688 L 198.5 89.171875 L 198.179688 93.167969 L 206.957031 93.738281 C 207.109375 93.75 207.222656 93.882812 207.210938 94.03125 L 206.980469 97.574219 C 206.972656 97.726562 206.84375 97.839844 206.6875 97.828125 L 197.910156 97.257812 L 197.644531 102.328125 L 207.546875 102.972656 C 207.703125 102.984375 207.816406 103.113281 207.804688 103.265625 " fill-opacity="1" fill-rule="nonzero"/><path fill="#f0e9f2" d="M 218.769531 98.792969 L 217.011719 105.097656 L 219.621094 105.867188 C 222.78125 106.796875 225.460938 105.707031 226.753906 101.308594 C 228.097656 96.757812 226.390625 94.121094 223.222656 93.183594 L 220.734375 92.449219 Z M 210.574219 107.5 C 210.425781 107.457031 210.34375 107.304688 210.386719 107.15625 L 213.40625 97.332031 L 216.277344 87.148438 C 216.320312 87.003906 216.46875 86.917969 216.617188 86.960938 L 224.203125 89.203125 C 230.179688 90.96875 234.621094 95.464844 232.402344 103.007812 C 230.21875 110.425781 224.199219 111.519531 218.21875 109.757812 L 210.574219 107.5 " fill-opacity="1" fill-rule="nonzero"/></svg>