<svg xmlns="http://www.w3.org/2000/svg" xmlns:xlink="http://www.w3.org/1999/xlink" width="500" zoomAndPan="magnify" viewBox="0 0 375 374.999991" height="500" preserveAspectRatio="xMidYMid meet" version="1.0"><defs><clipPath id="2d5dcb109b"><path d="M 129.28125 112.5 L 237 112.5 L 237 254 L 129.28125 254 Z M 129.28125 112.5 " clip-rule="nonzero"/></clipPath><clipPath id="c24ae03445"><path d="M 138 121 L 245.53125 121 L 245.53125 262.5 L 138 262.5 Z M 138 121 " clip-rule="nonzero"/></clipPath><clipPath id="058af39f85"><path d="M 205 222 L 245.53125 222 L 245.53125 262.5 L 205 262.5 Z M 205 222 " clip-rule="nonzero"/></clipPath></defs><g clip-path="url(#2d5dcb109b)"><path fill="#7bb1ff" d="M 214.714844 253.660156 L 135.449219 253.660156 C 132.050781 253.660156 129.285156 250.886719 129.285156 247.484375 L 129.285156 118.695312 C 129.285156 115.292969 132.054688 112.519531 135.449219 112.519531 L 230.566406 112.519531 C 233.960938 112.519531 236.730469 115.292969 236.730469 118.695312 L 236.730469 231.605469 Z M 214.714844 253.660156 " fill-opacity="1" fill-rule="evenodd"/></g><g clip-path="url(#c24ae03445)"><path fill="#ddedfc" d="M 205.90625 262.480469 L 144.253906 262.480469 C 140.859375 262.480469 138.089844 259.707031 138.089844 256.304688 L 138.089844 127.515625 C 138.089844 124.113281 140.859375 121.339844 144.253906 121.339844 L 239.371094 121.339844 C 242.765625 121.339844 245.535156 124.113281 245.535156 127.515625 L 245.535156 222.785156 C 232.328125 236.015625 219.117188 249.25 205.90625 262.480469 Z M 205.90625 262.480469 " fill-opacity="1" fill-rule="evenodd"/></g><g clip-path="url(#058af39f85)"><path fill="#abdcff" d="M 245.535156 222.785156 L 212.070312 222.785156 C 208.675781 222.785156 205.90625 225.558594 205.90625 228.960938 L 205.90625 262.480469 Z M 245.535156 222.785156 " fill-opacity="1" fill-rule="evenodd"/></g><path fill="#ffffff" d="M 210.496094 135.265625 C 211.105469 135.878906 211.6875 136.519531 212.234375 137.1875 C 212.785156 137.859375 213.300781 138.554688 213.78125 139.273438 C 214.261719 139.996094 214.707031 140.738281 215.113281 141.503906 C 215.523438 142.265625 215.890625 143.050781 216.222656 143.851562 C 216.554688 144.652344 216.84375 145.464844 217.097656 146.296875 C 217.347656 147.125 217.558594 147.964844 217.726562 148.8125 C 217.894531 149.664062 218.023438 150.519531 218.105469 151.382812 C 218.191406 152.246094 218.234375 153.109375 218.234375 153.976562 C 218.234375 154.84375 218.191406 155.707031 218.105469 156.570312 C 218.023438 157.433594 217.894531 158.289062 217.726562 159.140625 C 217.558594 159.988281 217.347656 160.828125 217.097656 161.660156 C 216.84375 162.488281 216.554688 163.304688 216.222656 164.105469 C 215.890625 164.90625 215.523438 165.6875 215.113281 166.453125 C 214.707031 167.214844 214.261719 167.957031 213.78125 168.679688 C 213.300781 169.398438 212.785156 170.09375 212.238281 170.765625 C 211.6875 171.433594 211.105469 172.078125 210.496094 172.691406 C 209.882812 173.300781 209.242188 173.882812 208.574219 174.433594 C 207.90625 174.984375 207.210938 175.5 206.492188 175.980469 C 205.773438 176.460938 205.03125 176.90625 204.269531 177.316406 C 203.503906 177.726562 202.722656 178.09375 201.925781 178.425781 C 201.125 178.757812 200.3125 179.050781 199.484375 179.300781 C 198.65625 179.554688 197.816406 179.761719 196.96875 179.933594 C 196.117188 180.101562 195.265625 180.230469 194.402344 180.3125 C 193.542969 180.398438 192.679688 180.441406 191.8125 180.441406 C 190.949219 180.441406 190.085938 180.398438 189.222656 180.3125 C 188.363281 180.230469 187.507812 180.101562 186.660156 179.933594 C 185.808594 179.761719 184.972656 179.554688 184.144531 179.300781 C 183.316406 179.050781 182.5 178.757812 181.703125 178.425781 C 180.902344 178.09375 180.121094 177.726562 179.359375 177.316406 C 178.59375 176.90625 177.855469 176.460938 177.132812 175.980469 C 176.414062 175.5 175.71875 174.984375 175.050781 174.433594 C 174.382812 173.882812 173.742188 173.304688 173.128906 172.691406 C 172.519531 172.078125 171.9375 171.4375 171.390625 170.765625 C 170.839844 170.097656 170.324219 169.402344 169.84375 168.679688 C 169.363281 167.960938 168.917969 167.21875 168.511719 166.453125 C 168.101562 165.6875 167.734375 164.90625 167.402344 164.105469 C 167.070312 163.304688 166.78125 162.488281 166.527344 161.660156 C 166.277344 160.832031 166.066406 159.992188 165.898438 159.140625 C 165.730469 158.289062 165.605469 157.433594 165.519531 156.570312 C 165.433594 155.710938 165.390625 154.84375 165.390625 153.976562 C 165.390625 153.109375 165.433594 152.246094 165.519531 151.382812 C 165.601562 150.519531 165.730469 149.664062 165.898438 148.816406 C 166.066406 147.964844 166.277344 147.125 166.527344 146.296875 C 166.78125 145.464844 167.070312 144.652344 167.402344 143.851562 C 167.734375 143.050781 168.101562 142.265625 168.511719 141.503906 C 168.917969 140.738281 169.363281 139.996094 169.84375 139.273438 C 170.324219 138.554688 170.839844 137.859375 171.386719 137.1875 C 171.9375 136.519531 172.519531 135.878906 173.128906 135.265625 C 173.742188 134.652344 174.382812 134.070312 175.050781 133.519531 C 175.71875 132.972656 176.414062 132.457031 177.132812 131.972656 C 177.851562 131.492188 178.59375 131.046875 179.355469 130.640625 C 180.121094 130.230469 180.902344 129.859375 181.703125 129.527344 C 182.5 129.195312 183.3125 128.90625 184.140625 128.652344 C 184.96875 128.402344 185.808594 128.191406 186.65625 128.023438 C 187.507812 127.851562 188.359375 127.726562 189.222656 127.640625 C 190.082031 127.554688 190.945312 127.515625 191.8125 127.515625 C 192.675781 127.511719 193.539062 127.554688 194.402344 127.640625 C 195.261719 127.726562 196.117188 127.851562 196.964844 128.023438 C 197.816406 128.191406 198.652344 128.402344 199.480469 128.652344 C 200.308594 128.90625 201.125 129.195312 201.921875 129.527344 C 202.722656 129.859375 203.503906 130.230469 204.265625 130.636719 C 205.03125 131.046875 205.769531 131.492188 206.492188 131.972656 C 207.210938 132.453125 207.90625 132.96875 208.574219 133.519531 C 209.242188 134.070312 209.882812 134.652344 210.496094 135.265625 Z M 210.496094 135.265625 " fill-opacity="1" fill-rule="nonzero"/><path fill="#56c156" d="M 210.527344 153.976562 C 210.527344 151.867188 212.597656 149.460938 211.941406 147.5625 C 211.28125 145.667969 208.128906 144.984375 206.917969 143.40625 C 205.707031 141.824219 205.992188 138.761719 204.339844 137.601562 C 202.6875 136.445312 199.710938 137.617188 197.730469 136.988281 C 195.746094 136.355469 194.019531 133.6875 191.8125 133.6875 C 189.609375 133.6875 187.878906 136.355469 185.898438 136.988281 C 183.914062 137.617188 180.9375 136.445312 179.285156 137.601562 C 177.636719 138.761719 177.921875 141.824219 176.710938 143.40625 C 175.5 144.984375 172.347656 145.667969 171.6875 147.566406 C 171.027344 149.460938 173.101562 151.867188 173.101562 153.976562 C 173.101562 156.085938 171.027344 158.492188 171.6875 160.390625 C 172.347656 162.289062 175.5 162.96875 176.710938 164.550781 C 177.921875 166.128906 177.636719 169.195312 179.285156 170.351562 C 180.9375 171.507812 183.914062 170.335938 185.898438 170.964844 C 187.878906 171.597656 189.609375 174.265625 191.8125 174.265625 C 194.019531 174.265625 195.746094 171.597656 197.730469 170.964844 C 199.710938 170.335938 202.6875 171.507812 204.339844 170.351562 C 205.992188 169.195312 205.707031 166.128906 206.917969 164.550781 C 208.128906 162.96875 211.28125 162.289062 211.941406 160.390625 C 212.601562 158.492188 210.527344 156.085938 210.527344 153.976562 Z M 191.8125 167.648438 C 184.273438 167.648438 178.164062 161.53125 178.164062 153.976562 C 178.164062 146.425781 184.273438 140.304688 191.8125 140.304688 C 199.355469 140.304688 205.464844 146.425781 205.464844 153.976562 C 205.464844 161.53125 199.355469 167.648438 191.8125 167.648438 Z M 191.8125 167.648438 " fill-opacity="1" fill-rule="evenodd"/><path fill="#ffffff" d="M 146.457031 191.910156 L 209.867188 191.910156 C 211.082031 191.910156 212.070312 192.898438 212.070312 194.113281 C 212.070312 195.328125 211.082031 196.320312 209.867188 196.320312 L 146.457031 196.320312 C 145.246094 196.320312 144.257812 195.328125 144.257812 194.113281 C 144.257812 192.898438 145.246094 191.910156 146.457031 191.910156 Z M 146.457031 191.910156 " fill-opacity="1" fill-rule="evenodd"/><path fill="#ffffff" d="M 146.457031 205.730469 L 201.394531 205.730469 C 202.605469 205.730469 203.59375 206.71875 203.59375 207.933594 L 203.59375 207.9375 C 203.59375 209.152344 202.605469 210.140625 201.394531 210.140625 L 146.457031 210.140625 C 145.242188 210.140625 144.253906 209.152344 144.253906 207.9375 L 144.253906 207.933594 C 144.253906 206.71875 145.242188 205.730469 146.457031 205.730469 Z M 146.457031 205.730469 " fill-opacity="1" fill-rule="evenodd"/><path fill="#ffffff" d="M 146.457031 219.550781 L 192.914062 219.550781 C 194.128906 219.550781 195.117188 220.539062 195.117188 221.753906 C 195.117188 222.96875 194.128906 223.960938 192.914062 223.960938 L 146.457031 223.960938 C 145.246094 223.960938 144.253906 222.96875 144.253906 221.753906 C 144.253906 220.539062 145.246094 219.550781 146.457031 219.550781 Z M 146.457031 219.550781 " fill-opacity="1" fill-rule="evenodd"/><path fill="#ffffff" d="M 146.457031 233.371094 L 175.960938 233.371094 C 177.175781 233.371094 178.164062 234.359375 178.164062 235.574219 C 178.164062 236.789062 177.175781 237.78125 175.960938 237.78125 L 146.457031 237.78125 C 145.242188 237.78125 144.253906 236.789062 144.253906 235.574219 C 144.253906 234.359375 145.242188 233.371094 146.457031 233.371094 Z M 146.457031 233.371094 " fill-opacity="1" fill-rule="evenodd"/><path fill="#56c156" d="M 183.007812 154.707031 L 185.871094 151.839844 L 189.257812 155.230469 L 197.664062 146.914062 L 200.621094 149.832031 L 189.332031 161.039062 Z M 183.007812 154.707031 " fill-opacity="1" fill-rule="evenodd"/></svg>