<svg xmlns="http://www.w3.org/2000/svg" xmlns:xlink="http://www.w3.org/1999/xlink" width="500" zoomAndPan="magnify" viewBox="0 0 375 374.999991" height="500" preserveAspectRatio="xMidYMid meet" version="1.0"><path fill="#e6e6e6" d="M 246.15625 248.804688 C 246.15625 248.804688 112.65625 269.671875 109.996094 266.082031 C 107.335938 262.496094 89.144531 101.765625 89.144531 101.765625 C 93.921875 98.183594 218.382812 80.039062 221.710938 84.535156 C 227.089844 95.421875 246.15625 248.804688 246.15625 248.804688 Z M 246.15625 248.804688 " fill-opacity="1" fill-rule="nonzero"/><path stroke-linecap="round" transform="matrix(0.27644, 0, 0, 0.27644, 143.13893, 235.875981)" fill="none" stroke-linejoin="miter" d="M -2.975419 0.42037 C -2.975419 0.42037 2.973549 -0.413333 2.973549 -0.413333 " stroke="#313131" stroke-width="6" stroke-opacity="1" stroke-miterlimit="10"/><path fill="#313131" d="M 147.25 234.457031 L 150.632812 233.976562 C 150.859375 233.945312 151.0625 234 151.246094 234.136719 C 151.429688 234.273438 151.539062 234.457031 151.570312 234.683594 C 151.601562 234.910156 151.550781 235.113281 151.410156 235.296875 C 151.273438 235.480469 151.089844 235.585938 150.863281 235.621094 L 147.480469 236.097656 C 147.253906 236.132812 147.050781 236.078125 146.867188 235.941406 C 146.683594 235.804688 146.574219 235.621094 146.542969 235.394531 C 146.511719 235.167969 146.5625 234.960938 146.703125 234.78125 C 146.839844 234.597656 147.023438 234.488281 147.25 234.457031 Z M 154.054688 233.492188 L 157.433594 233.015625 C 157.660156 232.980469 157.863281 233.035156 158.046875 233.171875 C 158.230469 233.308594 158.339844 233.492188 158.371094 233.71875 C 158.402344 233.945312 158.351562 234.152344 158.210938 234.335938 C 158.074219 234.515625 157.890625 234.625 157.664062 234.65625 L 154.285156 235.136719 C 154.058594 235.167969 153.855469 235.113281 153.671875 234.976562 C 153.488281 234.839844 153.382812 234.65625 153.347656 234.429688 C 153.316406 234.203125 153.371094 234 153.507812 233.816406 C 153.644531 233.632812 153.828125 233.523438 154.054688 233.492188 Z M 160.777344 232.542969 L 164.269531 232.046875 C 164.496094 232.015625 164.699219 232.066406 164.882812 232.203125 C 165.066406 232.34375 165.171875 232.523438 165.207031 232.75 C 165.238281 232.976562 165.183594 233.183594 165.046875 233.367188 C 164.910156 233.550781 164.726562 233.65625 164.5 233.6875 L 161.007812 234.183594 C 160.78125 234.214844 160.578125 234.164062 160.394531 234.023438 C 160.210938 233.886719 160.101562 233.707031 160.070312 233.480469 C 160.039062 233.25 160.089844 233.046875 160.230469 232.863281 C 160.367188 232.679688 160.546875 232.574219 160.777344 232.542969 Z M 167.609375 231.574219 L 171.0625 231.085938 C 171.289062 231.050781 171.496094 231.105469 171.679688 231.242188 C 171.859375 231.378906 171.96875 231.5625 172 231.789062 C 172.03125 232.015625 171.980469 232.222656 171.84375 232.402344 C 171.703125 232.585938 171.523438 232.695312 171.296875 232.726562 L 167.839844 233.214844 C 167.613281 233.246094 167.410156 233.195312 167.226562 233.058594 C 167.042969 232.917969 166.9375 232.738281 166.902344 232.511719 C 166.871094 232.285156 166.925781 232.078125 167.0625 231.894531 C 167.199219 231.714844 167.382812 231.605469 167.609375 231.574219 Z M 174.445312 230.605469 L 177.878906 230.117188 C 178.105469 230.085938 178.3125 230.140625 178.496094 230.277344 C 178.679688 230.414062 178.785156 230.597656 178.816406 230.824219 C 178.851562 231.050781 178.796875 231.253906 178.660156 231.4375 C 178.523438 231.621094 178.339844 231.730469 178.113281 231.761719 L 174.679688 232.246094 C 174.453125 232.28125 174.246094 232.226562 174.0625 232.089844 C 173.882812 231.953125 173.773438 231.769531 173.742188 231.542969 C 173.710938 231.316406 173.761719 231.109375 173.898438 230.929688 C 174.039062 230.746094 174.21875 230.636719 174.445312 230.605469 Z M 181.28125 229.636719 L 183.847656 229.273438 L 184.699219 229.152344 C 184.929688 229.121094 185.132812 229.175781 185.316406 229.3125 C 185.5 229.449219 185.605469 229.632812 185.636719 229.859375 C 185.671875 230.085938 185.617188 230.289062 185.480469 230.472656 C 185.34375 230.65625 185.160156 230.761719 184.933594 230.796875 L 181.511719 231.28125 C 181.285156 231.3125 181.082031 231.257812 180.898438 231.121094 C 180.714844 230.984375 180.609375 230.800781 180.574219 230.574219 C 180.542969 230.347656 180.597656 230.144531 180.734375 229.960938 C 180.871094 229.777344 181.054688 229.667969 181.28125 229.636719 Z M 188.113281 228.667969 L 191.523438 228.1875 C 191.75 228.15625 191.953125 228.207031 192.136719 228.347656 C 192.320312 228.484375 192.425781 228.664062 192.460938 228.890625 C 192.492188 229.117188 192.4375 229.324219 192.300781 229.507812 C 192.164062 229.691406 191.980469 229.796875 191.753906 229.828125 L 188.347656 230.3125 C 188.121094 230.34375 187.914062 230.292969 187.734375 230.152344 C 187.550781 230.015625 187.441406 229.835938 187.410156 229.605469 C 187.378906 229.378906 187.429688 229.175781 187.566406 228.992188 C 187.707031 228.808594 187.886719 228.703125 188.113281 228.667969 Z M 194.949219 227.703125 L 198.351562 227.21875 C 198.578125 227.1875 198.78125 227.242188 198.964844 227.378906 C 199.148438 227.515625 199.253906 227.699219 199.289062 227.925781 C 199.320312 228.152344 199.265625 228.355469 199.128906 228.539062 C 198.992188 228.722656 198.808594 228.832031 198.582031 228.863281 L 195.179688 229.34375 C 194.953125 229.375 194.75 229.324219 194.566406 229.1875 C 194.382812 229.046875 194.273438 228.867188 194.242188 228.640625 C 194.210938 228.414062 194.265625 228.207031 194.402344 228.023438 C 194.539062 227.84375 194.722656 227.734375 194.949219 227.703125 Z M 201.773438 226.734375 L 205.199219 226.25 C 205.425781 226.21875 205.632812 226.269531 205.816406 226.410156 C 205.996094 226.546875 206.105469 226.730469 206.136719 226.957031 C 206.167969 227.183594 206.117188 227.386719 205.980469 227.570312 C 205.839844 227.753906 205.660156 227.859375 205.433594 227.894531 L 202.007812 228.378906 C 201.78125 228.410156 201.574219 228.355469 201.390625 228.21875 C 201.210938 228.082031 201.101562 227.898438 201.070312 227.671875 C 201.039062 227.445312 201.089844 227.242188 201.226562 227.058594 C 201.367188 226.875 201.546875 226.769531 201.773438 226.734375 Z M 208.558594 225.773438 L 211.953125 225.292969 C 212.179688 225.261719 212.382812 225.316406 212.566406 225.453125 C 212.75 225.589844 212.859375 225.773438 212.890625 226 C 212.921875 226.226562 212.871094 226.429688 212.730469 226.613281 C 212.59375 226.796875 212.410156 226.90625 212.183594 226.9375 L 208.789062 227.417969 C 208.5625 227.449219 208.359375 227.398438 208.175781 227.257812 C 207.992188 227.121094 207.886719 226.9375 207.855469 226.710938 C 207.820312 226.484375 207.875 226.28125 208.011719 226.097656 C 208.148438 225.914062 208.332031 225.808594 208.558594 225.773438 Z M 215.355469 224.8125 L 218.757812 224.332031 C 218.984375 224.296875 219.1875 224.351562 219.371094 224.488281 C 219.554688 224.625 219.664062 224.808594 219.695312 225.035156 C 219.726562 225.261719 219.675781 225.46875 219.535156 225.648438 C 219.398438 225.832031 219.21875 225.941406 218.988281 225.972656 L 215.585938 226.453125 C 215.359375 226.488281 215.15625 226.433594 214.972656 226.296875 C 214.789062 226.160156 214.683594 225.976562 214.648438 225.75 C 214.617188 225.523438 214.671875 225.320312 214.808594 225.136719 C 214.945312 224.953125 215.128906 224.84375 215.355469 224.8125 Z M 215.355469 224.8125 " fill-opacity="1" fill-rule="nonzero"/><path stroke-linecap="round" transform="matrix(0.27644, 0, 0, 0.27644, 223.084737, 224.555229)" fill="none" stroke-linejoin="miter" d="M -2.963076 0.421957 C -2.963076 0.421957 2.971761 -0.425877 2.971761 -0.425877 " stroke="#313131" stroke-width="6" stroke-opacity="1" stroke-miterlimit="10"/><path fill="#2a4ed0" d="M 136.601562 233.242188 C 136.601562 233.242188 137.371094 236.339844 137.371094 236.339844 C 137.449219 236.652344 137.210938 236.960938 136.890625 236.964844 C 136.890625 236.964844 133.699219 236.988281 133.699219 236.988281 C 133.59375 236.988281 133.492188 236.957031 133.410156 236.890625 C 133.410156 236.890625 122.292969 228.28125 122.292969 228.28125 C 122.085938 228.121094 122.054688 227.8125 122.222656 227.597656 C 122.222656 227.597656 124.640625 224.476562 124.640625 224.476562 C 124.808594 224.261719 125.113281 224.214844 125.320312 224.375 C 125.320312 224.375 136.433594 232.988281 136.433594 232.988281 C 136.515625 233.050781 136.574219 233.140625 136.601562 233.242188 Z M 136.601562 233.242188 " fill-opacity="1" fill-rule="nonzero"/><path fill="#2a4ed0" d="M 200.824219 117.132812 C 200.824219 117.132812 120.050781 127.382812 120.050781 127.382812 C 120.050781 127.382812 118.484375 115.023438 118.484375 115.023438 C 118.484375 115.023438 199.257812 104.773438 199.257812 104.773438 C 199.257812 104.773438 200.824219 117.132812 200.824219 117.132812 Z M 200.824219 117.132812 " fill-opacity="1" fill-rule="nonzero"/><path stroke-linecap="round" transform="matrix(0.27644, 0, 0, 0.27644, 162.988955, 142.363877)" fill="none" stroke-linejoin="miter" d="M -168.792027 21.41978 C -168.792027 21.41978 168.801286 -21.424091 168.801286 -21.424091 " stroke="#313131" stroke-width="6" stroke-opacity="1" stroke-miterlimit="10"/><path stroke-linecap="round" transform="matrix(0.27644, 0, 0, 0.27644, 164.318065, 152.837628)" fill="none" stroke-linejoin="miter" d="M -168.795592 21.415822 C -168.795592 21.415822 168.797722 -21.413919 168.797722 -21.413919 " stroke="#313131" stroke-width="6" stroke-opacity="1" stroke-miterlimit="10"/><path stroke-linecap="round" transform="matrix(0.27644, 0, 0, 0.27644, 165.647206, 163.311376)" fill="none" stroke-linejoin="miter" d="M -168.799269 21.426003 C -168.799269 21.426003 168.794045 -21.417868 168.794045 -21.417868 " stroke="#313131" stroke-width="6" stroke-opacity="1" stroke-miterlimit="10"/><path stroke-linecap="round" transform="matrix(0.27644, 0, 0, 0.27644, 166.976317, 173.785141)" fill="none" stroke-linejoin="miter" d="M -168.802833 21.421992 C -168.802833 21.421992 168.790481 -21.421879 168.790481 -21.421879 " stroke="#313131" stroke-width="6" stroke-opacity="1" stroke-miterlimit="10"/><path stroke-linecap="round" transform="matrix(0.27644, 0, 0, 0.27644, 151.537159, 186.386911)" fill="none" stroke-linejoin="miter" d="M -108.134322 13.720083 C -108.134322 13.720083 108.133966 -13.721473 108.133966 -13.721473 " stroke="#313131" stroke-width="6" stroke-opacity="1" stroke-miterlimit="10"/><path fill="#ff7e74" d="M 121.898438 201.078125 C 121.660156 201.039062 121.394531 200.867188 120.980469 200.527344 C 120.253906 199.929688 119.457031 199.421875 118.613281 199.003906 C 116.910156 198.167969 115.023438 197.703125 113.125 197.644531 C 112.183594 197.617188 111.238281 197.6875 110.3125 197.871094 C 110.050781 197.925781 107.996094 198.6875 107.925781 198.628906 C 103.628906 194.921875 96.96875 194.230469 92.242188 197.371094 C 90.175781 195.230469 87.238281 193.960938 84.265625 193.914062 C 81.289062 193.867188 78.316406 195.050781 76.183594 197.121094 C 67.160156 205.894531 58.722656 215.230469 53.347656 226.609375 C 47.976562 237.992188 46.832031 247.539062 38.585938 265.707031 C 45.167969 281.390625 61.304688 287.476562 77.792969 288.457031 C 86.796875 288.992188 91.398438 279.523438 100.199219 274.753906 C 112.679688 267.984375 124.664062 260.304688 136.023438 251.789062 C 138.402344 250.003906 141.027344 247.507812 140.410156 244.59375 C 140.023438 242.769531 138.375 241.421875 136.59375 240.859375 C 134.816406 240.292969 132.90625 240.371094 131.039062 240.453125 C 125.613281 240.695312 120.1875 240.945312 114.757812 241.175781 C 112.878906 241.257812 111.214844 241.613281 110.039062 239.9375 C 108.921875 238.339844 109.109375 235.585938 109.628906 233.835938 C 110.289062 231.613281 111.652344 229.675781 113.078125 227.84375 C 118.859375 220.410156 126.859375 214.019531 133.582031 207.429688 C 135.703125 205.347656 137.996094 202.792969 137.578125 199.851562 C 137.28125 197.765625 135.300781 196.039062 133.1875 196.027344 C 131.863281 196.019531 130.589844 196.523438 129.378906 197.066406 C 127.261719 198.023438 125.21875 199.144531 123.273438 200.417969 C 122.578125 200.875 122.269531 201.136719 121.898438 201.078125 Z M 121.898438 201.078125 " fill-opacity="1" fill-rule="nonzero"/><path stroke-linecap="round" transform="matrix(0.27644, 0.00022449, -0.00022449, 0.27644, 84.620389, 205.165182)" fill="none" stroke-linejoin="miter" d="M 24.455172 -26.504597 C 10.262886 -15.499488 -14.401195 11.622975 -24.450082 26.496495 " stroke="#313131" stroke-width="6" stroke-opacity="1" stroke-miterlimit="10"/><path stroke-linecap="round" transform="matrix(0.27644, 0.00022449, -0.00022449, 0.27644, 98.068884, 208.600928)" fill="none" stroke-linejoin="miter" d="M 33.353967 -33.994681 C 9.189578 -17.965122 -17.692657 9.583059 -33.357773 33.985145 " stroke="#313131" stroke-width="6" stroke-opacity="1" stroke-miterlimit="10"/><path stroke-linecap="round" transform="matrix(0.27644, 0.00022449, -0.00022449, 0.27644, 110.750152, 212.168175)" fill="none" stroke-linejoin="miter" d="M 38.488707 -37.774755 C 7.402513 -19.068896 -19.198281 7.037738 -38.489811 37.773264 " stroke="#313131" stroke-width="6" stroke-opacity="1" stroke-miterlimit="10"/><path fill="#ff7e74" d="M 243.8125 206.75 C 242.625 205.96875 241.085938 205.433594 240.28125 204.191406 C 239.128906 202.40625 239.769531 199.859375 238.542969 198.128906 C 237.65625 196.878906 235.964844 196.324219 235.257812 194.964844 C 234.300781 193.125 235.679688 190.882812 237.367188 189.671875 C 239.734375 187.972656 242.691406 187.332031 245.582031 186.976562 C 251.105469 186.289062 256.808594 186.507812 262.105469 188.230469 C 267.398438 189.949219 272.273438 193.25 275.34375 197.894531 C 277.25 200.773438 278.402344 204.167969 278.582031 207.621094 C 278.671875 209.3125 278.015625 216.160156 276.847656 217.46875 C 275.421875 219.074219 273.316406 219.992188 271.179688 220.1875 C 266.890625 220.582031 262.871094 218.285156 259.183594 216.070312 C 255.703125 213.980469 252.222656 211.890625 248.742188 209.800781 C 247.117188 208.824219 245.464844 207.875 243.898438 206.808594 C 243.871094 206.792969 243.84375 206.769531 243.8125 206.75 Z M 243.8125 206.75 " fill-opacity="1" fill-rule="nonzero"/><path fill="#ff7e74" d="M 272.03125 219.425781 C 272.71875 219.410156 273.292969 218.839844 273.527344 218.195312 C 273.761719 217.546875 273.722656 216.839844 273.667969 216.15625 C 273.175781 210.109375 271.453125 204.0625 267.964844 199.101562 C 266.695312 197.296875 265.214844 195.628906 263.527344 194.210938 C 262.019531 192.945312 259.761719 191.324219 257.777344 190.882812 C 255.457031 190.359375 250.03125 194.265625 247.242188 196.296875 C 243.933594 198.703125 241.035156 201.179688 237 201.863281 C 235.613281 202.097656 232.984375 201.617188 232.125 200.503906 C 231.25 199.375 231.582031 197.757812 232.03125 196.40625 C 232.585938 194.742188 232.480469 193.035156 232.410156 191.3125 C 232.335938 189.453125 233.304688 189.226562 234.808594 188.257812 C 237.871094 186.292969 241.042969 184.496094 244.308594 182.882812 C 256.027344 177.09375 268.285156 176.511719 280.382812 181.710938 C 288.140625 185.042969 294.621094 186.84375 298.96875 192.910156 C 303.316406 198.976562 317.261719 224.21875 324.0625 231.066406 C 319.324219 244.730469 308.105469 258.429688 295.042969 264.640625 C 289.03125 263.074219 258.609375 242.246094 254.046875 237.8125 C 254.046875 237.8125 272.03125 219.425781 272.03125 219.425781 Z M 272.03125 219.425781 " fill-opacity="1" fill-rule="nonzero"/><path stroke-linecap="round" transform="matrix(0.276439, -0.000613974, 0.000613974, 0.276439, 273.32354, 212.745689)" fill="none" stroke-linejoin="miter" d="M 4.001203 25.544346 C 4.402774 10.157013 2.232706 -11.651324 -4.391955 -25.542287 " stroke="#313131" stroke-width="6" stroke-opacity="1" stroke-miterlimit="10"/><path fill="#313131" d="M 212.253906 210.265625 C 210.457031 210.554688 208.011719 210.242188 207.878906 209.398438 C 207.742188 208.550781 209.96875 207.492188 211.761719 207.203125 C 213.558594 206.917969 214.246094 207.511719 214.378906 208.355469 C 214.515625 209.199219 214.050781 209.976562 212.253906 210.265625 Z M 212.253906 210.265625 " fill-opacity="1" fill-rule="nonzero"/><path fill="#8f62f6" d="M 276.335938 208.796875 C 245.402344 213.746094 213.78125 216.65625 210.796875 209.03125 C 207.910156 201.644531 242.199219 193.75 273.136719 188.796875 C 304.070312 183.847656 321.941406 185.582031 322.824219 191.101562 C 323.921875 197.96875 307.269531 203.847656 276.335938 208.796875 Z M 276.335938 208.796875 " fill-opacity="1" fill-rule="nonzero"/><path fill="#313131" d="M 220.882812 213.328125 C 219.3125 211.230469 218.800781 208.714844 218.597656 207.679688 C 217.8125 203.65625 218.101562 204.109375 218.683594 201.652344 C 211.546875 204.367188 209.722656 206.28125 210.796875 209.03125 C 211.71875 211.382812 215.371094 212.730469 220.882812 213.328125 Z M 220.882812 213.328125 " fill-opacity="1" fill-rule="nonzero"/><path stroke-linecap="round" transform="matrix(0.276328, 0.00786853, -0.00786853, 0.276328, 267.836089, 199.774177)" fill="none" stroke-linejoin="miter" d="M -2.840108 -33.693406 C -7.758943 -10.836319 -3.927808 13.496237 7.758324 33.689367 " stroke="#313131" stroke-width="6" stroke-opacity="1" stroke-miterlimit="10"/><path fill="#313131" d="M 321.730469 194.160156 C 319.585938 194.503906 318.902344 193.449219 318.679688 192.046875 C 318.457031 190.648438 318.773438 189.429688 320.917969 189.089844 C 323.0625 188.746094 325.347656 189.546875 325.570312 190.945312 C 325.796875 192.347656 323.871094 193.820312 321.730469 194.160156 Z M 321.730469 194.160156 " fill-opacity="1" fill-rule="nonzero"/><path fill="#313131" d="M 282.003906 210.953125 C 270.476562 213.117188 259.65625 214.90625 260.765625 212.898438 C 261.871094 210.886719 269.738281 209.167969 281.261719 207.003906 C 292.785156 204.839844 301.824219 202.148438 302.5 205.058594 C 303.171875 207.96875 293.527344 208.785156 282.003906 210.953125 Z M 282.003906 210.953125 " fill-opacity="1" fill-rule="nonzero"/><path fill="#ff7e74" d="M 234.015625 197.667969 C 232.339844 197.585938 230.640625 197.109375 229.34375 196.046875 C 228.652344 195.484375 227.761719 194.488281 227.636719 193.558594 C 227.488281 192.453125 228.46875 192.015625 229.3125 191.320312 C 231.238281 189.730469 233.261719 188.253906 235.363281 186.902344 C 237.644531 185.433594 240.316406 184.066406 242.761719 182.898438 C 244.160156 182.234375 255.304688 178.714844 256.609375 179.992188 C 258.5 181.839844 250.738281 185.113281 250.667969 187.773438 C 250.613281 189.804688 254.121094 190.128906 252.421875 191.230469 C 249.832031 192.90625 246.859375 194.03125 244.011719 195.179688 C 240.84375 196.453125 237.601562 197.8125 234.097656 197.667969 C 234.070312 197.667969 234.042969 197.667969 234.015625 197.667969 Z M 234.015625 197.667969 " fill-opacity="1" fill-rule="nonzero"/><path fill="#ff7e74" d="M 231.007812 212.324219 C 230.105469 211.347656 229.25 210.304688 228.730469 209.078125 C 228.210938 207.855469 228.066406 206.425781 228.589844 205.203125 C 229.167969 203.863281 230.496094 202.945312 231.90625 202.570312 C 233.316406 202.191406 234.8125 202.292969 236.253906 202.527344 C 248.414062 204.515625 255.933594 216.480469 267.847656 219.023438 C 268.925781 219.253906 270.015625 219.386719 271.117188 219.425781 C 271.796875 219.449219 271.988281 219.347656 272.410156 219.808594 C 272.808594 220.234375 273.011719 221.285156 273.230469 221.835938 C 274.246094 224.394531 275.195312 226.996094 275.8125 229.683594 C 276.625 233.226562 276.851562 236.96875 275.910156 240.480469 C 275.320312 242.6875 274.242188 244.78125 272.714844 246.480469 C 272.023438 247.246094 269.898438 248.957031 268.847656 248.363281 C 264.148438 245.699219 257.914062 241.574219 254.046875 237.8125 C 251.953125 235.777344 236.828125 218.613281 231.007812 212.324219 Z M 231.007812 212.324219 " fill-opacity="1" fill-rule="nonzero"/><path stroke-linecap="round" transform="matrix(0.276439, -0.000613974, 0.000613974, 0.276439, 262.385553, 214.331602)" fill="none" stroke-linejoin="miter" d="M 64.507962 32.91369 C 49.904667 16.701717 29.80807 17.99949 8.937205 11.622626 C -16.635989 3.822258 -40.708914 -17.794505 -64.513665 -32.910596 " stroke="#313131" stroke-width="6" stroke-opacity="1" stroke-miterlimit="10"/></svg>