<svg xmlns="http://www.w3.org/2000/svg" xmlns:xlink="http://www.w3.org/1999/xlink" width="500" zoomAndPan="magnify" viewBox="0 0 375 374.999991" height="500" preserveAspectRatio="xMidYMid meet" version="1.0"><defs><clipPath id="a5e63de4e0"><path d="M 68 37.5 L 313 37.5 L 313 323 L 68 323 Z M 68 37.5 " clip-rule="nonzero"/></clipPath><clipPath id="5e3586832b"><path d="M 68 37.5 L 258 37.5 L 258 177 L 68 177 Z M 68 37.5 " clip-rule="nonzero"/></clipPath><clipPath id="3b097d8185"><path d="M 49.773438 110 L 313 110 L 313 324.75 L 49.773438 324.75 Z M 49.773438 110 " clip-rule="nonzero"/></clipPath></defs><g clip-path="url(#a5e63de4e0)"><path fill="#e6e7e8" d="M 68.925781 96.785156 L 154.261719 322.5 L 312.988281 262.648438 L 228.222656 37.503906 Z M 68.925781 96.785156 " fill-opacity="0.6" fill-rule="nonzero"/></g><g clip-path="url(#5e3586832b)"><path fill="#26a9e0" d="M 68.925781 96.785156 L 98.949219 176.148438 L 257.675781 116.300781 L 228.222656 37.503906 Z M 68.925781 96.785156 " fill-opacity="1" fill-rule="nonzero"/></g><path fill="#26a9e0" d="M 124.796875 187.113281 C 125.628906 189.289062 124.542969 191.730469 122.371094 192.566406 C 120.199219 193.394531 117.761719 192.308594 116.933594 190.132812 C 116.097656 187.957031 117.183594 185.515625 119.355469 184.683594 C 121.527344 183.847656 123.964844 184.9375 124.796875 187.113281 Z M 124.796875 187.113281 " fill-opacity="1" fill-rule="nonzero"/><path fill="#26a9e0" d="M 145.242188 179.257812 C 146.078125 181.433594 144.992188 183.875 142.816406 184.710938 C 140.648438 185.542969 138.210938 184.457031 137.378906 182.277344 C 136.546875 180.105469 137.632812 177.664062 139.804688 176.828125 C 141.976562 175.996094 144.410156 177.082031 145.242188 179.257812 Z M 145.242188 179.257812 " fill-opacity="1" fill-rule="nonzero"/><path fill="#26a9e0" d="M 166.476562 171.105469 C 167.3125 173.28125 166.226562 175.71875 164.054688 176.554688 C 161.882812 177.386719 159.445312 176.300781 158.613281 174.125 C 157.78125 171.949219 158.867188 169.507812 161.039062 168.675781 C 163.210938 167.839844 165.644531 168.929688 166.476562 171.105469 Z M 166.476562 171.105469 " fill-opacity="1" fill-rule="nonzero"/><path fill="#26a9e0" d="M 188.5 162.648438 C 189.332031 164.824219 188.246094 167.261719 186.074219 168.097656 C 183.902344 168.929688 181.46875 167.84375 180.632812 165.667969 C 179.800781 163.492188 180.890625 161.050781 183.058594 160.21875 C 185.230469 159.382812 187.667969 160.472656 188.5 162.648438 Z M 188.5 162.648438 " fill-opacity="1" fill-rule="nonzero"/><path fill="#26a9e0" d="M 208.949219 154.792969 C 209.777344 156.96875 208.695312 159.410156 206.523438 160.242188 C 204.351562 161.078125 201.917969 159.988281 201.082031 157.8125 C 200.25 155.636719 201.335938 153.199219 203.507812 152.363281 C 205.679688 151.53125 208.113281 152.617188 208.949219 154.792969 Z M 208.949219 154.792969 " fill-opacity="1" fill-rule="nonzero"/><path fill="#26a9e0" d="M 230.179688 146.636719 C 231.011719 148.8125 229.929688 151.253906 227.757812 152.089844 C 225.582031 152.921875 223.148438 151.832031 222.316406 149.65625 C 221.484375 147.480469 222.570312 145.042969 224.742188 144.207031 C 226.914062 143.375 229.347656 144.460938 230.179688 146.636719 Z M 230.179688 146.636719 " fill-opacity="1" fill-rule="nonzero"/><path fill="#26a9e0" d="M 252.746094 139.589844 C 252.746094 139.867188 252.71875 140.140625 252.664062 140.414062 C 252.609375 140.683594 252.53125 140.949219 252.421875 141.203125 C 252.316406 141.460938 252.1875 141.703125 252.035156 141.933594 C 251.878906 142.164062 251.707031 142.378906 251.511719 142.574219 C 251.316406 142.769531 251.101562 142.945312 250.871094 143.097656 C 250.640625 143.253906 250.398438 143.382812 250.144531 143.488281 C 249.890625 143.59375 249.625 143.675781 249.355469 143.730469 C 249.082031 143.78125 248.808594 143.808594 248.53125 143.808594 C 248.257812 143.808594 247.980469 143.78125 247.710938 143.730469 C 247.441406 143.675781 247.175781 143.59375 246.921875 143.488281 C 246.664062 143.382812 246.421875 143.253906 246.191406 143.097656 C 245.960938 142.945312 245.75 142.769531 245.554688 142.574219 C 245.359375 142.378906 245.183594 142.164062 245.03125 141.933594 C 244.878906 141.703125 244.746094 141.460938 244.640625 141.203125 C 244.535156 140.949219 244.457031 140.683594 244.402344 140.414062 C 244.347656 140.140625 244.320312 139.867188 244.320312 139.589844 C 244.320312 139.3125 244.347656 139.039062 244.402344 138.765625 C 244.457031 138.496094 244.535156 138.230469 244.640625 137.976562 C 244.746094 137.71875 244.878906 137.476562 245.03125 137.246094 C 245.183594 137.015625 245.359375 136.800781 245.554688 136.605469 C 245.75 136.410156 245.960938 136.234375 246.191406 136.082031 C 246.421875 135.925781 246.664062 135.796875 246.921875 135.691406 C 247.175781 135.585938 247.441406 135.503906 247.710938 135.453125 C 247.980469 135.398438 248.257812 135.371094 248.53125 135.371094 C 248.808594 135.371094 249.082031 135.398438 249.355469 135.453125 C 249.625 135.503906 249.890625 135.585938 250.144531 135.691406 C 250.398438 135.796875 250.640625 135.925781 250.871094 136.082031 C 251.101562 136.234375 251.316406 136.410156 251.511719 136.605469 C 251.707031 136.800781 251.878906 137.015625 252.035156 137.246094 C 252.1875 137.476562 252.316406 137.71875 252.421875 137.976562 C 252.53125 138.230469 252.609375 138.496094 252.664062 138.765625 C 252.71875 139.039062 252.746094 139.3125 252.746094 139.589844 Z M 252.746094 139.589844 " fill-opacity="1" fill-rule="nonzero"/><path fill="#26a9e0" d="M 140.144531 196.582031 C 140.976562 198.753906 139.894531 201.199219 137.722656 202.03125 C 135.550781 202.867188 133.113281 201.777344 132.28125 199.601562 C 131.449219 197.425781 132.53125 194.984375 134.707031 194.152344 C 136.878906 193.316406 139.3125 194.40625 140.144531 196.582031 Z M 140.144531 196.582031 " fill-opacity="1" fill-rule="nonzero"/><path fill="#26a9e0" d="M 160.59375 188.726562 C 161.425781 190.902344 160.339844 193.34375 158.167969 194.179688 C 155.996094 195.011719 153.5625 193.925781 152.730469 191.75 C 151.898438 189.574219 152.980469 187.132812 155.152344 186.296875 C 157.328125 185.464844 159.761719 186.550781 160.59375 188.726562 Z M 160.59375 188.726562 " fill-opacity="1" fill-rule="nonzero"/><path fill="#26a9e0" d="M 181.828125 180.574219 C 182.660156 182.746094 181.574219 185.191406 179.402344 186.023438 C 177.230469 186.855469 174.796875 185.769531 173.964844 183.59375 C 173.132812 181.417969 174.214844 178.976562 176.386719 178.144531 C 178.558594 177.308594 180.996094 178.398438 181.828125 180.574219 Z M 181.828125 180.574219 " fill-opacity="1" fill-rule="nonzero"/><path fill="#26a9e0" d="M 203.847656 172.113281 C 204.679688 174.289062 203.59375 176.730469 201.425781 177.566406 C 199.25 178.398438 196.816406 177.3125 195.984375 175.136719 C 195.152344 172.960938 196.238281 170.519531 198.410156 169.6875 C 200.582031 168.851562 203.015625 169.9375 203.847656 172.113281 Z M 203.847656 172.113281 " fill-opacity="1" fill-rule="nonzero"/><path fill="#26a9e0" d="M 224.296875 164.261719 C 225.128906 166.4375 224.042969 168.878906 221.871094 169.710938 C 219.699219 170.546875 217.265625 169.457031 216.433594 167.28125 C 215.597656 165.105469 216.683594 162.667969 218.855469 161.832031 C 221.027344 161 223.464844 162.085938 224.296875 164.261719 Z M 224.296875 164.261719 " fill-opacity="1" fill-rule="nonzero"/><path fill="#26a9e0" d="M 245.53125 156.109375 C 246.363281 158.28125 245.277344 160.722656 243.105469 161.558594 C 240.933594 162.390625 238.5 161.300781 237.667969 159.128906 C 236.832031 156.949219 237.917969 154.511719 240.089844 153.675781 C 242.265625 152.84375 244.699219 153.929688 245.53125 156.109375 Z M 245.53125 156.109375 " fill-opacity="1" fill-rule="nonzero"/><path fill="#26a9e0" d="M 134.746094 213.117188 C 135.578125 215.289062 134.492188 217.734375 132.320312 218.566406 C 130.148438 219.398438 127.714844 218.3125 126.882812 216.136719 C 126.050781 213.960938 127.132812 211.519531 129.304688 210.683594 C 131.476562 209.851562 133.914062 210.9375 134.746094 213.117188 Z M 134.746094 213.117188 " fill-opacity="1" fill-rule="nonzero"/><path fill="#26a9e0" d="M 155.195312 205.261719 C 156.023438 207.4375 154.941406 209.878906 152.769531 210.710938 C 150.597656 211.542969 148.160156 210.457031 147.328125 208.28125 C 146.496094 206.105469 147.582031 203.667969 149.753906 202.832031 C 151.925781 201.996094 154.363281 203.085938 155.195312 205.261719 Z M 155.195312 205.261719 " fill-opacity="1" fill-rule="nonzero"/><path fill="#26a9e0" d="M 176.429688 197.105469 C 177.261719 199.28125 176.175781 201.722656 174 202.554688 C 171.832031 203.390625 169.394531 202.300781 168.5625 200.125 C 167.730469 197.953125 168.816406 195.511719 170.988281 194.675781 C 173.160156 193.84375 175.59375 194.929688 176.429688 197.105469 Z M 176.429688 197.105469 " fill-opacity="1" fill-rule="nonzero"/><path fill="#26a9e0" d="M 198.449219 188.648438 C 199.28125 190.824219 198.195312 193.265625 196.023438 194.101562 C 193.851562 194.933594 191.414062 193.84375 190.585938 191.667969 C 189.75 189.492188 190.835938 187.050781 193.007812 186.222656 C 195.179688 185.386719 197.617188 186.472656 198.449219 188.648438 Z M 198.449219 188.648438 " fill-opacity="1" fill-rule="nonzero"/><path fill="#26a9e0" d="M 219.175781 182.304688 C 219.175781 182.582031 219.148438 182.855469 219.09375 183.128906 C 219.042969 183.398438 218.960938 183.664062 218.855469 183.917969 C 218.75 184.175781 218.621094 184.417969 218.464844 184.648438 C 218.3125 184.878906 218.136719 185.09375 217.941406 185.289062 C 217.746094 185.484375 217.535156 185.660156 217.304688 185.8125 C 217.074219 185.96875 216.832031 186.097656 216.578125 186.203125 C 216.320312 186.308594 216.058594 186.390625 215.785156 186.441406 C 215.515625 186.496094 215.242188 186.523438 214.964844 186.523438 C 214.6875 186.523438 214.414062 186.496094 214.144531 186.441406 C 213.871094 186.390625 213.609375 186.308594 213.351562 186.203125 C 213.097656 186.097656 212.855469 185.96875 212.625 185.8125 C 212.394531 185.660156 212.183594 185.484375 211.988281 185.289062 C 211.792969 185.09375 211.617188 184.878906 211.464844 184.648438 C 211.308594 184.417969 211.179688 184.175781 211.074219 183.917969 C 210.96875 183.664062 210.886719 183.398438 210.835938 183.128906 C 210.78125 182.855469 210.753906 182.582031 210.753906 182.304688 C 210.753906 182.027344 210.78125 181.753906 210.835938 181.480469 C 210.886719 181.210938 210.96875 180.945312 211.074219 180.691406 C 211.179688 180.433594 211.308594 180.191406 211.464844 179.960938 C 211.617188 179.730469 211.792969 179.519531 211.988281 179.320312 C 212.183594 179.125 212.394531 178.949219 212.625 178.796875 C 212.855469 178.644531 213.097656 178.511719 213.351562 178.40625 C 213.609375 178.300781 213.871094 178.222656 214.144531 178.167969 C 214.414062 178.113281 214.6875 178.085938 214.964844 178.085938 C 215.242188 178.085938 215.515625 178.113281 215.785156 178.167969 C 216.058594 178.222656 216.320312 178.300781 216.578125 178.40625 C 216.832031 178.511719 217.074219 178.644531 217.304688 178.796875 C 217.535156 178.949219 217.746094 179.125 217.941406 179.320312 C 218.136719 179.519531 218.3125 179.730469 218.464844 179.960938 C 218.621094 180.191406 218.75 180.433594 218.855469 180.691406 C 218.960938 180.945312 219.042969 181.210938 219.09375 181.480469 C 219.148438 181.753906 219.175781 182.027344 219.175781 182.304688 Z M 219.175781 182.304688 " fill-opacity="1" fill-rule="nonzero"/><path fill="#26a9e0" d="M 240.410156 174.152344 C 240.410156 174.425781 240.382812 174.703125 240.328125 174.972656 C 240.273438 175.246094 240.195312 175.507812 240.089844 175.765625 C 239.984375 176.019531 239.855469 176.265625 239.699219 176.496094 C 239.546875 176.726562 239.371094 176.9375 239.175781 177.132812 C 238.980469 177.328125 238.769531 177.503906 238.539062 177.660156 C 238.308594 177.8125 238.066406 177.941406 237.808594 178.046875 C 237.554688 178.15625 237.292969 178.234375 237.019531 178.289062 C 236.75 178.34375 236.476562 178.371094 236.199219 178.371094 C 235.921875 178.371094 235.648438 178.34375 235.378906 178.289062 C 235.105469 178.234375 234.84375 178.15625 234.585938 178.046875 C 234.332031 177.941406 234.089844 177.8125 233.859375 177.660156 C 233.628906 177.503906 233.417969 177.328125 233.222656 177.132812 C 233.027344 176.9375 232.851562 176.726562 232.699219 176.496094 C 232.542969 176.265625 232.414062 176.019531 232.308594 175.765625 C 232.203125 175.507812 232.121094 175.246094 232.070312 174.972656 C 232.015625 174.703125 231.988281 174.425781 231.988281 174.152344 C 231.988281 173.875 232.015625 173.597656 232.070312 173.328125 C 232.121094 173.054688 232.203125 172.792969 232.308594 172.535156 C 232.414062 172.28125 232.542969 172.035156 232.699219 171.804688 C 232.851562 171.574219 233.027344 171.363281 233.222656 171.167969 C 233.417969 170.972656 233.628906 170.796875 233.859375 170.640625 C 234.089844 170.488281 234.332031 170.359375 234.585938 170.253906 C 234.84375 170.148438 235.105469 170.066406 235.378906 170.011719 C 235.648438 169.957031 235.921875 169.929688 236.199219 169.929688 C 236.476562 169.929688 236.75 169.957031 237.019531 170.011719 C 237.292969 170.066406 237.554688 170.148438 237.808594 170.253906 C 238.066406 170.359375 238.308594 170.488281 238.539062 170.640625 C 238.769531 170.796875 238.980469 170.972656 239.175781 171.167969 C 239.371094 171.363281 239.546875 171.574219 239.699219 171.804688 C 239.855469 172.035156 239.984375 172.28125 240.089844 172.535156 C 240.195312 172.792969 240.273438 173.054688 240.328125 173.328125 C 240.382812 173.597656 240.410156 173.875 240.410156 174.152344 Z M 240.410156 174.152344 " fill-opacity="1" fill-rule="nonzero"/><path fill="#26a9e0" d="M 262.414062 164.082031 C 263.246094 166.257812 262.160156 168.699219 259.988281 169.53125 C 257.816406 170.367188 255.378906 169.277344 254.550781 167.105469 C 253.714844 164.925781 254.800781 162.488281 256.972656 161.652344 C 259.144531 160.820312 261.582031 161.90625 262.414062 164.082031 Z M 262.414062 164.082031 " fill-opacity="1" fill-rule="nonzero"/><path fill="#26a9e0" d="M 150.09375 222.582031 C 150.925781 224.757812 149.839844 227.199219 147.667969 228.035156 C 145.496094 228.871094 143.0625 227.78125 142.230469 225.605469 C 141.398438 223.429688 142.484375 220.988281 144.65625 220.15625 C 146.828125 219.320312 149.261719 220.40625 150.09375 222.582031 Z M 150.09375 222.582031 " fill-opacity="1" fill-rule="nonzero"/><path fill="#26a9e0" d="M 170.820312 216.238281 C 170.820312 216.515625 170.792969 216.789062 170.742188 217.0625 C 170.6875 217.335938 170.605469 217.597656 170.5 217.855469 C 170.394531 218.109375 170.265625 218.351562 170.113281 218.582031 C 169.957031 218.8125 169.785156 219.027344 169.589844 219.222656 C 169.394531 219.417969 169.179688 219.59375 168.949219 219.746094 C 168.71875 219.902344 168.476562 220.03125 168.222656 220.136719 C 167.964844 220.242188 167.703125 220.324219 167.433594 220.378906 C 167.160156 220.429688 166.886719 220.457031 166.609375 220.457031 C 166.335938 220.457031 166.058594 220.429688 165.789062 220.378906 C 165.519531 220.324219 165.253906 220.242188 165 220.136719 C 164.742188 220.03125 164.5 219.902344 164.269531 219.746094 C 164.042969 219.59375 163.828125 219.417969 163.632812 219.222656 C 163.4375 219.027344 163.261719 218.8125 163.109375 218.582031 C 162.957031 218.351562 162.824219 218.109375 162.71875 217.855469 C 162.613281 217.597656 162.535156 217.335938 162.480469 217.0625 C 162.425781 216.789062 162.398438 216.515625 162.398438 216.238281 C 162.398438 215.960938 162.425781 215.6875 162.480469 215.417969 C 162.535156 215.144531 162.613281 214.878906 162.71875 214.625 C 162.824219 214.367188 162.957031 214.125 163.109375 213.894531 C 163.261719 213.664062 163.4375 213.453125 163.632812 213.257812 C 163.828125 213.058594 164.042969 212.886719 164.269531 212.730469 C 164.5 212.578125 164.742188 212.449219 165 212.339844 C 165.253906 212.234375 165.519531 212.15625 165.789062 212.101562 C 166.058594 212.046875 166.335938 212.019531 166.609375 212.019531 C 166.886719 212.019531 167.160156 212.046875 167.433594 212.101562 C 167.703125 212.15625 167.964844 212.234375 168.222656 212.339844 C 168.476562 212.449219 168.71875 212.578125 168.949219 212.730469 C 169.179688 212.886719 169.394531 213.058594 169.589844 213.257812 C 169.785156 213.453125 169.957031 213.664062 170.113281 213.894531 C 170.265625 214.125 170.394531 214.367188 170.5 214.625 C 170.605469 214.878906 170.6875 215.144531 170.742188 215.417969 C 170.792969 215.6875 170.820312 215.960938 170.820312 216.238281 Z M 170.820312 216.238281 " fill-opacity="1" fill-rule="nonzero"/><path fill="#26a9e0" d="M 191.777344 206.574219 C 192.609375 208.75 191.523438 211.191406 189.351562 212.023438 C 187.179688 212.859375 184.746094 211.769531 183.910156 209.59375 C 183.078125 207.421875 184.164062 204.980469 186.339844 204.144531 C 188.507812 203.3125 190.945312 204.398438 191.777344 206.574219 Z M 191.777344 206.574219 " fill-opacity="1" fill-rule="nonzero"/><path fill="#26a9e0" d="M 213.796875 198.117188 C 214.628906 200.292969 213.546875 202.734375 211.371094 203.566406 C 209.199219 204.402344 206.765625 203.3125 205.933594 201.136719 C 205.101562 198.960938 206.183594 196.523438 208.359375 195.6875 C 210.53125 194.851562 212.964844 195.941406 213.796875 198.117188 Z M 213.796875 198.117188 " fill-opacity="1" fill-rule="nonzero"/><path fill="#26a9e0" d="M 234.246094 190.261719 C 235.078125 192.4375 233.992188 194.878906 231.820312 195.714844 C 229.648438 196.550781 227.214844 195.460938 226.382812 193.285156 C 225.546875 191.109375 226.632812 188.667969 228.804688 187.835938 C 230.976562 187 233.414062 188.089844 234.246094 190.261719 Z M 234.246094 190.261719 " fill-opacity="1" fill-rule="nonzero"/><path fill="#26a9e0" d="M 255.476562 182.109375 C 256.3125 184.285156 255.226562 186.722656 253.054688 187.558594 C 250.882812 188.394531 248.445312 187.304688 247.617188 185.128906 C 246.78125 182.953125 247.871094 180.511719 250.039062 179.679688 C 252.210938 178.84375 254.648438 179.933594 255.476562 182.109375 Z M 255.476562 182.109375 " fill-opacity="1" fill-rule="nonzero"/><path fill="#26a9e0" d="M 145.175781 241.152344 C 145.175781 241.429688 145.148438 241.703125 145.09375 241.976562 C 145.039062 242.246094 144.960938 242.511719 144.855469 242.765625 C 144.75 243.023438 144.617188 243.265625 144.464844 243.496094 C 144.3125 243.726562 144.136719 243.941406 143.941406 244.136719 C 143.746094 244.332031 143.53125 244.507812 143.304688 244.660156 C 143.074219 244.816406 142.832031 244.945312 142.574219 245.050781 C 142.320312 245.15625 142.054688 245.238281 141.785156 245.289062 C 141.515625 245.34375 141.238281 245.371094 140.964844 245.371094 C 140.6875 245.371094 140.414062 245.34375 140.140625 245.289062 C 139.871094 245.238281 139.605469 245.15625 139.351562 245.050781 C 139.097656 244.945312 138.855469 244.816406 138.625 244.660156 C 138.394531 244.507812 138.179688 244.332031 137.984375 244.136719 C 137.789062 243.941406 137.617188 243.726562 137.460938 243.496094 C 137.308594 243.265625 137.179688 243.023438 137.074219 242.765625 C 136.96875 242.511719 136.886719 242.246094 136.832031 241.976562 C 136.78125 241.703125 136.753906 241.429688 136.753906 241.152344 C 136.753906 240.875 136.78125 240.601562 136.832031 240.328125 C 136.886719 240.058594 136.96875 239.792969 137.074219 239.539062 C 137.179688 239.28125 137.308594 239.039062 137.460938 238.808594 C 137.617188 238.578125 137.789062 238.367188 137.984375 238.167969 C 138.179688 237.972656 138.394531 237.796875 138.625 237.644531 C 138.855469 237.492188 139.097656 237.359375 139.351562 237.253906 C 139.605469 237.148438 139.871094 237.070312 140.140625 237.015625 C 140.414062 236.960938 140.6875 236.933594 140.964844 236.933594 C 141.238281 236.933594 141.515625 236.960938 141.785156 237.015625 C 142.054688 237.070312 142.320312 237.148438 142.574219 237.253906 C 142.832031 237.359375 143.074219 237.492188 143.304688 237.644531 C 143.53125 237.796875 143.746094 237.972656 143.941406 238.167969 C 144.136719 238.367188 144.3125 238.578125 144.464844 238.808594 C 144.617188 239.039062 144.75 239.28125 144.855469 239.539062 C 144.960938 239.792969 145.039062 240.058594 145.09375 240.328125 C 145.148438 240.601562 145.175781 240.875 145.175781 241.152344 Z M 145.175781 241.152344 " fill-opacity="1" fill-rule="nonzero"/><path fill="#26a9e0" d="M 165.621094 233.300781 C 165.621094 233.578125 165.597656 233.851562 165.542969 234.121094 C 165.488281 234.394531 165.40625 234.660156 165.300781 234.914062 C 165.195312 235.171875 165.066406 235.414062 164.914062 235.644531 C 164.757812 235.875 164.585938 236.085938 164.390625 236.285156 C 164.195312 236.480469 163.980469 236.65625 163.75 236.808594 C 163.519531 236.960938 163.277344 237.09375 163.023438 237.199219 C 162.765625 237.304688 162.503906 237.382812 162.234375 237.4375 C 161.960938 237.492188 161.6875 237.519531 161.410156 237.519531 C 161.132812 237.519531 160.859375 237.492188 160.589844 237.4375 C 160.316406 237.382812 160.054688 237.304688 159.800781 237.199219 C 159.542969 237.09375 159.300781 236.960938 159.070312 236.808594 C 158.839844 236.65625 158.628906 236.480469 158.433594 236.285156 C 158.238281 236.085938 158.0625 235.875 157.910156 235.644531 C 157.753906 235.414062 157.625 235.171875 157.519531 234.914062 C 157.414062 234.660156 157.335938 234.394531 157.28125 234.121094 C 157.226562 233.851562 157.199219 233.578125 157.199219 233.300781 C 157.199219 233.023438 157.226562 232.75 157.28125 232.476562 C 157.335938 232.203125 157.414062 231.941406 157.519531 231.683594 C 157.625 231.429688 157.753906 231.1875 157.910156 230.957031 C 158.0625 230.726562 158.238281 230.511719 158.433594 230.316406 C 158.628906 230.121094 158.839844 229.945312 159.070312 229.792969 C 159.300781 229.636719 159.542969 229.507812 159.800781 229.402344 C 160.054688 229.296875 160.316406 229.214844 160.589844 229.160156 C 160.859375 229.105469 161.132812 229.082031 161.410156 229.082031 C 161.6875 229.082031 161.960938 229.105469 162.234375 229.160156 C 162.503906 229.214844 162.765625 229.296875 163.023438 229.402344 C 163.277344 229.507812 163.519531 229.636719 163.75 229.792969 C 163.980469 229.945312 164.195312 230.121094 164.390625 230.316406 C 164.585938 230.511719 164.757812 230.726562 164.914062 230.957031 C 165.066406 231.1875 165.195312 231.429688 165.300781 231.683594 C 165.40625 231.941406 165.488281 232.203125 165.542969 232.476562 C 165.597656 232.75 165.621094 233.023438 165.621094 233.300781 Z M 165.621094 233.300781 " fill-opacity="1" fill-rule="nonzero"/><path fill="#26a9e0" d="M 186.578125 223.632812 C 187.410156 225.808594 186.324219 228.25 184.152344 229.082031 C 181.980469 229.917969 179.546875 228.832031 178.710938 226.65625 C 177.878906 224.480469 178.964844 222.039062 181.136719 221.203125 C 183.3125 220.371094 185.746094 221.460938 186.578125 223.632812 Z M 186.578125 223.632812 " fill-opacity="1" fill-rule="nonzero"/><path fill="#26a9e0" d="M 208.597656 215.175781 C 209.433594 217.351562 208.34375 219.792969 206.175781 220.625 C 204 221.460938 201.566406 220.371094 200.734375 218.195312 C 199.902344 216.019531 200.988281 213.582031 203.160156 212.746094 C 205.328125 211.910156 207.765625 213 208.597656 215.175781 Z M 208.597656 215.175781 " fill-opacity="1" fill-rule="nonzero"/><path fill="#26a9e0" d="M 229.324219 208.832031 C 229.324219 209.109375 229.296875 209.386719 229.246094 209.65625 C 229.191406 209.929688 229.109375 210.191406 229.003906 210.449219 C 228.898438 210.703125 228.769531 210.949219 228.617188 211.179688 C 228.460938 211.410156 228.285156 211.621094 228.089844 211.816406 C 227.894531 212.011719 227.683594 212.1875 227.453125 212.34375 C 227.222656 212.496094 226.980469 212.625 226.726562 212.730469 C 226.46875 212.839844 226.207031 212.917969 225.933594 212.972656 C 225.664062 213.027344 225.390625 213.054688 225.113281 213.054688 C 224.835938 213.054688 224.5625 213.027344 224.292969 212.972656 C 224.019531 212.917969 223.757812 212.839844 223.5 212.730469 C 223.246094 212.625 223.003906 212.496094 222.773438 212.34375 C 222.542969 212.1875 222.332031 212.011719 222.136719 211.816406 C 221.941406 211.621094 221.765625 211.410156 221.613281 211.179688 C 221.457031 210.949219 221.328125 210.703125 221.222656 210.449219 C 221.117188 210.191406 221.035156 209.929688 220.984375 209.65625 C 220.929688 209.386719 220.902344 209.109375 220.902344 208.832031 C 220.902344 208.554688 220.929688 208.28125 220.984375 208.011719 C 221.035156 207.738281 221.117188 207.476562 221.222656 207.21875 C 221.328125 206.960938 221.457031 206.71875 221.613281 206.488281 C 221.765625 206.257812 221.941406 206.046875 222.136719 205.851562 C 222.332031 205.652344 222.542969 205.480469 222.773438 205.324219 C 223.003906 205.171875 223.246094 205.042969 223.5 204.933594 C 223.757812 204.828125 224.019531 204.75 224.292969 204.695312 C 224.5625 204.640625 224.835938 204.613281 225.113281 204.613281 C 225.390625 204.613281 225.664062 204.640625 225.933594 204.695312 C 226.207031 204.75 226.46875 204.828125 226.726562 204.933594 C 226.980469 205.042969 227.222656 205.171875 227.453125 205.324219 C 227.683594 205.480469 227.894531 205.652344 228.089844 205.851562 C 228.285156 206.046875 228.460938 206.257812 228.617188 206.488281 C 228.769531 206.71875 228.898438 206.960938 229.003906 207.21875 C 229.109375 207.476562 229.191406 207.738281 229.246094 208.011719 C 229.296875 208.28125 229.324219 208.554688 229.324219 208.832031 Z M 229.324219 208.832031 " fill-opacity="1" fill-rule="nonzero"/><path fill="#26a9e0" d="M 250.28125 199.167969 C 251.113281 201.34375 250.027344 203.785156 247.855469 204.617188 C 245.683594 205.449219 243.25 204.363281 242.414062 202.1875 C 241.585938 200.011719 242.667969 197.570312 244.839844 196.738281 C 247.011719 195.902344 249.449219 196.992188 250.28125 199.167969 Z M 250.28125 199.167969 " fill-opacity="1" fill-rule="nonzero"/><path fill="#26a9e0" d="M 272.5625 190.609375 C 273.398438 192.785156 272.308594 195.226562 270.140625 196.058594 C 267.964844 196.894531 265.53125 195.808594 264.699219 193.628906 C 263.867188 191.453125 264.953125 189.015625 267.125 188.179688 C 269.292969 187.34375 271.730469 188.433594 272.5625 190.609375 Z M 272.5625 190.609375 " fill-opacity="1" fill-rule="nonzero"/><path fill="#26a9e0" d="M 160.523438 250.621094 C 160.523438 250.898438 160.496094 251.171875 160.445312 251.445312 C 160.390625 251.714844 160.308594 251.980469 160.203125 252.238281 C 160.097656 252.492188 159.96875 252.734375 159.816406 252.964844 C 159.660156 253.195312 159.488281 253.410156 159.292969 253.605469 C 159.09375 253.800781 158.882812 253.976562 158.652344 254.128906 C 158.421875 254.285156 158.179688 254.414062 157.925781 254.519531 C 157.667969 254.625 157.40625 254.707031 157.132812 254.761719 C 156.863281 254.816406 156.589844 254.839844 156.3125 254.839844 C 156.035156 254.839844 155.761719 254.816406 155.492188 254.761719 C 155.21875 254.707031 154.957031 254.625 154.699219 254.519531 C 154.445312 254.414062 154.203125 254.285156 153.972656 254.128906 C 153.742188 253.976562 153.53125 253.800781 153.335938 253.605469 C 153.136719 253.410156 152.964844 253.195312 152.808594 252.964844 C 152.65625 252.734375 152.527344 252.492188 152.421875 252.238281 C 152.316406 251.980469 152.234375 251.714844 152.179688 251.445312 C 152.128906 251.171875 152.101562 250.898438 152.101562 250.621094 C 152.101562 250.34375 152.128906 250.070312 152.179688 249.796875 C 152.234375 249.527344 152.316406 249.261719 152.421875 249.007812 C 152.527344 248.75 152.65625 248.507812 152.808594 248.277344 C 152.964844 248.046875 153.136719 247.832031 153.335938 247.636719 C 153.53125 247.441406 153.742188 247.265625 153.972656 247.113281 C 154.203125 246.957031 154.445312 246.828125 154.699219 246.722656 C 154.957031 246.617188 155.21875 246.535156 155.492188 246.480469 C 155.761719 246.429688 156.035156 246.402344 156.3125 246.402344 C 156.589844 246.402344 156.863281 246.429688 157.132812 246.480469 C 157.40625 246.535156 157.667969 246.617188 157.925781 246.722656 C 158.179688 246.828125 158.421875 246.957031 158.652344 247.113281 C 158.882812 247.265625 159.09375 247.441406 159.292969 247.636719 C 159.488281 247.832031 159.660156 248.046875 159.816406 248.277344 C 159.96875 248.507812 160.097656 248.75 160.203125 249.007812 C 160.308594 249.261719 160.390625 249.527344 160.445312 249.796875 C 160.496094 250.070312 160.523438 250.34375 160.523438 250.621094 Z M 160.523438 250.621094 " fill-opacity="1" fill-rule="nonzero"/><path fill="#26a9e0" d="M 180.695312 241.257812 C 181.523438 243.433594 180.4375 245.875 178.269531 246.707031 C 176.097656 247.539062 173.660156 246.453125 172.828125 244.277344 C 171.996094 242.101562 173.082031 239.664062 175.253906 238.828125 C 177.425781 237.992188 179.859375 239.082031 180.695312 241.257812 Z M 180.695312 241.257812 " fill-opacity="1" fill-rule="nonzero"/><path fill="#26a9e0" d="M 201.925781 233.101562 C 202.761719 235.277344 201.671875 237.71875 199.5 238.550781 C 197.328125 239.386719 194.894531 238.300781 194.0625 236.125 C 193.230469 233.949219 194.316406 231.507812 196.488281 230.671875 C 198.660156 229.839844 201.09375 230.925781 201.925781 233.101562 Z M 201.925781 233.101562 " fill-opacity="1" fill-rule="nonzero"/><path fill="#26a9e0" d="M 223.949219 224.644531 C 224.78125 226.820312 223.695312 229.261719 221.519531 230.09375 C 219.351562 230.929688 216.917969 229.839844 216.082031 227.664062 C 215.253906 225.488281 216.335938 223.050781 218.507812 222.214844 C 220.679688 221.382812 223.113281 222.46875 223.949219 224.644531 Z M 223.949219 224.644531 " fill-opacity="1" fill-rule="nonzero"/><path fill="#26a9e0" d="M 244.394531 216.789062 C 245.230469 218.964844 244.140625 221.40625 241.972656 222.242188 C 239.796875 223.078125 237.363281 221.988281 236.53125 219.8125 C 235.695312 217.636719 236.785156 215.195312 238.957031 214.363281 C 241.125 213.527344 243.5625 214.613281 244.394531 216.789062 Z M 244.394531 216.789062 " fill-opacity="1" fill-rule="nonzero"/><path fill="#26a9e0" d="M 265.628906 208.632812 C 266.464844 210.8125 265.375 213.253906 263.207031 214.085938 C 261.03125 214.921875 258.597656 213.835938 257.765625 211.65625 C 256.933594 209.480469 258.019531 207.039062 260.1875 206.207031 C 262.363281 205.371094 264.796875 206.460938 265.628906 208.632812 Z M 265.628906 208.632812 " fill-opacity="1" fill-rule="nonzero"/><path fill="#26a9e0" d="M 155.625 268.46875 C 155.625 268.746094 155.597656 269.019531 155.542969 269.289062 C 155.488281 269.5625 155.410156 269.824219 155.304688 270.082031 C 155.199219 270.339844 155.070312 270.582031 154.914062 270.8125 C 154.761719 271.042969 154.585938 271.253906 154.390625 271.449219 C 154.195312 271.644531 153.984375 271.820312 153.753906 271.976562 C 153.523438 272.128906 153.28125 272.257812 153.027344 272.363281 C 152.769531 272.472656 152.507812 272.550781 152.234375 272.605469 C 151.964844 272.660156 151.691406 272.6875 151.414062 272.6875 C 151.136719 272.6875 150.863281 272.660156 150.59375 272.605469 C 150.320312 272.550781 150.058594 272.472656 149.804688 272.363281 C 149.546875 272.257812 149.304688 272.128906 149.074219 271.976562 C 148.84375 271.820312 148.632812 271.644531 148.4375 271.449219 C 148.242188 271.253906 148.066406 271.042969 147.914062 270.8125 C 147.761719 270.582031 147.628906 270.339844 147.523438 270.082031 C 147.417969 269.824219 147.339844 269.5625 147.285156 269.289062 C 147.230469 269.019531 147.203125 268.746094 147.203125 268.46875 C 147.203125 268.191406 147.230469 267.917969 147.285156 267.644531 C 147.339844 267.375 147.417969 267.109375 147.523438 266.851562 C 147.628906 266.597656 147.761719 266.355469 147.914062 266.125 C 148.066406 265.894531 148.242188 265.679688 148.4375 265.484375 C 148.632812 265.289062 148.84375 265.113281 149.074219 264.960938 C 149.304688 264.804688 149.546875 264.675781 149.804688 264.570312 C 150.058594 264.464844 150.320312 264.382812 150.59375 264.332031 C 150.863281 264.277344 151.136719 264.25 151.414062 264.25 C 151.691406 264.25 151.964844 264.277344 152.234375 264.332031 C 152.507812 264.382812 152.769531 264.464844 153.027344 264.570312 C 153.28125 264.675781 153.523438 264.804688 153.753906 264.960938 C 153.984375 265.113281 154.195312 265.289062 154.390625 265.484375 C 154.585938 265.679688 154.761719 265.894531 154.914062 266.125 C 155.070312 266.355469 155.199219 266.597656 155.304688 266.851562 C 155.410156 267.109375 155.488281 267.375 155.542969 267.644531 C 155.597656 267.917969 155.625 268.191406 155.625 268.46875 Z M 155.625 268.46875 " fill-opacity="1" fill-rule="nonzero"/><path fill="#26a9e0" d="M 175.792969 259.101562 C 176.625 261.28125 175.539062 263.71875 173.371094 264.554688 C 171.199219 265.386719 168.761719 264.300781 167.929688 262.125 C 167.097656 259.949219 168.183594 257.507812 170.355469 256.671875 C 172.527344 255.839844 174.960938 256.929688 175.792969 259.101562 Z M 175.792969 259.101562 " fill-opacity="1" fill-rule="nonzero"/><path fill="#26a9e0" d="M 197.027344 250.949219 C 197.863281 253.125 196.777344 255.5625 194.605469 256.398438 C 192.433594 257.234375 189.996094 256.144531 189.164062 253.96875 C 188.332031 251.792969 189.417969 249.351562 191.589844 248.519531 C 193.761719 247.6875 196.195312 248.773438 197.027344 250.949219 Z M 197.027344 250.949219 " fill-opacity="1" fill-rule="nonzero"/><path fill="#26a9e0" d="M 219.050781 242.492188 C 219.882812 244.667969 218.796875 247.105469 216.625 247.941406 C 214.453125 248.773438 212.015625 247.6875 211.183594 245.511719 C 210.351562 243.335938 211.4375 240.894531 213.609375 240.0625 C 215.78125 239.226562 218.21875 240.316406 219.050781 242.492188 Z M 219.050781 242.492188 " fill-opacity="1" fill-rule="nonzero"/><path fill="#26a9e0" d="M 239.496094 234.640625 C 240.328125 236.8125 239.242188 239.253906 237.074219 240.085938 C 234.902344 240.921875 232.464844 239.835938 231.632812 237.65625 C 230.800781 235.484375 231.886719 233.042969 234.058594 232.207031 C 236.230469 231.375 238.664062 232.464844 239.496094 234.640625 Z M 239.496094 234.640625 " fill-opacity="1" fill-rule="nonzero"/><path fill="#26a9e0" d="M 260.730469 226.480469 C 261.566406 228.65625 260.476562 231.097656 258.308594 231.929688 C 256.132812 232.765625 253.699219 231.679688 252.867188 229.503906 C 252.035156 227.324219 253.121094 224.886719 255.292969 224.050781 C 257.460938 223.21875 259.898438 224.308594 260.730469 226.480469 Z M 260.730469 226.480469 " fill-opacity="1" fill-rule="nonzero"/><path fill="#26a9e0" d="M 283.015625 217.925781 C 283.847656 220.097656 282.761719 222.539062 280.589844 223.375 C 278.417969 224.207031 275.980469 223.121094 275.148438 220.945312 C 274.316406 218.769531 275.402344 216.328125 277.574219 215.496094 C 279.746094 214.660156 282.179688 215.75 283.015625 217.925781 Z M 283.015625 217.925781 " fill-opacity="1" fill-rule="nonzero"/><path fill="#26a9e0" d="M 170.695312 276.425781 C 171.527344 278.601562 170.441406 281.042969 168.273438 281.875 C 166.097656 282.710938 163.664062 281.621094 162.832031 279.445312 C 162 277.269531 163.082031 274.832031 165.253906 273.996094 C 167.429688 273.164062 169.863281 274.25 170.695312 276.425781 Z M 170.695312 276.425781 " fill-opacity="1" fill-rule="nonzero"/><path fill="#26a9e0" d="M 191.144531 268.574219 C 191.976562 270.746094 190.890625 273.1875 188.722656 274.023438 C 186.546875 274.855469 184.113281 273.769531 183.28125 271.59375 C 182.449219 269.417969 183.535156 266.980469 185.703125 266.144531 C 187.875 265.308594 190.3125 266.394531 191.144531 268.574219 Z M 191.144531 268.574219 " fill-opacity="1" fill-rule="nonzero"/><path fill="#26a9e0" d="M 212.378906 260.417969 C 213.210938 262.59375 212.125 265.03125 209.953125 265.867188 C 207.78125 266.699219 205.347656 265.613281 204.511719 263.4375 C 203.679688 261.261719 204.765625 258.820312 206.9375 257.988281 C 209.109375 257.152344 211.546875 258.242188 212.378906 260.417969 Z M 212.378906 260.417969 " fill-opacity="1" fill-rule="nonzero"/><path fill="#26a9e0" d="M 234.398438 251.957031 C 235.230469 254.136719 234.144531 256.574219 231.972656 257.410156 C 229.800781 258.242188 227.367188 257.15625 226.535156 254.980469 C 225.699219 252.804688 226.785156 250.363281 228.960938 249.53125 C 231.132812 248.695312 233.566406 249.78125 234.398438 251.957031 Z M 234.398438 251.957031 " fill-opacity="1" fill-rule="nonzero"/><path fill="#26a9e0" d="M 254.847656 244.105469 C 255.679688 246.28125 254.59375 248.722656 252.421875 249.554688 C 250.25 250.390625 247.8125 249.300781 246.980469 247.125 C 246.148438 244.953125 247.234375 242.511719 249.40625 241.675781 C 251.578125 240.839844 254.011719 241.929688 254.847656 244.105469 Z M 254.847656 244.105469 " fill-opacity="1" fill-rule="nonzero"/><path fill="#26a9e0" d="M 276.082031 235.953125 C 276.914062 238.128906 275.828125 240.566406 273.65625 241.398438 C 271.484375 242.234375 269.046875 241.144531 268.214844 238.972656 C 267.382812 236.792969 268.46875 234.355469 270.640625 233.519531 C 272.8125 232.6875 275.25 233.773438 276.082031 235.953125 Z M 276.082031 235.953125 " fill-opacity="1" fill-rule="nonzero"/><path fill="#26a9e0" d="M 165.808594 295.085938 C 165.808594 295.363281 165.78125 295.636719 165.726562 295.90625 C 165.675781 296.179688 165.59375 296.441406 165.488281 296.699219 C 165.382812 296.957031 165.253906 297.199219 165.097656 297.429688 C 164.945312 297.660156 164.769531 297.871094 164.574219 298.066406 C 164.378906 298.265625 164.167969 298.4375 163.9375 298.59375 C 163.707031 298.746094 163.464844 298.875 163.210938 298.984375 C 162.953125 299.089844 162.691406 299.167969 162.417969 299.222656 C 162.148438 299.277344 161.875 299.304688 161.597656 299.304688 C 161.320312 299.304688 161.046875 299.277344 160.777344 299.222656 C 160.503906 299.167969 160.242188 299.089844 159.988281 298.984375 C 159.730469 298.875 159.488281 298.746094 159.257812 298.59375 C 159.027344 298.4375 158.816406 298.265625 158.621094 298.066406 C 158.425781 297.871094 158.25 297.660156 158.097656 297.429688 C 157.941406 297.199219 157.8125 296.957031 157.707031 296.699219 C 157.601562 296.441406 157.523438 296.179688 157.46875 295.90625 C 157.414062 295.636719 157.386719 295.363281 157.386719 295.085938 C 157.386719 294.808594 157.414062 294.535156 157.46875 294.261719 C 157.523438 293.988281 157.601562 293.726562 157.707031 293.46875 C 157.8125 293.214844 157.941406 292.972656 158.097656 292.742188 C 158.25 292.511719 158.425781 292.296875 158.621094 292.101562 C 158.816406 291.90625 159.027344 291.730469 159.257812 291.578125 C 159.488281 291.421875 159.730469 291.292969 159.988281 291.1875 C 160.242188 291.082031 160.503906 291 160.777344 290.945312 C 161.046875 290.894531 161.320312 290.867188 161.597656 290.867188 C 161.875 290.867188 162.148438 290.894531 162.417969 290.945312 C 162.691406 291 162.953125 291.082031 163.210938 291.1875 C 163.464844 291.292969 163.707031 291.421875 163.9375 291.578125 C 164.167969 291.730469 164.378906 291.90625 164.574219 292.101562 C 164.769531 292.296875 164.945312 292.511719 165.097656 292.742188 C 165.253906 292.972656 165.382812 293.214844 165.488281 293.46875 C 165.59375 293.726562 165.675781 293.988281 165.726562 294.261719 C 165.78125 294.535156 165.808594 294.808594 165.808594 295.085938 Z M 165.808594 295.085938 " fill-opacity="1" fill-rule="nonzero"/><path fill="#26a9e0" d="M 185.976562 285.722656 C 186.8125 287.898438 185.726562 290.335938 183.554688 291.171875 C 181.382812 292.003906 178.945312 290.917969 178.113281 288.738281 C 177.28125 286.566406 178.367188 284.125 180.539062 283.292969 C 182.710938 282.457031 185.144531 283.546875 185.976562 285.722656 Z M 185.976562 285.722656 " fill-opacity="1" fill-rule="nonzero"/><path fill="#26a9e0" d="M 207.210938 277.566406 C 208.046875 279.742188 206.960938 282.179688 204.789062 283.015625 C 202.617188 283.847656 200.183594 282.761719 199.347656 280.585938 C 198.515625 278.410156 199.601562 275.96875 201.773438 275.136719 C 203.945312 274.300781 206.378906 275.390625 207.210938 277.566406 Z M 207.210938 277.566406 " fill-opacity="1" fill-rule="nonzero"/><path fill="#26a9e0" d="M 229.234375 269.105469 C 230.066406 271.285156 228.980469 273.722656 226.808594 274.558594 C 224.636719 275.390625 222.203125 274.304688 221.371094 272.128906 C 220.535156 269.953125 221.621094 267.511719 223.796875 266.675781 C 225.964844 265.847656 228.402344 266.933594 229.234375 269.105469 Z M 229.234375 269.105469 " fill-opacity="1" fill-rule="nonzero"/><path fill="#26a9e0" d="M 249.683594 261.253906 C 250.515625 263.429688 249.429688 265.867188 247.257812 266.703125 C 245.085938 267.539062 242.652344 266.449219 241.816406 264.277344 C 240.984375 262.101562 242.070312 259.660156 244.242188 258.824219 C 246.414062 257.988281 248.851562 259.078125 249.683594 261.253906 Z M 249.683594 261.253906 " fill-opacity="1" fill-rule="nonzero"/><path fill="#26a9e0" d="M 270.917969 253.097656 C 271.746094 255.277344 270.664062 257.714844 268.488281 258.546875 C 266.320312 259.382812 263.882812 258.292969 263.050781 256.117188 C 262.21875 253.945312 263.304688 251.503906 265.476562 250.667969 C 267.648438 249.835938 270.082031 250.921875 270.917969 253.097656 Z M 270.917969 253.097656 " fill-opacity="1" fill-rule="nonzero"/><path fill="#26a9e0" d="M 293.195312 244.542969 C 294.03125 246.714844 292.945312 249.160156 290.773438 249.988281 C 288.601562 250.824219 286.167969 249.738281 285.332031 247.5625 C 284.5 245.386719 285.585938 242.945312 287.761719 242.109375 C 289.929688 241.277344 292.367188 242.363281 293.195312 244.542969 Z M 293.195312 244.542969 " fill-opacity="1" fill-rule="nonzero"/><path fill="#26a9e0" d="M 180.878906 303.042969 C 181.710938 305.21875 180.625 307.660156 178.453125 308.492188 C 176.28125 309.328125 173.847656 308.238281 173.015625 306.0625 C 172.183594 303.886719 173.269531 301.445312 175.441406 300.613281 C 177.613281 299.78125 180.046875 300.867188 180.878906 303.042969 Z M 180.878906 303.042969 " fill-opacity="1" fill-rule="nonzero"/><path fill="#26a9e0" d="M 201.328125 295.1875 C 202.160156 297.367188 201.074219 299.804688 198.902344 300.636719 C 196.730469 301.472656 194.296875 300.386719 193.464844 298.210938 C 192.632812 296.035156 193.714844 293.59375 195.890625 292.757812 C 198.0625 291.925781 200.496094 293.011719 201.328125 295.1875 Z M 201.328125 295.1875 " fill-opacity="1" fill-rule="nonzero"/><path fill="#26a9e0" d="M 222.5625 287.03125 C 223.394531 289.210938 222.308594 291.648438 220.136719 292.484375 C 217.964844 293.316406 215.53125 292.230469 214.695312 290.054688 C 213.867188 287.878906 214.949219 285.4375 217.125 284.605469 C 219.296875 283.769531 221.730469 284.859375 222.5625 287.03125 Z M 222.5625 287.03125 " fill-opacity="1" fill-rule="nonzero"/><path fill="#26a9e0" d="M 244.582031 278.574219 C 245.414062 280.753906 244.332031 283.191406 242.15625 284.027344 C 239.984375 284.859375 237.550781 283.773438 236.71875 281.59375 C 235.886719 279.421875 236.96875 276.980469 239.144531 276.148438 C 241.316406 275.3125 243.75 276.398438 244.582031 278.574219 Z M 244.582031 278.574219 " fill-opacity="1" fill-rule="nonzero"/><path fill="#26a9e0" d="M 265.308594 272.234375 C 265.308594 272.511719 265.28125 272.785156 265.226562 273.054688 C 265.171875 273.328125 265.09375 273.589844 264.988281 273.847656 C 264.882812 274.101562 264.753906 274.347656 264.597656 274.578125 C 264.445312 274.804688 264.269531 275.019531 264.074219 275.214844 C 263.878906 275.410156 263.667969 275.585938 263.4375 275.738281 C 263.207031 275.894531 262.964844 276.023438 262.710938 276.128906 C 262.453125 276.234375 262.191406 276.316406 261.917969 276.371094 C 261.648438 276.421875 261.375 276.449219 261.097656 276.449219 C 260.820312 276.449219 260.546875 276.421875 260.277344 276.371094 C 260.003906 276.316406 259.742188 276.234375 259.488281 276.128906 C 259.230469 276.023438 258.988281 275.894531 258.757812 275.738281 C 258.53125 275.585938 258.316406 275.410156 258.121094 275.214844 C 257.925781 275.019531 257.75 274.804688 257.597656 274.578125 C 257.445312 274.347656 257.316406 274.101562 257.207031 273.847656 C 257.101562 273.589844 257.023438 273.328125 256.96875 273.054688 C 256.914062 272.785156 256.886719 272.511719 256.886719 272.234375 C 256.886719 271.957031 256.914062 271.683594 256.96875 271.410156 C 257.023438 271.136719 257.101562 270.875 257.207031 270.617188 C 257.316406 270.363281 257.445312 270.121094 257.597656 269.890625 C 257.75 269.660156 257.925781 269.445312 258.121094 269.25 C 258.316406 269.054688 258.53125 268.878906 258.757812 268.726562 C 258.988281 268.570312 259.230469 268.441406 259.488281 268.335938 C 259.742188 268.230469 260.003906 268.148438 260.277344 268.097656 C 260.546875 268.042969 260.820312 268.015625 261.097656 268.015625 C 261.375 268.015625 261.648438 268.042969 261.917969 268.097656 C 262.191406 268.148438 262.453125 268.230469 262.710938 268.335938 C 262.964844 268.441406 263.207031 268.570312 263.4375 268.726562 C 263.667969 268.878906 263.878906 269.054688 264.074219 269.25 C 264.269531 269.445312 264.445312 269.660156 264.597656 269.890625 C 264.753906 270.121094 264.882812 270.363281 264.988281 270.617188 C 265.09375 270.875 265.171875 271.136719 265.226562 271.410156 C 265.28125 271.683594 265.308594 271.957031 265.308594 272.234375 Z M 265.308594 272.234375 " fill-opacity="1" fill-rule="nonzero"/><path fill="#26a9e0" d="M 286.261719 262.566406 C 287.097656 264.742188 286.011719 267.183594 283.839844 268.015625 C 281.667969 268.851562 279.234375 267.765625 278.402344 265.585938 C 277.566406 263.410156 278.652344 260.972656 280.828125 260.136719 C 282.996094 259.304688 285.433594 260.390625 286.261719 262.566406 Z M 286.261719 262.566406 " fill-opacity="1" fill-rule="nonzero"/><path fill="#26a9e0" d="M 151.460938 171.683594 L 171.183594 226.785156 L 141.976562 237.800781 C 141.976562 237.800781 199.628906 242.363281 231.488281 284.542969 C 231.488281 284.542969 233.003906 224.503906 269.414062 190.683594 L 239.832031 201.703125 L 219.351562 146.226562 Z M 151.460938 171.683594 " fill-opacity="1" fill-rule="nonzero"/><path fill="#231f20" d="M 130.847656 114.886719 C 130.347656 113.53125 129.605469 112.582031 128.613281 112.050781 C 127.617188 111.515625 126.09375 111.191406 124.042969 111.078125 C 119.957031 111.148438 116.714844 110.710938 114.316406 109.769531 C 111.914062 108.828125 110.183594 106.910156 109.121094 104.015625 C 108.074219 101.15625 108.273438 98.4375 109.71875 95.863281 C 111.167969 93.289062 113.527344 91.398438 116.796875 90.195312 C 120.117188 88.972656 123.183594 88.988281 125.996094 90.230469 C 128.804688 91.472656 130.738281 93.632812 131.792969 96.710938 L 131.796875 96.875 L 125.191406 99.304688 C 124.605469 97.703125 123.730469 96.558594 122.570312 95.859375 C 121.40625 95.160156 120.101562 95.078125 118.648438 95.613281 C 117.292969 96.109375 116.386719 96.914062 115.929688 98.015625 C 115.472656 99.117188 115.472656 100.292969 115.929688 101.539062 C 116.351562 102.691406 117.121094 103.484375 118.242188 103.914062 C 119.359375 104.347656 121.128906 104.636719 123.554688 104.777344 C 127.269531 104.679688 130.277344 105.1875 132.574219 106.292969 C 134.871094 107.398438 136.554688 109.414062 137.628906 112.339844 C 138.734375 115.359375 138.597656 118.097656 137.210938 120.550781 C 135.828125 123 133.46875 124.839844 130.132812 126.066406 C 126.8125 127.285156 123.582031 127.375 120.4375 126.324219 C 117.289062 125.277344 115.09375 122.925781 113.839844 119.265625 L 113.835938 119.105469 L 120.46875 116.664062 C 121.257812 118.824219 122.28125 120.207031 123.539062 120.816406 C 124.792969 121.425781 126.339844 121.390625 128.175781 120.714844 C 129.613281 120.1875 130.535156 119.414062 130.949219 118.390625 C 131.363281 117.367188 131.328125 116.199219 130.847656 114.886719 Z M 130.847656 114.886719 " fill-opacity="1" fill-rule="nonzero"/><path fill="#231f20" d="M 152.382812 117.3125 L 145.605469 119.804688 L 132.808594 84.878906 L 139.585938 82.386719 Z M 152.382812 117.3125 " fill-opacity="1" fill-rule="nonzero"/><path fill="#231f20" d="M 179.210938 101.5625 C 178.824219 103.410156 177.894531 105.253906 176.429688 107.089844 C 174.964844 108.925781 172.789062 110.375 169.902344 111.4375 C 166.164062 112.8125 162.769531 112.820312 159.707031 111.457031 C 156.644531 110.097656 154.375 107.394531 152.890625 103.347656 L 148.988281 92.699219 C 147.515625 88.6875 147.46875 85.175781 148.835938 82.167969 C 150.207031 79.160156 152.6875 76.996094 156.277344 75.675781 C 160.140625 74.253906 163.386719 74.136719 166.007812 75.316406 C 168.632812 76.5 170.632812 78.839844 172.007812 82.339844 L 172.011719 82.5 L 165.621094 84.851562 C 164.847656 82.898438 163.886719 81.621094 162.734375 81.019531 C 161.582031 80.417969 160.15625 80.425781 158.464844 81.046875 C 156.804688 81.660156 155.71875 82.726562 155.210938 84.25 C 154.699219 85.769531 154.882812 87.734375 155.765625 90.132812 L 159.6875 100.839844 C 160.585938 103.292969 161.726562 104.929688 163.105469 105.757812 C 164.488281 106.582031 166.085938 106.664062 167.90625 105.992188 C 169.261719 105.492188 170.199219 104.941406 170.710938 104.335938 C 171.21875 103.730469 171.550781 102.992188 171.703125 102.117188 L 169.410156 95.859375 L 164.8125 97.550781 L 163.054688 92.75 L 174.449219 88.558594 Z M 179.210938 101.5625 " fill-opacity="1" fill-rule="nonzero"/><path fill="#231f20" d="M 210.652344 95.875 L 203.878906 98.367188 L 185.042969 79.957031 L 184.914062 80.054688 L 193.082031 102.339844 L 186.257812 104.851562 L 173.460938 69.925781 L 180.28125 67.414062 L 199.109375 85.804688 L 199.238281 85.703125 L 191.082031 63.445312 L 197.855469 60.953125 Z M 210.652344 95.875 " fill-opacity="1" fill-rule="nonzero"/><path fill="#231f20" d="M 159.0625 147.082031 L 154.8125 148.648438 L 151.496094 139.605469 L 144.730469 142.09375 L 148.046875 151.132812 L 143.78125 152.703125 L 135.777344 130.871094 L 140.042969 129.300781 L 143.484375 138.6875 L 150.25 136.199219 L 146.808594 126.8125 L 151.0625 125.25 Z M 159.0625 147.082031 " fill-opacity="1" fill-rule="nonzero"/><path fill="#231f20" d="M 170.429688 132.027344 L 163.109375 134.71875 L 165.375 140.898438 L 173.980469 137.730469 L 175.226562 141.136719 L 162.355469 145.871094 L 154.355469 124.035156 L 167.195312 119.3125 L 168.445312 122.71875 L 159.867188 125.871094 L 161.859375 131.316406 L 169.183594 128.625 Z M 170.429688 132.027344 " fill-opacity="1" fill-rule="nonzero"/><path fill="#231f20" d="M 178.527344 130.070312 L 181.707031 138.753906 L 177.457031 140.316406 L 169.460938 118.496094 L 176.570312 115.882812 C 178.714844 115.09375 180.609375 115.039062 182.246094 115.726562 C 183.882812 116.410156 185.074219 117.765625 185.8125 119.78125 C 186.230469 120.921875 186.339844 121.996094 186.132812 123.007812 C 185.925781 124.023438 185.421875 124.953125 184.621094 125.800781 C 185.878906 125.769531 186.917969 126.105469 187.734375 126.800781 C 188.546875 127.5 189.199219 128.507812 189.683594 129.828125 L 190.25 131.375 C 190.46875 131.972656 190.773438 132.59375 191.164062 133.226562 C 191.554688 133.859375 191.980469 134.265625 192.445312 134.445312 L 192.558594 134.761719 L 188.160156 136.378906 C 187.691406 136.1875 187.28125 135.75 186.929688 135.0625 C 186.574219 134.375 186.261719 133.65625 185.988281 132.910156 L 185.441406 131.421875 C 185.042969 130.335938 184.511719 129.570312 183.847656 129.132812 C 183.183594 128.699219 182.4375 128.632812 181.609375 128.9375 Z M 177.28125 126.664062 L 180.125 125.621094 C 180.992188 125.300781 181.550781 124.792969 181.808594 124.097656 C 182.0625 123.402344 182.011719 122.566406 181.652344 121.585938 C 181.285156 120.585938 180.769531 119.875 180.105469 119.449219 C 179.441406 119.023438 178.675781 118.96875 177.820312 119.285156 L 174.960938 120.335938 Z M 177.28125 126.664062 " fill-opacity="1" fill-rule="nonzero"/><path fill="#231f20" d="M 202.910156 120.078125 L 195.589844 122.773438 L 197.851562 128.953125 L 206.460938 125.785156 L 207.707031 129.1875 L 194.835938 133.921875 L 186.832031 112.089844 L 199.675781 107.367188 L 200.925781 110.769531 L 192.347656 113.925781 L 194.34375 119.367188 L 201.660156 116.675781 Z M 202.910156 120.078125 " fill-opacity="1" fill-rule="nonzero"/><path fill="#231f20" d="M 231.488281 289.101562 C 230.085938 289.101562 228.734375 288.453125 227.855469 287.292969 C 197.582031 247.210938 142.175781 242.390625 141.621094 242.347656 C 139.496094 242.179688 137.769531 240.554688 137.472656 238.441406 C 137.171875 236.324219 138.378906 234.285156 140.375 233.535156 L 165.386719 224.097656 L 147.175781 173.222656 C 146.335938 170.875 147.535156 168.289062 149.863281 167.414062 L 217.753906 141.953125 C 218.886719 141.53125 220.144531 141.574219 221.242188 142.078125 C 222.34375 142.582031 223.199219 143.507812 223.617188 144.644531 L 242.515625 195.835938 L 267.828125 186.410156 C 269.867188 185.652344 272.152344 186.441406 273.289062 188.292969 C 274.429688 190.148438 274.101562 192.550781 272.507812 194.027344 C 237.90625 226.167969 236.050781 284.074219 236.035156 284.65625 C 235.988281 286.59375 234.722656 288.289062 232.878906 288.882812 C 232.421875 289.03125 231.953125 289.101562 231.488281 289.101562 Z M 159.300781 236.140625 C 164.261719 237.289062 170.039062 238.871094 176.28125 241.046875 C 191.328125 246.292969 211.578125 255.984375 227.871094 273.226562 C 228.621094 266.988281 229.972656 258.589844 232.390625 249.160156 C 235.941406 235.308594 242.414062 217.191406 254.007812 201.289062 L 241.417969 205.976562 C 240.285156 206.398438 239.03125 206.351562 237.933594 205.847656 C 236.832031 205.34375 235.980469 204.421875 235.5625 203.285156 L 216.667969 152.101562 L 157.261719 174.378906 L 175.46875 225.246094 C 176.304688 227.589844 175.113281 230.175781 172.785156 231.050781 Z M 159.300781 236.140625 " fill-opacity="1" fill-rule="nonzero"/><g clip-path="url(#3b097d8185)"><path fill="#231f20" d="M 312.988281 262.648438 L 152.382812 324.777344 L 107.726562 206.171875 C 107.726562 206.171875 86.941406 154.382812 49.773438 119.3125 L 74.175781 110.664062 L 154.261719 322.5 Z M 312.988281 262.648438 " fill-opacity="0.2" fill-rule="nonzero"/></g></svg>