<svg xmlns="http://www.w3.org/2000/svg" xmlns:xlink="http://www.w3.org/1999/xlink" width="500" zoomAndPan="magnify" viewBox="0 0 375 374.999991" height="500" preserveAspectRatio="xMidYMid meet" version="1.0"><defs><clipPath id="f74a7ebc06"><path d="M 125.183594 112.5 L 249.683594 112.5 L 249.683594 262.5 L 125.183594 262.5 Z M 125.183594 112.5 " clip-rule="nonzero"/></clipPath></defs><path fill="#89ccff" d="M 243.457031 148.304688 L 243.457031 169.652344 C 243.457031 206.972656 221.5 240.792969 187.433594 255.953125 C 153.363281 240.792969 131.40625 206.972656 131.40625 169.652344 L 131.40625 148.304688 C 147.652344 148.304688 160.820312 135.121094 160.820312 118.859375 L 214.042969 118.859375 C 214.042969 135.121094 227.210938 148.304688 243.457031 148.304688 Z M 243.457031 148.304688 " fill-opacity="1" fill-rule="nonzero"/><g clip-path="url(#f74a7ebc06)"><path fill="#2169ac" d="M 243.457031 142.074219 C 230.671875 142.074219 220.269531 131.660156 220.269531 118.859375 C 220.269531 115.417969 217.480469 112.628906 214.042969 112.628906 L 160.820312 112.628906 C 157.382812 112.628906 154.59375 115.417969 154.59375 118.859375 C 154.59375 131.660156 144.191406 142.074219 131.40625 142.074219 C 127.96875 142.074219 125.183594 144.863281 125.183594 148.304688 L 125.183594 169.652344 C 125.183594 209.394531 148.625 245.503906 184.902344 261.648438 C 186.511719 262.363281 188.351562 262.363281 189.960938 261.648438 C 226.238281 245.503906 249.683594 209.394531 249.683594 169.652344 L 249.683594 148.304688 C 249.683594 144.863281 246.894531 142.074219 243.457031 142.074219 Z M 237.230469 169.652344 C 237.230469 203.542969 217.773438 234.417969 187.433594 249.085938 C 157.089844 234.417969 137.632812 203.542969 137.632812 169.652344 L 137.632812 153.992188 C 152.304688 151.394531 163.90625 139.777344 166.5 125.09375 L 208.363281 125.09375 C 210.957031 139.777344 222.558594 151.394531 237.230469 153.992188 Z M 237.230469 169.652344 " fill-opacity="1" fill-rule="nonzero"/></g><path fill="#2169ac" d="M 197.96875 170.539062 L 183.695312 184.824219 L 176.894531 178.015625 C 174.460938 175.582031 170.519531 175.582031 168.089844 178.015625 C 165.660156 180.449219 165.660156 184.394531 168.089844 186.828125 L 179.296875 198.042969 C 181.726562 200.476562 185.667969 200.476562 188.097656 198.042969 L 206.773438 179.351562 C 209.203125 176.917969 209.203125 172.972656 206.773438 170.539062 C 204.34375 168.105469 200.402344 168.105469 197.96875 170.539062 Z M 197.96875 170.539062 " fill-opacity="1" fill-rule="nonzero"/></svg>