<svg xmlns="http://www.w3.org/2000/svg" xmlns:xlink="http://www.w3.org/1999/xlink" width="500" zoomAndPan="magnify" viewBox="0 0 375 374.999991" height="500" preserveAspectRatio="xMidYMid meet" version="1.0"><defs><g/><clipPath id="c2f3715a56"><path d="M 62.566406 61.351562 L 312.316406 61.351562 L 312.316406 313.640625 L 62.566406 313.640625 Z M 62.566406 61.351562 " clip-rule="nonzero"/></clipPath><clipPath id="37f58900ef"><path d="M 90.542969 179.652344 L 106.234375 179.652344 L 106.234375 195.34375 L 90.542969 195.34375 Z M 90.542969 179.652344 " clip-rule="nonzero"/></clipPath><clipPath id="881926b748"><path d="M 150 162.378906 L 226 162.378906 L 226 217 L 150 217 Z M 150 162.378906 " clip-rule="nonzero"/></clipPath><clipPath id="925326b27f"><path d="M 146 214 L 229.40625 214 L 229.40625 239 L 146 239 Z M 146 214 " clip-rule="nonzero"/></clipPath><clipPath id="b2bbe67a02"><path d="M 179 159 L 196 159 L 196 188.320312 L 179 188.320312 Z M 179 159 " clip-rule="nonzero"/></clipPath><clipPath id="d0d83e7f97"><path d="M 173 134.320312 L 186 134.320312 L 186 146 L 173 146 Z M 173 134.320312 " clip-rule="nonzero"/></clipPath><clipPath id="9c39bf808f"><path d="M 160.34375 147 L 163 147 L 163 150 L 160.34375 150 Z M 160.34375 147 " clip-rule="nonzero"/></clipPath><clipPath id="1d145dae7b"><path d="M 160.34375 154 L 166 154 L 166 160 L 160.34375 160 Z M 160.34375 154 " clip-rule="nonzero"/></clipPath><clipPath id="e7cce5908a"><path d="M 209 134.320312 L 214.34375 134.320312 L 214.34375 140 L 209 140 Z M 209 134.320312 " clip-rule="nonzero"/></clipPath><clipPath id="974969bd9c"><path d="M 268.957031 179.652344 L 284.707031 179.652344 L 284.707031 195.402344 L 268.957031 195.402344 Z M 268.957031 179.652344 " clip-rule="nonzero"/></clipPath></defs><g clip-path="url(#c2f3715a56)"><path fill="#000000" d="M 187.496094 299.078125 C 125.871094 299.078125 75.914062 249.121094 75.914062 187.496094 C 75.914062 125.871094 125.871094 75.914062 187.496094 75.914062 C 249.121094 75.914062 299.078125 125.871094 299.078125 187.496094 C 299.078125 249.121094 249.121094 299.078125 187.496094 299.078125 Z M 312.371094 169.546875 C 311.542969 163.738281 301.933594 159.878906 300.316406 154.363281 C 298.675781 148.757812 304.664062 140.320312 302.265625 135.078125 C 299.84375 129.78125 289.53125 128.796875 286.402344 123.9375 C 283.253906 119.050781 286.625 109.261719 282.828125 104.886719 C 279.027344 100.503906 268.859375 102.453125 264.476562 98.652344 C 260.101562 94.859375 260.589844 84.515625 255.703125 81.367188 C 250.84375 78.238281 241.636719 82.960938 236.339844 80.539062 C 231.097656 78.140625 228.652344 68.078125 223.042969 66.429688 C 217.53125 64.816406 210.042969 71.953125 204.234375 71.125 C 198.570312 70.316406 193.386719 61.351562 187.496094 61.351562 C 181.609375 61.351562 176.421875 70.316406 170.757812 71.125 C 164.949219 71.953125 157.460938 64.816406 151.949219 66.433594 C 146.339844 68.078125 143.894531 78.140625 138.652344 80.539062 C 133.355469 82.960938 124.148438 78.238281 119.289062 81.367188 C 114.402344 84.515625 114.890625 94.859375 110.515625 98.652344 C 106.132812 102.453125 95.964844 100.503906 92.164062 104.886719 C 88.367188 109.265625 91.738281 119.050781 88.589844 123.941406 C 85.460938 128.796875 75.152344 129.78125 72.726562 135.082031 C 70.328125 140.320312 76.320312 148.757812 74.675781 154.367188 C 73.058594 159.878906 63.449219 163.738281 62.621094 169.542969 C 61.8125 175.210938 69.945312 181.609375 69.945312 187.496094 C 69.945312 193.382812 61.8125 199.78125 62.621094 205.445312 C 63.449219 211.253906 73.058594 215.113281 74.675781 220.625 C 76.320312 226.234375 70.328125 234.671875 72.726562 239.910156 C 75.152344 245.210938 85.460938 246.195312 88.589844 251.054688 C 91.738281 255.941406 88.367188 265.730469 92.164062 270.105469 C 95.964844 274.488281 106.132812 272.539062 110.515625 276.339844 C 114.890625 280.132812 114.402344 290.476562 119.289062 293.625 C 124.148438 296.753906 133.355469 292.03125 138.65625 294.453125 C 143.894531 296.851562 146.34375 306.914062 151.949219 308.558594 C 157.460938 310.175781 164.949219 303.039062 170.757812 303.867188 C 176.421875 304.675781 181.609375 313.640625 187.496094 313.640625 C 193.386719 313.640625 198.570312 304.675781 204.234375 303.867188 C 210.042969 303.039062 217.53125 310.175781 223.042969 308.558594 C 228.652344 306.914062 231.097656 296.851562 236.339844 294.453125 C 241.636719 292.03125 250.847656 296.753906 255.703125 293.625 C 260.59375 290.476562 260.101562 280.132812 264.476562 276.339844 C 268.859375 272.539062 279.027344 274.488281 282.832031 270.101562 C 286.625 265.726562 283.257812 255.941406 286.40625 251.050781 C 289.53125 246.191406 299.84375 245.210938 302.265625 239.910156 C 304.664062 234.667969 298.675781 226.234375 300.316406 220.625 C 301.933594 215.113281 311.542969 211.253906 312.371094 205.445312 C 313.179688 199.78125 305.050781 193.382812 305.050781 187.496094 C 305.050781 181.609375 313.179688 175.210938 312.371094 169.546875 " fill-opacity="1" fill-rule="nonzero"/></g><path fill="#000000" d="M 187.496094 287.78125 C 132.109375 287.78125 87.210938 242.882812 87.210938 187.496094 C 87.210938 132.109375 132.109375 87.210938 187.496094 87.210938 C 242.882812 87.210938 287.785156 132.109375 287.785156 187.496094 C 287.785156 242.882812 242.882812 287.78125 187.496094 287.78125 Z M 187.496094 80.121094 C 128.195312 80.121094 80.121094 128.195312 80.121094 187.496094 C 80.121094 246.796875 128.195312 294.871094 187.496094 294.871094 C 246.796875 294.871094 294.871094 246.796875 294.871094 187.496094 C 294.871094 128.195312 246.796875 80.121094 187.496094 80.121094 " fill-opacity="1" fill-rule="nonzero"/><path fill="#000000" d="M 109.847656 187.496094 C 109.847656 230.378906 144.613281 265.144531 187.496094 265.144531 C 230.382812 265.144531 265.144531 230.378906 265.144531 187.496094 C 265.144531 144.613281 230.382812 109.847656 187.496094 109.847656 C 144.613281 109.847656 109.847656 144.613281 109.847656 187.496094 " fill-opacity="1" fill-rule="nonzero"/><path fill="#ffffff" d="M 187.496094 114.597656 C 147.300781 114.597656 114.597656 147.300781 114.597656 187.496094 C 114.597656 227.691406 147.300781 260.394531 187.496094 260.394531 C 227.691406 260.394531 260.394531 227.691406 260.394531 187.496094 C 260.394531 147.300781 227.691406 114.597656 187.496094 114.597656 Z M 187.496094 261.46875 C 146.707031 261.46875 113.523438 228.285156 113.523438 187.496094 C 113.523438 146.707031 146.707031 113.523438 187.496094 113.523438 C 228.285156 113.523438 261.46875 146.707031 261.46875 187.496094 C 261.46875 228.285156 228.285156 261.46875 187.496094 261.46875 " fill-opacity="1" fill-rule="nonzero"/><path fill="#ffffff" d="M 189.402344 83.644531 C 189.402344 84.695312 188.550781 85.550781 187.496094 85.550781 C 186.445312 85.550781 185.589844 84.695312 185.589844 83.644531 C 185.589844 82.589844 186.445312 81.738281 187.496094 81.738281 C 188.550781 81.738281 189.402344 82.589844 189.402344 83.644531 " fill-opacity="1" fill-rule="nonzero"/><path fill="#ffffff" d="M 198.445312 84.203125 C 198.355469 85.253906 197.429688 86.03125 196.382812 85.9375 C 195.332031 85.847656 194.558594 84.921875 194.648438 83.871094 C 194.742188 82.824219 195.664062 82.046875 196.714844 82.140625 C 197.761719 82.230469 198.539062 83.15625 198.445312 84.203125 " fill-opacity="1" fill-rule="nonzero"/><path fill="#ffffff" d="M 207.40625 85.550781 C 207.222656 86.589844 206.234375 87.28125 205.199219 87.097656 C 204.164062 86.914062 203.46875 85.925781 203.652344 84.890625 C 203.835938 83.851562 204.824219 83.160156 205.859375 83.34375 C 206.898438 83.527344 207.589844 84.515625 207.40625 85.550781 " fill-opacity="1" fill-rule="nonzero"/><path fill="#ffffff" d="M 216.214844 87.675781 C 215.945312 88.691406 214.898438 89.296875 213.882812 89.023438 C 212.863281 88.75 212.261719 87.707031 212.535156 86.6875 C 212.808594 85.671875 213.851562 85.070312 214.867188 85.339844 C 215.886719 85.613281 216.488281 86.660156 216.214844 87.675781 " fill-opacity="1" fill-rule="nonzero"/><path fill="#ffffff" d="M 224.804688 90.558594 C 224.445312 91.546875 223.355469 92.058594 222.363281 91.699219 C 221.375 91.339844 220.863281 90.246094 221.226562 89.253906 C 221.585938 88.265625 222.679688 87.757812 223.667969 88.117188 C 224.65625 88.476562 225.167969 89.570312 224.804688 90.558594 " fill-opacity="1" fill-rule="nonzero"/><path fill="#ffffff" d="M 233.113281 94.179688 C 232.667969 95.132812 231.535156 95.546875 230.582031 95.101562 C 229.625 94.65625 229.214844 93.523438 229.660156 92.566406 C 230.105469 91.613281 231.238281 91.203125 232.191406 91.644531 C 233.144531 92.089844 233.558594 93.226562 233.113281 94.179688 " fill-opacity="1" fill-rule="nonzero"/><path fill="#ffffff" d="M 241.074219 98.507812 C 240.546875 99.421875 239.382812 99.734375 238.46875 99.207031 C 237.558594 98.679688 237.246094 97.515625 237.773438 96.605469 C 238.296875 95.691406 239.464844 95.378906 240.375 95.90625 C 241.285156 96.433594 241.601562 97.597656 241.074219 98.507812 " fill-opacity="1" fill-rule="nonzero"/><path fill="#ffffff" d="M 248.625 103.519531 C 248.023438 104.378906 246.832031 104.589844 245.96875 103.984375 C 245.109375 103.382812 244.898438 102.191406 245.503906 101.332031 C 246.105469 100.46875 247.296875 100.257812 248.15625 100.863281 C 249.019531 101.464844 249.230469 102.65625 248.625 103.519531 " fill-opacity="1" fill-rule="nonzero"/><path fill="#ffffff" d="M 255.710938 109.164062 C 255.035156 109.972656 253.832031 110.078125 253.027344 109.402344 C 252.21875 108.722656 252.113281 107.519531 252.792969 106.714844 C 253.46875 105.910156 254.667969 105.804688 255.476562 106.480469 C 256.28125 107.15625 256.386719 108.359375 255.710938 109.164062 " fill-opacity="1" fill-rule="nonzero"/><path fill="#ffffff" d="M 262.28125 115.410156 C 261.535156 116.152344 260.328125 116.152344 259.582031 115.410156 C 258.839844 114.664062 258.839844 113.457031 259.582031 112.714844 C 260.328125 111.96875 261.535156 111.96875 262.28125 112.714844 C 263.023438 113.457031 263.023438 114.664062 262.28125 115.410156 " fill-opacity="1" fill-rule="nonzero"/><path fill="#ffffff" d="M 268.277344 122.199219 C 267.472656 122.878906 266.269531 122.773438 265.589844 121.964844 C 264.914062 121.160156 265.019531 119.957031 265.828125 119.28125 C 266.632812 118.605469 267.835938 118.707031 268.511719 119.515625 C 269.1875 120.320312 269.082031 121.523438 268.277344 122.199219 " fill-opacity="1" fill-rule="nonzero"/><path fill="#ffffff" d="M 273.660156 129.488281 C 272.796875 130.09375 271.609375 129.882812 271.003906 129.023438 C 270.402344 128.160156 270.609375 126.972656 271.472656 126.367188 C 272.335938 125.761719 273.523438 125.972656 274.128906 126.835938 C 274.730469 127.699219 274.523438 128.886719 273.660156 129.488281 " fill-opacity="1" fill-rule="nonzero"/><path fill="#ffffff" d="M 278.386719 137.21875 C 277.476562 137.746094 276.3125 137.433594 275.785156 136.523438 C 275.257812 135.609375 275.570312 134.445312 276.484375 133.917969 C 277.394531 133.390625 278.558594 133.707031 279.085938 134.617188 C 279.613281 135.527344 279.300781 136.695312 278.386719 137.21875 " fill-opacity="1" fill-rule="nonzero"/><path fill="#ffffff" d="M 282.421875 145.335938 C 281.46875 145.777344 280.335938 145.367188 279.890625 144.410156 C 279.445312 143.457031 279.859375 142.324219 280.8125 141.878906 C 281.765625 141.433594 282.902344 141.847656 283.34375 142.800781 C 283.789062 143.753906 283.378906 144.886719 282.421875 145.335938 " fill-opacity="1" fill-rule="nonzero"/><path fill="#ffffff" d="M 285.738281 153.765625 C 284.746094 154.125 283.65625 153.617188 283.292969 152.628906 C 282.933594 151.636719 283.445312 150.546875 284.433594 150.183594 C 285.421875 149.824219 286.515625 150.335938 286.878906 151.324219 C 287.238281 152.3125 286.726562 153.40625 285.738281 153.765625 " fill-opacity="1" fill-rule="nonzero"/><path fill="#ffffff" d="M 288.300781 162.457031 C 287.285156 162.730469 286.242188 162.128906 285.96875 161.109375 C 285.695312 160.09375 286.300781 159.046875 287.316406 158.777344 C 288.332031 158.503906 289.378906 159.105469 289.652344 160.125 C 289.921875 161.140625 289.320312 162.183594 288.300781 162.457031 " fill-opacity="1" fill-rule="nonzero"/><path fill="#ffffff" d="M 290.101562 171.339844 C 289.066406 171.523438 288.074219 170.828125 287.894531 169.792969 C 287.710938 168.757812 288.402344 167.769531 289.4375 167.585938 C 290.476562 167.402344 291.464844 168.09375 291.648438 169.132812 C 291.828125 170.167969 291.136719 171.15625 290.101562 171.339844 " fill-opacity="1" fill-rule="nonzero"/><path fill="#ffffff" d="M 291.117188 180.34375 C 290.070312 180.433594 289.144531 179.660156 289.054688 178.609375 C 288.960938 177.5625 289.738281 176.636719 290.785156 176.546875 C 291.835938 176.453125 292.761719 177.230469 292.851562 178.277344 C 292.945312 179.328125 292.167969 180.25 291.117188 180.34375 " fill-opacity="1" fill-rule="nonzero"/><path fill="#ffffff" d="M 291.347656 189.402344 C 290.296875 189.402344 289.441406 188.546875 289.441406 187.496094 C 289.441406 186.441406 290.296875 185.589844 291.347656 185.589844 C 292.402344 185.589844 293.253906 186.441406 293.253906 187.496094 C 293.253906 188.546875 292.402344 189.402344 291.347656 189.402344 " fill-opacity="1" fill-rule="nonzero"/><path fill="#ffffff" d="M 290.785156 198.445312 C 289.738281 198.355469 288.960938 197.429688 289.054688 196.378906 C 289.144531 195.332031 290.070312 194.554688 291.117188 194.648438 C 292.167969 194.738281 292.945312 195.664062 292.851562 196.714844 C 292.761719 197.761719 291.835938 198.539062 290.785156 198.445312 " fill-opacity="1" fill-rule="nonzero"/><path fill="#ffffff" d="M 289.4375 207.40625 C 288.402344 207.222656 287.710938 206.234375 287.894531 205.199219 C 288.074219 204.160156 289.066406 203.46875 290.101562 203.652344 C 291.136719 203.835938 291.828125 204.824219 291.648438 205.859375 C 291.464844 206.898438 290.476562 207.589844 289.4375 207.40625 " fill-opacity="1" fill-rule="nonzero"/><path fill="#ffffff" d="M 287.316406 216.214844 C 286.300781 215.941406 285.695312 214.898438 285.96875 213.882812 C 286.242188 212.863281 287.285156 212.261719 288.300781 212.535156 C 289.320312 212.804688 289.921875 213.851562 289.652344 214.867188 C 289.378906 215.882812 288.332031 216.488281 287.316406 216.214844 " fill-opacity="1" fill-rule="nonzero"/><path fill="#ffffff" d="M 284.433594 224.804688 C 283.445312 224.445312 282.933594 223.351562 283.292969 222.363281 C 283.65625 221.375 284.746094 220.863281 285.738281 221.222656 C 286.726562 221.582031 287.238281 222.679688 286.878906 223.667969 C 286.515625 224.65625 285.421875 225.164062 284.433594 224.804688 " fill-opacity="1" fill-rule="nonzero"/><path fill="#ffffff" d="M 280.8125 233.113281 C 279.859375 232.667969 279.445312 231.535156 279.890625 230.578125 C 280.335938 229.625 281.46875 229.214844 282.421875 229.660156 C 283.378906 230.101562 283.789062 231.238281 283.34375 232.191406 C 282.902344 233.144531 281.765625 233.558594 280.8125 233.113281 " fill-opacity="1" fill-rule="nonzero"/><path fill="#ffffff" d="M 276.484375 241.074219 C 275.570312 240.546875 275.257812 239.378906 275.785156 238.46875 C 276.3125 237.558594 277.476562 237.246094 278.386719 237.769531 C 279.300781 238.296875 279.613281 239.464844 279.085938 240.375 C 278.558594 241.285156 277.394531 241.597656 276.484375 241.074219 " fill-opacity="1" fill-rule="nonzero"/><path fill="#ffffff" d="M 271.472656 248.625 C 270.609375 248.019531 270.402344 246.832031 271.003906 245.96875 C 271.609375 245.109375 272.796875 244.898438 273.660156 245.5 C 274.523438 246.105469 274.730469 247.292969 274.128906 248.15625 C 273.523438 249.019531 272.335938 249.226562 271.472656 248.625 " fill-opacity="1" fill-rule="nonzero"/><path fill="#ffffff" d="M 265.828125 255.710938 C 265.019531 255.035156 264.914062 253.832031 265.589844 253.027344 C 266.269531 252.21875 267.472656 252.113281 268.277344 252.789062 C 269.082031 253.46875 269.1875 254.667969 268.511719 255.476562 C 267.835938 256.28125 266.632812 256.386719 265.828125 255.710938 " fill-opacity="1" fill-rule="nonzero"/><path fill="#ffffff" d="M 259.582031 262.277344 C 258.839844 261.535156 258.839844 260.328125 259.582031 259.582031 C 260.328125 258.839844 261.535156 258.839844 262.277344 259.582031 C 263.023438 260.328125 263.023438 261.535156 262.277344 262.277344 C 261.535156 263.023438 260.328125 263.023438 259.582031 262.277344 " fill-opacity="1" fill-rule="nonzero"/><path fill="#ffffff" d="M 252.792969 268.277344 C 252.113281 267.46875 252.21875 266.265625 253.027344 265.589844 C 253.832031 264.914062 255.035156 265.019531 255.710938 265.824219 C 256.386719 266.632812 256.285156 267.835938 255.476562 268.511719 C 254.671875 269.1875 253.46875 269.082031 252.792969 268.277344 " fill-opacity="1" fill-rule="nonzero"/><path fill="#ffffff" d="M 245.503906 273.660156 C 244.898438 272.796875 245.109375 271.609375 245.96875 271.003906 C 246.832031 270.402344 248.019531 270.609375 248.625 271.472656 C 249.230469 272.335938 249.019531 273.523438 248.15625 274.128906 C 247.292969 274.730469 246.105469 274.523438 245.503906 273.660156 " fill-opacity="1" fill-rule="nonzero"/><path fill="#ffffff" d="M 237.773438 278.386719 C 237.246094 277.476562 237.558594 276.308594 238.46875 275.785156 C 239.382812 275.257812 240.546875 275.570312 241.074219 276.480469 C 241.597656 277.394531 241.285156 278.558594 240.375 279.085938 C 239.464844 279.609375 238.296875 279.300781 237.773438 278.386719 " fill-opacity="1" fill-rule="nonzero"/><path fill="#ffffff" d="M 229.660156 282.421875 C 229.214844 281.46875 229.625 280.335938 230.582031 279.890625 C 231.535156 279.445312 232.667969 279.859375 233.113281 280.8125 C 233.558594 281.765625 233.144531 282.902344 232.191406 283.34375 C 231.238281 283.789062 230.105469 283.378906 229.660156 282.421875 " fill-opacity="1" fill-rule="nonzero"/><path fill="#ffffff" d="M 221.226562 285.738281 C 220.863281 284.746094 221.375 283.652344 222.363281 283.292969 C 223.355469 282.933594 224.445312 283.445312 224.804688 284.433594 C 225.167969 285.421875 224.65625 286.515625 223.667969 286.875 C 222.679688 287.234375 221.585938 286.726562 221.226562 285.738281 " fill-opacity="1" fill-rule="nonzero"/><path fill="#ffffff" d="M 212.535156 288.300781 C 212.261719 287.285156 212.863281 286.238281 213.882812 285.96875 C 214.898438 285.695312 215.941406 286.300781 216.214844 287.316406 C 216.488281 288.332031 215.886719 289.378906 214.867188 289.648438 C 213.851562 289.921875 212.804688 289.320312 212.535156 288.300781 " fill-opacity="1" fill-rule="nonzero"/><path fill="#ffffff" d="M 203.652344 290.101562 C 203.472656 289.0625 204.164062 288.074219 205.199219 287.894531 C 206.234375 287.710938 207.222656 288.402344 207.40625 289.4375 C 207.589844 290.476562 206.898438 291.464844 205.859375 291.648438 C 204.824219 291.828125 203.835938 291.136719 203.652344 290.101562 " fill-opacity="1" fill-rule="nonzero"/><path fill="#ffffff" d="M 194.648438 291.117188 C 194.558594 290.070312 195.332031 289.144531 196.382812 289.054688 C 197.429688 288.960938 198.355469 289.738281 198.445312 290.785156 C 198.539062 291.835938 197.761719 292.757812 196.714844 292.851562 C 195.664062 292.941406 194.742188 292.167969 194.648438 291.117188 " fill-opacity="1" fill-rule="nonzero"/><path fill="#ffffff" d="M 185.589844 291.347656 C 185.589844 290.296875 186.445312 289.441406 187.496094 289.441406 C 188.550781 289.441406 189.402344 290.296875 189.402344 291.347656 C 189.402344 292.398438 188.550781 293.253906 187.496094 293.253906 C 186.445312 293.253906 185.589844 292.398438 185.589844 291.347656 " fill-opacity="1" fill-rule="nonzero"/><path fill="#ffffff" d="M 176.546875 290.785156 C 176.636719 289.738281 177.5625 288.960938 178.613281 289.054688 C 179.660156 289.144531 180.4375 290.070312 180.34375 291.117188 C 180.253906 292.167969 179.328125 292.941406 178.28125 292.851562 C 177.230469 292.757812 176.453125 291.835938 176.546875 290.785156 " fill-opacity="1" fill-rule="nonzero"/><path fill="#ffffff" d="M 167.585938 289.4375 C 167.769531 288.402344 168.757812 287.710938 169.792969 287.894531 C 170.832031 288.074219 171.523438 289.0625 171.339844 290.101562 C 171.15625 291.136719 170.167969 291.828125 169.132812 291.648438 C 168.09375 291.464844 167.402344 290.476562 167.585938 289.4375 " fill-opacity="1" fill-rule="nonzero"/><path fill="#ffffff" d="M 158.777344 287.316406 C 159.050781 286.300781 160.09375 285.695312 161.109375 285.96875 C 162.128906 286.238281 162.730469 287.285156 162.457031 288.300781 C 162.1875 289.320312 161.140625 289.921875 160.125 289.648438 C 159.105469 289.378906 158.503906 288.332031 158.777344 287.316406 " fill-opacity="1" fill-rule="nonzero"/><path fill="#ffffff" d="M 150.1875 284.433594 C 150.546875 283.445312 151.640625 282.933594 152.628906 283.292969 C 153.617188 283.652344 154.128906 284.746094 153.769531 285.738281 C 153.40625 286.726562 152.3125 287.234375 151.324219 286.875 C 150.335938 286.515625 149.824219 285.421875 150.1875 284.433594 " fill-opacity="1" fill-rule="nonzero"/><path fill="#ffffff" d="M 141.878906 280.8125 C 142.324219 279.859375 143.457031 279.445312 144.414062 279.890625 C 145.367188 280.335938 145.777344 281.46875 145.335938 282.421875 C 144.890625 283.378906 143.753906 283.789062 142.800781 283.34375 C 141.847656 282.902344 141.433594 281.765625 141.878906 280.8125 " fill-opacity="1" fill-rule="nonzero"/><path fill="#ffffff" d="M 133.921875 276.480469 C 134.445312 275.570312 135.613281 275.257812 136.523438 275.785156 C 137.433594 276.308594 137.746094 277.476562 137.222656 278.386719 C 136.695312 279.300781 135.527344 279.609375 134.617188 279.085938 C 133.707031 278.558594 133.394531 277.394531 133.921875 276.480469 " fill-opacity="1" fill-rule="nonzero"/><path fill="#ffffff" d="M 126.367188 271.472656 C 126.972656 270.609375 128.160156 270.402344 129.023438 271.003906 C 129.886719 271.609375 130.09375 272.796875 129.492188 273.660156 C 128.886719 274.523438 127.699219 274.730469 126.835938 274.128906 C 125.972656 273.523438 125.765625 272.335938 126.367188 271.472656 " fill-opacity="1" fill-rule="nonzero"/><path fill="#ffffff" d="M 119.28125 265.824219 C 119.957031 265.019531 121.160156 264.914062 121.96875 265.589844 C 122.773438 266.265625 122.878906 267.46875 122.203125 268.277344 C 121.523438 269.082031 120.324219 269.1875 119.515625 268.511719 C 118.710938 267.835938 118.605469 266.632812 119.28125 265.824219 " fill-opacity="1" fill-rule="nonzero"/><path fill="#ffffff" d="M 112.714844 259.582031 C 113.457031 258.839844 114.664062 258.839844 115.410156 259.582031 C 116.152344 260.328125 116.152344 261.535156 115.410156 262.277344 C 114.664062 263.023438 113.457031 263.023438 112.714844 262.277344 C 111.96875 261.535156 111.96875 260.328125 112.714844 259.582031 " fill-opacity="1" fill-rule="nonzero"/><path fill="#ffffff" d="M 106.714844 252.789062 C 107.523438 252.113281 108.726562 252.21875 109.402344 253.027344 C 110.078125 253.832031 109.972656 255.035156 109.167969 255.710938 C 108.359375 256.386719 107.15625 256.28125 106.480469 255.476562 C 105.804688 254.667969 105.910156 253.46875 106.714844 252.789062 " fill-opacity="1" fill-rule="nonzero"/><path fill="#ffffff" d="M 101.332031 245.5 C 102.195312 244.898438 103.382812 245.105469 103.988281 245.96875 C 104.589844 246.832031 104.382812 248.019531 103.519531 248.625 C 102.65625 249.226562 101.46875 249.019531 100.863281 248.15625 C 100.261719 247.292969 100.46875 246.105469 101.332031 245.5 " fill-opacity="1" fill-rule="nonzero"/><path fill="#ffffff" d="M 96.605469 237.769531 C 97.515625 237.246094 98.683594 237.558594 99.207031 238.46875 C 99.734375 239.378906 99.421875 240.546875 98.511719 241.074219 C 97.597656 241.597656 96.433594 241.285156 95.90625 240.375 C 95.382812 239.464844 95.695312 238.296875 96.605469 237.769531 " fill-opacity="1" fill-rule="nonzero"/><path fill="#ffffff" d="M 92.570312 229.660156 C 93.523438 229.214844 94.65625 229.625 95.101562 230.578125 C 95.546875 231.535156 95.132812 232.667969 94.179688 233.113281 C 93.226562 233.558594 92.09375 233.144531 91.648438 232.191406 C 91.203125 231.238281 91.613281 230.101562 92.570312 229.660156 " fill-opacity="1" fill-rule="nonzero"/><path fill="#ffffff" d="M 89.253906 221.222656 C 90.246094 220.863281 91.339844 221.375 91.699219 222.363281 C 92.058594 223.351562 91.546875 224.445312 90.558594 224.804688 C 89.570312 225.167969 88.476562 224.65625 88.117188 223.667969 C 87.757812 222.679688 88.265625 221.585938 89.253906 221.222656 " fill-opacity="1" fill-rule="nonzero"/><path fill="#ffffff" d="M 86.691406 212.535156 C 87.707031 212.261719 88.75 212.863281 89.023438 213.882812 C 89.296875 214.898438 88.691406 215.941406 87.675781 216.214844 C 86.660156 216.488281 85.613281 215.882812 85.34375 214.867188 C 85.070312 213.851562 85.671875 212.804688 86.691406 212.535156 " fill-opacity="1" fill-rule="nonzero"/><path fill="#ffffff" d="M 84.890625 203.652344 C 85.929688 203.46875 86.917969 204.164062 87.097656 205.199219 C 87.28125 206.234375 86.589844 207.222656 85.554688 207.40625 C 84.515625 207.589844 83.527344 206.898438 83.34375 205.859375 C 83.164062 204.824219 83.855469 203.835938 84.890625 203.652344 " fill-opacity="1" fill-rule="nonzero"/><path fill="#ffffff" d="M 83.875 194.648438 C 84.921875 194.554688 85.847656 195.332031 85.9375 196.378906 C 86.03125 197.429688 85.253906 198.355469 84.207031 198.445312 C 83.15625 198.539062 82.234375 197.761719 82.140625 196.714844 C 82.050781 195.664062 82.824219 194.738281 83.875 194.648438 " fill-opacity="1" fill-rule="nonzero"/><path fill="#ffffff" d="M 83.644531 185.589844 C 84.695312 185.589844 85.550781 186.441406 85.550781 187.496094 C 85.550781 188.550781 84.695312 189.402344 83.644531 189.402344 C 82.59375 189.402344 81.738281 188.550781 81.738281 187.496094 C 81.738281 186.441406 82.59375 185.589844 83.644531 185.589844 " fill-opacity="1" fill-rule="nonzero"/><path fill="#ffffff" d="M 84.207031 176.546875 C 85.253906 176.636719 86.03125 177.5625 85.9375 178.609375 C 85.847656 179.660156 84.921875 180.433594 83.875 180.34375 C 82.824219 180.253906 82.050781 179.328125 82.140625 178.277344 C 82.234375 177.230469 83.15625 176.453125 84.207031 176.546875 " fill-opacity="1" fill-rule="nonzero"/><path fill="#ffffff" d="M 85.554688 167.585938 C 86.589844 167.769531 87.28125 168.757812 87.097656 169.792969 C 86.917969 170.828125 85.925781 171.523438 84.890625 171.339844 C 83.855469 171.15625 83.164062 170.167969 83.34375 169.132812 C 83.527344 168.09375 84.515625 167.402344 85.554688 167.585938 " fill-opacity="1" fill-rule="nonzero"/><path fill="#ffffff" d="M 87.675781 158.777344 C 88.691406 159.046875 89.296875 160.09375 89.023438 161.109375 C 88.75 162.125 87.707031 162.730469 86.691406 162.457031 C 85.671875 162.183594 85.070312 161.140625 85.34375 160.125 C 85.613281 159.105469 86.660156 158.503906 87.675781 158.777344 " fill-opacity="1" fill-rule="nonzero"/><path fill="#ffffff" d="M 90.558594 150.183594 C 91.546875 150.546875 92.058594 151.640625 91.699219 152.628906 C 91.339844 153.617188 90.246094 154.125 89.253906 153.765625 C 88.265625 153.40625 87.757812 152.3125 88.117188 151.324219 C 88.476562 150.335938 89.570312 149.824219 90.558594 150.183594 " fill-opacity="1" fill-rule="nonzero"/><path fill="#ffffff" d="M 94.179688 141.878906 C 95.132812 142.324219 95.546875 143.457031 95.101562 144.410156 C 94.65625 145.367188 93.523438 145.777344 92.570312 145.332031 C 91.613281 144.886719 91.203125 143.753906 91.648438 142.800781 C 92.09375 141.847656 93.226562 141.433594 94.179688 141.878906 " fill-opacity="1" fill-rule="nonzero"/><path fill="#ffffff" d="M 98.511719 133.917969 C 99.421875 134.445312 99.734375 135.609375 99.207031 136.523438 C 98.683594 137.433594 97.515625 137.746094 96.605469 137.21875 C 95.695312 136.691406 95.382812 135.527344 95.90625 134.617188 C 96.433594 133.703125 97.597656 133.390625 98.511719 133.917969 " fill-opacity="1" fill-rule="nonzero"/><path fill="#ffffff" d="M 103.519531 126.367188 C 104.382812 126.972656 104.589844 128.160156 103.988281 129.023438 C 103.382812 129.882812 102.195312 130.09375 101.332031 129.488281 C 100.46875 128.886719 100.261719 127.695312 100.863281 126.835938 C 101.46875 125.972656 102.65625 125.761719 103.519531 126.367188 " fill-opacity="1" fill-rule="nonzero"/><path fill="#ffffff" d="M 109.167969 119.28125 C 109.972656 119.957031 110.078125 121.160156 109.402344 121.964844 C 108.726562 122.773438 107.523438 122.878906 106.714844 122.203125 C 105.910156 121.523438 105.804688 120.324219 106.480469 119.515625 C 107.15625 118.710938 108.359375 118.605469 109.167969 119.28125 " fill-opacity="1" fill-rule="nonzero"/><path fill="#ffffff" d="M 115.410156 112.714844 C 116.152344 113.457031 116.152344 114.664062 115.410156 115.410156 C 114.664062 116.152344 113.457031 116.152344 112.714844 115.410156 C 111.96875 114.664062 111.96875 113.457031 112.714844 112.714844 C 113.457031 111.96875 114.664062 111.96875 115.410156 112.714844 " fill-opacity="1" fill-rule="nonzero"/><path fill="#ffffff" d="M 122.203125 106.714844 C 122.878906 107.519531 122.773438 108.722656 121.96875 109.402344 C 121.160156 110.078125 119.957031 109.972656 119.28125 109.164062 C 118.605469 108.359375 118.710938 107.15625 119.515625 106.480469 C 120.324219 105.804688 121.523438 105.910156 122.203125 106.714844 " fill-opacity="1" fill-rule="nonzero"/><path fill="#ffffff" d="M 129.492188 101.332031 C 130.09375 102.191406 129.886719 103.382812 129.023438 103.984375 C 128.160156 104.589844 126.972656 104.378906 126.367188 103.519531 C 125.765625 102.65625 125.972656 101.464844 126.835938 100.863281 C 127.699219 100.257812 128.886719 100.46875 129.492188 101.332031 " fill-opacity="1" fill-rule="nonzero"/><path fill="#ffffff" d="M 137.222656 96.605469 C 137.746094 97.515625 137.433594 98.679688 136.523438 99.207031 C 135.613281 99.734375 134.445312 99.421875 133.921875 98.507812 C 133.394531 97.597656 133.707031 96.433594 134.617188 95.90625 C 135.527344 95.378906 136.695312 95.691406 137.222656 96.605469 " fill-opacity="1" fill-rule="nonzero"/><path fill="#ffffff" d="M 145.335938 92.566406 C 145.777344 93.523438 145.367188 94.65625 144.414062 95.101562 C 143.457031 95.546875 142.324219 95.132812 141.878906 94.179688 C 141.433594 93.226562 141.847656 92.089844 142.800781 91.644531 C 143.753906 91.203125 144.890625 91.613281 145.335938 92.566406 " fill-opacity="1" fill-rule="nonzero"/><path fill="#ffffff" d="M 153.765625 89.253906 C 154.128906 90.246094 153.617188 91.339844 152.628906 91.699219 C 151.640625 92.058594 150.546875 91.546875 150.1875 90.558594 C 149.824219 89.570312 150.335938 88.476562 151.324219 88.117188 C 152.3125 87.757812 153.40625 88.265625 153.765625 89.253906 " fill-opacity="1" fill-rule="nonzero"/><path fill="#ffffff" d="M 162.457031 86.6875 C 162.730469 87.707031 162.128906 88.75 161.109375 89.023438 C 160.09375 89.296875 159.046875 88.691406 158.777344 87.675781 C 158.503906 86.660156 159.105469 85.613281 160.125 85.339844 C 161.140625 85.070312 162.1875 85.671875 162.457031 86.6875 " fill-opacity="1" fill-rule="nonzero"/><path fill="#ffffff" d="M 171.339844 84.890625 C 171.523438 85.925781 170.832031 86.914062 169.792969 87.097656 C 168.757812 87.28125 167.769531 86.589844 167.585938 85.550781 C 167.402344 84.515625 168.09375 83.527344 169.132812 83.34375 C 170.167969 83.160156 171.15625 83.851562 171.339844 84.890625 " fill-opacity="1" fill-rule="nonzero"/><path fill="#ffffff" d="M 180.34375 83.871094 C 180.4375 84.921875 179.660156 85.847656 178.613281 85.9375 C 177.5625 86.03125 176.636719 85.253906 176.546875 84.203125 C 176.457031 83.15625 177.230469 82.230469 178.28125 82.140625 C 179.328125 82.046875 180.253906 82.824219 180.34375 83.871094 " fill-opacity="1" fill-rule="nonzero"/><g clip-path="url(#37f58900ef)"><path fill="#100f0d" d="M 98.382812 181.367188 C 98.496094 181.363281 98.597656 181.4375 98.632812 181.542969 L 99.820312 185.316406 C 99.851562 185.421875 99.953125 185.492188 100.0625 185.492188 L 104.015625 185.492188 C 104.15625 185.492188 104.269531 185.601562 104.269531 185.742188 C 104.273438 185.824219 104.234375 185.902344 104.164062 185.949219 L 100.929688 188.214844 C 100.835938 188.277344 100.792969 188.398438 100.832031 188.507812 L 102.179688 192.214844 C 102.226562 192.347656 102.15625 192.488281 102.027344 192.535156 C 101.953125 192.566406 101.867188 192.554688 101.796875 192.507812 L 98.53125 190.21875 C 98.445312 190.15625 98.328125 190.15625 98.242188 190.21875 L 94.972656 192.507812 L 94.984375 192.507812 C 94.867188 192.585938 94.710938 192.558594 94.632812 192.445312 C 94.585938 192.375 94.574219 192.292969 94.605469 192.214844 L 95.953125 188.507812 C 95.992188 188.398438 95.949219 188.277344 95.855469 188.214844 L 92.621094 185.949219 C 92.507812 185.871094 92.480469 185.714844 92.558594 185.601562 C 92.605469 185.53125 92.683594 185.492188 92.769531 185.492188 L 96.722656 185.492188 C 96.832031 185.492188 96.929688 185.421875 96.964844 185.316406 L 98.15625 181.542969 C 98.1875 181.445312 98.28125 181.375 98.386719 181.367188 Z M 98.160156 179.65625 C 93.914062 179.777344 90.542969 183.253906 90.542969 187.496094 C 90.542969 191.828125 94.054688 195.34375 98.386719 195.34375 C 102.722656 195.34375 106.234375 191.828125 106.234375 187.496094 C 106.234375 183.164062 102.722656 179.652344 98.386719 179.652344 C 98.308594 179.652344 98.234375 179.652344 98.160156 179.65625 " fill-opacity="1" fill-rule="nonzero"/></g><g fill="#000000" fill-opacity="1"><g transform="translate(105.251435, 172.619071)"><g><path d="M -8.703125 -6.40625 L -5.578125 -5.6875 L -4.296875 -11.1875 L -2.09375 -10.671875 L -3.375 -5.171875 L 0.96875 -4.15625 L 0.328125 -1.421875 L -11.5625 -4.1875 L -9.46875 -13.15625 L -7.25 -12.640625 Z M -8.703125 -6.40625 "/></g></g></g><g fill="#000000" fill-opacity="1"><g transform="translate(108.88448, 158.221733)"><g><path d="M 3.734375 -8.421875 L -0.328125 -7.65625 L -0.375 -7.53125 L -1.375 -5.28125 L 1.734375 -3.90625 L 0.59375 -1.328125 L -10.5625 -6.28125 L -8.421875 -11.109375 C -7.984375 -12.097656 -7.4375 -12.878906 -6.78125 -13.453125 C -6.132812 -14.035156 -5.421875 -14.390625 -4.640625 -14.515625 C -3.867188 -14.640625 -3.066406 -14.519531 -2.234375 -14.15625 C -1.410156 -13.789062 -0.785156 -13.273438 -0.359375 -12.609375 C 0.0546875 -11.941406 0.269531 -11.171875 0.28125 -10.296875 L 4.96875 -11.21875 Z M -3.390625 -11.546875 C -4.023438 -11.828125 -4.597656 -11.835938 -5.109375 -11.578125 C -5.617188 -11.316406 -6.046875 -10.800781 -6.390625 -10.03125 L -7.328125 -7.921875 L -3.4375 -6.203125 L -2.5 -8.3125 C -2.15625 -9.082031 -2.0625 -9.742188 -2.21875 -10.296875 C -2.382812 -10.859375 -2.773438 -11.273438 -3.390625 -11.546875 Z M -3.390625 -11.546875 "/></g></g></g><g fill="#000000" fill-opacity="1"><g transform="translate(115.863761, 143.328489)"><g><path d="M 3.375 -9.25 L 0.078125 -4.625 L 1.578125 -2.234375 L -0.09375 0.125 L -6.875 -11.375 L -5.25 -13.65625 L 7.84375 -11.03125 L 6.125 -8.609375 Z M 1.09375 -9.765625 L -3.828125 -10.890625 L -1.15625 -6.609375 Z M 1.09375 -9.765625 "/></g></g></g><g fill="#000000" fill-opacity="1"><g transform="translate(125.94893, 129.715149)"><g><path d="M -7.171875 -9.96875 L -3.09375 -13.71875 C -2.113281 -14.613281 -1.082031 -15.21875 0 -15.53125 C 1.082031 -15.851562 2.140625 -15.863281 3.171875 -15.5625 C 4.210938 -15.269531 5.148438 -14.675781 5.984375 -13.78125 C 6.804688 -12.875 7.316406 -11.890625 7.515625 -10.828125 C 7.722656 -9.773438 7.625 -8.71875 7.21875 -7.65625 C 6.820312 -6.601562 6.132812 -5.628906 5.15625 -4.734375 L 1.078125 -0.984375 Z M 3.484375 -6.34375 C 4.390625 -7.164062 4.875 -8.070312 4.9375 -9.0625 C 5.007812 -10.0625 4.65625 -10.988281 3.875 -11.84375 C 3.09375 -12.695312 2.203125 -13.128906 1.203125 -13.140625 C 0.210938 -13.148438 -0.734375 -12.742188 -1.640625 -11.921875 L -3.546875 -10.171875 L 1.578125 -4.59375 Z M 3.484375 -6.34375 "/></g></g></g><g fill="#000000" fill-opacity="1"><g transform="translate(139.558824, 117.898729)"><g><path d="M 8.15625 -7.5625 L 9.328125 -5.625 L 1.25 -0.75 L -5.046875 -11.203125 L 2.84375 -15.953125 L 4.015625 -14.015625 L -1.484375 -10.703125 L -0.109375 -8.421875 L 4.75 -11.359375 L 5.875 -9.484375 L 1.015625 -6.546875 L 2.46875 -4.125 Z M 8.15625 -7.5625 "/></g></g></g><g fill="#000000" fill-opacity="1"><g transform="translate(152.986684, 110.263945)"><g><path d="M -2.984375 -11.921875 L -0.359375 -12.921875 L 3.171875 -3.65625 L 8.90625 -5.828125 L 9.71875 -3.6875 L 1.359375 -0.515625 Z M -2.984375 -11.921875 "/></g></g></g><g fill="#000000" fill-opacity="1"><g transform="translate(166.688639, 105.560981)"><g/></g></g><g fill="#000000" fill-opacity="1"><g transform="translate(175.298909, 103.586328)"><g><path d="M 9.296875 -3.234375 L 3.625 -2.859375 L 2.734375 -0.1875 L -0.15625 0.015625 L 4.453125 -12.515625 L 7.25 -12.703125 L 13.5 -0.890625 L 10.546875 -0.703125 Z M 8.265625 -5.3125 L 6.015625 -9.859375 L 4.390625 -5.0625 Z M 8.265625 -5.3125 "/></g></g></g><g fill="#000000" fill-opacity="1"><g transform="translate(192.231959, 102.80298)"><g><path d="M 14.234375 -10.296875 L 12.515625 1.78125 L 10.21875 1.453125 L 5.234375 -6.734375 L 4.1875 0.59375 L 1.4375 0.203125 L 3.15625 -11.875 L 5.46875 -11.546875 L 10.4375 -3.359375 L 11.484375 -10.6875 Z M 14.234375 -10.296875 "/></g></g></g><g fill="#000000" fill-opacity="1"><g transform="translate(209.649674, 105.659521)"><g><path d="M 5.609375 -10.9375 L 10.8125 -9 C 12.050781 -8.539062 13.054688 -7.894531 13.828125 -7.0625 C 14.609375 -6.238281 15.101562 -5.296875 15.3125 -4.234375 C 15.519531 -3.179688 15.410156 -2.085938 14.984375 -0.953125 C 14.554688 0.203125 13.921875 1.109375 13.078125 1.765625 C 12.234375 2.429688 11.242188 2.820312 10.109375 2.9375 C 8.984375 3.0625 7.800781 2.894531 6.5625 2.4375 L 1.359375 0.5 Z M 7.25 0.21875 C 8.382812 0.644531 9.40625 0.660156 10.3125 0.265625 C 11.226562 -0.117188 11.890625 -0.859375 12.296875 -1.953125 C 12.703125 -3.035156 12.679688 -4.019531 12.234375 -4.90625 C 11.796875 -5.789062 11.007812 -6.445312 9.875 -6.875 L 7.4375 -7.78125 L 4.8125 -0.6875 Z M 7.25 0.21875 "/></g></g></g><g fill="#000000" fill-opacity="1"><g transform="translate(226.474281, 112.654132)"><g/></g></g><g fill="#000000" fill-opacity="1"><g transform="translate(234.170911, 117.11349)"><g><path d="M 4.171875 3.515625 C 3.421875 2.921875 2.769531 2.242188 2.21875 1.484375 C 1.664062 0.734375 1.296875 0.0195312 1.109375 -0.65625 L 3.1875 -1.734375 C 3.363281 -1.109375 3.664062 -0.484375 4.09375 0.140625 C 4.519531 0.765625 5.015625 1.296875 5.578125 1.734375 C 6.210938 2.234375 6.753906 2.503906 7.203125 2.546875 C 7.648438 2.597656 7.992188 2.46875 8.234375 2.15625 C 8.410156 1.925781 8.46875 1.664062 8.40625 1.375 C 8.351562 1.09375 8.222656 0.796875 8.015625 0.484375 C 7.804688 0.171875 7.503906 -0.222656 7.109375 -0.703125 C 6.515625 -1.453125 6.050781 -2.09375 5.71875 -2.625 C 5.382812 -3.164062 5.203125 -3.757812 5.171875 -4.40625 C 5.140625 -5.050781 5.375 -5.695312 5.875 -6.34375 C 6.3125 -6.894531 6.859375 -7.28125 7.515625 -7.5 C 8.171875 -7.726562 8.90625 -7.738281 9.71875 -7.53125 C 10.539062 -7.320312 11.394531 -6.875 12.28125 -6.1875 C 12.894531 -5.707031 13.4375 -5.164062 13.90625 -4.5625 C 14.375 -3.957031 14.71875 -3.34375 14.9375 -2.71875 L 12.9375 -1.578125 C 12.445312 -2.773438 11.757812 -3.71875 10.875 -4.40625 C 10.25 -4.894531 9.707031 -5.148438 9.25 -5.171875 C 8.789062 -5.191406 8.429688 -5.039062 8.171875 -4.71875 C 7.921875 -4.382812 7.898438 -4.003906 8.109375 -3.578125 C 8.328125 -3.148438 8.726562 -2.582031 9.3125 -1.875 C 9.90625 -1.144531 10.367188 -0.507812 10.703125 0.03125 C 11.035156 0.570312 11.222656 1.160156 11.265625 1.796875 C 11.316406 2.441406 11.09375 3.082031 10.59375 3.71875 C 10.164062 4.269531 9.617188 4.65625 8.953125 4.875 C 8.285156 5.09375 7.539062 5.085938 6.71875 4.859375 C 5.90625 4.640625 5.054688 4.191406 4.171875 3.515625 Z M 4.171875 3.515625 "/></g></g></g><g fill="#000000" fill-opacity="1"><g transform="translate(245.69606, 126.44711)"><g><path d="M 13.609375 -2.984375 C 14.328125 -2.171875 14.8125 -1.347656 15.0625 -0.515625 C 15.3125 0.304688 15.332031 1.097656 15.125 1.859375 C 14.914062 2.628906 14.46875 3.3125 13.78125 3.90625 C 13.113281 4.5 12.382812 4.851562 11.59375 4.96875 C 10.800781 5.082031 10.007812 4.957031 9.21875 4.59375 C 8.4375 4.238281 7.6875 3.65625 6.96875 2.84375 L 5.34375 0.984375 L 2.8125 3.203125 L 0.953125 1.09375 L 10.125 -6.953125 Z M 8.609375 1.203125 C 9.160156 1.835938 9.71875 2.195312 10.28125 2.28125 C 10.84375 2.375 11.378906 2.195312 11.890625 1.75 C 12.410156 1.300781 12.660156 0.789062 12.640625 0.21875 C 12.617188 -0.351562 12.332031 -0.957031 11.78125 -1.59375 L 10.25 -3.328125 L 7.078125 -0.53125 Z M 8.609375 1.203125 "/></g></g></g><g fill="#000000" fill-opacity="1"><g transform="translate(256.214632, 139.308581)"><g><path d="M 11.109375 -5.28125 L 12.609375 -2.90625 L 2.28125 3.609375 L 0.78125 1.234375 Z M 11.109375 -5.28125 "/></g></g></g><g fill="#000000" fill-opacity="1"><g transform="translate(261.296761, 147.497544)"><g><path d="M 6.4375 9.078125 L 4.359375 9.984375 L 0.578125 1.328125 L 11.765625 -3.546875 L 15.453125 4.90625 L 13.375 5.8125 L 10.8125 -0.078125 L 8.375 0.984375 L 10.640625 6.1875 L 8.640625 7.0625 L 6.375 1.859375 L 3.78125 2.984375 Z M 6.4375 9.078125 "/></g></g></g><g fill="#000000" fill-opacity="1"><g transform="translate(267.126759, 161.783002)"><g><path d="M 1.03125 5.359375 C 0.8125 4.421875 0.726562 3.484375 0.78125 2.546875 C 0.832031 1.617188 1 0.835938 1.28125 0.203125 L 3.5625 0.671875 C 3.300781 1.253906 3.144531 1.921875 3.09375 2.671875 C 3.039062 3.429688 3.09375 4.160156 3.25 4.859375 C 3.4375 5.640625 3.6875 6.191406 4 6.515625 C 4.3125 6.835938 4.660156 6.953125 5.046875 6.859375 C 5.335938 6.796875 5.550781 6.628906 5.6875 6.359375 C 5.820312 6.097656 5.898438 5.78125 5.921875 5.40625 C 5.953125 5.03125 5.972656 4.53125 5.984375 3.90625 C 5.984375 2.957031 6.019531 2.171875 6.09375 1.546875 C 6.175781 0.921875 6.410156 0.347656 6.796875 -0.171875 C 7.179688 -0.691406 7.769531 -1.046875 8.5625 -1.234375 C 9.25 -1.398438 9.914062 -1.359375 10.5625 -1.109375 C 11.207031 -0.867188 11.78125 -0.414062 12.28125 0.25 C 12.789062 0.925781 13.171875 1.804688 13.421875 2.890625 C 13.597656 3.648438 13.679688 4.414062 13.671875 5.1875 C 13.660156 5.957031 13.546875 6.648438 13.328125 7.265625 L 11.046875 6.90625 C 11.421875 5.65625 11.476562 4.484375 11.21875 3.390625 C 11.039062 2.617188 10.78125 2.082031 10.4375 1.78125 C 10.101562 1.476562 9.734375 1.375 9.328125 1.46875 C 8.921875 1.5625 8.664062 1.84375 8.5625 2.3125 C 8.457031 2.78125 8.414062 3.472656 8.4375 4.390625 C 8.425781 5.335938 8.378906 6.125 8.296875 6.75 C 8.222656 7.382812 8.003906 7.960938 7.640625 8.484375 C 7.273438 9.003906 6.695312 9.359375 5.90625 9.546875 C 5.226562 9.703125 4.5625 9.65625 3.90625 9.40625 C 3.257812 9.15625 2.679688 8.6875 2.171875 8 C 1.671875 7.320312 1.289062 6.441406 1.03125 5.359375 Z M 1.03125 5.359375 "/></g></g></g><g fill="#000000" fill-opacity="1"><g transform="translate(93.829272, 204.078968)"><g><path d="M 12.171875 -1.65625 L 13.5625 3.71875 C 13.894531 5 13.941406 6.191406 13.703125 7.296875 C 13.472656 8.410156 12.984375 9.351562 12.234375 10.125 C 11.492188 10.90625 10.535156 11.445312 9.359375 11.75 C 8.160156 12.0625 7.046875 12.054688 6.015625 11.734375 C 4.992188 11.421875 4.109375 10.835938 3.359375 9.984375 C 2.617188 9.128906 2.082031 8.0625 1.75 6.78125 L 0.359375 1.40625 Z M 3.953125 6.0625 C 4.253906 7.238281 4.828125 8.09375 5.671875 8.625 C 6.515625 9.15625 7.503906 9.273438 8.640625 8.984375 C 9.753906 8.691406 10.550781 8.109375 11.03125 7.234375 C 11.507812 6.359375 11.597656 5.332031 11.296875 4.15625 L 10.640625 1.640625 L 3.296875 3.546875 Z M 3.953125 6.0625 "/></g></g></g><g fill="#000000" fill-opacity="1"><g transform="translate(99.241043, 222.26293)"><g><path d="M 11.78125 -3.5 L 12.890625 -0.90625 L 1.6875 3.921875 L 0.578125 1.328125 Z M 11.78125 -3.5 "/></g></g></g><g fill="#000000" fill-opacity="1"><g transform="translate(103.369387, 231.691804)"><g><path d="M 10.453125 4.890625 L 11.828125 7.09375 L 7.625 9.71875 C 6.84375 9.414062 6.109375 8.960938 5.421875 8.359375 C 4.742188 7.765625 4.171875 7.09375 3.703125 6.34375 C 3.035156 5.269531 2.660156 4.160156 2.578125 3.015625 C 2.492188 1.867188 2.710938 0.800781 3.234375 -0.1875 C 3.753906 -1.1875 4.523438 -2.003906 5.546875 -2.640625 C 6.578125 -3.285156 7.648438 -3.613281 8.765625 -3.625 C 9.878906 -3.644531 10.9375 -3.363281 11.9375 -2.78125 C 12.9375 -2.207031 13.773438 -1.375 14.453125 -0.28125 C 15.015625 0.625 15.367188 1.539062 15.515625 2.46875 C 15.671875 3.40625 15.613281 4.300781 15.34375 5.15625 L 12.96875 4.515625 C 13.289062 3.285156 13.128906 2.144531 12.484375 1.09375 C 12.066406 0.4375 11.5625 -0.0546875 10.96875 -0.390625 C 10.375 -0.734375 9.734375 -0.890625 9.046875 -0.859375 C 8.367188 -0.828125 7.707031 -0.609375 7.0625 -0.203125 C 6.414062 0.191406 5.925781 0.6875 5.59375 1.28125 C 5.269531 1.875 5.125 2.515625 5.15625 3.203125 C 5.195312 3.890625 5.421875 4.5625 5.828125 5.21875 C 6.265625 5.90625 6.796875 6.425781 7.421875 6.78125 Z M 10.453125 4.890625 "/></g></g></g><g fill="#000000" fill-opacity="1"><g transform="translate(113.391476, 246.623081)"><g><path d="M 10.234375 -6.796875 L 12.0625 -4.65625 L 2.765625 3.25 L 0.9375 1.109375 Z M 10.234375 -6.796875 "/></g></g></g><g fill="#000000" fill-opacity="1"><g transform="translate(120.099573, 254.299002)"><g><path d="M 9.578125 -4.71875 L 6.671875 -7.328125 L 8.203125 -9.03125 L 16.125 -1.921875 L 14.59375 -0.21875 L 11.6875 -2.828125 L 5.0625 4.546875 L 2.953125 2.65625 Z M 9.578125 -4.71875 "/></g></g></g><g fill="#000000" fill-opacity="1"><g transform="translate(131.842475, 264.43156)"><g><path d="M 9.4375 2.78125 L 4.609375 -0.203125 L 2.328125 1.4375 L -0.140625 -0.078125 L 10.90625 -7.59375 L 13.28125 -6.125 L 11.5 7.125 L 8.984375 5.5625 Z M 9.828125 0.484375 L 10.625 -4.515625 L 6.53125 -1.5625 Z M 9.828125 0.484375 "/></g></g></g><g fill="#000000" fill-opacity="1"><g transform="translate(147.475566, 273.482779)"><g><path d="M 5.859375 -10.8125 L 8.484375 -9.765625 L 4.8125 -0.5625 L 10.5 1.703125 L 9.65625 3.84375 L 1.34375 0.53125 Z M 5.859375 -10.8125 "/></g></g></g><g fill="#000000" fill-opacity="1"><g transform="translate(161.531628, 278.585676)"><g/></g></g><g fill="#000000" fill-opacity="1"><g transform="translate(170.673097, 280.852522)"><g><path d="M 11.078125 -0.984375 L 10.8125 1.265625 L 1.4375 0.171875 L 2.859375 -11.953125 L 12.015625 -10.890625 L 11.75 -8.640625 L 5.375 -9.375 L 5.0625 -6.734375 L 10.703125 -6.078125 L 10.453125 -3.90625 L 4.8125 -4.5625 L 4.484375 -1.75 Z M 11.078125 -0.984375 "/></g></g></g><g fill="#000000" fill-opacity="1"><g transform="translate(187.100029, 282.443075)"><g><path d="M 0.578125 -12.28125 L 6.109375 -12.671875 C 7.429688 -12.765625 8.613281 -12.59375 9.65625 -12.15625 C 10.707031 -11.726562 11.546875 -11.078125 12.171875 -10.203125 C 12.804688 -9.335938 13.164062 -8.296875 13.25 -7.078125 C 13.332031 -5.847656 13.125 -4.753906 12.625 -3.796875 C 12.132812 -2.847656 11.398438 -2.082031 10.421875 -1.5 C 9.453125 -0.925781 8.304688 -0.59375 6.984375 -0.5 L 1.453125 -0.109375 Z M 6.671875 -2.796875 C 7.890625 -2.890625 8.832031 -3.300781 9.5 -4.03125 C 10.175781 -4.757812 10.472656 -5.707031 10.390625 -6.875 C 10.304688 -8.03125 9.878906 -8.921875 9.109375 -9.546875 C 8.347656 -10.171875 7.359375 -10.4375 6.140625 -10.34375 L 3.546875 -10.171875 L 4.078125 -2.625 Z M 6.671875 -2.796875 "/></g></g></g><g fill="#000000" fill-opacity="1"><g transform="translate(206.271645, 280.546096)"><g><path d="M 6.671875 -1.640625 C 4.984375 -1.171875 3.546875 -1.269531 2.359375 -1.9375 C 1.171875 -2.613281 0.335938 -3.8125 -0.140625 -5.53125 L -1.96875 -12.109375 L 0.75 -12.859375 L 2.546875 -6.375 C 3.128906 -4.28125 4.296875 -3.476562 6.046875 -3.96875 C 6.898438 -4.207031 7.476562 -4.640625 7.78125 -5.265625 C 8.09375 -5.898438 8.097656 -6.757812 7.796875 -7.84375 L 6 -14.328125 L 8.671875 -15.0625 L 10.5 -8.484375 C 10.976562 -6.765625 10.878906 -5.3125 10.203125 -4.125 C 9.523438 -2.9375 8.347656 -2.109375 6.671875 -1.640625 Z M 6.671875 -1.640625 "/></g></g></g><g fill="#000000" fill-opacity="1"><g transform="translate(223.997844, 275.096746)"><g><path d="M 6.609375 -3.046875 C 5.503906 -2.492188 4.378906 -2.238281 3.234375 -2.28125 C 2.097656 -2.320312 1.054688 -2.644531 0.109375 -3.25 C -0.828125 -3.851562 -1.566406 -4.695312 -2.109375 -5.78125 C -2.648438 -6.863281 -2.875 -7.960938 -2.78125 -9.078125 C -2.695312 -10.191406 -2.320312 -11.210938 -1.65625 -12.140625 C -1 -13.066406 -0.109375 -13.8125 1.015625 -14.375 C 1.960938 -14.84375 2.898438 -15.097656 3.828125 -15.140625 C 4.753906 -15.179688 5.640625 -15.019531 6.484375 -14.65625 L 5.609375 -12.375 C 4.441406 -12.851562 3.3125 -12.820312 2.21875 -12.28125 C 1.539062 -11.945312 1.007812 -11.5 0.625 -10.9375 C 0.238281 -10.375 0.03125 -9.753906 0 -9.078125 C -0.03125 -8.398438 0.117188 -7.722656 0.453125 -7.046875 C 0.785156 -6.367188 1.234375 -5.835938 1.796875 -5.453125 C 2.359375 -5.066406 2.976562 -4.859375 3.65625 -4.828125 C 4.332031 -4.796875 5.007812 -4.945312 5.6875 -5.28125 C 6.78125 -5.820312 7.484375 -6.710938 7.796875 -7.953125 L 10.171875 -7.25 C 9.953125 -6.351562 9.539062 -5.546875 8.9375 -4.828125 C 8.34375 -4.117188 7.566406 -3.523438 6.609375 -3.046875 Z M 6.609375 -3.046875 "/></g></g></g><g fill="#000000" fill-opacity="1"><g transform="translate(239.544197, 266.892797)"><g><path d="M 5.96875 -7.8125 L 1.453125 -4.390625 L 2.171875 -1.65625 L -0.125 0.09375 L -3.171875 -12.90625 L -0.9375 -14.609375 L 10.78125 -8.1875 L 8.40625 -6.390625 Z M 3.96875 -9 L -0.40625 -11.546875 L 0.890625 -6.65625 Z M 3.96875 -9 "/></g></g></g><g fill="#000000" fill-opacity="1"><g transform="translate(253.611003, 255.545502)"><g><path d="M -4.59375 -9.640625 L -7.234375 -6.765625 L -8.921875 -8.3125 L -1.71875 -16.140625 L -0.03125 -14.59375 L -2.671875 -11.71875 L 4.609375 -5 L 2.6875 -2.921875 Z M -4.59375 -9.640625 "/></g></g></g><g fill="#000000" fill-opacity="1"><g transform="translate(263.582847, 244.030377)"><g><path d="M -9.171875 -8.1875 L -7.546875 -10.5 L 2.453125 -3.5 L 0.828125 -1.1875 Z M -9.171875 -8.1875 "/></g></g></g><g fill="#000000" fill-opacity="1"><g transform="translate(269.503595, 235.549125)"><g><path d="M 3.421875 -6.515625 C 2.859375 -5.378906 2.109375 -4.472656 1.171875 -3.796875 C 0.234375 -3.117188 -0.789062 -2.734375 -1.90625 -2.640625 C -3.019531 -2.554688 -4.113281 -2.78125 -5.1875 -3.3125 C -6.269531 -3.832031 -7.113281 -4.554688 -7.71875 -5.484375 C -8.320312 -6.421875 -8.644531 -7.46875 -8.6875 -8.625 C -8.738281 -9.78125 -8.484375 -10.925781 -7.921875 -12.0625 C -7.367188 -13.207031 -6.625 -14.113281 -5.6875 -14.78125 C -4.757812 -15.445312 -3.738281 -15.828125 -2.625 -15.921875 C -1.507812 -16.023438 -0.410156 -15.816406 0.671875 -15.296875 C 1.742188 -14.765625 2.582031 -14.023438 3.1875 -13.078125 C 3.789062 -12.140625 4.117188 -11.097656 4.171875 -9.953125 C 4.222656 -8.804688 3.972656 -7.660156 3.421875 -6.515625 Z M 1.25 -7.578125 C 1.5625 -8.222656 1.695312 -8.878906 1.65625 -9.546875 C 1.625 -10.222656 1.410156 -10.835938 1.015625 -11.390625 C 0.628906 -11.941406 0.0976562 -12.382812 -0.578125 -12.71875 C -1.253906 -13.039062 -1.929688 -13.1875 -2.609375 -13.15625 C -3.285156 -13.125 -3.898438 -12.914062 -4.453125 -12.53125 C -5.015625 -12.15625 -5.453125 -11.644531 -5.765625 -11 C -6.085938 -10.351562 -6.222656 -9.695312 -6.171875 -9.03125 C -6.128906 -8.363281 -5.910156 -7.75 -5.515625 -7.1875 C -5.128906 -6.632812 -4.597656 -6.195312 -3.921875 -5.875 C -3.242188 -5.539062 -2.566406 -5.390625 -1.890625 -5.421875 C -1.210938 -5.460938 -0.597656 -5.671875 -0.046875 -6.046875 C 0.492188 -6.421875 0.925781 -6.929688 1.25 -7.578125 Z M 1.25 -7.578125 "/></g></g></g><g fill="#000000" fill-opacity="1"><g transform="translate(277.630702, 217.711969)"><g><path d="M -8.671875 -15.28125 L 3.140625 -12.25 L 2.5625 -10 L -6.125 -5.9375 L 1.046875 -4.09375 L 0.359375 -1.40625 L -11.453125 -4.4375 L -10.875 -6.6875 L -2.1875 -10.734375 L -9.359375 -12.578125 Z M -8.671875 -15.28125 "/></g></g></g><g clip-path="url(#881926b748)"><path fill="#ffffff" d="M 215.046875 172.703125 L 203.644531 180.449219 C 192.925781 188.457031 189.078125 196.34375 189.070312 210.046875 L 189.074219 213.710938 C 189.074219 214.332031 189.140625 215.019531 189.054688 215.632812 C 188.867188 216.925781 186.796875 216.910156 186.546875 215.640625 C 186.460938 215.214844 186.507812 214.703125 186.507812 214.269531 L 186.484375 206.074219 C 185.566406 188.195312 173.957031 181.691406 160.75 172.835938 L 153.039062 167.128906 L 153.234375 167.992188 C 154.953125 174.4375 161.964844 178.972656 167.554688 182.074219 L 169.675781 183.191406 C 170.152344 183.425781 170.660156 183.632812 171.117188 183.898438 C 172.371094 184.628906 171.988281 186.191406 170.789062 186.308594 C 169.195312 186.46875 162 181.777344 160.671875 180.839844 L 156.585938 177.652344 C 153.941406 185.226562 161.820312 189.398438 167.765625 191.6875 L 169.050781 192.132812 C 169.621094 192.300781 170.351562 192.34375 170.835938 192.699219 C 171.816406 193.414062 171.398438 194.945312 170.210938 195.050781 C 169.539062 195.109375 168.660156 194.761719 168.027344 194.539062 C 164.164062 193.1875 160.421875 191.304688 157.308594 188.621094 L 155.707031 187.207031 C 155.640625 187.335938 155.625 187.527344 155.609375 187.671875 C 155.257812 190.535156 156.933594 193.296875 158.839844 195.277344 C 161.359375 197.890625 165.886719 200.125 169.570312 200.375 C 169.972656 200.402344 170.429688 200.378906 170.824219 200.457031 C 172.1875 200.734375 172.210938 202.910156 170.480469 202.976562 C 166.597656 203.128906 160.90625 200.640625 158.171875 198.140625 C 160.117188 204.601562 166.816406 207.535156 173.132812 207.058594 C 173.679688 207.015625 174.253906 206.890625 174.800781 206.910156 C 175.691406 206.945312 176.375 208.082031 175.820312 208.839844 C 175.050781 209.882812 171.1875 209.710938 169.816406 209.601562 C 164.804688 209.191406 159.710938 206.410156 157.050781 202.109375 C 155.988281 200.386719 155.113281 197.523438 155.625 195.472656 C 155.648438 195.378906 155.441406 195.15625 155.378906 195.070312 C 153.890625 193.027344 153.03125 190.886719 153.023438 188.363281 C 153.023438 186.835938 153.164062 185.414062 154.273438 184.300781 C 153.035156 181.632812 153.066406 178.222656 154.765625 175.746094 C 154.1875 175.234375 153.730469 174.613281 153.289062 173.980469 C 151.335938 171.164062 150.34375 168.265625 150.3125 164.863281 C 150.308594 164.472656 150.28125 163.894531 150.472656 163.542969 L 150.496094 163.5 C 150.710938 163.082031 150.945312 162.898438 151.375 162.746094 C 152.308594 162.691406 152.828125 163.480469 153.460938 164.042969 L 155.007812 165.402344 C 156.078125 166.324219 157.230469 167.148438 158.371094 167.984375 L 170.269531 176.050781 C 177.839844 181.320312 184.460938 187.242188 187.316406 196.261719 C 187.492188 196.808594 187.683594 197.363281 187.78125 197.929688 L 187.789062 197.988281 C 188.140625 196.867188 188.453125 195.742188 188.871094 194.644531 C 192.460938 185.214844 200.339844 179.332031 208.5 173.941406 L 212.011719 171.652344 L 218.960938 166.675781 L 221.949219 164.230469 C 222.394531 163.839844 222.785156 163.351562 223.277344 163.015625 C 224.175781 162.394531 225.191406 162.910156 225.246094 164.042969 C 225.449219 168.535156 223.84375 172.363281 220.851562 175.734375 C 221.011719 176.132812 221.230469 176.511719 221.40625 176.902344 C 222.496094 179.335938 222.386719 181.867188 221.316406 184.25 C 221.277344 184.335938 221.34375 184.347656 221.410156 184.414062 C 223.542969 186.660156 222.382812 191.335938 221.078125 193.703125 L 220.425781 194.765625 C 220.125 195.210938 219.96875 195.238281 220.039062 195.78125 C 220.894531 202.230469 214.523438 207.550781 208.867188 209.019531 C 207.4375 209.394531 201.535156 210.132812 200.214844 209.304688 C 199.132812 208.625 199.488281 207.132812 200.699219 206.933594 L 200.761719 206.925781 C 201.300781 206.84375 201.953125 207.019531 202.496094 207.058594 C 208.148438 207.464844 214.210938 205.128906 216.824219 199.820312 C 217.015625 199.433594 217.25 198.917969 217.246094 198.484375 L 217.183594 198.445312 C 216.914062 198.601562 216.679688 198.832031 216.433594 199.027344 C 213.625 201.238281 209.796875 202.492188 206.300781 202.96875 C 205.445312 203.082031 203.992188 203.175781 203.769531 201.996094 C 203.507812 200.585938 205.082031 200.480469 205.972656 200.390625 C 210.84375 199.90625 215.703125 197.265625 218.433594 193.175781 C 219.660156 191.335938 220.273438 189.230469 219.84375 187.054688 C 216.710938 190.203125 213.976562 191.933594 209.796875 193.675781 L 207.632812 194.5 C 206.9375 194.746094 205.757812 195.273438 205.039062 194.960938 C 204.386719 194.671875 203.972656 193.929688 204.308594 193.253906 C 204.722656 192.417969 205.980469 192.265625 206.785156 192.011719 C 211.878906 190.398438 220.957031 185.832031 219.453125 179.121094 C 219.34375 178.640625 219.140625 178.195312 218.988281 177.726562 L 218.777344 177.917969 C 217.929688 178.664062 216.996094 179.328125 216.085938 179.992188 L 212.925781 182.199219 L 207.140625 185.492188 C 206.4375 185.84375 205.597656 186.296875 204.785156 186.230469 C 204.082031 186.175781 203.65625 185.5 203.765625 184.832031 C 203.917969 183.90625 205.289062 183.480469 206.011719 183.136719 L 207.828125 182.207031 C 213.613281 179.109375 221.277344 173.910156 222.480469 167.148438 Z M 215.046875 172.703125 " fill-opacity="1" fill-rule="nonzero"/></g><g clip-path="url(#925326b27f)"><path fill="#ffffff" d="M 209.28125 230.515625 L 204.722656 230.730469 L 199.230469 231.273438 L 195.535156 231.878906 C 194.0625 239.125 184.144531 240.660156 180.703125 233.785156 C 180.402344 233.183594 180.199219 232.566406 179.972656 231.9375 C 179.222656 231.660156 178.386719 231.539062 177.59375 231.414062 L 168.121094 230.539062 L 165.25 230.507812 C 164.902344 230.496094 164.5625 230.414062 164.222656 230.402344 L 150.210938 230.394531 C 149.527344 230.394531 148.773438 230.453125 148.097656 230.363281 L 147.863281 230.328125 C 145.402344 229.714844 146.363281 227.726562 147.117188 226.132812 C 148.175781 223.875 148.785156 222.160156 151.320312 221.347656 C 151.789062 221.195312 151.882812 221.195312 152.167969 220.777344 L 152.875 219.746094 C 155.769531 215.796875 160.761719 214.820312 165.390625 214.816406 C 172.425781 214.792969 177.773438 215.683594 184.105469 219.210938 L 187.636719 221.433594 C 187.925781 221.644531 187.875 221.5625 188.183594 221.34375 C 193.753906 217.464844 199.566406 215.21875 206.4375 214.84375 L 210.042969 214.816406 C 215.15625 214.816406 219.570312 215.535156 222.726562 219.804688 C 223.441406 220.777344 223.339844 220.980469 224.496094 221.398438 C 226.964844 222.296875 227.621094 224.457031 228.679688 226.667969 C 228.855469 227.042969 229.109375 227.429688 229.230469 227.820312 C 229.589844 228.988281 228.679688 230.214844 227.488281 230.363281 C 226.710938 230.460938 225.851562 230.394531 225.0625 230.394531 L 211.402344 230.402344 C 210.6875 230.410156 210 230.523438 209.28125 230.515625 Z M 165.273438 217.359375 C 161.925781 217.460938 157.894531 217.929688 155.492188 220.480469 L 154.910156 221.160156 L 165.9375 221.113281 L 170.328125 221.351562 C 175.515625 221.792969 180.917969 222.914062 185.65625 225.136719 L 187.601562 226.167969 C 188.007812 226.386719 188.574219 225.839844 189.027344 225.601562 C 194.445312 222.757812 200.996094 221.605469 207.03125 221.242188 L 209.011719 221.195312 C 209.28125 221.183594 209.546875 221.128906 209.816406 221.121094 L 212.320312 221.101562 L 220.585938 221.140625 C 220.433594 220.972656 220.320312 220.785156 220.175781 220.617188 C 218.128906 218.234375 214.675781 217.582031 211.660156 217.398438 L 206.148438 217.425781 C 202.332031 217.703125 198.578125 218.621094 195.097656 220.222656 L 191.214844 222.386719 C 190.269531 223 189.347656 223.699219 188.351562 224.226562 C 187.632812 224.609375 187.652344 224.503906 186.960938 224.070312 L 182.199219 221.054688 C 176.457031 217.9375 171.566406 217.265625 165.273438 217.359375 Z M 214.003906 223.683594 L 209.613281 223.695312 C 203.203125 223.90625 195.960938 224.988281 190.21875 227.90625 L 188.382812 228.867188 C 187.558594 229.25 187.183594 228.882812 186.433594 228.476562 L 184.984375 227.707031 C 180.875 225.632812 176.265625 224.628906 171.71875 224.132812 L 165.539062 223.691406 L 155.089844 223.804688 C 154.101562 223.855469 152.039062 223.769531 151.140625 224.132812 C 150.632812 224.667969 149.597656 226.804688 149.398438 227.605469 C 149.308594 227.976562 149.199219 227.859375 149.78125 227.859375 L 164.054688 227.859375 C 164.648438 227.867188 165.261719 227.839844 165.855469 227.875 L 176.941406 228.75 C 178.359375 228.9375 180.796875 229.066406 181.875 230.148438 C 182.425781 230.699219 182.570312 231.480469 182.871094 232.171875 C 184.917969 236.855469 190.839844 236.777344 192.710938 232.296875 C 193.742188 229.828125 193.703125 229.546875 196.554688 229.078125 L 198.742188 228.757812 L 209.539062 227.875 L 223.503906 227.859375 C 224.410156 227.859375 225.363281 227.917969 226.265625 227.851562 L 226.214844 227.792969 C 226.097656 227.640625 226.0625 227.347656 225.988281 227.160156 C 224.976562 224.65625 224.933594 223.957031 221.957031 223.765625 Z M 214.003906 223.683594 " fill-opacity="1" fill-rule="nonzero"/></g><g clip-path="url(#b2bbe67a02)"><path fill="#ffffff" d="M 194.273438 178.570312 L 193.050781 177.753906 C 192.765625 177.566406 192.394531 177.566406 192.109375 177.753906 L 190.039062 179.136719 L 187.96875 177.753906 C 187.683594 177.566406 187.3125 177.566406 187.027344 177.753906 L 184.957031 179.136719 L 182.882812 177.753906 C 182.601562 177.566406 182.230469 177.566406 181.945312 177.753906 L 180.71875 178.570312 L 180.71875 159.820312 L 179.027344 159.820312 L 179.027344 180.15625 C 179.027344 180.382812 179.117188 180.597656 179.277344 180.75 L 179.273438 180.753906 L 186.898438 188.378906 C 187.0625 188.542969 187.28125 188.625 187.496094 188.625 C 187.714844 188.625 187.929688 188.542969 188.097656 188.378906 L 195.722656 180.753906 L 195.71875 180.75 C 195.875 180.597656 195.96875 180.382812 195.96875 180.15625 L 195.96875 164.058594 L 194.273438 164.058594 Z M 182.414062 179.476562 L 184.484375 180.859375 C 184.769531 181.050781 185.140625 181.050781 185.425781 180.859375 L 187.496094 179.476562 L 189.570312 180.859375 C 189.855469 181.050781 190.222656 181.050781 190.507812 180.859375 L 192.582031 179.476562 L 193.792969 180.285156 L 190.535156 183.542969 L 184.460938 183.542969 L 181.203125 180.285156 Z M 187.496094 186.582031 L 186.152344 185.238281 L 188.839844 185.238281 Z M 187.496094 186.582031 " fill-opacity="1" fill-rule="nonzero"/></g><path fill="#ffffff" d="M 176.5625 152.441406 C 176.464844 152.132812 176.199219 151.910156 175.878906 151.863281 L 173.421875 151.507812 L 172.324219 149.28125 C 172.039062 148.699219 171.089844 148.699219 170.804688 149.28125 L 169.707031 151.507812 L 167.25 151.863281 C 166.933594 151.910156 166.667969 152.132812 166.566406 152.441406 C 166.46875 152.746094 166.550781 153.085938 166.78125 153.308594 L 168.558594 155.042969 L 168.140625 157.488281 C 168.085938 157.804688 168.214844 158.125 168.476562 158.316406 C 168.738281 158.507812 169.082031 158.53125 169.367188 158.382812 L 171.566406 157.226562 L 173.761719 158.382812 C 173.886719 158.445312 174.023438 158.476562 174.15625 158.476562 C 174.332031 158.476562 174.507812 158.425781 174.65625 158.316406 C 174.914062 158.125 175.046875 157.804688 174.992188 157.488281 L 174.570312 155.042969 L 176.347656 153.308594 C 176.578125 153.082031 176.660156 152.746094 176.5625 152.441406 Z M 173.070312 154.136719 C 172.871094 154.332031 172.78125 154.613281 172.828125 154.886719 L 173.03125 156.082031 L 171.960938 155.519531 C 171.835938 155.453125 171.699219 155.421875 171.566406 155.421875 C 171.429688 155.421875 171.292969 155.453125 171.167969 155.519531 L 170.097656 156.082031 L 170.300781 154.886719 C 170.347656 154.613281 170.257812 154.332031 170.058594 154.136719 L 169.191406 153.292969 L 170.390625 153.117188 C 170.667969 153.078125 170.90625 152.90625 171.027344 152.65625 L 171.566406 151.570312 L 172.101562 152.65625 C 172.222656 152.90625 172.460938 153.078125 172.738281 153.117188 L 173.9375 153.292969 Z M 173.070312 154.136719 " fill-opacity="1" fill-rule="nonzero"/><g clip-path="url(#d0d83e7f97)"><path fill="#ffffff" d="M 175.695312 141.71875 L 175.167969 144.78125 C 175.113281 145.097656 175.246094 145.417969 175.503906 145.609375 C 175.769531 145.796875 176.113281 145.824219 176.398438 145.671875 L 179.144531 144.226562 L 181.890625 145.671875 C 182.015625 145.738281 182.152344 145.769531 182.285156 145.769531 C 182.460938 145.769531 182.636719 145.714844 182.785156 145.609375 C 183.046875 145.417969 183.175781 145.097656 183.121094 144.78125 L 182.597656 141.71875 L 184.820312 139.554688 C 185.050781 139.328125 185.132812 138.992188 185.035156 138.683594 C 184.933594 138.378906 184.667969 138.15625 184.347656 138.109375 L 181.277344 137.660156 L 179.90625 134.878906 C 179.621094 134.300781 178.671875 134.300781 178.386719 134.878906 L 177.011719 137.660156 L 173.941406 138.109375 C 173.621094 138.15625 173.355469 138.378906 173.257812 138.683594 C 173.15625 138.992188 173.238281 139.328125 173.46875 139.554688 Z M 177.695312 139.273438 C 177.972656 139.234375 178.210938 139.0625 178.335938 138.8125 L 179.144531 137.167969 L 179.957031 138.8125 C 180.082031 139.0625 180.320312 139.234375 180.59375 139.273438 L 182.410156 139.539062 L 181.097656 140.816406 C 180.898438 141.011719 180.804688 141.292969 180.851562 141.566406 L 181.164062 143.375 L 179.539062 142.523438 C 179.417969 142.457031 179.28125 142.425781 179.144531 142.425781 C 179.011719 142.425781 178.875 142.457031 178.75 142.523438 L 177.128906 143.375 L 177.4375 141.566406 C 177.484375 141.292969 177.394531 141.011719 177.195312 140.816406 L 175.882812 139.539062 Z M 177.695312 139.273438 " fill-opacity="1" fill-rule="nonzero"/></g><path fill="#ffffff" d="M 199.117188 147.167969 L 202.609375 143.761719 C 202.839844 143.535156 202.925781 143.199219 202.824219 142.894531 C 202.726562 142.585938 202.460938 142.363281 202.140625 142.316406 L 197.3125 141.617188 L 195.15625 137.242188 C 194.871094 136.664062 193.921875 136.664062 193.636719 137.242188 L 191.476562 141.617188 L 186.648438 142.316406 C 186.328125 142.363281 186.066406 142.585938 185.964844 142.894531 C 185.863281 143.199219 185.945312 143.539062 186.179688 143.761719 L 189.671875 147.167969 L 188.847656 151.976562 C 188.792969 152.292969 188.921875 152.617188 189.183594 152.804688 C 189.445312 152.996094 189.792969 153.019531 190.078125 152.871094 L 194.394531 150.597656 L 198.710938 152.871094 C 198.835938 152.933594 198.972656 152.96875 199.105469 152.96875 C 199.28125 152.96875 199.457031 152.914062 199.605469 152.804688 C 199.867188 152.617188 199.996094 152.292969 199.941406 151.976562 Z M 197.617188 146.265625 C 197.417969 146.460938 197.324219 146.742188 197.371094 147.015625 L 197.980469 150.570312 L 194.789062 148.890625 C 194.664062 148.828125 194.53125 148.796875 194.394531 148.796875 C 194.257812 148.796875 194.125 148.828125 194 148.890625 L 190.804688 150.570312 L 191.417969 147.015625 C 191.464844 146.742188 191.371094 146.460938 191.171875 146.265625 L 188.589844 143.746094 L 192.160156 143.226562 C 192.4375 143.1875 192.671875 143.015625 192.796875 142.765625 L 194.394531 139.53125 L 195.992188 142.765625 C 196.113281 143.015625 196.351562 143.1875 196.628906 143.226562 L 200.199219 143.746094 Z M 197.617188 146.265625 " fill-opacity="1" fill-rule="nonzero"/><path fill="#ffffff" d="M 208.789062 156.621094 L 206.640625 156.3125 L 205.679688 154.363281 C 205.394531 153.785156 204.445312 153.785156 204.160156 154.363281 L 203.199219 156.3125 L 201.050781 156.621094 C 200.730469 156.667969 200.46875 156.890625 200.367188 157.199219 C 200.265625 157.503906 200.347656 157.84375 200.582031 158.066406 L 202.136719 159.582031 L 201.769531 161.722656 C 201.714844 162.039062 201.84375 162.363281 202.105469 162.550781 C 202.253906 162.660156 202.425781 162.714844 202.601562 162.714844 C 202.738281 162.714844 202.875 162.679688 202.996094 162.617188 L 204.917969 161.605469 L 206.839844 162.617188 C 207.125 162.765625 207.472656 162.742188 207.734375 162.550781 C 207.996094 162.363281 208.125 162.039062 208.070312 161.722656 L 207.703125 159.582031 L 209.257812 158.066406 C 209.488281 157.84375 209.570312 157.503906 209.472656 157.199219 C 209.371094 156.890625 209.109375 156.667969 208.789062 156.621094 Z M 206.203125 158.679688 C 206.003906 158.875 205.910156 159.15625 205.957031 159.429688 L 206.109375 160.316406 L 205.316406 159.898438 C 205.191406 159.832031 205.054688 159.800781 204.917969 159.800781 C 204.785156 159.800781 204.648438 159.832031 204.523438 159.898438 L 203.730469 160.316406 L 203.882812 159.429688 C 203.929688 159.15625 203.839844 158.875 203.640625 158.679688 L 202.996094 158.050781 L 203.882812 157.921875 C 204.160156 157.882812 204.398438 157.710938 204.523438 157.460938 L 204.921875 156.652344 L 205.320312 157.460938 C 205.445312 157.710938 205.679688 157.882812 205.957031 157.921875 L 206.847656 158.050781 Z M 206.203125 158.679688 " fill-opacity="1" fill-rule="nonzero"/><path fill="#ffffff" d="M 184.957031 165.753906 L 186.648438 165.753906 C 186.648438 159.679688 182.089844 154.738281 176.484375 154.738281 L 176.484375 156.433594 C 181.15625 156.433594 184.957031 160.613281 184.957031 165.753906 Z M 184.957031 165.753906 " fill-opacity="1" fill-rule="nonzero"/><path fill="#ffffff" d="M 190.039062 169.988281 L 191.734375 169.988281 C 191.734375 164.019531 194.449219 158.976562 197.664062 158.976562 L 197.664062 157.28125 C 193.386719 157.28125 190.039062 162.863281 190.039062 169.988281 Z M 190.039062 169.988281 " fill-opacity="1" fill-rule="nonzero"/><path fill="#ffffff" d="M 183.261719 155.585938 L 184.957031 155.585938 C 184.957031 153.71875 186.097656 152.199219 187.496094 152.199219 L 187.496094 150.503906 C 185.160156 150.503906 183.261719 152.78125 183.261719 155.585938 Z M 183.261719 155.585938 " fill-opacity="1" fill-rule="nonzero"/><path fill="#ffffff" d="M 177.332031 147.960938 C 178.734375 147.960938 179.871094 149.480469 179.871094 151.351562 L 181.566406 151.351562 C 181.566406 148.546875 179.667969 146.265625 177.332031 146.265625 Z M 177.332031 147.960938 " fill-opacity="1" fill-rule="nonzero"/><path fill="#ffffff" d="M 195.121094 154.738281 L 195.121094 153.042969 C 190.917969 153.042969 187.496094 156.84375 187.496094 161.515625 L 189.191406 161.515625 C 189.191406 157.78125 191.851562 154.738281 195.121094 154.738281 Z M 195.121094 154.738281 " fill-opacity="1" fill-rule="nonzero"/><path fill="#ffffff" d="M 190.039062 171.683594 L 191.734375 171.683594 L 191.734375 173.378906 L 190.039062 173.378906 Z M 190.039062 171.683594 " fill-opacity="1" fill-rule="nonzero"/><path fill="#ffffff" d="M 187.496094 163.210938 L 189.191406 163.210938 L 189.191406 164.90625 L 187.496094 164.90625 Z M 187.496094 163.210938 " fill-opacity="1" fill-rule="nonzero"/><path fill="#ffffff" d="M 184.957031 167.445312 L 186.648438 167.445312 L 186.648438 169.140625 L 184.957031 169.140625 Z M 184.957031 167.445312 " fill-opacity="1" fill-rule="nonzero"/><path fill="#ffffff" d="M 184.957031 170.835938 L 186.648438 170.835938 L 186.648438 172.53125 L 184.957031 172.53125 Z M 184.957031 170.835938 " fill-opacity="1" fill-rule="nonzero"/><path fill="#ffffff" d="M 184.957031 174.222656 L 186.648438 174.222656 L 186.648438 175.917969 L 184.957031 175.917969 Z M 184.957031 174.222656 " fill-opacity="1" fill-rule="nonzero"/><path fill="#ffffff" d="M 170.554688 159.820312 L 172.25 159.820312 L 172.25 161.515625 L 170.554688 161.515625 Z M 170.554688 159.820312 " fill-opacity="1" fill-rule="nonzero"/><g clip-path="url(#9c39bf808f)"><path fill="#ffffff" d="M 160.386719 147.960938 L 162.082031 147.960938 L 162.082031 149.65625 L 160.386719 149.65625 Z M 160.386719 147.960938 " fill-opacity="1" fill-rule="nonzero"/></g><path fill="#ffffff" d="M 167.164062 144.574219 L 168.859375 144.574219 L 168.859375 146.265625 L 167.164062 146.265625 Z M 167.164062 144.574219 " fill-opacity="1" fill-rule="nonzero"/><path fill="#ffffff" d="M 201.898438 148.808594 L 203.59375 148.808594 L 203.59375 150.503906 L 201.898438 150.503906 Z M 201.898438 148.808594 " fill-opacity="1" fill-rule="nonzero"/><path fill="#ffffff" d="M 211.21875 142.878906 L 212.914062 142.878906 L 212.914062 144.574219 L 211.21875 144.574219 Z M 211.21875 142.878906 " fill-opacity="1" fill-rule="nonzero"/><path fill="#ffffff" d="M 163.777344 138.640625 L 165.46875 138.640625 L 165.46875 140.335938 L 163.777344 140.335938 Z M 163.777344 138.640625 " fill-opacity="1" fill-rule="nonzero"/><path fill="#ffffff" d="M 169.707031 137.796875 L 171.402344 137.796875 L 171.402344 139.488281 L 169.707031 139.488281 Z M 169.707031 137.796875 " fill-opacity="1" fill-rule="nonzero"/><path fill="#ffffff" d="M 201.050781 136.949219 L 202.746094 136.949219 L 202.746094 138.640625 L 201.050781 138.640625 Z M 201.050781 136.949219 " fill-opacity="1" fill-rule="nonzero"/><path fill="#ffffff" d="M 206.136719 143.726562 L 207.828125 143.726562 L 207.828125 145.417969 L 206.136719 145.417969 Z M 206.136719 143.726562 " fill-opacity="1" fill-rule="nonzero"/><g clip-path="url(#1d145dae7b)"><path fill="#ffffff" d="M 163.777344 154.738281 L 162.082031 154.738281 L 162.082031 156.433594 L 160.386719 156.433594 L 160.386719 158.128906 L 162.082031 158.128906 L 162.082031 159.820312 L 163.777344 159.820312 L 163.777344 158.128906 L 165.46875 158.128906 L 165.46875 156.433594 L 163.777344 156.433594 Z M 163.777344 154.738281 " fill-opacity="1" fill-rule="nonzero"/></g><path fill="#ffffff" d="M 212.066406 147.960938 L 210.371094 147.960938 L 210.371094 149.65625 L 208.675781 149.65625 L 208.675781 151.351562 L 210.371094 151.351562 L 210.371094 153.042969 L 212.066406 153.042969 L 212.066406 151.351562 L 213.761719 151.351562 L 213.761719 149.65625 L 212.066406 149.65625 Z M 212.066406 147.960938 " fill-opacity="1" fill-rule="nonzero"/><g clip-path="url(#e7cce5908a)"><path fill="#ffffff" d="M 212.066406 134.40625 C 210.664062 134.40625 209.523438 135.546875 209.523438 136.949219 C 209.523438 138.347656 210.664062 139.488281 212.066406 139.488281 C 213.46875 139.488281 214.609375 138.347656 214.609375 136.949219 C 214.609375 135.546875 213.46875 134.40625 212.066406 134.40625 Z M 212.066406 137.796875 C 211.597656 137.796875 211.21875 137.414062 211.21875 136.949219 C 211.21875 136.480469 211.597656 136.101562 212.066406 136.101562 C 212.535156 136.101562 212.914062 136.480469 212.914062 136.949219 C 212.914062 137.414062 212.535156 137.796875 212.066406 137.796875 Z M 212.066406 137.796875 " fill-opacity="1" fill-rule="nonzero"/></g><g clip-path="url(#974969bd9c)"><path fill="#100f0d" d="M 276.824219 181.375 C 276.9375 181.371094 277.042969 181.445312 277.078125 181.550781 L 278.265625 185.339844 C 278.300781 185.445312 278.398438 185.515625 278.511719 185.515625 L 282.480469 185.515625 C 282.617188 185.511719 282.734375 185.625 282.738281 185.761719 C 282.738281 185.847656 282.699219 185.925781 282.628906 185.972656 L 279.382812 188.246094 C 279.285156 188.3125 279.246094 188.429688 279.285156 188.539062 L 280.636719 192.261719 C 280.683594 192.394531 280.613281 192.539062 280.484375 192.585938 C 280.410156 192.613281 280.320312 192.601562 280.253906 192.554688 L 276.972656 190.257812 C 276.886719 190.195312 276.773438 190.195312 276.683594 190.257812 L 273.40625 192.554688 L 273.414062 192.554688 C 273.296875 192.632812 273.140625 192.605469 273.058594 192.492188 C 273.015625 192.425781 273.003906 192.339844 273.03125 192.261719 L 274.386719 188.539062 C 274.425781 188.429688 274.382812 188.3125 274.289062 188.246094 L 271.042969 185.972656 C 270.929688 185.894531 270.902344 185.738281 270.980469 185.621094 C 271.027344 185.554688 271.105469 185.515625 271.191406 185.515625 L 275.160156 185.515625 C 275.269531 185.515625 275.367188 185.445312 275.402344 185.339844 L 276.597656 181.550781 C 276.628906 181.449219 276.722656 181.378906 276.828125 181.375 Z M 276.601562 179.65625 C 272.339844 179.777344 268.957031 183.265625 268.957031 187.527344 C 268.957031 191.875 272.480469 195.402344 276.832031 195.402344 C 281.179688 195.402344 284.707031 191.875 284.707031 187.527344 C 284.707031 183.175781 281.179688 179.652344 276.832031 179.652344 C 276.753906 179.652344 276.675781 179.652344 276.601562 179.65625 " fill-opacity="1" fill-rule="nonzero"/></g></svg>