<svg xmlns="http://www.w3.org/2000/svg" xmlns:xlink="http://www.w3.org/1999/xlink" width="500" zoomAndPan="magnify" viewBox="0 0 375 374.999991" height="500" preserveAspectRatio="xMidYMid meet" version="1.0"><defs><g/><clipPath id="cfa77d328f"><path d="M 131.046875 98.464844 L 243.953125 98.464844 L 243.953125 211.375 L 131.046875 211.375 Z M 131.046875 98.464844 " clip-rule="nonzero"/></clipPath><clipPath id="96a7e62c93"><path d="M 187.5 98.464844 C 156.320312 98.464844 131.046875 123.742188 131.046875 154.917969 C 131.046875 186.097656 156.320312 211.375 187.5 211.375 C 218.679688 211.375 243.953125 186.097656 243.953125 154.917969 C 243.953125 123.742188 218.679688 98.464844 187.5 98.464844 Z M 187.5 98.464844 " clip-rule="nonzero"/></clipPath><clipPath id="e974e4c0a6"><path d="M 165 107.085938 L 235 107.085938 L 235 110 L 165 110 Z M 165 107.085938 " clip-rule="nonzero"/></clipPath><clipPath id="d929c8b454"><path d="M 140 107.085938 L 234 107.085938 L 234 136 L 140 136 Z M 140 107.085938 " clip-rule="nonzero"/></clipPath><clipPath id="1bfebf39e3"><path d="M 143 137 L 236.796875 137 L 236.796875 168 L 143 168 Z M 143 137 " clip-rule="nonzero"/></clipPath><clipPath id="9b2dcb6307"><path d="M 217 170 L 236.796875 170 L 236.796875 173 L 217 173 Z M 217 170 " clip-rule="nonzero"/></clipPath><clipPath id="a0986192c2"><path d="M 131.046875 170 L 236.796875 170 L 236.796875 196.335938 L 131.046875 196.335938 Z M 131.046875 170 " clip-rule="nonzero"/></clipPath><clipPath id="cfe63ff04b"><path d="M 136 173 L 236.796875 173 L 236.796875 193 L 136 193 Z M 136 173 " clip-rule="nonzero"/></clipPath></defs><g clip-path="url(#cfa77d328f)"><g clip-path="url(#96a7e62c93)"><path fill="#000000" d="M 131.046875 98.464844 L 243.953125 98.464844 L 243.953125 211.375 L 131.046875 211.375 Z M 131.046875 98.464844 " fill-opacity="1" fill-rule="nonzero"/></g></g><path fill="#81c3c9" d="M 232.460938 132.464844 C 232.457031 132.464844 232.453125 132.464844 232.453125 132.464844 L 154.773438 132.464844 C 149.375 132.464844 145.144531 127.546875 145.144531 121.273438 C 145.144531 115.105469 149.464844 110.085938 154.773438 110.085938 L 232.453125 110.085938 C 232.882812 110.085938 233.269531 110.355469 233.414062 110.761719 C 233.558594 111.167969 233.433594 111.625 233.101562 111.898438 C 233.058594 111.933594 228.558594 115.714844 228.378906 120.996094 C 228.265625 124.292969 229.847656 127.535156 233.082031 130.628906 C 233.324219 130.816406 233.480469 131.109375 233.480469 131.441406 C 233.480469 132.003906 233.023438 132.464844 232.460938 132.464844 Z M 154.773438 112.128906 C 150.589844 112.128906 147.1875 116.230469 147.1875 121.273438 C 147.1875 126.402344 150.519531 130.417969 154.773438 130.417969 L 230.066406 130.417969 C 227.46875 127.390625 226.21875 124.199219 226.335938 120.90625 C 226.472656 117.042969 228.476562 113.953125 230.019531 112.128906 Z M 154.773438 112.128906 " fill-opacity="1" fill-rule="nonzero"/><g clip-path="url(#e974e4c0a6)"><path fill="#81c3c9" d="M 233.691406 109.148438 L 166.753906 109.148438 C 166.191406 109.148438 165.734375 108.6875 165.734375 108.125 C 165.734375 107.558594 166.191406 107.101562 166.753906 107.101562 L 233.691406 107.101562 C 234.253906 107.101562 234.710938 107.558594 234.710938 108.125 C 234.710938 108.6875 234.253906 109.148438 233.691406 109.148438 Z M 233.691406 109.148438 " fill-opacity="1" fill-rule="nonzero"/></g><g clip-path="url(#d929c8b454)"><path fill="#81c3c9" d="M 232.433594 135.445312 L 153.167969 135.445312 C 145.855469 135.445312 140.128906 129.222656 140.128906 121.273438 C 140.128906 113.460938 145.976562 107.101562 153.167969 107.101562 L 158.644531 107.101562 C 159.207031 107.101562 159.664062 107.558594 159.664062 108.125 C 159.664062 108.6875 159.207031 109.148438 158.644531 109.148438 L 153.167969 109.148438 C 147.105469 109.148438 142.171875 114.585938 142.171875 121.273438 C 142.171875 128.074219 147.003906 133.402344 153.167969 133.402344 L 232.433594 133.402344 C 233 133.402344 233.457031 133.859375 233.457031 134.421875 C 233.457031 134.988281 233 135.445312 232.433594 135.445312 Z M 232.433594 135.445312 " fill-opacity="1" fill-rule="nonzero"/></g><path fill="#81c3c9" d="M 156.699219 139.730469 L 142.882812 139.730469 C 142.316406 139.730469 141.859375 139.273438 141.859375 138.707031 C 141.859375 138.140625 142.316406 137.683594 142.882812 137.683594 L 156.699219 137.683594 C 157.265625 137.683594 157.722656 138.140625 157.722656 138.707031 C 157.722656 139.273438 157.265625 139.730469 156.699219 139.730469 Z M 156.699219 139.730469 " fill-opacity="1" fill-rule="nonzero"/><g clip-path="url(#1bfebf39e3)"><path fill="#81c3c9" d="M 223.40625 167.65625 L 144.136719 167.65625 C 143.574219 167.65625 143.117188 167.199219 143.117188 166.632812 C 143.117188 166.070312 143.574219 165.609375 144.136719 165.609375 L 223.40625 165.609375 C 229.570312 165.609375 234.398438 159.925781 234.398438 152.671875 C 234.398438 145.535156 229.46875 139.730469 223.40625 139.730469 L 167.640625 139.730469 C 167.078125 139.730469 166.621094 139.273438 166.621094 138.707031 C 166.621094 138.140625 167.078125 137.683594 167.640625 137.683594 L 223.40625 137.683594 C 230.59375 137.683594 236.445312 144.40625 236.445312 152.671875 C 236.445312 161.074219 230.71875 167.65625 223.40625 167.65625 Z M 223.40625 167.65625 " fill-opacity="1" fill-rule="nonzero"/></g><path fill="#81c3c9" d="M 221.988281 164.679688 L 144.855469 164.679688 C 144.441406 164.679688 144.074219 164.433594 143.914062 164.054688 C 143.753906 163.679688 143.832031 163.242188 144.121094 162.945312 C 147.414062 159.539062 149.019531 155.960938 148.890625 152.3125 C 148.683594 146.546875 144.21875 142.488281 144.171875 142.445312 C 143.855469 142.164062 143.746094 141.714844 143.898438 141.320312 C 144.050781 140.921875 144.429688 140.660156 144.855469 140.660156 L 221.988281 140.660156 C 227.265625 140.660156 231.558594 146.050781 231.558594 152.671875 C 231.558594 159.40625 227.355469 164.679688 221.988281 164.679688 Z M 147.121094 162.632812 L 221.988281 162.632812 C 226.207031 162.632812 229.511719 158.257812 229.511719 152.671875 C 229.511719 147.175781 226.136719 142.707031 221.988281 142.707031 L 147.171875 142.707031 C 148.703125 144.632812 150.78125 148.003906 150.933594 152.238281 C 151.0625 155.832031 149.78125 159.320312 147.121094 162.632812 Z M 147.121094 162.632812 " fill-opacity="1" fill-rule="nonzero"/><g clip-path="url(#9b2dcb6307)"><path fill="#81c3c9" d="M 235.421875 172.058594 L 218.160156 172.058594 C 217.597656 172.058594 217.136719 171.597656 217.136719 171.035156 C 217.136719 170.46875 217.597656 170.011719 218.160156 170.011719 L 235.421875 170.011719 C 235.988281 170.011719 236.445312 170.46875 236.445312 171.035156 C 236.445312 171.597656 235.988281 172.058594 235.421875 172.058594 Z M 235.421875 172.058594 " fill-opacity="1" fill-rule="nonzero"/></g><g clip-path="url(#a0986192c2)"><path fill="#81c3c9" d="M 235.421875 196.65625 L 143.972656 196.65625 C 136.8125 196.65625 131.203125 190.804688 131.203125 183.335938 C 131.203125 175.988281 136.933594 170.011719 143.972656 170.011719 L 209.367188 170.011719 C 209.929688 170.011719 210.386719 170.46875 210.386719 171.035156 C 210.386719 171.597656 209.929688 172.058594 209.367188 172.058594 L 143.972656 172.058594 C 138.0625 172.058594 133.25 177.117188 133.25 183.335938 C 133.25 189.660156 137.960938 194.613281 143.972656 194.613281 L 235.421875 194.613281 C 235.988281 194.613281 236.445312 195.070312 236.445312 195.636719 C 236.445312 196.199219 235.988281 196.65625 235.421875 196.65625 Z M 235.421875 196.65625 " fill-opacity="1" fill-rule="nonzero"/></g><g clip-path="url(#cfe63ff04b)"><path fill="#81c3c9" d="M 235.429688 192.929688 C 235.429688 192.929688 235.425781 192.929688 235.421875 192.929688 L 145.570312 192.929688 C 140.300781 192.929688 136.171875 188.714844 136.171875 183.335938 C 136.171875 178.042969 140.386719 173.738281 145.570312 173.738281 L 235.421875 173.738281 C 235.867188 173.738281 236.261719 174.027344 236.394531 174.449219 C 236.53125 174.875 236.378906 175.335938 236.015625 175.59375 C 235.972656 175.625 231.628906 178.789062 231.484375 183.152344 C 231.394531 185.839844 232.914062 188.496094 236 191.054688 C 236.273438 191.238281 236.453125 191.550781 236.453125 191.90625 C 236.453125 192.472656 235.996094 192.929688 235.429688 192.929688 Z M 145.570312 175.785156 C 141.515625 175.785156 138.21875 179.171875 138.21875 183.335938 C 138.21875 187.566406 141.449219 190.882812 145.570312 190.882812 L 232.820312 190.882812 C 230.480469 188.402344 229.347656 185.78125 229.441406 183.070312 C 229.550781 179.925781 231.304688 177.382812 232.78125 175.785156 Z M 145.570312 175.785156 " fill-opacity="1" fill-rule="nonzero"/></g><g fill="#000000" fill-opacity="1"><g transform="translate(102.063308, 246.546605)"><g><path d="M 15.703125 -6.9375 L 15.703125 -19.59375 L 19.90625 -19.59375 L 19.90625 0 L 15.875 0 L 6.390625 -12.59375 L 6.390625 0 L 2.15625 0 L 2.15625 -19.59375 L 6.1875 -19.59375 Z M 15.703125 -6.9375 "/></g></g></g><g fill="#000000" fill-opacity="1"><g transform="translate(129.360295, 246.546605)"><g><path d="M 11.28125 -19.90625 C 13.238281 -19.90625 15.019531 -19.46875 16.625 -18.59375 C 18.238281 -17.71875 19.503906 -16.507812 20.421875 -14.96875 C 21.347656 -13.425781 21.8125 -11.710938 21.8125 -9.828125 C 21.8125 -7.941406 21.347656 -6.222656 20.421875 -4.671875 C 19.503906 -3.128906 18.238281 -1.910156 16.625 -1.015625 C 15.019531 -0.128906 13.238281 0.3125 11.28125 0.3125 C 9.320312 0.3125 7.539062 -0.128906 5.9375 -1.015625 C 4.332031 -1.910156 3.066406 -3.125 2.140625 -4.65625 C 1.210938 -6.195312 0.75 -7.921875 0.75 -9.828125 C 0.75 -11.710938 1.210938 -13.425781 2.140625 -14.96875 C 3.066406 -16.507812 4.328125 -17.71875 5.921875 -18.59375 C 7.515625 -19.46875 9.300781 -19.90625 11.28125 -19.90625 Z M 11.34375 -16.046875 C 10.257812 -16.046875 9.25 -15.769531 8.3125 -15.21875 C 7.382812 -14.664062 6.648438 -13.910156 6.109375 -12.953125 C 5.566406 -12.003906 5.296875 -10.960938 5.296875 -9.828125 C 5.296875 -8.671875 5.566406 -7.613281 6.109375 -6.65625 C 6.660156 -5.707031 7.398438 -4.953125 8.328125 -4.390625 C 9.253906 -3.835938 10.257812 -3.5625 11.34375 -3.5625 C 12.425781 -3.5625 13.421875 -3.832031 14.328125 -4.375 C 15.234375 -4.925781 15.953125 -5.679688 16.484375 -6.640625 C 17.015625 -7.609375 17.28125 -8.671875 17.28125 -9.828125 C 17.28125 -10.960938 17.015625 -12.003906 16.484375 -12.953125 C 15.953125 -13.910156 15.234375 -14.664062 14.328125 -15.21875 C 13.421875 -15.769531 12.425781 -16.046875 11.34375 -16.046875 Z M 11.34375 -16.046875 "/></g></g></g><g fill="#000000" fill-opacity="1"><g transform="translate(157.161211, 246.546605)"><g><path d="M 0.21875 -15.84375 L 0.21875 -19.59375 L 16.609375 -19.59375 L 16.609375 -15.84375 L 10.609375 -15.84375 L 10.609375 0 L 6.1875 0 L 6.1875 -15.84375 Z M 0.21875 -15.84375 "/></g></g></g><g fill="#000000" fill-opacity="1"><g transform="translate(179.222918, 246.546605)"><g><path d="M 21.359375 0 L 16.625 0 L 15.09375 -3.8125 L 6.015625 -3.8125 L 4.484375 0 L -0.078125 0 L 8.421875 -19.59375 L 12.984375 -19.59375 Z M 10.578125 -14.984375 L 7.46875 -7.359375 L 13.65625 -7.359375 Z M 10.578125 -14.984375 "/></g></g></g><g fill="#000000" fill-opacity="1"><g transform="translate(205.708012, 246.546605)"><g><path d="M 19.203125 0 L 14.203125 0 L 11.09375 -5.59375 L 6.578125 -5.59375 L 6.578125 0 L 2.15625 0 L 2.15625 -19.59375 L 10.671875 -19.59375 C 13.222656 -19.59375 15.195312 -19 16.59375 -17.8125 C 18 -16.632812 18.703125 -14.960938 18.703125 -12.796875 C 18.703125 -11.285156 18.390625 -9.992188 17.765625 -8.921875 C 17.140625 -7.847656 16.226562 -7.03125 15.03125 -6.46875 Z M 6.578125 -15.9375 L 6.578125 -9.296875 L 10.671875 -9.296875 C 11.898438 -9.296875 12.84375 -9.578125 13.5 -10.140625 C 14.164062 -10.710938 14.5 -11.550781 14.5 -12.65625 C 14.5 -13.738281 14.164062 -14.554688 13.5 -15.109375 C 12.84375 -15.660156 11.898438 -15.9375 10.671875 -15.9375 Z M 6.578125 -15.9375 "/></g></g></g><g fill="#000000" fill-opacity="1"><g transform="translate(231.21324, 246.546605)"><g><path d="M 14.28125 -19.59375 L 18.734375 -19.59375 L 11.59375 -6.328125 L 11.59375 0 L 7.171875 0 L 7.171875 -6.21875 L -0.078125 -19.59375 L 4.375 -19.59375 L 9.375 -10.8125 Z M 14.28125 -19.59375 "/></g></g></g><g fill="#000000" fill-opacity="1"><g transform="translate(255.094689, 246.546605)"><g><path d="M 15.0625 -14.140625 C 14.050781 -14.753906 12.976562 -15.242188 11.84375 -15.609375 C 10.71875 -15.972656 9.753906 -16.15625 8.953125 -16.15625 C 8.191406 -16.15625 7.585938 -16.015625 7.140625 -15.734375 C 6.691406 -15.453125 6.46875 -15.039062 6.46875 -14.5 C 6.46875 -13.8125 6.789062 -13.285156 7.4375 -12.921875 C 8.082031 -12.554688 9.078125 -12.175781 10.421875 -11.78125 C 11.765625 -11.394531 12.867188 -11.003906 13.734375 -10.609375 C 14.597656 -10.222656 15.335938 -9.632812 15.953125 -8.84375 C 16.578125 -8.0625 16.890625 -7.023438 16.890625 -5.734375 C 16.890625 -4.484375 16.554688 -3.40625 15.890625 -2.5 C 15.222656 -1.59375 14.3125 -0.90625 13.15625 -0.4375 C 12 0.0195312 10.6875 0.25 9.21875 0.25 C 7.625 0.25 6.0625 -0.0234375 4.53125 -0.578125 C 3 -1.140625 1.675781 -1.910156 0.5625 -2.890625 L 2.328125 -6.5 C 3.316406 -5.601562 4.453125 -4.882812 5.734375 -4.34375 C 7.023438 -3.800781 8.203125 -3.53125 9.265625 -3.53125 C 10.179688 -3.53125 10.894531 -3.695312 11.40625 -4.03125 C 11.925781 -4.363281 12.1875 -4.847656 12.1875 -5.484375 C 12.1875 -5.992188 12.007812 -6.410156 11.65625 -6.734375 C 11.3125 -7.054688 10.875 -7.320312 10.34375 -7.53125 C 9.8125 -7.738281 9.078125 -7.972656 8.140625 -8.234375 C 6.796875 -8.609375 5.695312 -8.976562 4.84375 -9.34375 C 4 -9.71875 3.269531 -10.285156 2.65625 -11.046875 C 2.039062 -11.816406 1.734375 -12.835938 1.734375 -14.109375 C 1.734375 -15.285156 2.050781 -16.316406 2.6875 -17.203125 C 3.320312 -18.085938 4.207031 -18.769531 5.34375 -19.25 C 6.488281 -19.726562 7.816406 -19.96875 9.328125 -19.96875 C 10.671875 -19.96875 11.992188 -19.769531 13.296875 -19.375 C 14.609375 -18.976562 15.765625 -18.457031 16.765625 -17.8125 Z M 15.0625 -14.140625 "/></g></g></g><g fill="#000000" fill-opacity="1"><g transform="translate(104.817303, 267.892658)"><g><path d="M 6.4375 -5.25 C 5.894531 -5.8125 5.207031 -6.09375 4.375 -6.09375 C 3.707031 -6.09375 3.160156 -5.875 2.734375 -5.4375 C 2.304688 -5 2.09375 -4.421875 2.09375 -3.703125 C 2.09375 -3.003906 2.300781 -2.429688 2.71875 -1.984375 C 3.132812 -1.546875 3.664062 -1.328125 4.3125 -1.328125 C 5.257812 -1.328125 5.992188 -1.625 6.515625 -2.21875 L 7.40625 -1.328125 C 7.070312 -0.878906 6.632812 -0.535156 6.09375 -0.296875 C 5.5625 -0.0546875 4.941406 0.0625 4.234375 0.0625 C 3.515625 0.0625 2.867188 -0.09375 2.296875 -0.40625 C 1.722656 -0.726562 1.273438 -1.175781 0.953125 -1.75 C 0.640625 -2.320312 0.484375 -2.972656 0.484375 -3.703125 C 0.484375 -4.453125 0.640625 -5.113281 0.953125 -5.6875 C 1.273438 -6.257812 1.722656 -6.703125 2.296875 -7.015625 C 2.867188 -7.335938 3.515625 -7.5 4.234375 -7.5 C 4.898438 -7.5 5.492188 -7.394531 6.015625 -7.1875 C 6.535156 -6.976562 6.972656 -6.675781 7.328125 -6.28125 Z M 6.4375 -5.25 "/></g></g></g><g fill="#000000" fill-opacity="1"><g transform="translate(113.856899, 267.892658)"><g><path d="M 4.375 -7.5 C 5.132812 -7.5 5.804688 -7.335938 6.390625 -7.015625 C 6.984375 -6.703125 7.441406 -6.257812 7.765625 -5.6875 C 8.097656 -5.125 8.265625 -4.472656 8.265625 -3.734375 C 8.265625 -2.992188 8.097656 -2.332031 7.765625 -1.75 C 7.441406 -1.175781 6.984375 -0.726562 6.390625 -0.40625 C 5.804688 -0.09375 5.132812 0.0625 4.375 0.0625 C 3.613281 0.0625 2.9375 -0.09375 2.34375 -0.40625 C 1.757812 -0.726562 1.300781 -1.175781 0.96875 -1.75 C 0.644531 -2.332031 0.484375 -2.992188 0.484375 -3.734375 C 0.484375 -4.472656 0.644531 -5.125 0.96875 -5.6875 C 1.300781 -6.257812 1.757812 -6.703125 2.34375 -7.015625 C 2.9375 -7.335938 3.613281 -7.5 4.375 -7.5 Z M 4.375 -6.125 C 3.707031 -6.125 3.160156 -5.898438 2.734375 -5.453125 C 2.304688 -5.003906 2.09375 -4.421875 2.09375 -3.703125 C 2.09375 -2.984375 2.304688 -2.398438 2.734375 -1.953125 C 3.160156 -1.503906 3.707031 -1.28125 4.375 -1.28125 C 5.050781 -1.28125 5.597656 -1.503906 6.015625 -1.953125 C 6.441406 -2.398438 6.65625 -2.984375 6.65625 -3.703125 C 6.65625 -4.421875 6.441406 -5.003906 6.015625 -5.453125 C 5.585938 -5.898438 5.039062 -6.125 4.375 -6.125 Z M 4.375 -6.125 "/></g></g></g><g fill="#000000" fill-opacity="1"><g transform="translate(123.750017, 267.892658)"><g><path d="M 10.90625 -7.5 C 11.757812 -7.5 12.425781 -7.242188 12.90625 -6.734375 C 13.394531 -6.222656 13.640625 -5.523438 13.640625 -4.640625 L 13.640625 0 L 12.03125 0 L 12.03125 -4.1875 C 12.03125 -4.757812 11.875 -5.203125 11.5625 -5.515625 C 11.25 -5.835938 10.816406 -6 10.265625 -6 C 9.640625 -5.988281 9.140625 -5.765625 8.765625 -5.328125 C 8.398438 -4.890625 8.21875 -4.34375 8.21875 -3.6875 L 8.21875 0 L 6.609375 0 L 6.609375 -4.1875 C 6.609375 -4.757812 6.453125 -5.203125 6.140625 -5.515625 C 5.828125 -5.835938 5.398438 -6 4.859375 -6 C 4.222656 -5.988281 3.71875 -5.765625 3.34375 -5.328125 C 2.96875 -4.890625 2.78125 -4.34375 2.78125 -3.6875 L 2.78125 0 L 1.1875 0 L 1.1875 -7.453125 L 2.78125 -7.453125 L 2.78125 -6 C 3.28125 -7 4.179688 -7.5 5.484375 -7.5 C 6.148438 -7.5 6.703125 -7.34375 7.140625 -7.03125 C 7.585938 -6.71875 7.898438 -6.28125 8.078125 -5.71875 C 8.535156 -6.90625 9.476562 -7.5 10.90625 -7.5 Z M 10.90625 -7.5 "/></g></g></g><g fill="#000000" fill-opacity="1"><g transform="translate(139.49187, 267.892658)"><g><path d="M 5.46875 -7.5 C 6.175781 -7.5 6.796875 -7.335938 7.328125 -7.015625 C 7.867188 -6.703125 8.285156 -6.253906 8.578125 -5.671875 C 8.878906 -5.097656 9.03125 -4.441406 9.03125 -3.703125 C 9.03125 -2.960938 8.878906 -2.304688 8.578125 -1.734375 C 8.285156 -1.160156 7.875 -0.71875 7.34375 -0.40625 C 6.8125 -0.09375 6.195312 0.0625 5.5 0.0625 C 4.914062 0.0625 4.398438 -0.0507812 3.953125 -0.28125 C 3.503906 -0.507812 3.144531 -0.84375 2.875 -1.28125 L 2.875 2.71875 L 1.265625 2.71875 L 1.265625 -7.453125 L 2.875 -7.453125 L 2.875 -6.15625 C 3.144531 -6.59375 3.5 -6.925781 3.9375 -7.15625 C 4.382812 -7.382812 4.894531 -7.5 5.46875 -7.5 Z M 5.140625 -1.3125 C 5.578125 -1.3125 5.96875 -1.414062 6.3125 -1.625 C 6.65625 -1.832031 6.921875 -2.117188 7.109375 -2.484375 C 7.304688 -2.859375 7.40625 -3.28125 7.40625 -3.75 C 7.40625 -4.207031 7.304688 -4.617188 7.109375 -4.984375 C 6.921875 -5.347656 6.65625 -5.632812 6.3125 -5.84375 C 5.96875 -6.050781 5.578125 -6.15625 5.140625 -6.15625 C 4.703125 -6.15625 4.304688 -6.050781 3.953125 -5.84375 C 3.609375 -5.644531 3.34375 -5.359375 3.15625 -4.984375 C 2.96875 -4.617188 2.875 -4.207031 2.875 -3.75 C 2.875 -3.03125 3.082031 -2.441406 3.5 -1.984375 C 3.925781 -1.535156 4.472656 -1.3125 5.140625 -1.3125 Z M 5.140625 -1.3125 "/></g></g></g><g fill="#000000" fill-opacity="1"><g transform="translate(150.154558, 267.892658)"><g><path d="M 7.234375 0 L 5.65625 0 L 5.65625 -0.90625 C 5.125 -0.257812 4.300781 0.0625 3.1875 0.0625 C 2.664062 0.0625 2.207031 -0.0351562 1.8125 -0.234375 C 1.414062 -0.429688 1.109375 -0.703125 0.890625 -1.046875 C 0.679688 -1.398438 0.578125 -1.796875 0.578125 -2.234375 C 0.578125 -2.921875 0.820312 -3.460938 1.3125 -3.859375 C 1.8125 -4.265625 2.503906 -4.472656 3.390625 -4.484375 L 5.640625 -4.484375 L 5.640625 -4.703125 C 5.640625 -5.179688 5.488281 -5.550781 5.1875 -5.8125 C 4.882812 -6.070312 4.441406 -6.203125 3.859375 -6.203125 C 3.140625 -6.203125 2.410156 -5.953125 1.671875 -5.453125 L 1.015625 -6.5625 C 1.578125 -6.894531 2.082031 -7.132812 2.53125 -7.28125 C 2.988281 -7.425781 3.550781 -7.5 4.21875 -7.5 C 5.164062 -7.5 5.898438 -7.269531 6.421875 -6.8125 C 6.941406 -6.351562 7.207031 -5.710938 7.21875 -4.890625 Z M 3.53125 -1.203125 C 4.09375 -1.203125 4.570312 -1.332031 4.96875 -1.59375 C 5.375 -1.863281 5.597656 -2.207031 5.640625 -2.625 L 5.640625 -3.296875 L 3.625 -3.296875 C 3.09375 -3.296875 2.703125 -3.21875 2.453125 -3.0625 C 2.210938 -2.914062 2.09375 -2.664062 2.09375 -2.3125 C 2.09375 -1.976562 2.21875 -1.707031 2.46875 -1.5 C 2.726562 -1.300781 3.082031 -1.203125 3.53125 -1.203125 Z M 3.53125 -1.203125 "/></g></g></g><g fill="#000000" fill-opacity="1"><g transform="translate(159.501989, 267.892658)"><g><path d="M 5.546875 -7.5 C 6.410156 -7.5 7.085938 -7.242188 7.578125 -6.734375 C 8.066406 -6.234375 8.3125 -5.535156 8.3125 -4.640625 L 8.3125 0 L 6.703125 0 L 6.703125 -4.1875 C 6.703125 -4.75 6.539062 -5.1875 6.21875 -5.5 C 5.90625 -5.820312 5.46875 -5.984375 4.90625 -5.984375 C 4.3125 -5.984375 3.828125 -5.796875 3.453125 -5.421875 C 3.078125 -5.046875 2.859375 -4.5625 2.796875 -3.96875 L 2.796875 0 L 1.1875 0 L 1.1875 -7.453125 L 2.796875 -7.453125 L 2.796875 -6.015625 C 3.304688 -7.003906 4.222656 -7.5 5.546875 -7.5 Z M 5.546875 -7.5 "/></g></g></g><g fill="#000000" fill-opacity="1"><g transform="translate(169.926812, 267.892658)"><g><path d="M 4.109375 1.015625 C 3.878906 1.609375 3.554688 2.050781 3.140625 2.34375 C 2.734375 2.632812 2.25 2.78125 1.6875 2.78125 C 1.351562 2.78125 1.046875 2.726562 0.765625 2.625 C 0.492188 2.53125 0.226562 2.375 -0.03125 2.15625 L 0.65625 0.90625 C 0.832031 1.039062 0.992188 1.132812 1.140625 1.1875 C 1.296875 1.25 1.457031 1.28125 1.625 1.28125 C 2.125 1.28125 2.503906 1.003906 2.765625 0.453125 L 3.015625 -0.109375 L -0.0625 -7.453125 L 1.59375 -7.453125 L 3.828125 -1.8125 L 5.890625 -7.453125 L 7.5 -7.453125 Z M 4.109375 1.015625 "/></g></g></g><g fill="#000000" fill-opacity="1"><g transform="translate(178.504662, 267.892658)"><g/></g></g><g fill="#000000" fill-opacity="1"><g transform="translate(183.430553, 267.892658)"><g><path d="M 5.46875 -7.5 C 6.175781 -7.5 6.796875 -7.335938 7.328125 -7.015625 C 7.867188 -6.703125 8.285156 -6.253906 8.578125 -5.671875 C 8.878906 -5.097656 9.03125 -4.441406 9.03125 -3.703125 C 9.03125 -2.960938 8.878906 -2.304688 8.578125 -1.734375 C 8.285156 -1.160156 7.875 -0.71875 7.34375 -0.40625 C 6.8125 -0.09375 6.195312 0.0625 5.5 0.0625 C 4.914062 0.0625 4.398438 -0.0507812 3.953125 -0.28125 C 3.503906 -0.507812 3.144531 -0.84375 2.875 -1.28125 L 2.875 0 L 1.265625 0 L 1.265625 -10.390625 L 2.875 -10.390625 L 2.875 -6.15625 C 3.144531 -6.59375 3.5 -6.925781 3.9375 -7.15625 C 4.382812 -7.382812 4.894531 -7.5 5.46875 -7.5 Z M 5.140625 -1.3125 C 5.578125 -1.3125 5.96875 -1.414062 6.3125 -1.625 C 6.65625 -1.832031 6.921875 -2.117188 7.109375 -2.484375 C 7.304688 -2.859375 7.40625 -3.28125 7.40625 -3.75 C 7.40625 -4.207031 7.304688 -4.617188 7.109375 -4.984375 C 6.921875 -5.347656 6.65625 -5.632812 6.3125 -5.84375 C 5.96875 -6.050781 5.578125 -6.15625 5.140625 -6.15625 C 4.703125 -6.15625 4.304688 -6.050781 3.953125 -5.84375 C 3.609375 -5.644531 3.34375 -5.359375 3.15625 -4.984375 C 2.96875 -4.617188 2.875 -4.207031 2.875 -3.75 C 2.875 -3.03125 3.082031 -2.441406 3.5 -1.984375 C 3.925781 -1.535156 4.472656 -1.3125 5.140625 -1.3125 Z M 5.140625 -1.3125 "/></g></g></g><g fill="#000000" fill-opacity="1"><g transform="translate(194.093242, 267.892658)"><g><path d="M 2.796875 -5.96875 C 3.046875 -6.46875 3.390625 -6.847656 3.828125 -7.109375 C 4.273438 -7.367188 4.789062 -7.5 5.375 -7.5 L 5.375 -5.96875 C 4.632812 -6 4.035156 -5.820312 3.578125 -5.4375 C 3.117188 -5.0625 2.859375 -4.546875 2.796875 -3.890625 L 2.796875 0 L 1.1875 0 L 1.1875 -7.453125 L 2.796875 -7.453125 Z M 2.796875 -5.96875 "/></g></g></g><g fill="#000000" fill-opacity="1"><g transform="translate(200.754172, 267.892658)"><g><path d="M 7.234375 0 L 5.65625 0 L 5.65625 -0.90625 C 5.125 -0.257812 4.300781 0.0625 3.1875 0.0625 C 2.664062 0.0625 2.207031 -0.0351562 1.8125 -0.234375 C 1.414062 -0.429688 1.109375 -0.703125 0.890625 -1.046875 C 0.679688 -1.398438 0.578125 -1.796875 0.578125 -2.234375 C 0.578125 -2.921875 0.820312 -3.460938 1.3125 -3.859375 C 1.8125 -4.265625 2.503906 -4.472656 3.390625 -4.484375 L 5.640625 -4.484375 L 5.640625 -4.703125 C 5.640625 -5.179688 5.488281 -5.550781 5.1875 -5.8125 C 4.882812 -6.070312 4.441406 -6.203125 3.859375 -6.203125 C 3.140625 -6.203125 2.410156 -5.953125 1.671875 -5.453125 L 1.015625 -6.5625 C 1.578125 -6.894531 2.082031 -7.132812 2.53125 -7.28125 C 2.988281 -7.425781 3.550781 -7.5 4.21875 -7.5 C 5.164062 -7.5 5.898438 -7.269531 6.421875 -6.8125 C 6.941406 -6.351562 7.207031 -5.710938 7.21875 -4.890625 Z M 3.53125 -1.203125 C 4.09375 -1.203125 4.570312 -1.332031 4.96875 -1.59375 C 5.375 -1.863281 5.597656 -2.207031 5.640625 -2.625 L 5.640625 -3.296875 L 3.625 -3.296875 C 3.09375 -3.296875 2.703125 -3.21875 2.453125 -3.0625 C 2.210938 -2.914062 2.09375 -2.664062 2.09375 -2.3125 C 2.09375 -1.976562 2.21875 -1.707031 2.46875 -1.5 C 2.726562 -1.300781 3.082031 -1.203125 3.53125 -1.203125 Z M 3.53125 -1.203125 "/></g></g></g><g fill="#000000" fill-opacity="1"><g transform="translate(210.101602, 267.892658)"><g><path d="M 5.546875 -7.5 C 6.410156 -7.5 7.085938 -7.242188 7.578125 -6.734375 C 8.066406 -6.234375 8.3125 -5.535156 8.3125 -4.640625 L 8.3125 0 L 6.703125 0 L 6.703125 -4.1875 C 6.703125 -4.75 6.539062 -5.1875 6.21875 -5.5 C 5.90625 -5.820312 5.46875 -5.984375 4.90625 -5.984375 C 4.3125 -5.984375 3.828125 -5.796875 3.453125 -5.421875 C 3.078125 -5.046875 2.859375 -4.5625 2.796875 -3.96875 L 2.796875 0 L 1.1875 0 L 1.1875 -7.453125 L 2.796875 -7.453125 L 2.796875 -6.015625 C 3.304688 -7.003906 4.222656 -7.5 5.546875 -7.5 Z M 5.546875 -7.5 "/></g></g></g><g fill="#000000" fill-opacity="1"><g transform="translate(220.526425, 267.892658)"><g><path d="M 6.671875 -10.390625 L 8.28125 -10.390625 L 8.28125 0 L 6.671875 0 L 6.671875 -1.28125 C 6.398438 -0.832031 6.039062 -0.492188 5.59375 -0.265625 C 5.15625 -0.046875 4.644531 0.0625 4.0625 0.0625 C 3.351562 0.0625 2.726562 -0.09375 2.1875 -0.40625 C 1.65625 -0.726562 1.238281 -1.175781 0.9375 -1.75 C 0.632812 -2.332031 0.484375 -3 0.484375 -3.75 C 0.484375 -4.488281 0.632812 -5.140625 0.9375 -5.703125 C 1.238281 -6.273438 1.65625 -6.71875 2.1875 -7.03125 C 2.726562 -7.351562 3.34375 -7.515625 4.03125 -7.515625 C 4.625 -7.515625 5.144531 -7.394531 5.59375 -7.15625 C 6.039062 -6.925781 6.398438 -6.59375 6.671875 -6.15625 Z M 4.390625 -1.28125 C 5.066406 -1.28125 5.613281 -1.503906 6.03125 -1.953125 C 6.457031 -2.398438 6.671875 -2.984375 6.671875 -3.703125 C 6.671875 -4.421875 6.457031 -5.003906 6.03125 -5.453125 C 5.613281 -5.910156 5.066406 -6.140625 4.390625 -6.140625 C 3.722656 -6.140625 3.175781 -5.910156 2.75 -5.453125 C 2.320312 -5.003906 2.101562 -4.421875 2.09375 -3.703125 C 2.101562 -2.984375 2.320312 -2.398438 2.75 -1.953125 C 3.175781 -1.503906 3.722656 -1.28125 4.390625 -1.28125 Z M 4.390625 -1.28125 "/></g></g></g><g fill="#000000" fill-opacity="1"><g transform="translate(231.217106, 267.892658)"><g/></g></g><g fill="#000000" fill-opacity="1"><g transform="translate(236.142998, 267.892658)"><g><path d="M 1.265625 0 L 1.265625 -10.390625 L 2.875 -10.390625 L 2.875 0 Z M 1.265625 0 "/></g></g></g><g fill="#000000" fill-opacity="1"><g transform="translate(241.418701, 267.892658)"><g><path d="M 4.375 -7.5 C 5.132812 -7.5 5.804688 -7.335938 6.390625 -7.015625 C 6.984375 -6.703125 7.441406 -6.257812 7.765625 -5.6875 C 8.097656 -5.125 8.265625 -4.472656 8.265625 -3.734375 C 8.265625 -2.992188 8.097656 -2.332031 7.765625 -1.75 C 7.441406 -1.175781 6.984375 -0.726562 6.390625 -0.40625 C 5.804688 -0.09375 5.132812 0.0625 4.375 0.0625 C 3.613281 0.0625 2.9375 -0.09375 2.34375 -0.40625 C 1.757812 -0.726562 1.300781 -1.175781 0.96875 -1.75 C 0.644531 -2.332031 0.484375 -2.992188 0.484375 -3.734375 C 0.484375 -4.472656 0.644531 -5.125 0.96875 -5.6875 C 1.300781 -6.257812 1.757812 -6.703125 2.34375 -7.015625 C 2.9375 -7.335938 3.613281 -7.5 4.375 -7.5 Z M 4.375 -6.125 C 3.707031 -6.125 3.160156 -5.898438 2.734375 -5.453125 C 2.304688 -5.003906 2.09375 -4.421875 2.09375 -3.703125 C 2.09375 -2.984375 2.304688 -2.398438 2.734375 -1.953125 C 3.160156 -1.503906 3.707031 -1.28125 4.375 -1.28125 C 5.050781 -1.28125 5.597656 -1.503906 6.015625 -1.953125 C 6.441406 -2.398438 6.65625 -2.984375 6.65625 -3.703125 C 6.65625 -4.421875 6.441406 -5.003906 6.015625 -5.453125 C 5.585938 -5.898438 5.039062 -6.125 4.375 -6.125 Z M 4.375 -6.125 "/></g></g></g><g fill="#000000" fill-opacity="1"><g transform="translate(251.31182, 267.892658)"><g><path d="M 6.3125 -7.453125 L 7.90625 -7.453125 L 7.90625 -0.734375 C 7.90625 -0.015625 7.742188 0.601562 7.421875 1.125 C 7.109375 1.644531 6.660156 2.046875 6.078125 2.328125 C 5.492188 2.617188 4.816406 2.765625 4.046875 2.765625 C 2.941406 2.765625 1.910156 2.4375 0.953125 1.78125 L 1.640625 0.609375 C 2.003906 0.878906 2.375 1.082031 2.75 1.21875 C 3.125 1.351562 3.53125 1.421875 3.96875 1.421875 C 4.6875 1.421875 5.253906 1.226562 5.671875 0.84375 C 6.097656 0.46875 6.3125 -0.0390625 6.3125 -0.6875 L 6.3125 -1.625 C 6.0625 -1.21875 5.726562 -0.90625 5.3125 -0.6875 C 4.894531 -0.46875 4.40625 -0.359375 3.84375 -0.359375 C 3.1875 -0.359375 2.601562 -0.507812 2.09375 -0.8125 C 1.582031 -1.125 1.1875 -1.546875 0.90625 -2.078125 C 0.625 -2.617188 0.484375 -3.25 0.484375 -3.96875 C 0.484375 -4.664062 0.625 -5.28125 0.90625 -5.8125 C 1.1875 -6.351562 1.582031 -6.769531 2.09375 -7.0625 C 2.601562 -7.351562 3.1875 -7.5 3.84375 -7.5 C 4.394531 -7.5 4.878906 -7.390625 5.296875 -7.171875 C 5.722656 -6.953125 6.0625 -6.644531 6.3125 -6.25 Z M 4.171875 -1.625 C 4.796875 -1.625 5.304688 -1.835938 5.703125 -2.265625 C 6.109375 -2.691406 6.3125 -3.242188 6.3125 -3.921875 C 6.3125 -4.585938 6.113281 -5.132812 5.71875 -5.5625 C 5.320312 -5.988281 4.804688 -6.203125 4.171875 -6.203125 C 3.535156 -6.203125 3.015625 -5.988281 2.609375 -5.5625 C 2.210938 -5.132812 2.007812 -4.585938 2 -3.921875 C 2.007812 -3.242188 2.210938 -2.691406 2.609375 -2.265625 C 3.003906 -1.835938 3.523438 -1.625 4.171875 -1.625 Z M 4.171875 -1.625 "/></g></g></g><g fill="#000000" fill-opacity="1"><g transform="translate(261.414824, 267.892658)"><g><path d="M 4.375 -7.5 C 5.132812 -7.5 5.804688 -7.335938 6.390625 -7.015625 C 6.984375 -6.703125 7.441406 -6.257812 7.765625 -5.6875 C 8.097656 -5.125 8.265625 -4.472656 8.265625 -3.734375 C 8.265625 -2.992188 8.097656 -2.332031 7.765625 -1.75 C 7.441406 -1.175781 6.984375 -0.726562 6.390625 -0.40625 C 5.804688 -0.09375 5.132812 0.0625 4.375 0.0625 C 3.613281 0.0625 2.9375 -0.09375 2.34375 -0.40625 C 1.757812 -0.726562 1.300781 -1.175781 0.96875 -1.75 C 0.644531 -2.332031 0.484375 -2.992188 0.484375 -3.734375 C 0.484375 -4.472656 0.644531 -5.125 0.96875 -5.6875 C 1.300781 -6.257812 1.757812 -6.703125 2.34375 -7.015625 C 2.9375 -7.335938 3.613281 -7.5 4.375 -7.5 Z M 4.375 -6.125 C 3.707031 -6.125 3.160156 -5.898438 2.734375 -5.453125 C 2.304688 -5.003906 2.09375 -4.421875 2.09375 -3.703125 C 2.09375 -2.984375 2.304688 -2.398438 2.734375 -1.953125 C 3.160156 -1.503906 3.707031 -1.28125 4.375 -1.28125 C 5.050781 -1.28125 5.597656 -1.503906 6.015625 -1.953125 C 6.441406 -2.398438 6.65625 -2.984375 6.65625 -3.703125 C 6.65625 -4.421875 6.441406 -5.003906 6.015625 -5.453125 C 5.585938 -5.898438 5.039062 -6.125 4.375 -6.125 Z M 4.375 -6.125 "/></g></g></g></svg>