<svg xmlns="http://www.w3.org/2000/svg" xmlns:xlink="http://www.w3.org/1999/xlink" width="500" zoomAndPan="magnify" viewBox="0 0 375 374.999991" height="500" preserveAspectRatio="xMidYMid meet" version="1.0"><defs><g/><clipPath id="9c6bf8cd05"><path d="M 102.703125 69.585938 L 272.203125 69.585938 L 272.203125 239.085938 L 102.703125 239.085938 Z M 102.703125 69.585938 " clip-rule="nonzero"/></clipPath><clipPath id="b9b42cb59d"><path d="M 150.515625 178 L 173 178 L 173 184 L 150.515625 184 Z M 150.515625 178 " clip-rule="nonzero"/></clipPath><clipPath id="fd9b03e757"><path d="M 150.515625 144 L 165 144 L 165 183 L 150.515625 183 Z M 150.515625 144 " clip-rule="nonzero"/></clipPath><clipPath id="45bc664c50"><path d="M 202 178 L 224.765625 178 L 224.765625 184 L 202 184 Z M 202 178 " clip-rule="nonzero"/></clipPath><clipPath id="1af9eebaa9"><path d="M 210 144 L 224.765625 144 L 224.765625 183 L 210 183 Z M 210 144 " clip-rule="nonzero"/></clipPath><clipPath id="08660ceea3"><path d="M 184 117.6875 L 191 117.6875 L 191 129 L 184 129 Z M 184 117.6875 " clip-rule="nonzero"/></clipPath><clipPath id="b9b7d5c8bf"><path d="M 156 198 L 219 198 L 219 203.1875 L 156 203.1875 Z M 156 198 " clip-rule="nonzero"/></clipPath></defs><g clip-path="url(#9c6bf8cd05)"><path fill="#c8a166" d="M 272.285156 154.375 C 272.285156 157.121094 268.570312 159.664062 268.3125 162.339844 C 268.046875 165.066406 271.195312 168.277344 270.671875 170.921875 C 270.144531 173.601562 266.003906 175.371094 265.222656 177.957031 C 264.429688 180.570312 266.886719 184.335938 265.851562 186.832031 C 264.808594 189.351562 260.402344 190.273438 259.125 192.660156 C 257.835938 195.0625 259.511719 199.238281 258.003906 201.488281 C 256.492188 203.75 251.992188 203.792969 250.269531 205.890625 C 248.542969 207.988281 249.371094 212.414062 247.453125 214.335938 C 245.53125 216.253906 241.109375 215.425781 239.007812 217.148438 C 236.910156 218.871094 236.867188 223.371094 234.609375 224.886719 C 232.355469 226.394531 228.179688 224.71875 225.777344 226.003906 C 223.390625 227.28125 222.472656 231.6875 219.953125 232.734375 C 217.457031 233.769531 213.6875 231.3125 211.074219 232.101562 C 208.492188 232.882812 206.722656 237.023438 204.039062 237.554688 C 201.398438 238.078125 198.1875 234.925781 195.457031 235.191406 C 192.78125 235.453125 190.242188 239.167969 187.496094 239.167969 C 184.75 239.167969 182.210938 235.453125 179.53125 235.191406 C 176.804688 234.925781 173.59375 238.078125 170.949219 237.554688 C 168.265625 237.023438 166.5 232.882812 163.917969 232.101562 C 161.304688 231.3125 157.535156 233.769531 155.039062 232.734375 C 152.519531 231.6875 151.597656 227.28125 149.214844 226.003906 C 146.8125 224.71875 142.636719 226.394531 140.382812 224.886719 C 138.121094 223.371094 138.078125 218.871094 135.984375 217.148438 C 133.882812 215.421875 129.457031 216.25 127.539062 214.332031 C 125.617188 212.414062 126.449219 207.988281 124.722656 205.890625 C 123 203.792969 118.5 203.75 116.988281 201.488281 C 115.480469 199.238281 117.152344 195.058594 115.867188 192.660156 C 114.589844 190.273438 110.183594 189.351562 109.136719 186.832031 C 108.105469 184.335938 110.5625 180.570312 109.769531 177.957031 C 108.988281 175.371094 104.847656 173.601562 104.320312 170.921875 C 103.792969 168.277344 106.945312 165.066406 106.679688 162.339844 C 106.421875 159.664062 102.703125 157.121094 102.703125 154.375 C 102.703125 151.628906 106.421875 149.089844 106.679688 146.414062 C 106.945312 143.6875 103.792969 140.476562 104.320312 137.832031 C 104.847656 135.148438 108.988281 133.382812 109.769531 130.796875 C 110.5625 128.183594 108.105469 124.417969 109.136719 121.917969 C 110.183594 119.402344 114.589844 118.480469 115.867188 116.09375 C 117.152344 113.695312 115.480469 109.515625 116.988281 107.265625 C 118.5 105.003906 123 104.960938 124.722656 102.863281 C 126.449219 100.765625 125.617188 96.339844 127.539062 94.421875 C 129.460938 92.5 133.882812 93.328125 135.984375 91.605469 C 138.078125 89.882812 138.121094 85.382812 140.382812 83.867188 C 142.636719 82.359375 146.8125 84.035156 149.214844 82.746094 C 151.601562 81.46875 152.519531 77.066406 155.039062 76.019531 C 157.535156 74.984375 161.304688 77.441406 163.917969 76.652344 C 166.5 75.867188 168.265625 71.730469 170.949219 71.199219 C 173.59375 70.675781 176.804688 73.828125 179.53125 73.5625 C 182.210938 73.300781 184.75 69.585938 187.496094 69.585938 C 190.242188 69.585938 192.78125 73.300781 195.457031 73.558594 C 198.1875 73.828125 201.398438 70.675781 204.039062 71.199219 C 206.722656 71.730469 208.492188 75.867188 211.074219 76.652344 C 213.6875 77.441406 217.457031 74.984375 219.953125 76.019531 C 222.472656 77.066406 223.394531 81.472656 225.777344 82.746094 C 228.179688 84.035156 232.355469 82.359375 234.609375 83.867188 C 236.867188 85.382812 236.914062 89.882812 239.007812 91.605469 C 241.109375 93.332031 245.53125 92.5 247.453125 94.421875 C 249.371094 96.34375 248.542969 100.765625 250.269531 102.863281 C 251.992188 104.960938 256.492188 105.003906 258.003906 107.265625 C 259.511719 109.515625 257.835938 113.695312 259.125 116.09375 C 260.402344 118.480469 264.808594 119.402344 265.851562 121.917969 C 266.886719 124.417969 264.429688 128.183594 265.222656 130.796875 C 266.003906 133.382812 270.144531 135.148438 270.671875 137.832031 C 271.195312 140.476562 268.046875 143.6875 268.3125 146.414062 C 268.570312 149.089844 272.285156 151.628906 272.285156 154.375 " fill-opacity="1" fill-rule="nonzero"/></g><path fill="#ffffff" d="M 253.285156 154.375 C 253.285156 190.710938 223.828125 220.167969 187.496094 220.167969 C 151.160156 220.167969 121.707031 190.710938 121.707031 154.375 C 121.707031 118.042969 151.160156 88.585938 187.496094 88.585938 C 223.828125 88.585938 253.285156 118.042969 253.285156 154.375 " fill-opacity="1" fill-rule="nonzero"/><path fill="#ffffff" d="M 187.496094 84.089844 C 148.738281 84.089844 117.210938 115.621094 117.210938 154.375 C 117.210938 193.132812 148.738281 224.664062 187.496094 224.664062 C 226.25 224.664062 257.78125 193.132812 257.78125 154.375 C 257.78125 115.621094 226.25 84.089844 187.496094 84.089844 Z M 187.496094 230.359375 C 145.601562 230.359375 111.515625 196.273438 111.515625 154.375 C 111.515625 112.480469 145.601562 78.394531 187.496094 78.394531 C 229.390625 78.394531 263.476562 112.480469 263.476562 154.375 C 263.476562 196.273438 229.390625 230.359375 187.496094 230.359375 " fill-opacity="1" fill-rule="nonzero"/><path fill="#c8a166" d="M 191.035156 105.753906 L 187.515625 103.222656 L 184.023438 105.789062 L 185.34375 101.660156 L 181.824219 99.132812 L 186.15625 99.109375 L 187.476562 94.980469 L 188.835938 99.097656 L 193.167969 99.074219 L 189.675781 101.640625 L 191.035156 105.753906 " fill-opacity="1" fill-rule="nonzero"/><path fill="#c8a166" d="M 228.964844 121.777344 L 225.445312 119.25 L 221.953125 121.816406 L 223.273438 117.6875 L 219.753906 115.15625 L 224.085938 115.136719 L 225.40625 111.007812 L 226.765625 115.121094 L 231.101562 115.097656 L 227.605469 117.664062 L 228.964844 121.777344 " fill-opacity="1" fill-rule="nonzero"/><path fill="#c8a166" d="M 153.105469 121.777344 L 149.585938 119.25 L 146.09375 121.816406 L 147.410156 117.6875 L 143.894531 115.15625 L 148.226562 115.136719 L 149.542969 111.007812 L 150.902344 115.121094 L 155.238281 115.097656 L 151.746094 117.664062 L 153.105469 121.777344 " fill-opacity="1" fill-rule="nonzero"/><path fill="#c8a166" d="M 170.621094 110.644531 L 167.101562 108.117188 L 163.609375 110.683594 L 164.929688 106.554688 L 161.410156 104.027344 L 165.742188 104.003906 L 167.0625 99.875 L 168.421875 103.988281 L 172.753906 103.96875 L 169.261719 106.53125 L 170.621094 110.644531 " fill-opacity="1" fill-rule="nonzero"/><path fill="#c8a166" d="M 211.449219 110.644531 L 207.929688 108.117188 L 204.4375 110.683594 L 205.757812 106.554688 L 202.238281 104.027344 L 206.570312 104.003906 L 207.886719 99.875 L 209.25 103.988281 L 213.582031 103.96875 L 210.089844 106.53125 L 211.449219 110.644531 " fill-opacity="1" fill-rule="nonzero"/><path fill="#c8a166" d="M 159.621094 129.300781 C 159.027344 129.3125 158.441406 129.417969 157.882812 129.609375 C 157.136719 129.867188 156.441406 130.273438 155.851562 130.804688 C 154.953125 131.621094 154.3125 132.6875 154.007812 133.84375 C 153.910156 134.203125 153.847656 134.574219 153.820312 134.949219 C 153.757812 135.867188 153.894531 136.785156 154.21875 137.640625 C 154.535156 138.472656 155.019531 139.226562 155.621094 139.855469 C 156.242188 140.507812 156.980469 141.023438 157.78125 141.382812 C 158.585938 141.746094 159.453125 141.953125 160.332031 141.988281 C 160.957031 142.007812 161.558594 141.914062 162.117188 141.722656 C 162.667969 141.535156 163.152344 141.285156 163.585938 141.015625 C 171.171875 136.734375 177.84375 133.476562 187.503906 133.078125 C 197.167969 133.476562 203.835938 136.734375 211.421875 141.015625 C 211.851562 141.285156 212.34375 141.535156 212.890625 141.722656 C 213.449219 141.914062 214.054688 142.007812 214.675781 141.988281 C 215.554688 141.953125 216.417969 141.746094 217.222656 141.382812 C 218.027344 141.023438 218.765625 140.507812 219.386719 139.855469 C 219.988281 139.226562 220.46875 138.472656 220.789062 137.640625 C 221.113281 136.785156 221.25 135.867188 221.183594 134.949219 C 221.15625 134.574219 221.09375 134.203125 221 133.84375 C 220.695312 132.6875 220.054688 131.621094 219.152344 130.804688 C 218.5625 130.273438 217.875 129.867188 217.128906 129.609375 C 216.382812 129.355469 215.582031 129.253906 214.785156 129.324219 C 214.09375 129.390625 213.429688 129.59375 212.832031 129.90625 C 212.238281 130.214844 211.707031 130.632812 211.273438 131.136719 C 210.8125 131.664062 210.476562 132.277344 210.277344 132.921875 C 210.078125 133.566406 210.019531 134.242188 210.097656 134.902344 C 210.175781 135.484375 210.363281 136.027344 210.636719 136.507812 C 210.910156 136.988281 211.265625 137.40625 211.679688 137.742188 C 212.136719 138.117188 212.660156 138.371094 213.195312 138.507812 C 213.730469 138.644531 214.277344 138.664062 214.796875 138.574219 C 215.253906 138.484375 215.667969 138.308594 216.019531 138.078125 C 216.375 137.847656 216.671875 137.558594 216.902344 137.242188 C 217.183594 136.859375 217.347656 136.425781 217.410156 136.011719 C 217.476562 135.597656 217.445312 135.195312 217.339844 134.839844 C 217.238281 134.515625 217.070312 134.246094 216.882812 134.035156 C 216.695312 133.824219 216.488281 133.667969 216.28125 133.5625 C 216.144531 133.488281 216.003906 133.4375 215.871094 133.410156 C 215.738281 133.378906 215.613281 133.367188 215.5 133.371094 C 215.378906 133.378906 215.273438 133.398438 215.1875 133.429688 C 215.097656 133.460938 215.03125 133.5 214.976562 133.535156 C 214.867188 133.613281 214.824219 133.6875 214.824219 133.742188 C 214.820312 133.792969 214.867188 133.824219 214.941406 133.847656 C 215.019531 133.867188 215.132812 133.882812 215.261719 133.925781 C 215.316406 133.941406 215.371094 133.964844 215.421875 133.992188 C 215.542969 134.046875 215.671875 134.140625 215.796875 134.273438 C 215.894531 134.375 215.988281 134.496094 216.0625 134.640625 C 216.132812 134.78125 216.1875 134.945312 216.199219 135.109375 C 216.222656 135.300781 216.199219 135.507812 216.121094 135.722656 C 216.046875 135.933594 215.925781 136.148438 215.757812 136.324219 C 215.609375 136.476562 215.425781 136.617188 215.21875 136.71875 C 215.011719 136.824219 214.78125 136.890625 214.550781 136.910156 C 214.28125 136.9375 213.992188 136.898438 213.707031 136.796875 C 213.421875 136.695312 213.144531 136.527344 212.917969 136.316406 C 212.703125 136.113281 212.519531 135.863281 212.382812 135.582031 C 212.246094 135.304688 212.15625 135 212.132812 134.691406 C 212.101562 134.339844 212.160156 133.960938 212.292969 133.601562 C 212.421875 133.242188 212.632812 132.894531 212.898438 132.609375 C 213.15625 132.332031 213.480469 132.097656 213.835938 131.925781 C 214.191406 131.753906 214.578125 131.648438 214.96875 131.625 C 215.40625 131.589844 215.871094 131.660156 216.3125 131.824219 C 216.753906 131.988281 217.171875 132.246094 217.515625 132.570312 C 217.859375 132.890625 218.148438 133.28125 218.355469 133.71875 C 218.5625 134.152344 218.691406 134.628906 218.714844 135.101562 C 218.75 135.65625 218.660156 136.226562 218.460938 136.75 C 218.269531 137.257812 217.960938 137.734375 217.578125 138.144531 C 216.808594 138.96875 215.675781 139.507812 214.554688 139.5625 C 214.253906 139.585938 213.929688 139.539062 213.613281 139.445312 C 213.289062 139.347656 212.957031 139.183594 212.605469 138.984375 C 211.859375 138.5625 211.085938 137.96875 210.160156 137.441406 C 209.164062 136.882812 208.1875 136.195312 207.144531 135.554688 C 201.351562 131.929688 197.503906 128.414062 187.503906 128.414062 C 177.503906 128.414062 173.652344 131.929688 167.859375 135.554688 C 166.816406 136.195312 165.839844 136.882812 164.84375 137.441406 C 163.917969 137.96875 163.144531 138.5625 162.402344 138.984375 C 162.050781 139.183594 161.714844 139.347656 161.390625 139.445312 C 161.074219 139.539062 160.753906 139.585938 160.453125 139.5625 C 159.332031 139.507812 158.199219 138.96875 157.425781 138.144531 C 157.042969 137.734375 156.738281 137.257812 156.542969 136.75 C 156.34375 136.226562 156.257812 135.65625 156.289062 135.101562 C 156.316406 134.628906 156.445312 134.152344 156.652344 133.71875 C 156.863281 133.28125 157.148438 132.890625 157.488281 132.570312 C 157.835938 132.246094 158.257812 131.988281 158.695312 131.824219 C 159.136719 131.660156 159.597656 131.589844 160.039062 131.625 C 160.425781 131.648438 160.816406 131.753906 161.171875 131.925781 C 161.523438 132.097656 161.847656 132.332031 162.105469 132.609375 C 162.375 132.894531 162.582031 133.242188 162.714844 133.601562 C 162.847656 133.960938 162.902344 134.339844 162.871094 134.691406 C 162.851562 135 162.761719 135.304688 162.625 135.582031 C 162.488281 135.863281 162.300781 136.113281 162.085938 136.316406 C 161.859375 136.527344 161.585938 136.695312 161.300781 136.796875 C 161.015625 136.898438 160.722656 136.9375 160.457031 136.910156 C 160.226562 136.890625 159.992188 136.824219 159.785156 136.71875 C 159.578125 136.617188 159.398438 136.476562 159.25 136.324219 C 159.085938 136.148438 158.957031 135.933594 158.882812 135.722656 C 158.808594 135.507812 158.78125 135.300781 158.804688 135.109375 C 158.816406 134.945312 158.871094 134.78125 158.945312 134.640625 C 159.019531 134.496094 159.109375 134.375 159.207031 134.273438 C 159.335938 134.140625 159.464844 134.046875 159.582031 133.992188 C 159.636719 133.964844 159.691406 133.941406 159.742188 133.925781 C 159.875 133.882812 159.988281 133.867188 160.066406 133.847656 C 160.144531 133.824219 160.1875 133.792969 160.1875 133.742188 C 160.1875 133.6875 160.136719 133.613281 160.03125 133.535156 C 159.976562 133.5 159.90625 133.460938 159.820312 133.429688 C 159.730469 133.398438 159.628906 133.378906 159.503906 133.371094 C 159.390625 133.367188 159.265625 133.378906 159.132812 133.410156 C 159 133.4375 158.859375 133.488281 158.722656 133.5625 C 158.515625 133.667969 158.308594 133.824219 158.121094 134.035156 C 157.933594 134.246094 157.773438 134.515625 157.671875 134.839844 C 157.5625 135.195312 157.527344 135.597656 157.59375 136.011719 C 157.660156 136.425781 157.820312 136.859375 158.105469 137.242188 C 158.332031 137.558594 158.628906 137.847656 158.984375 138.078125 C 159.339844 138.308594 159.753906 138.484375 160.207031 138.574219 C 160.726562 138.664062 161.277344 138.644531 161.8125 138.507812 C 162.347656 138.371094 162.867188 138.117188 163.324219 137.742188 C 163.738281 137.40625 164.09375 136.988281 164.367188 136.507812 C 164.640625 136.027344 164.828125 135.484375 164.90625 134.902344 C 164.984375 134.242188 164.925781 133.566406 164.726562 132.921875 C 164.53125 132.277344 164.195312 131.664062 163.738281 131.136719 C 163.300781 130.632812 162.769531 130.214844 162.171875 129.90625 C 161.574219 129.59375 160.910156 129.390625 160.21875 129.324219 C 160.019531 129.304688 159.820312 129.296875 159.621094 129.300781 Z M 159.621094 129.300781 " fill-opacity="1" fill-rule="nonzero"/><g clip-path="url(#b9b42cb59d)"><path fill="#c8a166" d="M 150.519531 178.34375 C 153.085938 181.503906 157.007812 183.519531 161.398438 183.519531 C 165.789062 183.519531 169.707031 181.503906 172.277344 178.34375 Z M 150.519531 178.34375 " fill-opacity="1" fill-rule="nonzero"/></g><path stroke-linecap="butt" transform="matrix(0.116541, 0, 0, 0.116541, 146.093023, 114.561847)" fill="none" stroke-linejoin="miter" d="M 131.330422 551.144845 L 131.330422 288.496478 " stroke="#000000" stroke-width="5.4" stroke-opacity="1" stroke-miterlimit="4"/><path stroke-linecap="butt" transform="matrix(0.116541, 0, 0, 0.116541, 146.093023, 114.561847)" fill="none" stroke-linejoin="miter" d="M 219.952459 549.133754 L 131.967267 288.496478 " stroke="#000000" stroke-width="5.4" stroke-opacity="1" stroke-miterlimit="4"/><g clip-path="url(#fd9b03e757)"><path stroke-linecap="butt" transform="matrix(0.116541, 0, 0, 0.116541, 146.093023, 114.561847)" fill="none" stroke-linejoin="miter" d="M 42.674867 549.133754 L 130.660059 288.496478 " stroke="#000000" stroke-width="5.4" stroke-opacity="1" stroke-miterlimit="4"/></g><path fill="#c8a166" d="M 161.117188 145.070312 C 160.492188 145.070312 159.984375 145.808594 159.984375 146.71875 C 159.984375 147.628906 160.492188 148.367188 161.117188 148.367188 C 161.214844 148.367188 161.304688 148.347656 161.394531 148.316406 C 160.90625 148.132812 160.542969 147.488281 160.542969 146.71875 C 160.542969 145.949219 160.90625 145.304688 161.394531 145.125 C 161.304688 145.089844 161.214844 145.070312 161.117188 145.070312 Z M 161.394531 145.125 C 161.886719 145.304688 162.25 145.949219 162.25 146.71875 C 162.25 147.488281 161.886719 148.132812 161.394531 148.316406 C 161.484375 148.347656 161.582031 148.367188 161.679688 148.367188 C 162.304688 148.367188 162.8125 147.628906 162.8125 146.71875 C 162.8125 145.808594 162.304688 145.070312 161.679688 145.070312 C 161.582031 145.070312 161.484375 145.089844 161.394531 145.125 Z M 161.394531 145.125 " fill-opacity="1" fill-rule="nonzero"/><path fill="#c8a166" d="M 161.199219 141.554688 C 160.886719 141.691406 160.90625 142.695312 161.117188 143.222656 C 161.347656 143.796875 162.300781 144.644531 161.148438 145.167969 C 160.09375 145.332031 160.117188 143.539062 159.882812 144.480469 C 159.707031 145.171875 160.511719 146.011719 161.292969 146.011719 C 162.074219 146.011719 162.636719 145.445312 162.636719 144.597656 C 162.636719 144.09375 162.28125 143.617188 161.820312 143.097656 C 161.304688 142.511719 161.359375 141.484375 161.199219 141.554688 Z M 161.199219 141.554688 " fill-opacity="1" fill-rule="nonzero"/><g clip-path="url(#45bc664c50)"><path fill="#c8a166" d="M 224.484375 178.34375 C 221.917969 181.503906 218 183.519531 213.605469 183.519531 C 209.214844 183.519531 205.296875 181.503906 202.730469 178.34375 Z M 224.484375 178.34375 " fill-opacity="1" fill-rule="nonzero"/></g><path stroke-linecap="butt" transform="matrix(0.116541, 0, 0, 0.116541, 146.093023, 114.561847)" fill="none" stroke-linejoin="miter" d="M 579.334259 551.144845 L 579.334259 288.496478 " stroke="#000000" stroke-width="5.4" stroke-opacity="1" stroke-miterlimit="4"/><path stroke-linecap="butt" transform="matrix(0.116541, 0, 0, 0.116541, 146.093023, 114.561847)" fill="none" stroke-linejoin="miter" d="M 490.678704 549.133754 L 578.663895 288.496478 " stroke="#000000" stroke-width="5.4" stroke-opacity="1" stroke-miterlimit="4"/><g clip-path="url(#1af9eebaa9)"><path stroke-linecap="butt" transform="matrix(0.116541, 0, 0, 0.116541, 146.093023, 114.561847)" fill="none" stroke-linejoin="miter" d="M 667.956296 549.133754 L 579.971104 288.496478 " stroke="#000000" stroke-width="5.4" stroke-opacity="1" stroke-miterlimit="4"/></g><path fill="#c8a166" d="M 213.886719 145.070312 C 214.515625 145.070312 215.023438 145.808594 215.023438 146.71875 C 215.023438 147.628906 214.515625 148.367188 213.886719 148.367188 C 213.792969 148.367188 213.699219 148.347656 213.609375 148.316406 C 214.101562 148.132812 214.460938 147.488281 214.460938 146.71875 C 214.460938 145.949219 214.101562 145.304688 213.609375 145.125 C 213.699219 145.089844 213.792969 145.070312 213.886719 145.070312 Z M 213.609375 145.125 C 213.117188 145.304688 212.753906 145.949219 212.753906 146.71875 C 212.753906 147.488281 213.117188 148.132812 213.609375 148.316406 C 213.519531 148.347656 213.421875 148.367188 213.324219 148.367188 C 212.699219 148.367188 212.195312 147.628906 212.195312 146.71875 C 212.195312 145.808594 212.699219 145.070312 213.324219 145.070312 C 213.421875 145.070312 213.519531 145.089844 213.609375 145.125 Z M 213.609375 145.125 " fill-opacity="1" fill-rule="nonzero"/><path fill="#c8a166" d="M 213.804688 141.554688 C 214.117188 141.691406 214.097656 142.695312 213.886719 143.222656 C 213.65625 143.796875 212.707031 144.644531 213.855469 145.167969 C 214.910156 145.332031 214.886719 143.539062 215.125 144.480469 C 215.296875 145.171875 214.492188 146.011719 213.710938 146.011719 C 212.929688 146.011719 212.371094 145.445312 212.371094 144.597656 C 212.371094 144.09375 212.722656 143.617188 213.183594 143.097656 C 213.699219 142.511719 213.644531 141.484375 213.804688 141.554688 Z M 213.804688 141.554688 " fill-opacity="1" fill-rule="nonzero"/><g clip-path="url(#08660ceea3)"><path fill="#c8a166" d="M 187.5 117.703125 C 186.734375 119.699219 184.003906 123.929688 184.003906 125.859375 C 184.003906 127.789062 185.570312 128.890625 187.5 128.890625 C 189.433594 128.890625 190.996094 127.789062 190.996094 125.859375 C 190.996094 123.929688 188.265625 119.699219 187.5 117.703125 Z M 187.5 117.703125 " fill-opacity="1" fill-rule="nonzero"/></g><path fill="#c8a166" d="M 187.25 130.984375 L 187.75 130.984375 C 187.972656 130.984375 188.183594 131.027344 188.386719 131.113281 C 188.589844 131.195312 188.769531 131.316406 188.925781 131.472656 C 189.082031 131.628906 189.203125 131.808594 189.289062 132.015625 C 189.371094 132.21875 189.414062 132.429688 189.414062 132.652344 L 189.414062 135.148438 C 189.414062 135.367188 189.371094 135.582031 189.289062 135.785156 C 189.203125 135.988281 189.082031 136.167969 188.925781 136.324219 C 188.769531 136.480469 188.589844 136.601562 188.386719 136.6875 C 188.183594 136.769531 187.972656 136.8125 187.75 136.8125 L 187.25 136.8125 C 187.03125 136.8125 186.816406 136.769531 186.613281 136.6875 C 186.410156 136.601562 186.230469 136.480469 186.074219 136.324219 C 185.917969 136.167969 185.796875 135.988281 185.710938 135.785156 C 185.628906 135.582031 185.585938 135.367188 185.585938 135.148438 L 185.585938 132.652344 C 185.585938 132.429688 185.628906 132.21875 185.710938 132.015625 C 185.796875 131.808594 185.917969 131.628906 186.074219 131.472656 C 186.230469 131.316406 186.410156 131.195312 186.613281 131.113281 C 186.816406 131.027344 187.03125 130.984375 187.25 130.984375 " fill-opacity="1" fill-rule="nonzero"/><path fill="#c8a166" d="M 189.582031 138.253906 C 189.582031 138.53125 189.527344 138.796875 189.421875 139.050781 C 189.316406 139.304688 189.167969 139.53125 188.972656 139.726562 C 188.777344 139.921875 188.550781 140.070312 188.296875 140.175781 C 188.042969 140.28125 187.777344 140.335938 187.5 140.335938 C 187.226562 140.335938 186.960938 140.28125 186.703125 140.175781 C 186.449219 140.070312 186.222656 139.921875 186.027344 139.726562 C 185.832031 139.53125 185.683594 139.304688 185.578125 139.050781 C 185.472656 138.796875 185.417969 138.53125 185.417969 138.253906 C 185.417969 137.976562 185.472656 137.710938 185.578125 137.457031 C 185.683594 137.203125 185.832031 136.976562 186.027344 136.78125 C 186.222656 136.585938 186.449219 136.4375 186.703125 136.332031 C 186.960938 136.226562 187.226562 136.171875 187.5 136.171875 C 187.777344 136.171875 188.042969 136.226562 188.296875 136.332031 C 188.550781 136.4375 188.777344 136.585938 188.972656 136.78125 C 189.167969 136.976562 189.316406 137.203125 189.421875 137.457031 C 189.527344 137.710938 189.582031 137.976562 189.582031 138.253906 Z M 189.582031 138.253906 " fill-opacity="1" fill-rule="nonzero"/><path fill="#c8a166" d="M 187.25 139.84375 L 187.75 139.84375 C 188.671875 139.84375 189.414062 140.585938 189.414062 141.507812 L 189.414062 180.132812 C 189.414062 181.054688 188.671875 181.796875 187.75 181.796875 L 187.25 181.796875 C 186.328125 181.796875 185.585938 181.054688 185.585938 180.132812 L 185.585938 141.507812 C 185.585938 140.585938 186.328125 139.84375 187.25 139.84375 Z M 187.25 139.84375 " fill-opacity="1" fill-rule="nonzero"/><path fill="#c8a166" d="M 189.582031 183.28125 C 189.582031 183.554688 189.527344 183.820312 189.421875 184.078125 C 189.316406 184.332031 189.167969 184.558594 188.972656 184.75 C 188.777344 184.945312 188.550781 185.097656 188.296875 185.203125 C 188.042969 185.308594 187.777344 185.363281 187.5 185.363281 C 187.226562 185.363281 186.960938 185.308594 186.703125 185.203125 C 186.449219 185.097656 186.222656 184.945312 186.027344 184.75 C 185.832031 184.558594 185.683594 184.332031 185.578125 184.078125 C 185.472656 183.820312 185.417969 183.554688 185.417969 183.28125 C 185.417969 183.003906 185.472656 182.738281 185.578125 182.484375 C 185.683594 182.230469 185.832031 182.003906 186.027344 181.808594 C 186.222656 181.613281 186.449219 181.464844 186.703125 181.359375 C 186.960938 181.253906 187.226562 181.199219 187.5 181.199219 C 187.777344 181.199219 188.042969 181.253906 188.296875 181.359375 C 188.550781 181.464844 188.777344 181.613281 188.972656 181.808594 C 189.167969 182.003906 189.316406 182.230469 189.421875 182.484375 C 189.527344 182.738281 189.582031 183.003906 189.582031 183.28125 Z M 189.582031 183.28125 " fill-opacity="1" fill-rule="nonzero"/><path fill="#c8a166" d="M 187.5 182.847656 C 183.308594 187.246094 179.339844 192.46875 168.429688 193.203125 C 167.957031 193.898438 168.429688 195.789062 168.429688 195.789062 L 206.574219 195.789062 C 206.574219 195.789062 207.042969 193.898438 206.574219 193.203125 C 195.660156 192.46875 191.695312 187.246094 187.5 182.847656 Z M 187.5 182.847656 " fill-opacity="1" fill-rule="nonzero"/><path fill="#c8a166" d="M 162.066406 195.316406 L 212.933594 195.316406 C 213.761719 196.203125 213.40625 197.917969 213.40625 198.871094 C 209.09375 200.21875 161.671875 201.453125 161.59375 198.871094 C 161.707031 198.085938 161.179688 195.941406 162.070312 195.316406 Z M 162.066406 195.316406 " fill-opacity="1" fill-rule="nonzero"/><g clip-path="url(#b9b7d5c8bf)"><path fill="#c8a166" d="M 157.40625 198.578125 L 217.59375 198.578125 C 218.421875 199.582031 218.066406 202.113281 218.066406 203.066406 L 156.933594 203.066406 C 157.046875 202.28125 156.28125 199.207031 157.40625 198.578125 Z M 157.40625 198.578125 " fill-opacity="1" fill-rule="nonzero"/></g><g fill="#c8a166" fill-opacity="1"><g transform="translate(117.093747, 275.676311)"><g><path d="M 0.34375 -1.65625 L 1.59375 -1.65625 L 7.03125 -17.453125 L 10.46875 -17.453125 L 15.90625 -1.65625 L 17.15625 -1.65625 L 17.15625 0 L 9.828125 0 L 9.828125 -1.65625 L 11.828125 -1.65625 L 10.625 -5.328125 L 4.921875 -5.328125 L 3.71875 -1.65625 L 5.71875 -1.65625 L 5.71875 0 L 0.34375 0 Z M 5.421875 -7.046875 L 10.171875 -7.046875 L 7.828125 -14.40625 L 7.71875 -14.40625 Z M 5.421875 -7.046875 "/></g></g></g><g fill="#c8a166" fill-opacity="1"><g transform="translate(134.565978, 275.676311)"><g><path d="M 4.875 0.296875 C 3.457031 0.296875 2.425781 -0.03125 1.78125 -0.6875 C 1.144531 -1.34375 0.828125 -2.265625 0.828125 -3.453125 C 0.828125 -6.035156 2.734375 -7.328125 6.546875 -7.328125 L 8.296875 -7.328125 L 8.296875 -8.75 C 8.296875 -9.769531 8.101562 -10.535156 7.71875 -11.046875 C 7.34375 -11.566406 6.675781 -11.828125 5.71875 -11.828125 C 5.375 -11.828125 5.078125 -11.800781 4.828125 -11.75 C 4.578125 -11.695312 4.359375 -11.628906 4.171875 -11.546875 L 4.171875 -11.421875 C 4.335938 -11.335938 4.5 -11.1875 4.65625 -10.96875 C 4.820312 -10.757812 4.90625 -10.46875 4.90625 -10.09375 C 4.90625 -9.59375 4.742188 -9.171875 4.421875 -8.828125 C 4.109375 -8.492188 3.632812 -8.328125 3 -8.328125 C 2.5 -8.328125 2.082031 -8.5 1.75 -8.84375 C 1.414062 -9.195312 1.25 -9.640625 1.25 -10.171875 C 1.25 -10.578125 1.363281 -10.972656 1.59375 -11.359375 C 1.832031 -11.753906 2.179688 -12.097656 2.640625 -12.390625 C 3.109375 -12.691406 3.6875 -12.9375 4.375 -13.125 C 5.070312 -13.3125 5.875 -13.40625 6.78125 -13.40625 C 8.59375 -13.40625 9.929688 -13.015625 10.796875 -12.234375 C 11.660156 -11.460938 12.09375 -10.367188 12.09375 -8.953125 L 12.09375 -1.65625 L 13.59375 -1.65625 L 13.59375 -0.21875 C 13.3125 -0.0507812 12.945312 0.0703125 12.5 0.15625 C 12.050781 0.25 11.582031 0.296875 11.09375 0.296875 C 10.175781 0.296875 9.53125 0.0859375 9.15625 -0.328125 C 8.78125 -0.753906 8.59375 -1.285156 8.59375 -1.921875 L 8.59375 -1.96875 L 8.453125 -1.96875 C 8.335938 -1.6875 8.191406 -1.410156 8.015625 -1.140625 C 7.835938 -0.878906 7.609375 -0.640625 7.328125 -0.421875 C 7.054688 -0.203125 6.71875 -0.03125 6.3125 0.09375 C 5.914062 0.226562 5.4375 0.296875 4.875 0.296875 Z M 6.296875 -1.953125 C 6.910156 -1.953125 7.394531 -2.09375 7.75 -2.375 C 8.113281 -2.65625 8.296875 -3.144531 8.296875 -3.84375 L 8.296875 -5.828125 L 6.953125 -5.828125 C 6.148438 -5.828125 5.550781 -5.660156 5.15625 -5.328125 C 4.769531 -4.992188 4.578125 -4.519531 4.578125 -3.90625 L 4.578125 -3.5 C 4.578125 -2.96875 4.734375 -2.578125 5.046875 -2.328125 C 5.367188 -2.078125 5.785156 -1.953125 6.296875 -1.953125 Z M 6.296875 -1.953125 "/></g></g></g><g fill="#c8a166" fill-opacity="1"><g transform="translate(148.838716, 275.676311)"><g><path d="M 0.921875 -1.65625 L 2.421875 -1.65625 L 2.421875 -10.578125 L 0.921875 -10.90625 L 0.921875 -12.328125 L 6.15625 -13.40625 L 6.15625 -10.921875 L 6.25 -10.921875 C 6.476562 -11.617188 6.851562 -12.207031 7.375 -12.6875 C 7.894531 -13.164062 8.570312 -13.40625 9.40625 -13.40625 C 10.21875 -13.40625 10.859375 -13.179688 11.328125 -12.734375 C 11.796875 -12.296875 12.03125 -11.691406 12.03125 -10.921875 C 12.03125 -10.253906 11.851562 -9.726562 11.5 -9.34375 C 11.144531 -8.96875 10.65625 -8.78125 10.03125 -8.78125 C 9.425781 -8.78125 8.960938 -8.941406 8.640625 -9.265625 C 8.328125 -9.585938 8.171875 -9.972656 8.171875 -10.421875 C 8.171875 -10.617188 8.210938 -10.800781 8.296875 -10.96875 C 8.378906 -11.132812 8.476562 -11.242188 8.59375 -11.296875 L 8.578125 -11.421875 C 8.523438 -11.441406 8.445312 -11.453125 8.34375 -11.453125 C 8.082031 -11.453125 7.828125 -11.375 7.578125 -11.21875 C 7.328125 -11.070312 7.097656 -10.878906 6.890625 -10.640625 C 6.691406 -10.410156 6.53125 -10.15625 6.40625 -9.875 C 6.28125 -9.59375 6.21875 -9.316406 6.21875 -9.046875 L 6.21875 -1.65625 L 8.21875 -1.65625 L 8.21875 0 L 0.921875 0 Z M 0.921875 -1.65625 "/></g></g></g><g fill="#c8a166" fill-opacity="1"><g transform="translate(161.161759, 275.676311)"><g><path d="M 7.28125 -1.5 C 8.8125 -1.5 9.578125 -2.414062 9.578125 -4.25 L 9.578125 -8.84375 C 9.578125 -10.675781 8.8125 -11.59375 7.28125 -11.59375 C 5.738281 -11.59375 4.96875 -10.675781 4.96875 -8.84375 L 4.96875 -4.25 C 4.96875 -2.414062 5.738281 -1.5 7.28125 -1.5 Z M 7.28125 0.296875 C 6.320312 0.296875 5.457031 0.144531 4.6875 -0.15625 C 3.914062 -0.46875 3.25 -0.914062 2.6875 -1.5 C 2.125 -2.082031 1.691406 -2.796875 1.390625 -3.640625 C 1.097656 -4.492188 0.953125 -5.460938 0.953125 -6.546875 C 0.953125 -7.628906 1.097656 -8.59375 1.390625 -9.4375 C 1.691406 -10.289062 2.125 -11.007812 2.6875 -11.59375 C 3.25 -12.175781 3.914062 -12.625 4.6875 -12.9375 C 5.457031 -13.25 6.320312 -13.40625 7.28125 -13.40625 C 8.226562 -13.40625 9.085938 -13.25 9.859375 -12.9375 C 10.640625 -12.625 11.304688 -12.175781 11.859375 -11.59375 C 12.421875 -11.007812 12.847656 -10.289062 13.140625 -9.4375 C 13.441406 -8.59375 13.59375 -7.628906 13.59375 -6.546875 C 13.59375 -5.460938 13.441406 -4.492188 13.140625 -3.640625 C 12.847656 -2.796875 12.421875 -2.082031 11.859375 -1.5 C 11.304688 -0.914062 10.640625 -0.46875 9.859375 -0.15625 C 9.085938 0.144531 8.226562 0.296875 7.28125 0.296875 Z M 7.28125 0.296875 "/></g></g></g><g fill="#c8a166" fill-opacity="1"><g transform="translate(175.709454, 275.676311)"><g><path d="M 0.921875 -1.65625 L 2.421875 -1.65625 L 2.421875 -10.578125 L 0.921875 -10.90625 L 0.921875 -12.328125 L 6.15625 -13.40625 L 6.15625 -10.921875 L 6.28125 -10.921875 C 6.507812 -11.585938 6.921875 -12.164062 7.515625 -12.65625 C 8.117188 -13.15625 8.945312 -13.40625 10 -13.40625 C 11.601562 -13.40625 12.734375 -13 13.390625 -12.1875 C 14.046875 -11.375 14.375 -10.160156 14.375 -8.546875 L 14.375 -1.65625 L 15.875 -1.65625 L 15.875 0 L 9.203125 0 L 9.203125 -1.65625 L 10.578125 -1.65625 L 10.578125 -8.421875 C 10.578125 -9.304688 10.421875 -9.9375 10.109375 -10.3125 C 9.804688 -10.6875 9.285156 -10.875 8.546875 -10.875 C 8.265625 -10.875 7.984375 -10.835938 7.703125 -10.765625 C 7.421875 -10.691406 7.171875 -10.570312 6.953125 -10.40625 C 6.734375 -10.25 6.554688 -10.050781 6.421875 -9.8125 C 6.285156 -9.570312 6.21875 -9.273438 6.21875 -8.921875 L 6.21875 -1.65625 L 7.59375 -1.65625 L 7.59375 0 L 0.921875 0 Z M 0.921875 -1.65625 "/></g></g></g><g fill="#c8a166" fill-opacity="1"><g transform="translate(192.256831, 275.676311)"><g/></g></g><g fill="#c8a166" fill-opacity="1"><g transform="translate(198.055918, 275.676311)"><g><path d="M 1.03125 -1.65625 L 2.78125 -1.65625 L 2.78125 -15.796875 L 1.03125 -15.796875 L 1.03125 -17.453125 L 8.703125 -17.453125 L 8.703125 -15.796875 L 6.828125 -15.796875 L 6.828125 -1.796875 L 11.578125 -1.796875 L 11.578125 -5.15625 L 14.46875 -5.15625 L 14.46875 0 L 1.03125 0 Z M 1.03125 -1.65625 "/></g></g></g><g fill="#c8a166" fill-opacity="1"><g transform="translate(213.55346, 275.676311)"><g><path d="M 7.28125 -1.5 C 8.8125 -1.5 9.578125 -2.414062 9.578125 -4.25 L 9.578125 -8.84375 C 9.578125 -10.675781 8.8125 -11.59375 7.28125 -11.59375 C 5.738281 -11.59375 4.96875 -10.675781 4.96875 -8.84375 L 4.96875 -4.25 C 4.96875 -2.414062 5.738281 -1.5 7.28125 -1.5 Z M 7.28125 0.296875 C 6.320312 0.296875 5.457031 0.144531 4.6875 -0.15625 C 3.914062 -0.46875 3.25 -0.914062 2.6875 -1.5 C 2.125 -2.082031 1.691406 -2.796875 1.390625 -3.640625 C 1.097656 -4.492188 0.953125 -5.460938 0.953125 -6.546875 C 0.953125 -7.628906 1.097656 -8.59375 1.390625 -9.4375 C 1.691406 -10.289062 2.125 -11.007812 2.6875 -11.59375 C 3.25 -12.175781 3.914062 -12.625 4.6875 -12.9375 C 5.457031 -13.25 6.320312 -13.40625 7.28125 -13.40625 C 8.226562 -13.40625 9.085938 -13.25 9.859375 -12.9375 C 10.640625 -12.625 11.304688 -12.175781 11.859375 -11.59375 C 12.421875 -11.007812 12.847656 -10.289062 13.140625 -9.4375 C 13.441406 -8.59375 13.59375 -7.628906 13.59375 -6.546875 C 13.59375 -5.460938 13.441406 -4.492188 13.140625 -3.640625 C 12.847656 -2.796875 12.421875 -2.082031 11.859375 -1.5 C 11.304688 -0.914062 10.640625 -0.46875 9.859375 -0.15625 C 9.085938 0.144531 8.226562 0.296875 7.28125 0.296875 Z M 7.28125 0.296875 "/></g></g></g><g fill="#c8a166" fill-opacity="1"><g transform="translate(228.101155, 275.676311)"><g><path d="M 7.34375 0.296875 C 6.3125 0.296875 5.398438 0.128906 4.609375 -0.203125 C 3.816406 -0.546875 3.148438 -1.019531 2.609375 -1.625 C 2.066406 -2.238281 1.65625 -2.96875 1.375 -3.8125 C 1.09375 -4.65625 0.953125 -5.578125 0.953125 -6.578125 C 0.953125 -7.628906 1.097656 -8.578125 1.390625 -9.421875 C 1.679688 -10.273438 2.097656 -10.992188 2.640625 -11.578125 C 3.179688 -12.160156 3.828125 -12.609375 4.578125 -12.921875 C 5.335938 -13.242188 6.1875 -13.40625 7.125 -13.40625 C 8.0625 -13.40625 8.90625 -13.257812 9.65625 -12.96875 C 10.40625 -12.6875 11.039062 -12.28125 11.5625 -11.75 C 12.082031 -11.226562 12.484375 -10.59375 12.765625 -9.84375 C 13.054688 -9.09375 13.203125 -8.257812 13.203125 -7.34375 L 13.203125 -6.5 L 4.96875 -6.5 L 4.96875 -5.5 C 4.96875 -4.382812 5.257812 -3.539062 5.84375 -2.96875 C 6.425781 -2.40625 7.203125 -2.125 8.171875 -2.125 C 9.078125 -2.125 9.800781 -2.328125 10.34375 -2.734375 C 10.894531 -3.140625 11.289062 -3.632812 11.53125 -4.21875 L 12.90625 -3.40625 C 12.75 -2.988281 12.53125 -2.5625 12.25 -2.125 C 11.96875 -1.6875 11.597656 -1.289062 11.140625 -0.9375 C 10.691406 -0.582031 10.148438 -0.285156 9.515625 -0.046875 C 8.890625 0.179688 8.164062 0.296875 7.34375 0.296875 Z M 4.96875 -8.078125 L 9.28125 -8.078125 L 9.28125 -8.421875 C 9.28125 -9.617188 9.085938 -10.457031 8.703125 -10.9375 C 8.316406 -11.425781 7.789062 -11.671875 7.125 -11.671875 C 6.457031 -11.671875 5.929688 -11.425781 5.546875 -10.9375 C 5.160156 -10.457031 4.96875 -9.617188 4.96875 -8.421875 Z M 4.96875 -8.078125 "/></g></g></g><g fill="#c8a166" fill-opacity="1"><g transform="translate(242.248912, 275.676311)"><g><path d="M 9.40625 0.296875 C 8.4375 0.296875 7.617188 0.0664062 6.953125 -0.390625 C 6.296875 -0.859375 5.851562 -1.40625 5.625 -2.03125 L 5.5 -2.03125 L 3.75 0 L 2 0 L 2 -16.171875 L 0.5 -16.5 L 0.5 -17.921875 L 5.796875 -19 L 5.796875 -11.15625 L 5.953125 -11.15625 C 6.179688 -11.738281 6.585938 -12.257812 7.171875 -12.71875 C 7.753906 -13.175781 8.5 -13.40625 9.40625 -13.40625 C 10.195312 -13.40625 10.914062 -13.238281 11.5625 -12.90625 C 12.207031 -12.582031 12.753906 -12.117188 13.203125 -11.515625 C 13.648438 -10.921875 13.992188 -10.203125 14.234375 -9.359375 C 14.472656 -8.515625 14.59375 -7.578125 14.59375 -6.546875 C 14.59375 -5.515625 14.472656 -4.578125 14.234375 -3.734375 C 13.992188 -2.890625 13.648438 -2.164062 13.203125 -1.5625 C 12.753906 -0.96875 12.207031 -0.507812 11.5625 -0.1875 C 10.914062 0.132812 10.195312 0.296875 9.40625 0.296875 Z M 8.125 -2 C 8.820312 -2 9.40625 -2.238281 9.875 -2.71875 C 10.34375 -3.207031 10.578125 -3.914062 10.578125 -4.84375 L 10.578125 -8.28125 C 10.578125 -9.207031 10.34375 -9.910156 9.875 -10.390625 C 9.40625 -10.878906 8.820312 -11.125 8.125 -11.125 C 7.457031 -11.125 6.898438 -10.914062 6.453125 -10.5 C 6.015625 -10.082031 5.796875 -9.523438 5.796875 -8.828125 L 5.796875 -4.296875 C 5.796875 -3.597656 6.015625 -3.039062 6.453125 -2.625 C 6.898438 -2.207031 7.457031 -2 8.125 -2 Z M 8.125 -2 "/></g></g></g><g fill="#ffffff" fill-opacity="1"><g transform="translate(118.229528, 301.620098)"><g><path d="M 2.875 0.125 C 2.476562 0.125 2.128906 0.046875 1.828125 -0.109375 C 1.523438 -0.273438 1.285156 -0.476562 1.109375 -0.71875 C 0.941406 -0.957031 0.859375 -1.210938 0.859375 -1.484375 C 0.859375 -1.804688 0.960938 -2.070312 1.171875 -2.28125 C 1.390625 -2.5 1.742188 -2.691406 2.234375 -2.859375 L 4.46875 -3.609375 L 4.46875 -4.34375 C 4.46875 -4.59375 4.394531 -4.816406 4.25 -5.015625 C 4.101562 -5.210938 3.90625 -5.367188 3.65625 -5.484375 C 3.414062 -5.609375 3.144531 -5.671875 2.84375 -5.671875 C 2.59375 -5.671875 2.425781 -5.617188 2.34375 -5.515625 C 2.257812 -5.410156 2.207031 -5.207031 2.1875 -4.90625 L 2.15625 -4.296875 C 1.800781 -4.210938 1.5 -4.222656 1.25 -4.328125 C 1.007812 -4.429688 0.890625 -4.597656 0.890625 -4.828125 C 0.890625 -4.992188 0.960938 -5.160156 1.109375 -5.328125 C 1.253906 -5.492188 1.441406 -5.648438 1.671875 -5.796875 C 1.910156 -5.953125 2.164062 -6.082031 2.4375 -6.1875 C 2.707031 -6.300781 2.972656 -6.378906 3.234375 -6.421875 C 3.953125 -6.421875 4.53125 -6.226562 4.96875 -5.84375 C 5.40625 -5.46875 5.628906 -4.96875 5.640625 -4.34375 L 5.609375 -1.890625 C 5.609375 -1.710938 5.613281 -1.53125 5.625 -1.34375 C 5.644531 -1.164062 5.671875 -1.035156 5.703125 -0.953125 L 6.640625 -0.78125 L 6.640625 -0.328125 L 5.921875 -0.0625 C 5.785156 0 5.65625 0.046875 5.53125 0.078125 C 5.414062 0.109375 5.320312 0.125 5.25 0.125 C 4.945312 0.125 4.75 -0.046875 4.65625 -0.390625 L 4.5 -0.96875 L 4.71875 -0.96875 C 4.394531 -0.601562 4.082031 -0.328125 3.78125 -0.140625 C 3.488281 0.0351562 3.1875 0.125 2.875 0.125 Z M 3.265625 -0.75 C 3.492188 -0.75 3.707031 -0.800781 3.90625 -0.90625 C 4.101562 -1.007812 4.289062 -1.164062 4.46875 -1.375 L 4.46875 -2.921875 L 2.828125 -2.46875 C 2.585938 -2.414062 2.414062 -2.320312 2.3125 -2.1875 C 2.21875 -2.0625 2.171875 -1.90625 2.171875 -1.71875 C 2.171875 -1.46875 2.28125 -1.242188 2.5 -1.046875 C 2.71875 -0.847656 2.972656 -0.75 3.265625 -0.75 Z M 3.265625 -0.75 "/></g></g></g><g fill="#ffffff" fill-opacity="1"><g transform="translate(128.592886, 301.620098)"><g><path d="M 5.046875 -0.90625 C 4.867188 -0.582031 4.617188 -0.328125 4.296875 -0.140625 C 3.972656 0.0351562 3.632812 0.125 3.28125 0.125 C 2.695312 0.125 2.210938 -0.0546875 1.828125 -0.421875 C 1.441406 -0.785156 1.25 -1.328125 1.25 -2.046875 L 1.296875 -5.546875 L 0.265625 -5.546875 L 0.265625 -5.859375 L 2.15625 -7.578125 L 2.4375 -7.578125 L 2.40625 -5.890625 L 2.390625 -2.28125 C 2.390625 -1.78125 2.5 -1.40625 2.71875 -1.15625 C 2.9375 -0.914062 3.242188 -0.796875 3.640625 -0.796875 C 3.867188 -0.796875 4.078125 -0.835938 4.265625 -0.921875 C 4.460938 -1.015625 4.640625 -1.132812 4.796875 -1.28125 Z M 1.875 -5.546875 L 1.875 -6.28125 L 4.609375 -6.28125 L 4.609375 -5.546875 Z M 1.875 -5.546875 "/></g></g></g><g fill="#ffffff" fill-opacity="1"><g transform="translate(136.978706, 301.620098)"><g><path d="M 5.046875 -0.90625 C 4.867188 -0.582031 4.617188 -0.328125 4.296875 -0.140625 C 3.972656 0.0351562 3.632812 0.125 3.28125 0.125 C 2.695312 0.125 2.210938 -0.0546875 1.828125 -0.421875 C 1.441406 -0.785156 1.25 -1.328125 1.25 -2.046875 L 1.296875 -5.546875 L 0.265625 -5.546875 L 0.265625 -5.859375 L 2.15625 -7.578125 L 2.4375 -7.578125 L 2.40625 -5.890625 L 2.390625 -2.28125 C 2.390625 -1.78125 2.5 -1.40625 2.71875 -1.15625 C 2.9375 -0.914062 3.242188 -0.796875 3.640625 -0.796875 C 3.867188 -0.796875 4.078125 -0.835938 4.265625 -0.921875 C 4.460938 -1.015625 4.640625 -1.132812 4.796875 -1.28125 Z M 1.875 -5.546875 L 1.875 -6.28125 L 4.609375 -6.28125 L 4.609375 -5.546875 Z M 1.875 -5.546875 "/></g></g></g><g fill="#ffffff" fill-opacity="1"><g transform="translate(145.364526, 301.620098)"><g><path d="M 3.765625 0.125 C 3.128906 0.125 2.570312 -0.0078125 2.09375 -0.28125 C 1.625 -0.5625 1.253906 -0.945312 0.984375 -1.4375 C 0.722656 -1.9375 0.59375 -2.503906 0.59375 -3.140625 C 0.59375 -3.796875 0.738281 -4.367188 1.03125 -4.859375 C 1.320312 -5.347656 1.710938 -5.726562 2.203125 -6 C 2.691406 -6.28125 3.234375 -6.421875 3.828125 -6.421875 C 4.429688 -6.421875 4.957031 -6.285156 5.40625 -6.015625 C 5.851562 -5.742188 6.203125 -5.363281 6.453125 -4.875 C 6.710938 -4.394531 6.84375 -3.832031 6.84375 -3.1875 C 6.84375 -2.570312 6.703125 -2.015625 6.421875 -1.515625 C 6.148438 -1.015625 5.78125 -0.613281 5.3125 -0.3125 C 4.851562 -0.0195312 4.335938 0.125 3.765625 0.125 Z M 3.90625 -0.578125 C 4.238281 -0.578125 4.523438 -0.675781 4.765625 -0.875 C 5.015625 -1.070312 5.207031 -1.347656 5.34375 -1.703125 C 5.476562 -2.054688 5.546875 -2.46875 5.546875 -2.9375 C 5.546875 -3.769531 5.375 -4.445312 5.03125 -4.96875 C 4.6875 -5.488281 4.226562 -5.75 3.65625 -5.75 C 3.132812 -5.75 2.710938 -5.53125 2.390625 -5.09375 C 2.078125 -4.664062 1.921875 -4.085938 1.921875 -3.359375 C 1.921875 -2.804688 2.003906 -2.320312 2.171875 -1.90625 C 2.347656 -1.488281 2.585938 -1.160156 2.890625 -0.921875 C 3.191406 -0.691406 3.53125 -0.578125 3.90625 -0.578125 Z M 3.90625 -0.578125 "/></g></g></g><g fill="#ffffff" fill-opacity="1"><g transform="translate(156.22593, 301.620098)"><g><path d="M 0.484375 0 L 0.4375 -0.53125 L 1.34375 -0.75 C 1.351562 -0.800781 1.363281 -0.882812 1.375 -1 C 1.382812 -1.125 1.390625 -1.296875 1.390625 -1.515625 C 1.398438 -1.734375 1.40625 -2 1.40625 -2.3125 L 1.421875 -3.453125 C 1.421875 -3.773438 1.40625 -4.09375 1.375 -4.40625 C 1.351562 -4.726562 1.328125 -4.976562 1.296875 -5.15625 L 0.359375 -5.359375 L 0.359375 -5.84375 L 2.328125 -6.390625 L 2.53125 -6.1875 L 2.46875 -4.953125 L 2.515625 -4.9375 C 2.804688 -5.5 3.101562 -5.878906 3.40625 -6.078125 C 3.707031 -6.285156 3.992188 -6.390625 4.265625 -6.390625 C 4.484375 -6.390625 4.664062 -6.328125 4.8125 -6.203125 C 4.96875 -6.085938 5.046875 -5.925781 5.046875 -5.71875 C 5.046875 -5.488281 4.96875 -5.3125 4.8125 -5.1875 C 4.65625 -5.0625 4.453125 -5 4.203125 -5 C 4.023438 -5 3.851562 -5.035156 3.6875 -5.109375 C 3.53125 -5.191406 3.378906 -5.300781 3.234375 -5.4375 L 3.5 -5.34375 C 3.320312 -5.226562 3.148438 -5.0625 2.984375 -4.84375 C 2.816406 -4.632812 2.660156 -4.378906 2.515625 -4.078125 L 2.53125 -2.703125 C 2.539062 -2.460938 2.550781 -2.210938 2.5625 -1.953125 C 2.570312 -1.691406 2.582031 -1.453125 2.59375 -1.234375 C 2.601562 -1.015625 2.613281 -0.851562 2.625 -0.75 L 3.890625 -0.5625 L 3.875 0 Z M 0.484375 0 "/></g></g></g><g fill="#ffffff" fill-opacity="1"><g transform="translate(164.977959, 301.620098)"><g><path d="M 0.453125 0 L 0.421875 -0.53125 L 1.328125 -0.75 C 1.335938 -0.8125 1.34375 -0.898438 1.34375 -1.015625 C 1.351562 -1.140625 1.363281 -1.300781 1.375 -1.5 C 1.382812 -1.707031 1.390625 -1.976562 1.390625 -2.3125 L 1.40625 -3.4375 C 1.40625 -3.757812 1.390625 -4.082031 1.359375 -4.40625 C 1.335938 -4.726562 1.316406 -4.976562 1.296875 -5.15625 L 0.359375 -5.359375 L 0.359375 -5.84375 L 2.3125 -6.390625 L 2.5625 -6.15625 L 2.484375 -5.375 L 2.53125 -5.359375 C 2.875 -5.734375 3.210938 -6.003906 3.546875 -6.171875 C 3.878906 -6.335938 4.238281 -6.421875 4.625 -6.421875 C 4.988281 -6.421875 5.328125 -6.328125 5.640625 -6.140625 C 5.960938 -5.960938 6.222656 -5.6875 6.421875 -5.3125 C 6.617188 -4.9375 6.71875 -4.460938 6.71875 -3.890625 L 6.71875 -2.265625 C 6.71875 -1.921875 6.722656 -1.601562 6.734375 -1.3125 C 6.753906 -1.03125 6.78125 -0.84375 6.8125 -0.75 L 7.71875 -0.53125 L 7.671875 0 L 4.734375 0 L 4.703125 -0.53125 L 5.546875 -0.75 C 5.554688 -0.820312 5.566406 -0.914062 5.578125 -1.03125 C 5.585938 -1.15625 5.59375 -1.304688 5.59375 -1.484375 C 5.601562 -1.671875 5.609375 -1.898438 5.609375 -2.171875 L 5.609375 -3.75 C 5.609375 -4.1875 5.53125 -4.535156 5.375 -4.796875 C 5.226562 -5.054688 5.039062 -5.238281 4.8125 -5.34375 C 4.59375 -5.457031 4.363281 -5.515625 4.125 -5.515625 C 3.800781 -5.515625 3.503906 -5.4375 3.234375 -5.28125 C 2.960938 -5.125 2.722656 -4.898438 2.515625 -4.609375 L 2.515625 -2.421875 C 2.515625 -1.960938 2.519531 -1.59375 2.53125 -1.3125 C 2.550781 -1.039062 2.570312 -0.851562 2.59375 -0.75 L 3.5 -0.53125 L 3.453125 0 Z M 0.453125 0 "/></g></g></g><g fill="#ffffff" fill-opacity="1"><g transform="translate(176.454597, 301.620098)"><g><path d="M 3.640625 0.125 C 3.066406 0.125 2.550781 0 2.09375 -0.25 C 1.632812 -0.507812 1.269531 -0.875 1 -1.34375 C 0.738281 -1.820312 0.609375 -2.382812 0.609375 -3.03125 C 0.609375 -3.726562 0.75 -4.328125 1.03125 -4.828125 C 1.320312 -5.335938 1.695312 -5.734375 2.15625 -6.015625 C 2.613281 -6.296875 3.109375 -6.429688 3.640625 -6.421875 C 4.398438 -6.410156 4.992188 -6.15625 5.421875 -5.65625 C 5.847656 -5.164062 6.0625 -4.460938 6.0625 -3.546875 L 6.0625 -3.28125 L 1.5625 -3.28125 L 1.5625 -3.921875 L 5.09375 -3.921875 L 4.9375 -3.734375 L 4.9375 -4.046875 C 4.9375 -4.597656 4.8125 -5.023438 4.5625 -5.328125 C 4.3125 -5.640625 3.960938 -5.796875 3.515625 -5.796875 C 3.242188 -5.796875 2.976562 -5.710938 2.71875 -5.546875 C 2.46875 -5.390625 2.265625 -5.148438 2.109375 -4.828125 C 1.953125 -4.503906 1.875 -4.09375 1.875 -3.59375 L 1.875 -3.40625 C 1.875 -2.613281 2.070312 -1.988281 2.46875 -1.53125 C 2.863281 -1.082031 3.375 -0.859375 4 -0.859375 C 4.351562 -0.859375 4.660156 -0.925781 4.921875 -1.0625 C 5.191406 -1.195312 5.457031 -1.421875 5.71875 -1.734375 L 6.078125 -1.390625 C 5.804688 -0.878906 5.457031 -0.5 5.03125 -0.25 C 4.613281 0 4.148438 0.125 3.640625 0.125 Z M 3.640625 0.125 "/></g></g></g><g fill="#ffffff" fill-opacity="1"><g transform="translate(186.466392, 301.620098)"><g><path d="M 3.203125 0.0625 L 0.625 -5.546875 L -0.0625 -5.765625 L -0.015625 -6.296875 L 2.828125 -6.296875 L 2.859375 -5.765625 L 1.953125 -5.546875 L 3.9375 -1.09375 Z M 6.953125 -6.296875 L 7 -5.765625 L 6.3125 -5.546875 L 3.828125 -0.328125 L 2.65625 2.109375 C 2.4375 2.554688 2.207031 2.875 1.96875 3.0625 C 1.726562 3.25 1.453125 3.34375 1.140625 3.34375 C 0.910156 3.34375 0.71875 3.28125 0.5625 3.15625 C 0.40625 3.039062 0.328125 2.890625 0.328125 2.703125 C 0.328125 2.554688 0.382812 2.421875 0.5 2.296875 C 0.613281 2.171875 0.796875 2.070312 1.046875 2 L 2.40625 1.578125 L 1.734375 2.3125 L 3.359375 -0.828125 L 3.515625 -1.078125 L 5.421875 -5.546875 L 4.515625 -5.765625 L 4.546875 -6.296875 Z M 6.953125 -6.296875 "/></g></g></g><g fill="#ffffff" fill-opacity="1"><g transform="translate(196.800452, 301.620098)"><g/></g></g><g fill="#ffffff" fill-opacity="1"><g transform="translate(203.032949, 301.620098)"><g><path d="M 2.875 0.125 C 2.476562 0.125 2.128906 0.046875 1.828125 -0.109375 C 1.523438 -0.273438 1.285156 -0.476562 1.109375 -0.71875 C 0.941406 -0.957031 0.859375 -1.210938 0.859375 -1.484375 C 0.859375 -1.804688 0.960938 -2.070312 1.171875 -2.28125 C 1.390625 -2.5 1.742188 -2.691406 2.234375 -2.859375 L 4.46875 -3.609375 L 4.46875 -4.34375 C 4.46875 -4.59375 4.394531 -4.816406 4.25 -5.015625 C 4.101562 -5.210938 3.90625 -5.367188 3.65625 -5.484375 C 3.414062 -5.609375 3.144531 -5.671875 2.84375 -5.671875 C 2.59375 -5.671875 2.425781 -5.617188 2.34375 -5.515625 C 2.257812 -5.410156 2.207031 -5.207031 2.1875 -4.90625 L 2.15625 -4.296875 C 1.800781 -4.210938 1.5 -4.222656 1.25 -4.328125 C 1.007812 -4.429688 0.890625 -4.597656 0.890625 -4.828125 C 0.890625 -4.992188 0.960938 -5.160156 1.109375 -5.328125 C 1.253906 -5.492188 1.441406 -5.648438 1.671875 -5.796875 C 1.910156 -5.953125 2.164062 -6.082031 2.4375 -6.1875 C 2.707031 -6.300781 2.972656 -6.378906 3.234375 -6.421875 C 3.953125 -6.421875 4.53125 -6.226562 4.96875 -5.84375 C 5.40625 -5.46875 5.628906 -4.96875 5.640625 -4.34375 L 5.609375 -1.890625 C 5.609375 -1.710938 5.613281 -1.53125 5.625 -1.34375 C 5.644531 -1.164062 5.671875 -1.035156 5.703125 -0.953125 L 6.640625 -0.78125 L 6.640625 -0.328125 L 5.921875 -0.0625 C 5.785156 0 5.65625 0.046875 5.53125 0.078125 C 5.414062 0.109375 5.320312 0.125 5.25 0.125 C 4.945312 0.125 4.75 -0.046875 4.65625 -0.390625 L 4.5 -0.96875 L 4.71875 -0.96875 C 4.394531 -0.601562 4.082031 -0.328125 3.78125 -0.140625 C 3.488281 0.0351562 3.1875 0.125 2.875 0.125 Z M 3.265625 -0.75 C 3.492188 -0.75 3.707031 -0.800781 3.90625 -0.90625 C 4.101562 -1.007812 4.289062 -1.164062 4.46875 -1.375 L 4.46875 -2.921875 L 2.828125 -2.46875 C 2.585938 -2.414062 2.414062 -2.320312 2.3125 -2.1875 C 2.21875 -2.0625 2.171875 -1.90625 2.171875 -1.71875 C 2.171875 -1.46875 2.28125 -1.242188 2.5 -1.046875 C 2.71875 -0.847656 2.972656 -0.75 3.265625 -0.75 Z M 3.265625 -0.75 "/></g></g></g><g fill="#ffffff" fill-opacity="1"><g transform="translate(213.396306, 301.620098)"><g><path d="M 5.046875 -0.90625 C 4.867188 -0.582031 4.617188 -0.328125 4.296875 -0.140625 C 3.972656 0.0351562 3.632812 0.125 3.28125 0.125 C 2.695312 0.125 2.210938 -0.0546875 1.828125 -0.421875 C 1.441406 -0.785156 1.25 -1.328125 1.25 -2.046875 L 1.296875 -5.546875 L 0.265625 -5.546875 L 0.265625 -5.859375 L 2.15625 -7.578125 L 2.4375 -7.578125 L 2.40625 -5.890625 L 2.390625 -2.28125 C 2.390625 -1.78125 2.5 -1.40625 2.71875 -1.15625 C 2.9375 -0.914062 3.242188 -0.796875 3.640625 -0.796875 C 3.867188 -0.796875 4.078125 -0.835938 4.265625 -0.921875 C 4.460938 -1.015625 4.640625 -1.132812 4.796875 -1.28125 Z M 1.875 -5.546875 L 1.875 -6.28125 L 4.609375 -6.28125 L 4.609375 -5.546875 Z M 1.875 -5.546875 "/></g></g></g><g fill="#ffffff" fill-opacity="1"><g transform="translate(221.78213, 301.620098)"><g/></g></g><g fill="#ffffff" fill-opacity="1"><g transform="translate(228.014628, 301.620098)"><g><path d="M 0.40625 0 L 0.375 -0.546875 L 1.328125 -0.75 C 1.347656 -0.851562 1.359375 -1.015625 1.359375 -1.234375 C 1.367188 -1.453125 1.378906 -1.75 1.390625 -2.125 C 1.398438 -2.5 1.40625 -2.953125 1.40625 -3.484375 L 1.40625 -5.3125 C 1.40625 -5.675781 1.398438 -6.050781 1.390625 -6.4375 C 1.390625 -6.832031 1.382812 -7.207031 1.375 -7.5625 C 1.375 -7.914062 1.367188 -8.210938 1.359375 -8.453125 C 1.347656 -8.703125 1.34375 -8.867188 1.34375 -8.953125 L 0.265625 -9.09375 L 0.234375 -9.5625 L 2.328125 -10.171875 L 2.609375 -9.96875 C 2.597656 -9.539062 2.585938 -9.125 2.578125 -8.71875 C 2.566406 -8.3125 2.554688 -7.859375 2.546875 -7.359375 C 2.546875 -6.867188 2.546875 -6.269531 2.546875 -5.5625 L 2.53125 -3.203125 C 2.53125 -2.628906 2.535156 -2.109375 2.546875 -1.640625 C 2.566406 -1.179688 2.585938 -0.882812 2.609375 -0.75 L 3.5625 -0.546875 L 3.53125 0 Z M 0.40625 0 "/></g></g></g><g fill="#ffffff" fill-opacity="1"><g transform="translate(235.375055, 301.620098)"><g><path d="M 2.875 0.125 C 2.476562 0.125 2.128906 0.046875 1.828125 -0.109375 C 1.523438 -0.273438 1.285156 -0.476562 1.109375 -0.71875 C 0.941406 -0.957031 0.859375 -1.210938 0.859375 -1.484375 C 0.859375 -1.804688 0.960938 -2.070312 1.171875 -2.28125 C 1.390625 -2.5 1.742188 -2.691406 2.234375 -2.859375 L 4.46875 -3.609375 L 4.46875 -4.34375 C 4.46875 -4.59375 4.394531 -4.816406 4.25 -5.015625 C 4.101562 -5.210938 3.90625 -5.367188 3.65625 -5.484375 C 3.414062 -5.609375 3.144531 -5.671875 2.84375 -5.671875 C 2.59375 -5.671875 2.425781 -5.617188 2.34375 -5.515625 C 2.257812 -5.410156 2.207031 -5.207031 2.1875 -4.90625 L 2.15625 -4.296875 C 1.800781 -4.210938 1.5 -4.222656 1.25 -4.328125 C 1.007812 -4.429688 0.890625 -4.597656 0.890625 -4.828125 C 0.890625 -4.992188 0.960938 -5.160156 1.109375 -5.328125 C 1.253906 -5.492188 1.441406 -5.648438 1.671875 -5.796875 C 1.910156 -5.953125 2.164062 -6.082031 2.4375 -6.1875 C 2.707031 -6.300781 2.972656 -6.378906 3.234375 -6.421875 C 3.953125 -6.421875 4.53125 -6.226562 4.96875 -5.84375 C 5.40625 -5.46875 5.628906 -4.96875 5.640625 -4.34375 L 5.609375 -1.890625 C 5.609375 -1.710938 5.613281 -1.53125 5.625 -1.34375 C 5.644531 -1.164062 5.671875 -1.035156 5.703125 -0.953125 L 6.640625 -0.78125 L 6.640625 -0.328125 L 5.921875 -0.0625 C 5.785156 0 5.65625 0.046875 5.53125 0.078125 C 5.414062 0.109375 5.320312 0.125 5.25 0.125 C 4.945312 0.125 4.75 -0.046875 4.65625 -0.390625 L 4.5 -0.96875 L 4.71875 -0.96875 C 4.394531 -0.601562 4.082031 -0.328125 3.78125 -0.140625 C 3.488281 0.0351562 3.1875 0.125 2.875 0.125 Z M 3.265625 -0.75 C 3.492188 -0.75 3.707031 -0.800781 3.90625 -0.90625 C 4.101562 -1.007812 4.289062 -1.164062 4.46875 -1.375 L 4.46875 -2.921875 L 2.828125 -2.46875 C 2.585938 -2.414062 2.414062 -2.320312 2.3125 -2.1875 C 2.21875 -2.0625 2.171875 -1.90625 2.171875 -1.71875 C 2.171875 -1.46875 2.28125 -1.242188 2.5 -1.046875 C 2.71875 -0.847656 2.972656 -0.75 3.265625 -0.75 Z M 3.265625 -0.75 "/></g></g></g><g fill="#ffffff" fill-opacity="1"><g transform="translate(245.738412, 301.620098)"><g><path d="M 7.390625 0.0625 L 5.140625 -5.546875 L 4.390625 -5.765625 L 4.421875 -6.296875 L 7.125 -6.296875 L 7.15625 -5.765625 L 6.390625 -5.546875 L 8.09375 -1.09375 L 7.71875 -1.078125 L 9.46875 -5.546875 L 8.703125 -5.765625 L 8.734375 -6.296875 L 11 -6.296875 L 11.03125 -5.765625 L 10.34375 -5.546875 L 7.84375 0.0625 Z M 3.125 0.0625 L 0.75 -5.546875 L 0.0625 -5.765625 L 0.09375 -6.296875 L 2.796875 -6.296875 L 2.828125 -5.765625 L 2.078125 -5.546875 L 3.890625 -1.09375 L 3.453125 -1.078125 L 5.390625 -5.6875 L 5.78125 -4.78125 L 3.578125 0.0625 Z M 3.125 0.0625 "/></g></g></g></svg>