<?xml version="1.0" encoding="utf-8"?>
<svg xmlns="http://www.w3.org/2000/svg" width="500" zoomAndPan="magnify" viewBox="0 0 174.088 184.518" height="500" preserveAspectRatio="xMidYMid meet" version="1.0">
  <defs>
    <g/>
    <clipPath id="469d978a65">
      <path d="M 101.875 181.148438 L 114.574219 181.148438 L 114.574219 193.851562 L 101.875 193.851562 Z M 101.875 181.148438 " clip-rule="nonzero"/>
    </clipPath>
    <clipPath id="296eff68bd">
      <path d="M 108.226562 181.148438 L 108.839844 181.671875 L 109.550781 181.289062 L 110.046875 181.925781 L 110.820312 181.699219 L 111.171875 182.425781 L 111.976562 182.363281 L 112.167969 183.144531 L 112.96875 183.25 L 112.992188 184.054688 L 113.753906 184.324219 L 113.609375 185.117188 L 114.296875 185.539062 L 113.988281 186.28125 L 114.574219 186.835938 L 114.117188 187.5 L 114.574219 188.164062 L 113.988281 188.71875 L 114.296875 189.460938 L 113.609375 189.882812 L 113.753906 190.675781 L 112.992188 190.945312 L 112.96875 191.75 L 112.167969 191.855469 L 111.976562 192.636719 L 111.171875 192.574219 L 110.820312 193.300781 L 110.046875 193.074219 L 109.550781 193.710938 L 108.839844 193.328125 L 108.226562 193.851562 L 107.609375 193.328125 L 106.898438 193.710938 L 106.402344 193.074219 L 105.628906 193.300781 L 105.277344 192.574219 L 104.472656 192.636719 L 104.28125 191.855469 L 103.480469 191.75 L 103.457031 190.945312 L 102.695312 190.675781 L 102.839844 189.882812 L 102.152344 189.460938 L 102.460938 188.71875 L 101.875 188.164062 L 102.332031 187.5 L 101.875 186.835938 L 102.460938 186.28125 L 102.152344 185.539062 L 102.839844 185.117188 L 102.695312 184.324219 L 103.457031 184.054688 L 103.480469 183.25 L 104.28125 183.144531 L 104.472656 182.363281 L 105.277344 182.425781 L 105.628906 181.699219 L 106.402344 181.925781 L 106.898438 181.289062 L 107.609375 181.671875 Z M 108.226562 181.148438 " clip-rule="nonzero"/>
    </clipPath>
  </defs>
  <ellipse style="stroke-width: 0.953px; fill: rgb(255, 255, 255);" cx="88.768" cy="92.375" rx="46.76" ry="46.76"/>
  <path fill="#ffffff" d="M 78.522 57.379 C 76.546 57.379 74.655 58.23 73.346 59.715 C 70.596 62.824 71.46 63.508 74.839 90.652 C 89.507 90.652 93.413 90.652 100.014 90.652 C 104.624 53.551 107.889 57.379 78.522 57.379" fill-opacity="1" fill-rule="nonzero"/>
  <path fill="#ffffff" d="M 92.53 103.637 L 92.53 95.281 L 82.323 95.281 L 82.323 103.637 L 92.53 103.637" fill-opacity="1" fill-rule="nonzero"/>
  <path fill="#ffffff" d="M 67.714 126.019 L 64.55 129.183 L 64.55 132.523 L 110.3 132.523 L 110.3 129.183 L 107.136 126.019 L 67.714 126.019" fill-opacity="1" fill-rule="nonzero"/>
  <path fill="#ffffff" d="M 105.784 114.547 L 92.979 108.262 L 81.87 108.262 L 69.065 114.547 L 69.065 121.394 L 105.784 121.394 L 105.784 114.547" fill-opacity="1" fill-rule="nonzero"/>
  <g>
    <g fill="#26589b" fill-opacity="1" transform="matrix(1, 0, 0, 1, -99.938869, -90.394862)">
      <g transform="translate(118.982884, 157.919928)">
        <g>
          <path d="M -8.46875 -14.96875 L -10.28125 -11.375 L -0.015625 -6.203125 L 1.796875 -9.796875 C 2.328125 -10.847656 2.53125 -11.8125 2.40625 -12.6875 C 2.28125 -13.5625 1.90625 -14.347656 1.28125 -15.046875 C 0.65625 -15.742188 -0.132812 -16.332031 -1.09375 -16.8125 C -2.039062 -17.289062 -2.976562 -17.570312 -3.90625 -17.65625 C -4.832031 -17.738281 -5.691406 -17.570312 -6.484375 -17.15625 C -7.273438 -16.75 -7.9375 -16.019531 -8.46875 -14.96875 Z M -14.859375 -8.359375 L -10.703125 -16.59375 C -9.878906 -18.226562 -8.859375 -19.398438 -7.640625 -20.109375 C -6.429688 -20.828125 -5.117188 -21.15625 -3.703125 -21.09375 C -2.296875 -21.039062 -0.894531 -20.660156 0.5 -19.953125 C 1.894531 -19.242188 3.039062 -18.335938 3.9375 -17.234375 C 4.832031 -16.140625 5.351562 -14.890625 5.5 -13.484375 C 5.65625 -12.078125 5.320312 -10.554688 4.5 -8.921875 L 0.34375 -0.6875 L -2.15625 -1.953125 L -1.609375 -3.03125 L -11.875 -8.203125 L -12.421875 -7.125 Z M -14.859375 -8.359375 "/>
        </g>
      </g>
    </g>
    <g fill="#26589b" fill-opacity="1" transform="matrix(1, 0, 0, 1, -99.938869, -90.394862)">
      <g transform="translate(129.616012, 137.943028)">
        <g>
          <path d="M -3.375 -17.34375 C -4.238281 -16.46875 -4.742188 -15.570312 -4.890625 -14.65625 C -5.035156 -13.75 -4.90625 -12.84375 -4.5 -11.9375 C -4.09375 -11.039062 -3.484375 -10.191406 -2.671875 -9.390625 C -1.890625 -8.597656 -1.046875 -8 -0.140625 -7.59375 C 0.765625 -7.1875 1.679688 -7.046875 2.609375 -7.171875 C 3.535156 -7.304688 4.429688 -7.8125 5.296875 -8.6875 C 6.160156 -9.550781 6.660156 -10.445312 6.796875 -11.375 C 6.929688 -12.300781 6.785156 -13.210938 6.359375 -14.109375 C 5.941406 -15.003906 5.34375 -15.847656 4.5625 -16.640625 C 3.75 -17.441406 2.894531 -18.046875 2 -18.453125 C 1.113281 -18.867188 0.210938 -19.003906 -0.703125 -18.859375 C -1.617188 -18.710938 -2.507812 -18.207031 -3.375 -17.34375 Z M -5.359375 -19.3125 C -3.960938 -20.707031 -2.53125 -21.570312 -1.0625 -21.90625 C 0.394531 -22.25 1.820312 -22.164062 3.21875 -21.65625 C 4.625 -21.144531 5.910156 -20.3125 7.078125 -19.15625 C 8.234375 -17.988281 9.0625 -16.710938 9.5625 -15.328125 C 10.070312 -13.941406 10.160156 -12.515625 9.828125 -11.046875 C 9.492188 -9.578125 8.628906 -8.144531 7.234375 -6.75 C 5.859375 -5.375 4.429688 -4.515625 2.953125 -4.171875 C 1.484375 -3.828125 0.0507812 -3.898438 -1.34375 -4.390625 C -2.738281 -4.890625 -4.015625 -5.722656 -5.171875 -6.890625 C -6.335938 -8.046875 -7.175781 -9.320312 -7.6875 -10.71875 C -8.195312 -12.125 -8.28125 -13.5625 -7.9375 -15.03125 C -7.59375 -16.507812 -6.734375 -17.9375 -5.359375 -19.3125 Z M -5.359375 -19.3125 "/>
        </g>
      </g>
    </g>
    <g fill="#26589b" fill-opacity="1" transform="matrix(1, 0, 0, 1, -99.938869, -90.394862)">
      <g transform="translate(146.426308, 122.04434)">
        <g>
          <path d="M 14.0625 -10.515625 C 14.0625 -10.515625 14.015625 -10.300781 13.921875 -9.875 C 13.828125 -9.457031 13.613281 -8.925781 13.28125 -8.28125 C 12.945312 -7.632812 12.4375 -6.945312 11.75 -6.21875 C 11.070312 -5.5 10.140625 -4.835938 8.953125 -4.234375 C 7.222656 -3.335938 5.609375 -2.945312 4.109375 -3.0625 C 2.609375 -3.1875 1.269531 -3.703125 0.09375 -4.609375 C -1.082031 -5.515625 -2.046875 -6.695312 -2.796875 -8.15625 C -3.554688 -9.625 -3.960938 -11.097656 -4.015625 -12.578125 C -4.078125 -14.066406 -3.722656 -15.457031 -2.953125 -16.75 C -2.179688 -18.050781 -0.929688 -19.148438 0.796875 -20.046875 C 1.910156 -20.617188 2.929688 -20.957031 3.859375 -21.0625 C 4.785156 -21.175781 5.59375 -21.164062 6.28125 -21.03125 C 6.976562 -20.90625 7.515625 -20.753906 7.890625 -20.578125 C 8.273438 -20.398438 8.46875 -20.3125 8.46875 -20.3125 L 9.734375 -17.875 L 7.40625 -16.671875 L 6.046875 -18.46875 C 5.546875 -18.507812 4.984375 -18.484375 4.359375 -18.390625 C 3.734375 -18.296875 3.0625 -18.0625 2.34375 -17.6875 C 1.257812 -17.132812 0.484375 -16.425781 0.015625 -15.5625 C -0.441406 -14.707031 -0.628906 -13.78125 -0.546875 -12.78125 C -0.472656 -11.78125 -0.175781 -10.773438 0.34375 -9.765625 C 0.851562 -8.773438 1.503906 -7.960938 2.296875 -7.328125 C 3.097656 -6.691406 4.003906 -6.320312 5.015625 -6.21875 C 6.023438 -6.113281 7.097656 -6.351562 8.234375 -6.9375 C 9.035156 -7.351562 9.679688 -7.84375 10.171875 -8.40625 C 10.660156 -8.96875 11.03125 -9.507812 11.28125 -10.03125 C 11.53125 -10.5625 11.695312 -11.003906 11.78125 -11.359375 C 11.875 -11.722656 11.921875 -11.90625 11.921875 -11.90625 Z M 14.0625 -10.515625 "/>
        </g>
      </g>
    </g>
    <g fill="#26589b" fill-opacity="1" transform="matrix(1, 0, 0, 1, -99.938869, -90.394862)">
      <g transform="translate(166.055589, 112.942892)">
        <g>
          <path d="M 2.125 -17.96875 L 5.296875 -18.703125 L 4.359375 -1 L 1.21875 -0.28125 Z M 2.125 -17.96875 "/>
        </g>
      </g>
    </g>
    <g fill="#26589b" fill-opacity="1" transform="matrix(1, 0, 0, 1, -99.938869, -90.394862)">
      <g transform="translate(179.955432, 109.731075)">
        <g>
          <path d="M 17.390625 -2.484375 C 17.390625 -2.484375 17.25 -2.320312 16.96875 -2 C 16.6875 -1.6875 16.242188 -1.320312 15.640625 -0.90625 C 15.035156 -0.5 14.257812 -0.144531 13.3125 0.15625 C 12.363281 0.46875 11.222656 0.609375 9.890625 0.578125 C 7.941406 0.523438 6.335938 0.0859375 5.078125 -0.734375 C 3.816406 -1.554688 2.882812 -2.644531 2.28125 -4 C 1.6875 -5.351562 1.410156 -6.851562 1.453125 -8.5 C 1.484375 -10.144531 1.828125 -11.632812 2.484375 -12.96875 C 3.148438 -14.300781 4.132812 -15.351562 5.4375 -16.125 C 6.738281 -16.894531 8.363281 -17.253906 10.3125 -17.203125 C 11.5625 -17.179688 12.617188 -16.992188 13.484375 -16.640625 C 14.347656 -16.296875 15.050781 -15.898438 15.59375 -15.453125 C 16.144531 -15.003906 16.546875 -14.613281 16.796875 -14.28125 C 17.046875 -13.945312 17.171875 -13.78125 17.171875 -13.78125 L 17.109375 -11.03125 L 14.484375 -11.09375 L 14.15625 -13.328125 C 13.738281 -13.585938 13.234375 -13.828125 12.640625 -14.046875 C 12.046875 -14.265625 11.347656 -14.382812 10.546875 -14.40625 C 9.328125 -14.4375 8.304688 -14.1875 7.484375 -13.65625 C 6.660156 -13.125 6.039062 -12.398438 5.625 -11.484375 C 5.21875 -10.578125 5.003906 -9.554688 4.984375 -8.421875 C 4.953125 -7.304688 5.132812 -6.273438 5.53125 -5.328125 C 5.925781 -4.390625 6.539062 -3.628906 7.375 -3.046875 C 8.21875 -2.472656 9.28125 -2.171875 10.5625 -2.140625 C 11.46875 -2.117188 12.265625 -2.238281 12.953125 -2.5 C 13.648438 -2.757812 14.234375 -3.0625 14.703125 -3.40625 C 15.179688 -3.75 15.546875 -4.054688 15.796875 -4.328125 C 16.046875 -4.597656 16.171875 -4.734375 16.171875 -4.734375 Z M 17.390625 -2.484375 "/>
        </g>
      </g>
    </g>
    <g fill="#26589b" fill-opacity="1" transform="matrix(1, 0, 0, 1, -99.938869, -90.394862)">
      <g transform="translate(201.418811, 110.694738)">
        <g>
          <path d="M 16.921875 -12.28125 L 22.5625 -10.328125 L 21.671875 -7.71875 L 20.546875 -8.140625 L 16.84375 2.75 L 17.984375 3.140625 L 17.09375 5.796875 L 11.453125 3.875 L 12.34375 1.21875 L 13.5 1.609375 L 14.90625 -2.515625 L 7.53125 -5 L 6.125 -0.875 L 7.25 -0.5 L 6.359375 2.15625 L 0.71875 0.25 L 1.609375 -2.40625 L 2.75 -2.03125 L 6.453125 -12.921875 L 5.3125 -13.296875 L 6.1875 -15.90625 L 11.828125 -13.96875 L 10.9375 -11.359375 L 9.828125 -11.765625 L 8.40625 -7.59375 L 15.78125 -5.109375 L 17.203125 -9.28125 L 16.046875 -9.671875 Z M 16.921875 -12.28125 "/>
        </g>
      </g>
    </g>
    <g fill="#26589b" fill-opacity="1" transform="matrix(1, 0, 0, 1, -99.938869, -90.394862)">
      <g transform="translate(222.27683, 118.300204)">
        <g>
          <path d="M 16.34375 -9.09375 L 19.25 -6.9375 L 15.59375 8.046875 L 16.625 8.8125 L 14.96875 11.0625 L 9.84375 7.28125 L 11.5 5.03125 L 12.59375 5.84375 L 13.4375 2.96875 L 8.5625 -0.640625 L 6.046875 1 L 7.171875 1.828125 L 5.515625 4.078125 L 0.40625 0.296875 L 2.0625 -1.953125 L 3.0625 -1.203125 Z M 10.765625 -2.09375 L 14.1875 0.4375 L 15.921875 -5.484375 Z M 10.765625 -2.09375 "/>
        </g>
      </g>
    </g>
    <g fill="#26589b" fill-opacity="1" transform="matrix(1, 0, 0, 1, -99.938869, -90.394862)">
      <g transform="translate(239.835061, 132.668635)">
        <g>
          <path d="M 13.546875 -10.375 L 17.359375 -5.8125 L 15.234375 -4.03125 L 14.515625 -4.953125 L 5.703125 2.4375 L 6.453125 3.34375 L 4.3125 5.140625 L 0.484375 0.59375 L 2.625 -1.203125 L 3.40625 -0.28125 L 12.21875 -7.671875 L 11.4375 -8.59375 Z M 13.546875 -10.375 "/>
        </g>
      </g>
    </g>
    <g fill="#26589b" fill-opacity="1" transform="matrix(1, 0, 0, 1, -99.938869, -90.394862)">
      <g transform="translate(247.215622, 141.114881)">
        <g>
          <path d="M 11.140625 9.3125 L 18.734375 5.515625 L 18.1875 4.421875 L 20.671875 3.171875 L 23.3125 8.515625 L 20.859375 9.75 L 20.3125 8.671875 L 7.53125 15.0625 L 6.3125 12.609375 L 12.53125 -0.078125 L 4.96875 3.703125 L 5.5 4.765625 L 3 6.015625 L 0.34375 0.6875 L 2.84375 -0.5625 L 3.375 0.515625 L 13.65625 -4.625 L 13.125 -5.703125 L 15.609375 -6.953125 L 17.359375 -3.375 Z M 11.140625 9.3125 "/>
        </g>
      </g>
    </g>
    <g fill="#26589b" fill-opacity="1" transform="matrix(1, 0, 0, 1, -99.938869, -90.394862)">
      <g transform="translate(106.898736, 217.6299)">
        <g>
          <path d="M 11.953125 2.296875 L 10.90625 0.265625 L 5.125 3.25 L 6.171875 5.28125 C 6.492188 5.90625 6.878906 6.328125 7.328125 6.546875 C 7.773438 6.773438 8.257812 6.847656 8.78125 6.765625 C 9.300781 6.691406 9.828125 6.519531 10.359375 6.25 C 10.890625 5.976562 11.332031 5.65625 11.6875 5.28125 C 12.039062 4.90625 12.253906 4.46875 12.328125 3.96875 C 12.398438 3.476562 12.273438 2.921875 11.953125 2.296875 Z M 11.421875 -5.46875 L 14.9375 1.375 C 15.59375 2.632812 15.875 3.796875 15.78125 4.859375 C 15.695312 5.929688 15.332031 6.890625 14.6875 7.734375 C 14.050781 8.578125 13.21875 9.265625 12.1875 9.796875 C 11.144531 10.328125 10.09375 10.609375 9.03125 10.640625 C 7.976562 10.679688 6.988281 10.425781 6.0625 9.875 C 5.132812 9.332031 4.34375 8.429688 3.6875 7.171875 L 0.171875 0.328125 L 2.90625 -1.078125 L 3.3125 -0.28125 L 9.09375 -3.265625 L 8.6875 -4.0625 Z M 11.421875 -5.46875 "/>
        </g>
      </g>
    </g>
    <g fill="#26589b" fill-opacity="1" transform="matrix(1, 0, 0, 1, -99.938869, -90.394862)">
      <g transform="translate(115.400095, 232.99704)">
        <g>
          <path d="M 10.453125 -7.140625 L 13.859375 -2.453125 L 11.375 -0.640625 L 10.859375 -1.421875 L 5.5625 2.421875 L 6.109375 3.171875 L 3.625 4.984375 L 0.21875 0.296875 L 2.703125 -1.515625 L 3.234375 -0.78125 L 8.53125 -4.625 L 8 -5.359375 Z M 10.453125 -7.140625 "/>
        </g>
      </g>
    </g>
    <g fill="#26589b" fill-opacity="1" transform="matrix(1, 0, 0, 1, -99.938869, -90.394862)">
      <g transform="translate(120.65265, 240.384813)">
        <g>
          <path d="M 11.0625 7.875 C 11.0625 7.875 10.890625 7.890625 10.546875 7.921875 C 10.210938 7.960938 9.769531 7.941406 9.21875 7.859375 C 8.664062 7.773438 8.035156 7.570312 7.328125 7.25 C 6.628906 6.925781 5.925781 6.40625 5.21875 5.6875 C 4.113281 4.5625 3.40625 3.421875 3.09375 2.265625 C 2.789062 1.109375 2.816406 0 3.171875 -1.0625 C 3.535156 -2.125 4.148438 -3.082031 5.015625 -3.9375 C 5.878906 -4.78125 6.84375 -5.367188 7.90625 -5.703125 C 8.96875 -6.046875 10.078125 -6.054688 11.234375 -5.734375 C 12.390625 -5.410156 13.519531 -4.6875 14.625 -3.5625 C 15.332031 -2.84375 15.84375 -2.128906 16.15625 -1.421875 C 16.476562 -0.722656 16.671875 -0.0976562 16.734375 0.453125 C 16.804688 1.015625 16.820312 1.460938 16.78125 1.796875 C 16.738281 2.140625 16.71875 2.3125 16.71875 2.3125 L 14.78125 4.203125 L 12.765625 2.140625 L 13.828125 0.515625 C 13.710938 0.253906 13.5625 -0.0195312 13.375 -0.3125 C 13.195312 -0.601562 12.972656 -0.890625 12.703125 -1.171875 C 12.171875 -1.710938 11.613281 -2.046875 11.03125 -2.171875 C 10.457031 -2.304688 9.894531 -2.269531 9.34375 -2.0625 C 8.800781 -1.863281 8.296875 -1.539062 7.828125 -1.09375 C 7.367188 -0.632812 7.035156 -0.132812 6.828125 0.40625 C 6.628906 0.957031 6.582031 1.523438 6.6875 2.109375 C 6.800781 2.691406 7.125 3.25 7.65625 3.78125 C 8 4.125 8.375 4.390625 8.78125 4.578125 L 9.59375 3.78125 L 8.171875 2.34375 L 10.21875 0.328125 L 14.40625 4.578125 Z M 11.0625 7.875 "/>
        </g>
      </g>
    </g>
    <g fill="#26589b" fill-opacity="1" transform="matrix(1, 0, 0, 1, -99.938869, -90.394862)">
      <g transform="translate(132.787888, 252.042602)">
        <g>
          <path d="M 7.90625 -9.890625 L 12.53125 -6.40625 L 10.6875 -3.953125 L 9.96875 -4.546875 L 6.03125 0.6875 L 6.765625 1.25 L 4.921875 3.703125 L 0.296875 0.21875 L 2.140625 -2.234375 L 2.859375 -1.6875 L 6.796875 -6.921875 L 6.078125 -7.46875 Z M 7.90625 -9.890625 "/>
        </g>
      </g>
    </g>
    <g fill="#26589b" fill-opacity="1" transform="matrix(1, 0, 0, 1, -99.938869, -90.394862)">
      <g transform="translate(139.973172, 257.503219)">
        <g>
          <path d="M 6.453125 -10.890625 L 17.0625 -5.03125 L 14.875 -1.078125 L 12.3125 -2.484375 L 12.890625 -3.8125 L 12.015625 -4.359375 L 8.84375 1.375 L 9.640625 1.8125 L 8.15625 4.5 L 3.109375 1.71875 L 4.59375 -0.96875 L 5.375 -0.546875 L 8.546875 -6.28125 L 7.640625 -6.71875 L 6.796875 -5.546875 L 4.265625 -6.9375 Z M 6.453125 -10.890625 "/>
        </g>
      </g>
    </g>
    <g fill="#26589b" fill-opacity="1" transform="matrix(1, 0, 0, 1, -99.938869, -90.394862)">
      <g transform="translate(153.687684, 264.887694)">
        <g>
          <path d="M 9.03125 -10.359375 L 12.78125 -9.140625 L 13.640625 1.234375 L 14.53125 1.515625 L 13.578125 4.4375 L 7.734375 2.53125 L 8.6875 -0.390625 L 9.703125 -0.0625 L 9.71875 -1.234375 L 6.828125 -2.171875 L 6.171875 -1.21875 L 7.125 -0.90625 L 6.171875 2.015625 L 0.359375 0.109375 L 1.3125 -2.8125 L 2.1875 -2.515625 Z M 8.46875 -4.453125 L 9.765625 -4.03125 L 9.796875 -6.3125 Z M 8.46875 -4.453125 "/>
        </g>
      </g>
    </g>
    <g fill="#26589b" fill-opacity="1" transform="matrix(1, 0, 0, 1, -99.938869, -90.394862)">
      <g transform="translate(170.252954, 269.914497)">
        <g>
          <path d="M 2.0625 -12.5 L 7.78125 -11.71875 L 7.375 -8.65625 L 6.46875 -8.78125 L 5.59375 -2.34375 L 8.84375 -1.90625 L 9.171875 -2.859375 L 11.84375 -2.5 L 11.296875 1.53125 L 0.375 0.046875 L 0.78125 -3 L 1.65625 -2.875 L 2.53125 -9.3125 L 1.65625 -9.4375 Z M 2.0625 -12.5 "/>
        </g>
      </g>
    </g>
    <g fill="#26589b" fill-opacity="1">
      <g transform="translate(184.375877, 271.459849)">
        <g/>
      </g>
    </g>
    <g fill="#26589b" fill-opacity="1" transform="matrix(1, 0, 0, 1, -99.938869, -90.394862)">
      <g transform="translate(192.324892, 271.667247)">
        <g>
          <path d="M 8.4375 -7.71875 L 8.015625 -10.8125 L 7.125 -10.6875 L 6.71875 -13.6875 L 12.421875 -14.46875 L 12.84375 -11.421875 L 11.9375 -11.359375 L 13.25 -1.828125 L 10.203125 -1.40625 L 4.34375 -6.8125 L 4.765625 -3.765625 L 5.671875 -3.890625 L 6.09375 -0.84375 L 0.375 -0.046875 L -0.046875 -3.09375 L 0.828125 -3.21875 L -0.0625 -9.703125 L -0.9375 -9.578125 L -1.34375 -12.578125 L 2.578125 -13.125 Z M 8.4375 -7.71875 "/>
        </g>
      </g>
    </g>
    <g fill="#26589b" fill-opacity="1" transform="matrix(1, 0, 0, 1, -99.938869, -90.394862)">
      <g transform="translate(209.543407, 269.049148)">
        <g>
          <path d="M 3.953125 -11.875 C 3.234375 -11.625 2.71875 -11.273438 2.40625 -10.828125 C 2.101562 -10.378906 1.957031 -9.867188 1.96875 -9.296875 C 1.976562 -8.734375 2.085938 -8.148438 2.296875 -7.546875 C 2.515625 -6.929688 2.796875 -6.40625 3.140625 -5.96875 C 3.492188 -5.53125 3.929688 -5.234375 4.453125 -5.078125 C 4.972656 -4.921875 5.59375 -4.96875 6.3125 -5.21875 C 7.019531 -5.46875 7.523438 -5.816406 7.828125 -6.265625 C 8.140625 -6.722656 8.289062 -7.226562 8.28125 -7.78125 C 8.28125 -8.34375 8.171875 -8.929688 7.953125 -9.546875 C 7.742188 -10.148438 7.460938 -10.675781 7.109375 -11.125 C 6.753906 -11.570312 6.316406 -11.867188 5.796875 -12.015625 C 5.273438 -12.171875 4.660156 -12.125 3.953125 -11.875 Z M 2.9375 -14.75 C 4.425781 -15.28125 5.753906 -15.4375 6.921875 -15.21875 C 8.097656 -15 9.085938 -14.503906 9.890625 -13.734375 C 10.691406 -12.960938 11.289062 -12.007812 11.6875 -10.875 C 12.101562 -9.71875 12.242188 -8.582031 12.109375 -7.46875 C 11.972656 -6.363281 11.515625 -5.359375 10.734375 -4.453125 C 9.960938 -3.554688 8.832031 -2.84375 7.34375 -2.3125 C 5.84375 -1.78125 4.503906 -1.617188 3.328125 -1.828125 C 2.160156 -2.046875 1.171875 -2.539062 0.359375 -3.3125 C -0.453125 -4.09375 -1.066406 -5.0625 -1.484375 -6.21875 C -1.878906 -7.351562 -2.003906 -8.472656 -1.859375 -9.578125 C -1.710938 -10.679688 -1.25 -11.6875 -0.46875 -12.59375 C 0.300781 -13.5 1.4375 -14.21875 2.9375 -14.75 Z M 2.9375 -14.75 "/>
        </g>
      </g>
    </g>
    <g fill="#26589b" fill-opacity="1" transform="matrix(1, 0, 0, 1, -99.938869, -90.394862)">
      <g transform="translate(226.451134, 262.652847)">
        <g>
          <path d="M -6.109375 -11.078125 L 4.328125 -17.25 L 6.625 -13.375 L 4.109375 -11.890625 L 3.234375 -13.046875 L 2.34375 -12.5625 L 5.671875 -6.9375 L 6.453125 -7.390625 L 8.015625 -4.734375 L 3.046875 -1.796875 L 1.484375 -4.453125 L 2.265625 -4.90625 L -1.0625 -10.53125 L -1.921875 -9.984375 L -1.328125 -8.671875 L -3.8125 -7.203125 Z M -6.109375 -11.078125 "/>
        </g>
      </g>
    </g>
    <g fill="#26589b" fill-opacity="1" transform="matrix(1, 0, 0, 1, -99.938869, -90.394862)">
      <g transform="translate(239.773792, 254.582866)">
        <g>
          <path d="M -4.34375 -13.046875 L -1.375 -15.65625 L 7.984375 -11.140625 L 8.6875 -11.75 L 10.71875 -9.4375 L 6.109375 -5.375 L 4.078125 -7.6875 L 4.875 -8.390625 L 3.875 -9 L 1.59375 -6.984375 L 2.078125 -5.9375 L 2.84375 -6.609375 L 4.875 -4.296875 L 0.28125 -0.25 L -1.75 -2.5625 L -1.0625 -3.171875 Z M 0.453125 -9.5625 L 1.46875 -10.453125 L -0.46875 -11.640625 Z M 0.453125 -9.5625 "/>
        </g>
      </g>
    </g>
    <g fill="#26589b" fill-opacity="1" transform="matrix(1, 0, 0, 1, -99.938869, -90.394862)">
      <g transform="translate(252.548857, 242.862946)">
        <g>
          <path d="M 3.65625 -4.703125 L 0.234375 -0.296875 L -2.203125 -2.1875 L -1.65625 -2.890625 L -6.78125 -6.875 L -7.328125 -6.171875 L -9.75 -8.0625 L -5.375 -13.703125 C -4.925781 -14.265625 -4.410156 -14.6875 -3.828125 -14.96875 C -3.242188 -15.257812 -2.625 -15.375 -1.96875 -15.3125 C -1.320312 -15.25 -0.6875 -14.976562 -0.0625 -14.5 C 0.550781 -14.019531 0.96875 -13.472656 1.1875 -12.859375 C 1.414062 -12.242188 1.46875 -11.613281 1.34375 -10.96875 L 4.40625 -10.6875 L 5.125 -11.609375 L 7.5625 -9.71875 L 5.34375 -6.875 L -0.703125 -7.625 L -0.90625 -7.34375 L 0.78125 -6.015625 L 1.21875 -6.59375 Z M -2.625 -8.671875 L -1.953125 -9.546875 C -1.753906 -9.796875 -1.679688 -10.066406 -1.734375 -10.359375 C -1.796875 -10.648438 -1.941406 -10.890625 -2.171875 -11.078125 C -2.398438 -11.242188 -2.65625 -11.320312 -2.9375 -11.3125 C -3.21875 -11.300781 -3.460938 -11.15625 -3.671875 -10.875 L -4.34375 -10 Z M -2.625 -8.671875 "/>
        </g>
      </g>
    </g>
    <g fill="#26589b" fill-opacity="1" transform="matrix(1, 0, 0, 1, -99.938869, -90.394862)">
      <g transform="translate(261.856147, 230.629163)">
        <g>
          <path d="M -1.53125 -6.75 L -7.9375 -5.515625 L -8.359375 -4.6875 L -11.09375 -6.09375 L -8.296875 -11.546875 L -5.5625 -10.140625 L -6.03125 -9.234375 L -3.078125 -9.828125 L -4.328125 -12.546875 L -4.8125 -11.609375 L -7.546875 -13.015625 L -4.75 -18.46875 L -2.015625 -17.0625 L -2.453125 -16.234375 L 0.296875 -10.296875 L 1.515625 -9.6875 L 1.921875 -10.5 L 4.65625 -9.09375 L 2.015625 -3.953125 L -0.71875 -5.359375 L -0.3125 -6.140625 Z M -1.53125 -6.75 "/>
        </g>
      </g>
    </g>
    <g clip-path="url(#469d978a65)" transform="matrix(0.72452, 0, 0, 0.744276, -67.376391, -42.071798)">
      <g clip-path="url(#296eff68bd)">
        <path fill="#26589b" d="M 101.875 181.148438 L 114.574219 181.148438 L 114.574219 193.851562 L 101.875 193.851562 Z M 101.875 181.148438 " fill-opacity="1" fill-rule="nonzero"/>
      </g>
    </g>
  </g>
  <path fill-rule="evenodd" d="M 155.188 101.032 C 154.439 102.157 153.858 103.633 152.641 104.267 C 150.246 105.514 147.932 100.307 147.786 99.291 C 148.719 96.878 151.505 96.122 152.376 96.847 C 155.831 97.412 155.188 100.307 155.188 101.032 Z M 139.514 131.944 C 134.316 138.821 121.558 142.691 108.166 141.086 C 104.531 140.651 99.334 140.321 95.975 141.522 C 86.161 145.031 73.187 157.643 58.097 151.1 C 48.634 146.998 47.964 137.798 42.423 129.766 C 34.753 118.651 16.884 117.225 23.702 91.454 C 26.24 81.858 35.58 77.093 39.811 68.814 C 44.733 59.181 45.533 46.789 55.049 41.822 C 68.558 34.772 90.863 44.676 105.118 38.339 C 124.82 38.059 123.184 50.214 133.854 57.931 C 139.833 62.255 148.201 64.272 149.964 72.734 C 152.105 83.016 146.565 91.153 145.174 99.727 C 143.076 112.656 145.637 123.842 139.514 131.944 Z M 113.826 128.025 C 128.767 125.328 128.974 102.837 111.342 103.325 C 108.625 103.53 103.873 105.722 102.071 108.434 C 96.47 116.858 103.519 129.885 113.826 128.025 Z M 81.608 95.373 C 86.686 95.373 91.767 95.373 96.846 95.373 C 95.596 92.155 94.792 88.458 94.669 84.053 C 97.918 83.117 99.472 81.189 99.903 79.305 C 100.507 76.668 98.819 72.962 95.328 72.823 C 94.449 72.781 87.464 72.632 83.35 72.734 C 79.999 72.714 77.847 76.381 78.56 79.264 C 79.687 82.129 80.628 83.211 83.785 84.053 C 83.06 87.826 82.333 91.6 81.608 95.373 Z M 75.513 97.114 C 75.513 97.114 74.804 97.223 74.206 98.42 C 74.043 100.325 74.206 103.209 74.206 103.209 L 75.261 104.522 L 75.513 106.692 L 102.506 106.692 L 102.735 104.484 L 104.273 102.483 C 104.273 102.483 104.671 99.949 104.247 98.856 C 104.284 97.622 102.942 97.114 102.942 97.114 C 102.942 97.114 75.514 97.114 75.513 97.114 Z M 62.886 125.413 C 62.886 125.413 65.644 123.381 66.805 122.366 C 67.095 122.656 67.385 122.946 67.676 123.237 C 76.807 129.072 90.721 132.638 103.812 126.719 C 102.442 125.349 100.528 122.761 100.329 122.366 C 90.598 126.366 77.201 123.882 70.723 118.447 C 71.593 117.432 73.335 115.4 73.335 115.4 L 73.335 114.964 L 62.015 114.093 L 62.886 125.413 Z M 57.661 111.917 C 57.951 111.627 58.242 111.336 58.532 111.046 C 59.693 110.32 60.854 109.595 62.015 108.869 C 57.454 101.162 56.227 90.909 59.892 81.768 C 58.296 81.042 57.08 79.554 55.485 78.829 C 50.404 90.58 52.62 102.126 57.661 111.917 Z M 63.757 55.754 C 45.145 60.272 53.39 84.778 68.11 80.57 C 81.362 76.782 80.102 55.52 63.757 55.754 Z M 114.697 61.414 C 113.681 62.429 112.665 63.446 111.649 64.461 C 102.183 57.967 90.431 55.401 76.383 58.802 C 76.238 59.092 76.093 59.382 75.948 59.673 C 76.674 61.124 77.399 62.575 78.125 64.026 C 87.98 61.427 101.681 61.796 107.295 68.38 C 106.425 69.395 105.554 70.412 104.683 71.427 C 104.683 71.572 104.683 71.717 104.683 71.863 C 108.456 72.153 112.23 72.443 116.003 72.734 C 115.567 68.961 115.132 65.187 114.697 61.414 Z M 119.921 74.91 C 118.76 75.636 117.599 76.361 116.438 77.087 C 120.328 85.303 122.231 93.512 118.615 103.209 C 120.211 104.225 121.809 105.241 123.404 106.256 C 123.404 105.966 123.404 105.676 123.404 105.386 C 127.561 98.09 125.922 79.065 119.921 74.91 Z M 58.532 60.107 L 72.029 60.107 L 72.029 76.652 L 58.532 76.652 L 58.532 60.107 Z M 60.273 73.985 L 69.852 73.985 L 69.852 72.734 L 60.273 72.734 L 60.273 73.985 Z M 60.273 70.502 L 69.852 70.502 L 69.852 69.25 L 60.273 69.25 L 60.273 70.502 Z M 60.273 67.455 L 69.852 67.455 L 69.852 66.202 L 60.273 66.202 L 60.273 67.455 Z M 60.273 64.026 L 69.852 64.026 L 69.852 62.72 L 60.273 62.72 L 60.273 64.026 Z M 117.061 120.863 L 107.91 120.863 L 107.91 119.719 L 117.061 119.719 L 117.061 120.863 Z M 107.91 116.67 L 117.061 116.67 L 117.061 117.813 L 107.91 117.813 L 107.91 116.67 Z M 107.91 113.62 L 117.061 113.62 L 117.061 114.764 L 107.91 114.764 L 107.91 113.62 Z M 107.91 110.188 L 117.061 110.188 L 117.061 111.332 L 107.91 111.332 L 107.91 110.188 Z M 139.949 41.387 C 141.621 42.153 139.245 43.835 139.078 43.128 C 138.929 42.496 139.659 41.967 139.949 41.387" style="stroke-width: 0.381; fill: rgb(38, 88, 155);"/>
  <rect x="106.049" y="107.777" width="12.607" height="16.576" style="fill: none; stroke-width: 1.193; stroke: rgb(38, 88, 155);"/>
</svg>