<svg width="356px" height="338px" viewBox="0 0 375.287 358" xmlns="http://www.w3.org/2000/svg">
  <defs></defs>
  <path fill-rule="evenodd" fill="rgb(23, 23, 23)" d="M 365.163 194.986 C 363.198 197.937 361.674 201.806 358.482 203.469 C 352.202 206.741 346.131 193.083 345.75 190.419 C 348.197 184.091 355.504 182.106 357.788 184.009 C 366.849 185.491 365.163 193.084 365.163 194.986 Z M 324.053 276.061 C 310.42 294.099 276.959 304.249 241.834 300.041 C 232.3 298.898 218.669 298.032 209.86 301.182 C 184.12 310.386 150.091 343.465 110.511 326.304 C 85.694 315.544 83.936 291.417 69.402 270.351 C 49.286 241.198 2.417 237.457 20.298 169.865 C 26.957 144.696 51.454 132.198 62.55 110.486 C 75.462 85.22 77.559 52.715 102.518 39.689 C 137.949 21.198 196.451 47.174 233.84 30.554 C 285.514 29.817 281.222 61.7 309.208 81.939 C 324.889 93.28 346.837 98.57 351.46 120.764 C 357.078 147.733 342.547 169.073 338.898 191.561 C 333.397 225.473 340.112 254.813 324.053 276.061 Z M 256.679 265.784 C 295.865 258.711 296.41 199.72 250.163 201 C 243.037 201.538 230.575 207.287 225.847 214.399 C 211.157 236.493 229.646 270.663 256.679 265.784 Z M 172.176 180.142 C 185.497 180.142 198.822 180.142 212.144 180.142 C 208.867 171.705 206.758 162.007 206.434 150.453 C 214.957 147.998 219.032 142.941 220.163 138 C 221.746 131.083 217.32 121.365 208.163 121 C 205.856 120.888 187.536 120.498 176.744 120.764 C 167.956 120.712 162.312 130.331 164.182 137.892 C 167.137 145.407 169.608 148.243 177.886 150.453 C 175.983 160.348 174.079 170.246 172.176 180.142 Z M 156.189 184.709 C 156.189 184.709 154.333 184.995 152.763 188.135 C 152.335 193.131 152.763 200.696 152.763 200.696 L 155.532 204.139 L 156.189 209.831 L 226.989 209.831 L 227.59 204.039 L 231.623 198.792 C 231.623 198.792 232.667 192.146 231.557 189.277 C 231.652 186.042 228.131 184.709 228.131 184.709 C 228.131 184.709 156.192 184.708 156.189 184.709 Z M 123.073 258.932 C 123.073 258.932 130.305 253.603 133.35 250.939 C 134.111 251.7 134.873 252.462 135.634 253.223 C 159.586 268.53 196.079 277.883 230.415 262.358 C 226.821 258.764 221.799 251.978 221.279 250.939 C 195.756 261.433 160.62 254.916 143.628 240.662 C 145.911 237.998 150.479 232.669 150.479 232.669 L 150.479 231.527 L 120.789 229.243 L 123.073 258.932 Z M 109.369 223.534 C 110.131 222.773 110.892 222.011 111.653 221.25 C 114.698 219.347 117.744 217.444 120.789 215.541 C 108.824 195.328 105.605 168.434 115.221 144.459 C 111.034 142.556 107.846 138.653 103.66 136.75 C 90.335 167.57 96.147 197.856 109.369 223.534 Z M 125.357 76.23 C 76.541 88.079 98.167 152.355 136.776 141.318 C 171.532 131.381 168.225 75.614 125.357 76.23 Z M 258.963 91.074 C 256.299 93.738 253.634 96.403 250.969 99.068 C 226.142 82.033 195.318 75.305 158.473 84.223 C 158.092 84.984 157.711 85.746 157.331 86.507 C 159.234 90.313 161.137 94.12 163.04 97.926 C 188.889 91.11 224.823 92.076 239.55 109.345 C 237.266 112.009 234.982 114.674 232.698 117.338 C 232.698 117.718 232.698 118.099 232.698 118.48 C 242.594 119.241 252.493 120.002 262.389 120.764 C 261.247 110.868 260.105 100.97 258.963 91.074 Z M 272.666 126.473 C 269.621 128.376 266.576 130.279 263.531 132.182 C 273.732 153.732 278.722 175.264 269.24 200.696 C 273.427 203.36 277.615 206.025 281.802 208.689 C 281.802 207.928 281.802 207.167 281.802 206.405 C 292.704 187.268 288.405 137.37 272.666 126.473 Z M 111.653 87.649 L 147.053 87.649 L 147.053 131.041 L 111.653 131.041 L 111.653 87.649 Z M 116.221 124.047 L 141.344 124.047 L 141.344 120.764 L 116.221 120.764 L 116.221 124.047 Z M 116.221 114.912 L 141.344 114.912 L 141.344 111.628 L 116.221 111.628 L 116.221 114.912 Z M 116.221 106.919 L 141.344 106.919 L 141.344 103.635 L 116.221 103.635 L 116.221 106.919 Z M 116.221 97.926 L 141.344 97.926 L 141.344 94.5 L 116.221 94.5 L 116.221 97.926 Z M 265.163 247 L 241.163 247 L 241.163 244 L 265.163 244 L 265.163 247 Z M 241.163 236 L 265.163 236 L 265.163 239 L 241.163 239 L 241.163 236 Z M 241.163 228 L 265.163 228 L 265.163 231 L 241.163 231 L 241.163 228 Z M 241.163 219 L 265.163 219 L 265.163 222 L 241.163 222 L 241.163 219 Z M 325.195 38.547 C 329.579 40.557 323.348 44.967 322.911 43.115 C 322.52 41.458 324.434 40.07 325.195 38.547"/>
  <rect x="236.281" y="212.675" width="33.067" height="43.477" style="fill: none; stroke-width: 3.129; stroke: rgb(0, 0, 0);"></rect>
</svg>
