<svg viewBox="0 0 393.683 511.113" xmlns="http://www.w3.org/2000/svg">
  <defs></defs>
  <path d="M 0 0 L 261.052 0 L 393.594 125.317 L 393.594 511.113 L 0 511.113 L 0 0 Z" style="stroke: rgb(0, 0, 0); fill: rgb(247, 247, 247);"></path>
  <path class="fa-secondary" d="M 134.178 323.309 C 134.178 281.434 156.611 244.825 190.164 224.928 C 201.088 233.706 209.476 245.605 213.897 259.325 C 191.204 271.68 175.793 295.739 175.793 323.374 C 175.793 363.624 208.37 396.201 248.62 396.201 C 288.87 396.201 321.447 363.624 321.447 323.374 C 321.447 293.398 303.371 267.649 277.491 256.464 C 274.24 239.428 267.867 223.497 258.894 209.387 C 317.286 214.524 363.063 263.552 363.063 323.309 C 363.063 386.513 311.824 437.752 248.62 437.752 C 185.417 437.752 134.178 386.513 134.178 323.309 Z" style="opacity: 0.4; stroke-width: 0.65;"></path>
  <path class="fa-secondary" d="M 113.005 104.403 L 175.428 104.403 C 179.395 104.403 182.971 106.614 184.727 110.125 L 195.131 130.933 C 196.626 133.859 196.626 137.305 195.131 140.231 L 179.135 172.223 C 168.145 168.712 156.376 166.826 144.217 166.826 C 132.057 166.826 120.288 168.712 109.299 172.223 L 93.303 140.296 C 91.807 137.37 91.807 133.924 93.303 130.998 L 103.706 110.19 C 105.462 106.614 109.038 104.403 113.005 104.403 Z" style="opacity: 0.5; stroke-width: 0.65; fill: rgb(0, 168, 255);"></path>
  <path class="fa-primary" d="M 144.582 208.867 C 104.332 208.867 71.754 241.444 71.754 281.694 C 71.754 319.863 101.08 351.14 138.404 354.261 C 142.631 369.411 149.914 383.262 159.537 395.161 C 154.66 395.811 149.653 396.136 144.582 396.136 C 81.378 396.136 30.139 344.897 30.139 281.694 C 30.139 218.49 81.378 167.251 144.582 167.251 C 207.785 167.251 259.024 218.49 259.024 281.694 C 259.024 315.701 244.199 346.198 220.66 367.201 C 208.5 359.463 199.787 346.718 197.316 331.957 C 209.736 318.888 217.409 301.201 217.409 281.694 C 217.409 241.444 184.832 208.867 144.582 208.867 Z" style="stroke-width: 0.65;"></path>
  <polygon points="258.38 124.95 393.683 124.95 259.876 0.525" style="fill: rgb(209, 209, 209); stroke: rgb(0, 0, 0); stroke-width: 1.049;"></polygon>
  <rect x="262.558" y="125.182" width="130.17" height="7.316" style="stroke-width: 0.628; fill: rgba(0, 0, 0, 0.427);"></rect>
</svg>
